#N struct 1308-symarray float x array symbols 1308-sym;
#N struct 1308-sym symbol name float on;
#N canvas 91 22 1120 715 10;
#X declare -path .;
#X declare -path rj;
#X declare -path utils;
#X declare -path sounds;
#X declare -path abs;
#X declare -path pd;
#N canvas 515 156 477 236 init 0;
#N canvas 0 22 588 274 LICENSE 0;
#X text 79 84 (c) 2008 Reality Jockey;
#X text 57 36 Released under the GNU General Public License ver. 3
or later. See the file LICENSE.txt for the full text.;
#X restore -47 41 pd LICENSE;
#X obj 89 19 declare -path .;
#X obj 89 46 declare -path rj;
#X obj 89 73 declare -path utils;
#X obj 89 99 declare -path sounds;
#X obj -47 112 loadbang;
#X msg -47 136 \; pd dsp 1;
#X obj 89 129 declare -path abs;
#X obj 89 159 declare -path pd;
#X restore 42 7 pd init;
#N canvas 203 23 817 509 io 1;
#X obj 43 42 catch~ LEFT;
#X obj 138 42 catch~ RIGHT;
#X obj 604 64 e_agc;
#X obj 98 136 catch~ C;
#X obj 604 106 lop~ 4000;
#X obj 525 447 throw~ C;
#X obj 604 85 *~ 0.9;
#X obj 589 447 throw~ REVERB;
#X obj 604 2 adc~;
#X obj 622 329 lop~ 0.5;
#X msg 622 260 0 0.5;
#X obj 622 308 unpack f f;
#X obj 622 184 sel 0;
#X obj 654 212 t b b;
#X obj 674 260 del 2500;
#X msg 674 237 stop;
#X obj 61 75 catch~ FX-RETURN-L;
#X obj 147 96 catch~ FX-RETURN-R;
#X msg 674 282 1 0.1;
#X obj 61 229 *~ 1.5;
#X obj 147 229 *~ 1.5;
#X obj 589 428 *~ 0.5;
#X obj 525 423 *~ 0.1;
#X obj 61 194 e_mcompressor-stereo 65 2;
#X obj 43 400 dac~ 1;
#X obj 138 400 dac~ 2;
#X obj 138 379 *~ 1;
#X obj 43 379 *~ 1;
#X obj 622 136 r MIC;
#X obj 604 359 *~;
#X msg 643 379 set \$1;
#X obj 604 407 throw~ FX;
#X obj 622 161 unpack f s;
#X obj 604 39 *~;
#X obj 648 6 r mic-on/off;
#X connect 0 0 27 0;
#X connect 1 0 26 0;
#X connect 2 0 6 0;
#X connect 3 0 23 1;
#X connect 3 0 23 0;
#X connect 4 0 29 0;
#X connect 6 0 4 0;
#X connect 8 0 33 0;
#X connect 8 1 33 0;
#X connect 9 0 29 1;
#X connect 10 0 11 0;
#X connect 11 0 9 0;
#X connect 11 1 9 1;
#X connect 12 0 10 0;
#X connect 12 0 15 0;
#X connect 12 1 13 0;
#X connect 13 0 10 0;
#X connect 13 1 14 0;
#X connect 14 0 18 0;
#X connect 15 0 14 0;
#X connect 16 0 23 0;
#X connect 17 0 23 1;
#X connect 18 0 11 0;
#X connect 19 0 27 0;
#X connect 20 0 26 0;
#X connect 21 0 7 0;
#X connect 22 0 5 0;
#X connect 22 0 21 0;
#X connect 23 0 19 0;
#X connect 23 1 20 0;
#X connect 26 0 25 0;
#X connect 27 0 24 0;
#X connect 28 0 32 0;
#X connect 29 0 31 0;
#X connect 29 0 22 0;
#X connect 30 0 31 0;
#X connect 32 0 12 0;
#X connect 32 1 30 0;
#X connect 33 0 2 0;
#X connect 34 0 33 1;
#X restore 42 28 pd io sys;
#N canvas 331 38 300 440 timebase 0;
#X obj 18 36 tgl 15 0 empty empty empty 17 7 0 10 -262144 -1 -1 1 1
;
#X obj 18 15 loadbang;
#X obj 18 78 f;
#X obj 52 78 + 1;
#X obj 18 57 metro 72.11;
#X obj 18 421 s tick;
#X obj 18 378 list prepend;
#X obj 59 358 list split 1;
#X obj 59 337 r MIC;
#X obj 18 399 list trim;
#X obj 18 120 t f f;
#X obj 50 146 s loop-tick;
#X obj 91 224 list split 1;
#X obj 91 203 r Sample-FX;
#X obj 50 250 list prepend;
#X obj 50 271 list trim;
#X obj 50 293 s sample-fx-tick;
#X obj 18 225 t f f;
#X connect 0 0 4 0;
#X connect 1 0 0 0;
#X connect 2 0 3 0;
#X connect 2 0 10 0;
#X connect 3 0 2 1;
#X connect 4 0 2 0;
#X connect 6 0 9 0;
#X connect 7 1 6 1;
#X connect 8 0 7 0;
#X connect 9 0 5 0;
#X connect 10 0 17 0;
#X connect 10 1 11 0;
#X connect 12 1 14 1;
#X connect 13 0 12 0;
#X connect 14 0 15 0;
#X connect 15 0 16 0;
#X connect 17 0 6 0;
#X connect 17 1 14 0;
#X restore 42 49 pd timebase;
#X text 40 76 Loops;
#N canvas 0 22 628 452 delay 0;
#X obj 250 58 catch~ DELAY;
#X obj 232 373 throw~ REVERB;
#X obj 93 172 bp~ 5400 2;
#X obj 368 175 bp~ 5400 2;
#X obj 93 149 *~ 0.4;
#X obj 368 152 *~ 0.4;
#X obj 452 41 m_bpm2ms;
#X floatatom 452 83 7 0 0 0 - - -;
#X msg 450 8 88;
#X obj 93 208 delwrite~ \$0-dubby-l 341;
#X obj 93 232 delread~ \$0-dubby-l 341;
#X obj 368 208 delwrite~ \$0-dubby-r 228;
#X obj 366 239 delread~ \$0-dubby-r 227;
#X obj 452 62 / 3;
#X obj 366 325 throw~ FX-RETURN-R;
#X obj 93 324 throw~ FX-RETURN-L;
#X obj 232 354 *~ 0.5;
#X connect 0 0 4 0;
#X connect 0 0 5 0;
#X connect 2 0 9 0;
#X connect 3 0 11 0;
#X connect 4 0 2 0;
#X connect 5 0 3 0;
#X connect 6 0 13 0;
#X connect 8 0 6 0;
#X connect 10 0 5 0;
#X connect 10 0 15 0;
#X connect 10 0 16 0;
#X connect 12 0 4 0;
#X connect 12 0 14 0;
#X connect 12 0 16 0;
#X connect 13 0 7 0;
#X connect 16 0 1 0;
#X restore 42 622 pd delay;
#N canvas 0 22 588 336 reverb 0;
#X obj 206 124 loadbang;
#X obj 118 49 catch~ REVERB;
#X obj 118 70 hip~ 500;
#X msg 206 144 amp 95 \, hall 93 \, freq 3000 \, damp 60 \, dry 0;
#X obj 118 174 e_reverb main;
#X obj 206 256 throw~ FX-RETURN-R;
#X obj 118 236 throw~ FX-RETURN-L;
#X connect 0 0 3 0;
#X connect 1 0 2 0;
#X connect 2 0 4 0;
#X connect 3 0 4 1;
#X connect 4 0 6 0;
#X connect 4 1 5 0;
#X restore 42 601 pd reverb;
#N canvas 0 22 450 300 chorus 0;
#X obj 119 130 e_chorus;
#X obj 119 98 catch~ CHORUS;
#X obj 136 237 throw~ REVERB;
#X obj 172 216 throw~ FX-RETURN-R;
#X obj 119 191 throw~ FX-RETURN-L;
#X connect 0 0 2 0;
#X connect 0 0 4 0;
#X connect 0 1 2 0;
#X connect 0 1 3 0;
#X connect 1 0 0 0;
#X restore 42 642 pd chorus;
#X text 42 146 Mic FX;
#X text 42 580 Main FX;
#N canvas 104 23 525 709 octaver 0;
#X obj 314 478 delread~ \$0-a 200;
#X obj 210 463 e_pitchshift;
#X obj 314 457 delwrite~ \$0-a 200;
#X obj 169 310 catch~ octaver;
#X msg 187 85 1;
#X msg 222 85 0;
#X msg 291 428 pitch \$1;
#X obj 291 350 int;
#X obj 291 329 - 12;
#X obj 291 308 * 15;
#X obj 342 97 r tick;
#X obj 381 384 == 3;
#X obj 342 404 spigot;
#X obj 342 158 mod 256;
#X obj 342 179 sel 0;
#X msg 361 259 -3;
#X msg 342 241 -6;
#X msg 373 241 -1;
#X obj 342 221 sel 0 1 2 3 4 5;
#X obj 342 309 line;
#X obj 342 330 int;
#X obj 342 288 pack f 1500;
#X obj 169 573 e_pan;
#X obj 223 546 r panvalue;
#X obj 187 258 line;
#X obj 187 237 pack f 5000;
#X obj 187 108 t f f;
#X obj 169 331 *~;
#X obj 187 279 t f f;
#X obj 303 659 throw~ REVERB;
#X obj 147 41 list split 1;
#X obj 187 60 sel octaver;
#X obj 169 603 throw~ FX-RETURN-L;
#X obj 201 622 throw~ FX-RETURN-R;
#X obj 210 502 *~ 0.8;
#X msg 422 259 6;
#X msg 405 241 3;
#X msg 393 259 1;
#X obj 210 483 lop~ 5000;
#X obj 342 200 random 6;
#X obj 169 527 *~ 0.65;
#X obj 303 641 *~ 0.45;
#X obj 147 20 r MIC;
#X obj 342 137 route octaver;
#X obj 219 191 pipe 5000;
#X msg 228 171 clear;
#X obj 196 151 t f b;
#X obj 219 211 switch~;
#X obj 219 130 moses 1;
#X obj 33 112 list split 1;
#X obj 33 91 r Sample-FX;
#X obj 73 178 spigot;
#X obj 112 138 swap 1;
#X obj 112 159 -;
#X msg 73 224 1;
#X msg 108 224 0;
#X obj 73 199 sel octaver;
#X obj 359 76 r sample-fx-tick;
#X obj 169 552 *~ 1.5;
#X connect 0 0 1 0;
#X connect 1 0 38 0;
#X connect 3 0 27 0;
#X connect 4 0 26 0;
#X connect 4 0 52 0;
#X connect 5 0 26 0;
#X connect 5 0 52 0;
#X connect 6 0 1 1;
#X connect 7 0 6 0;
#X connect 7 0 11 0;
#X connect 8 0 7 0;
#X connect 9 0 8 0;
#X connect 10 0 43 0;
#X connect 11 0 12 1;
#X connect 12 0 6 0;
#X connect 13 0 14 0;
#X connect 14 0 39 0;
#X connect 15 0 21 0;
#X connect 16 0 21 0;
#X connect 17 0 21 0;
#X connect 18 0 16 0;
#X connect 18 1 15 0;
#X connect 18 2 17 0;
#X connect 18 3 37 0;
#X connect 18 4 36 0;
#X connect 18 5 35 0;
#X connect 19 0 20 0;
#X connect 20 0 12 0;
#X connect 21 0 19 0;
#X connect 22 0 32 0;
#X connect 22 1 33 0;
#X connect 23 0 22 1;
#X connect 24 0 28 0;
#X connect 25 0 24 0;
#X connect 26 0 25 0;
#X connect 26 1 48 0;
#X connect 27 0 2 0;
#X connect 27 0 40 0;
#X connect 28 0 27 1;
#X connect 28 1 9 0;
#X connect 30 1 31 0;
#X connect 31 0 4 0;
#X connect 31 1 5 0;
#X connect 34 0 2 0;
#X connect 34 0 58 0;
#X connect 35 0 21 0;
#X connect 36 0 21 0;
#X connect 37 0 21 0;
#X connect 38 0 34 0;
#X connect 39 0 18 0;
#X connect 40 0 58 0;
#X connect 41 0 29 0;
#X connect 42 0 30 0;
#X connect 43 0 13 0;
#X connect 44 0 47 0;
#X connect 45 0 44 0;
#X connect 46 0 47 0;
#X connect 46 1 45 0;
#X connect 48 0 44 0;
#X connect 48 1 46 0;
#X connect 49 1 51 0;
#X connect 50 0 49 0;
#X connect 51 0 56 0;
#X connect 52 0 53 0;
#X connect 52 1 53 1;
#X connect 53 0 51 1;
#X connect 54 0 26 0;
#X connect 55 0 26 0;
#X connect 56 0 54 0;
#X connect 56 1 55 0;
#X connect 57 0 43 0;
#X connect 58 0 22 0;
#X connect 58 0 41 0;
#X restore 43 185 pd octaver;
#N canvas 310 212 941 588 panvalue 0;
#X obj 68 126 metro;
#X obj 68 74 tgl 15 0 empty empty empty 17 7 0 10 -262144 -1 -1 1 1
;
#X obj 225 321 line;
#X obj 21 242 * 1;
#X obj 71 241 * 0.4;
#X obj 121 241 * 0.6;
#X obj 171 241 * 0.8;
#X obj 68 4 loadbang;
#X obj 21 219 t b f;
#X obj 71 219 t b f;
#X obj 121 219 t b f;
#X obj 171 219 t b f;
#X obj 222 219 t b f;
#X obj 272 219 t b f;
#X obj 322 219 t b f;
#X obj 372 219 t b f;
#X obj 222 242 * 0.2;
#X obj 272 241 * 0.1;
#X obj 322 241 * 0.3;
#X obj 372 241 * 0.5;
#X obj 68 170 select 0 1 2 3 4 5 6 7;
#X obj 68 148 random 6;
#X msg 21 268 \$1 200;
#X msg 71 268 \$1 200;
#X msg 121 268 \$1 200;
#X msg 171 268 \$1 200;
#X msg 222 268 \$1 200;
#X msg 272 267 \$1 200;
#X msg 322 267 \$1 200;
#X msg 372 267 \$1 200;
#X obj 100 98 t b f;
#X obj 225 407 m_scale 0 1 0 1;
#X obj 306 380 m_scale 0 1 1 0;
#X obj 286 355 m_scale 0 1 0.5 0;
#X obj 100 70 m_scale 0 1 500 5;
#X msg 231 170 1;
#X obj 231 146 loadbang;
#X obj 286 313 loadbang;
#X msg 286 334 0.5;
#X text 318 335 Width;
#X obj 100 24 loadbang;
#X msg 100 45 0.65;
#X text 138 46 Pan;
#X obj 225 436 s panvalue;
#X connect 0 0 21 0;
#X connect 1 0 0 0;
#X connect 2 0 31 0;
#X connect 3 0 22 0;
#X connect 4 0 23 0;
#X connect 5 0 24 0;
#X connect 6 0 25 0;
#X connect 7 0 1 0;
#X connect 8 0 3 0;
#X connect 8 1 22 0;
#X connect 9 0 4 0;
#X connect 9 1 23 0;
#X connect 10 0 5 0;
#X connect 10 1 24 0;
#X connect 11 0 6 0;
#X connect 11 1 25 0;
#X connect 12 0 16 0;
#X connect 12 1 26 0;
#X connect 13 0 17 0;
#X connect 13 1 27 0;
#X connect 14 0 18 0;
#X connect 14 1 28 0;
#X connect 15 0 19 0;
#X connect 15 1 29 0;
#X connect 16 0 26 0;
#X connect 17 0 27 0;
#X connect 18 0 28 0;
#X connect 19 0 29 0;
#X connect 20 0 8 0;
#X connect 20 1 9 0;
#X connect 20 2 10 0;
#X connect 20 3 11 0;
#X connect 20 4 12 0;
#X connect 20 5 13 0;
#X connect 20 6 14 0;
#X connect 20 7 15 0;
#X connect 21 0 20 0;
#X connect 22 0 2 0;
#X connect 23 0 2 0;
#X connect 24 0 2 0;
#X connect 25 0 2 0;
#X connect 26 0 2 0;
#X connect 27 0 2 0;
#X connect 28 0 2 0;
#X connect 29 0 2 0;
#X connect 30 0 0 0;
#X connect 30 1 0 1;
#X connect 31 0 43 0;
#X connect 32 0 31 4;
#X connect 33 0 32 0;
#X connect 33 0 31 3;
#X connect 34 0 30 0;
#X connect 35 0 3 0;
#X connect 35 0 4 0;
#X connect 35 0 5 0;
#X connect 35 0 6 0;
#X connect 35 0 16 0;
#X connect 35 0 17 0;
#X connect 35 0 18 0;
#X connect 35 0 19 0;
#X connect 36 0 35 0;
#X connect 37 0 38 0;
#X connect 38 0 33 0;
#X connect 40 0 41 0;
#X connect 41 0 34 0;
#X restore 41 686 pd panvalue;
#X text 42 665 Utilities;
#N canvas 0 22 738 720 granular 0;
#X obj 242 642 delwrite~ b1 5000;
#X obj 48 480 vd~ b1;
#X obj 47 335 phasor~;
#X obj 48 375 *~ -1;
#X obj 48 397 +~ 1;
#X obj 137 430 sig~ 1;
#X obj 155 411 cos~;
#X obj 137 452 -~;
#X obj 137 472 *~ 0.5;
#X obj 48 502 *~;
#X obj 66 439 samphold~;
#X obj 48 459 *~;
#X obj 242 528 vd~ b1;
#X obj 242 421 *~ -1;
#X obj 242 444 +~ 1;
#X obj 334 470 sig~ 1;
#X obj 352 450 cos~;
#X obj 334 491 -~;
#X obj 334 512 *~ 0.5;
#X obj 242 558 *~;
#X obj 260 485 samphold~;
#X obj 242 506 *~;
#X obj 242 374 +~ 0.5;
#X obj 242 396 wrap~;
#X obj 48 591 *~ 1;
#X msg 47 197 2;
#X obj 47 225 pow;
#X obj 47 165 t b f;
#X obj 79 197 / 12;
#X obj 47 246 - 1;
#X obj 47 314 *;
#X obj 80 226 t b f;
#X obj 80 269 /;
#X obj 57 291 t b f;
#X obj 66 420 sig~;
#X obj 260 466 sig~;
#X obj 47 34 a_onset 128 20;
#X obj 47 142 line;
#X msg 47 121 \$1 1500;
#X obj 138 673 throw~ REVERB;
#X obj 137 185 line;
#X msg 137 164 \$1 1500;
#X obj 48 645 e_pan;
#X obj 242 588 *~ 0.85;
#X obj 442 474 *~;
#X obj 137 119 random 29650;
#X obj 137 140 + 350;
#X obj 47 76 random 12;
#X obj 47 97 - 6;
#X obj 47 55 t b b;
#X obj 48 612 lop~ 3000;
#X msg 460 192 1;
#X msg 495 192 0;
#X obj 460 219 t f f;
#X obj 47 9 r~ granular;
#X obj 442 507 s~ granular;
#X obj 80 558 r panvalue;
#X obj 442 453 catch~ granular;
#X obj 80 248 samplerate~;
#X obj 460 422 line;
#X obj 460 401 pack f 5000;
#X obj 492 241 sel 1 0;
#X msg 492 262 1;
#X msg 523 262 0;
#X obj 523 330 pipe 5000;
#X msg 513 307 clear;
#X obj 492 283 t f b;
#X obj 492 355 t f f;
#X obj 492 379 switch~;
#X obj 420 140 list split 1;
#X obj 460 161 sel granular;
#X obj 138 647 *~ 0.5;
#X obj 48 713 throw~ FX-RETURN-L;
#X obj 138 693 throw~ FX-RETURN-R;
#X obj 242 614 nofeedback;
#X obj 174 26 loadbang;
#X obj 137 321 / 44.1;
#X obj 420 119 r MIC;
#X obj 318 206 list split 1;
#X obj 318 185 r Sample-FX;
#X obj 358 272 spigot;
#X obj 397 232 swap 1;
#X obj 397 253 -;
#X msg 358 320 1;
#X msg 393 320 0;
#X obj 358 295 sel granular;
#X connect 1 0 9 0;
#X connect 2 0 3 0;
#X connect 2 0 6 0;
#X connect 2 0 10 1;
#X connect 2 0 22 0;
#X connect 3 0 4 0;
#X connect 4 0 11 0;
#X connect 5 0 7 0;
#X connect 6 0 7 1;
#X connect 7 0 8 0;
#X connect 8 0 9 1;
#X connect 9 0 24 0;
#X connect 9 0 43 0;
#X connect 10 0 11 1;
#X connect 11 0 1 0;
#X connect 12 0 19 0;
#X connect 13 0 14 0;
#X connect 14 0 21 0;
#X connect 15 0 17 0;
#X connect 16 0 17 1;
#X connect 17 0 18 0;
#X connect 18 0 19 1;
#X connect 19 0 24 0;
#X connect 19 0 43 0;
#X connect 20 0 21 1;
#X connect 21 0 12 0;
#X connect 22 0 23 0;
#X connect 23 0 13 0;
#X connect 23 0 20 1;
#X connect 23 0 16 0;
#X connect 24 0 50 0;
#X connect 25 0 26 0;
#X connect 26 0 29 0;
#X connect 27 0 25 0;
#X connect 27 1 28 0;
#X connect 28 0 26 1;
#X connect 29 0 30 0;
#X connect 30 0 2 0;
#X connect 31 0 58 0;
#X connect 31 1 32 1;
#X connect 32 0 33 0;
#X connect 33 0 30 0;
#X connect 33 1 30 1;
#X connect 34 0 10 0;
#X connect 35 0 20 0;
#X connect 36 0 49 0;
#X connect 37 0 27 0;
#X connect 38 0 37 0;
#X connect 40 0 31 0;
#X connect 40 0 76 0;
#X connect 41 0 40 0;
#X connect 42 0 72 0;
#X connect 42 1 73 0;
#X connect 43 0 74 0;
#X connect 44 0 0 0;
#X connect 44 0 55 0;
#X connect 45 0 46 0;
#X connect 46 0 41 0;
#X connect 47 0 48 0;
#X connect 48 0 38 0;
#X connect 49 0 47 0;
#X connect 49 1 45 0;
#X connect 50 0 42 0;
#X connect 50 0 71 0;
#X connect 51 0 53 0;
#X connect 51 0 81 0;
#X connect 52 0 53 0;
#X connect 52 0 81 0;
#X connect 53 0 60 0;
#X connect 53 1 61 0;
#X connect 54 0 36 0;
#X connect 56 0 42 1;
#X connect 57 0 44 0;
#X connect 58 0 32 0;
#X connect 59 0 44 1;
#X connect 60 0 59 0;
#X connect 61 0 62 0;
#X connect 61 1 63 0;
#X connect 62 0 66 0;
#X connect 63 0 64 0;
#X connect 64 0 67 0;
#X connect 65 0 64 0;
#X connect 66 0 67 0;
#X connect 66 1 65 0;
#X connect 67 0 68 0;
#X connect 69 1 70 0;
#X connect 70 0 51 0;
#X connect 70 1 52 0;
#X connect 71 0 39 0;
#X connect 74 0 0 0;
#X connect 75 0 49 0;
#X connect 76 0 34 0;
#X connect 76 0 35 0;
#X connect 77 0 69 0;
#X connect 78 1 80 0;
#X connect 79 0 78 0;
#X connect 80 0 85 0;
#X connect 81 0 82 0;
#X connect 81 1 82 1;
#X connect 82 0 80 1;
#X connect 83 0 53 0;
#X connect 84 0 53 0;
#X connect 85 0 83 0;
#X connect 85 1 84 0;
#X restore 43 248 pd granular;
#X text 358 609 To Do:;
#X obj 842 673 catch~ reverse;
#X obj 191 63 r button;
#X obj 191 105 f;
#X obj 219 105 + 1;
#X obj 932 262 print sampleAndEffectInfo;
#X obj 248 105 r sampleToSwitch;
#X obj 248 129 int;
#X obj 842 652 catch~ FX;
#X text 455 33 ON;
#X obj 191 126 mod 10;
#N canvas 504 22 733 660 loop-playback 0;
#X obj 585 52 moses 1;
#X obj 585 161 switch~;
#X obj 96 598 throw~ LEFT;
#X obj 140 618 throw~ RIGHT;
#X obj 96 41 r PPC;
#X obj 585 11 r PPC;
#X obj 96 109 t f f f;
#X obj 158 515 lop~ 0.5;
#X obj 585 138 pipe 3700;
#X msg 613 102 clear;
#X obj 597 82 t f b;
#X obj 96 134 sel 1;
#X msg 109 157 stop;
#X msg 158 448 0 0.5;
#X obj 158 494 unpack f f;
#X msg 210 468 1 0.2;
#X obj 158 384 sel 0;
#X obj 140 575 *~;
#X obj 96 575 *~;
#X obj 190 406 t b b;
#X msg 210 427 stop;
#X obj 96 180 del 2500;
#X text 258 422 Fades between samples;
#X obj 585 32 unpack f;
#X obj 96 72 unpack f s s;
#N canvas 127 53 522 450 loop-player-main 0;
#X obj 96 158 symbol s;
#X obj 96 206 s_fplaytable2;
#X msg 96 180 \$1;
#X obj 184 226 spigot 0;
#X obj 96 285 outlet~;
#X obj 140 306 outlet~;
#X obj 260 112 inlet symbol;
#X obj 177 112 inlet loop;
#X obj 96 112 inlet play;
#X obj 184 247 s loop-bang;
#X connect 0 0 2 0;
#X connect 1 0 4 0;
#X connect 1 1 5 0;
#X connect 1 2 3 0;
#X connect 2 0 1 0;
#X connect 3 0 9 0;
#X connect 6 0 0 1;
#X connect 7 0 3 1;
#X connect 8 0 0 0;
#X restore 54 237 pd loop-player-main;
#N canvas 150 32 958 606 loop-player-other 0;
#X obj 98 100 symbol s;
#X obj 186 200 s_fplaytable2;
#X obj 186 319 outlet~;
#X obj 230 340 outlet~;
#X obj 187 74 inlet symbol;
#X obj 98 74 inlet play;
#X obj 98 150 route PPC-off;
#X obj 98 124 list trim;
#X obj 186 299 *~;
#X obj 230 299 *~;
#X obj 248 274 lop~;
#X obj 248 253 unpack f f;
#X msg 248 232 1 2;
#N canvas 473 338 450 300 count 0;
#X obj 131 154 f 0;
#X obj 156 153 + 1;
#X msg 147 133 0;
#X obj 131 183 outlet;
#X obj 131 59 inlet;
#X obj 131 96 b;
#X obj 178 61 inlet;
#X obj 178 98 b;
#X connect 0 0 1 0;
#X connect 0 0 3 0;
#X connect 1 0 0 1;
#X connect 2 0 0 1;
#X connect 4 0 5 0;
#X connect 5 0 0 0;
#X connect 6 0 7 0;
#X connect 7 0 2 0;
#X restore 532 254 pd count;
#X obj 451 229 t a b;
#X obj 451 278 list prepend;
#X msg 375 278 reset;
#X obj 451 86 bng 15 250 50 0 empty empty empty 17 7 0 10 -262144 -1
-1;
#X obj 451 109 t b b b;
#X obj 363 303 m_symbolarray;
#X msg 451 134 d-delay \, octaver \, uplifts \, helicopter \, metallic
\, spacewobble \, phasemod \, butterflies \, rhythmic \, granular \,
spacecho \, robotvoice \, contact \, cutter;
#X obj 474 86 loadbang;
#X symbolatom 363 322 10 0 0 0 - - -;
#X obj 363 215 random;
#X msg 271 452 set \$1;
#X obj 98 376 pipe 5000;
#X msg 107 356 clear;
#X obj 75 336 t f b;
#X obj 98 396 switch~;
#X obj 98 315 moses 1;
#X obj 98 292 unpack f;
#X obj 395 539 pack f s;
#X obj 395 439 t b a b;
#X msg 447 512 symbol FX;
#X msg 395 459 1;
#X msg 402 512 0;
#X obj 415 487 t b b;
#X obj 271 379 t a b;
#X msg 281 424 symbol FX;
#X obj 363 91 sel 0;
#X obj 363 133 sel 0;
#X obj 363 48 spigot 0;
#X obj 416 29 unpack f;
#X obj 186 174 t a b;
#X obj 355 371 r MIC;
#X obj 355 392 list split 1;
#X obj 363 416 sel s;
#X obj 264 500 throw~ FX;
#X obj 363 0 r loop-tick;
#X obj 206 462 *~ 2;
#X obj 206 441 hip~ 700;
#X obj 363 112 random 4;
#X obj 363 70 mod 128;
#X obj 441 458 del 3000;
#X obj 281 404 del 8000;
#X msg 395 564 \; Sample-FX \$1 \$2 \;;
#X obj 363 339 t a a;
#X text 736 391 Octaver doesn't work;
#X text 736 408 May not be suitable for Drums;
#X msg 98 194 0 2;
#X connect 0 0 7 0;
#X connect 1 0 8 0;
#X connect 1 1 9 0;
#X connect 4 0 0 1;
#X connect 5 0 0 0;
#X connect 6 0 59 0;
#X connect 6 1 43 0;
#X connect 7 0 6 0;
#X connect 8 0 2 0;
#X connect 8 0 50 0;
#X connect 9 0 3 0;
#X connect 9 0 50 0;
#X connect 10 0 9 1;
#X connect 10 0 8 1;
#X connect 11 0 10 0;
#X connect 11 1 10 1;
#X connect 12 0 11 0;
#X connect 12 0 30 0;
#X connect 12 0 42 0;
#X connect 13 0 15 1;
#X connect 13 0 23 1;
#X connect 14 0 15 0;
#X connect 14 1 13 0;
#X connect 15 0 19 1;
#X connect 16 0 19 0;
#X connect 17 0 18 0;
#X connect 18 0 20 0;
#X connect 18 1 16 0;
#X connect 18 2 13 1;
#X connect 19 0 22 0;
#X connect 20 0 14 0;
#X connect 21 0 18 0;
#X connect 22 0 56 0;
#X connect 23 0 19 0;
#X connect 24 0 47 0;
#X connect 25 0 28 0;
#X connect 26 0 25 0;
#X connect 27 0 28 0;
#X connect 27 1 26 0;
#X connect 29 0 25 0;
#X connect 29 1 27 0;
#X connect 30 0 29 0;
#X connect 31 0 55 0;
#X connect 32 0 34 0;
#X connect 32 1 31 1;
#X connect 32 2 53 0;
#X connect 33 0 31 1;
#X connect 34 0 31 0;
#X connect 35 0 31 0;
#X connect 36 0 35 0;
#X connect 36 1 33 0;
#X connect 37 0 24 0;
#X connect 37 1 54 0;
#X connect 38 0 24 0;
#X connect 39 0 51 0;
#X connect 40 0 23 0;
#X connect 41 0 52 0;
#X connect 42 0 41 1;
#X connect 43 0 1 0;
#X connect 43 1 12 0;
#X connect 44 0 45 0;
#X connect 45 1 46 1;
#X connect 46 1 32 0;
#X connect 48 0 41 0;
#X connect 49 0 47 0;
#X connect 50 0 49 0;
#X connect 51 0 40 0;
#X connect 52 0 39 0;
#X connect 53 0 36 0;
#X connect 54 0 38 0;
#X connect 56 0 46 0;
#X connect 56 1 37 0;
#X connect 59 0 11 0;
#X connect 59 0 30 0;
#X connect 59 0 42 0;
#X restore 96 267 pd loop-player-other;
#X obj 96 324 *~ 1;
#X obj 140 324 *~ 1;
#X obj 54 205 r loop-bang;
#N canvas 0 22 441 614 samplebanks 0;
#X obj 17 37 loadbang;
#X obj 17 58 samplerate~;
#X msg 17 82 sr \$1;
#X obj 86 120 u_samplebank2 PPC-A PPC-A.wav;
#X obj 86 140 u_samplebank2 PPC-B PPC-B.wav;
#X obj 86 180 u_samplebank2 PPC-D PPC-D.wav;
#X obj 86 200 u_samplebank2 PPC-E PPC-E.wav;
#X obj 86 240 u_samplebank2 PPC-G PPC-G.wav;
#X obj 86 260 u_samplebank2 PPC-H PPC-H.wav;
#X obj 86 280 u_samplebank2 PPC-I PPC-I.wav;
#X obj 86 300 u_samplebank2 PPC-J PPC-J.wav;
#X obj 86 320 u_samplebank2 PPC-K PPC-K.wav;
#X obj 86 340 u_samplebank2 PPC-L PPC-L.wav;
#X obj 86 360 u_samplebank2 PPC-M PPC-M.wav;
#X obj 86 430 u_samplebank2 PPC-I-Drums PPC-I-Drums.wav;
#X obj 86 380 u_samplebank2 PPC-P PPC-P.wav;
#X obj 86 160 u_samplebank2 PPC-C PPC-C.wav;
#X obj 86 220 u_samplebank2 PPC-F PPC-F.wav;
#X obj 86 450 u_samplebank2 PPC-E-Piano PPC-E-Piano.wav;
#X obj 86 470 u_samplebank2 PPC-Breathing PPC-Breathing.wav;
#X connect 0 0 1 0;
#X connect 1 0 2 0;
#X connect 2 0 3 0;
#X connect 2 0 4 0;
#X connect 2 0 5 0;
#X connect 2 0 6 0;
#X connect 2 0 7 0;
#X connect 2 0 8 0;
#X connect 2 0 9 0;
#X connect 2 0 10 0;
#X connect 2 0 11 0;
#X connect 2 0 12 0;
#X connect 2 0 13 0;
#X connect 2 0 14 0;
#X connect 2 0 15 0;
#X connect 2 0 16 0;
#X connect 2 0 17 0;
#X connect 2 0 18 0;
#X connect 2 0 19 0;
#X restore 557 313 pd samplebanks;
#X obj 210 448 del 2900;
#X connect 0 0 8 0;
#X connect 0 1 10 0;
#X connect 4 0 24 0;
#X connect 5 0 23 0;
#X connect 6 0 11 0;
#X connect 6 1 25 1;
#X connect 6 2 16 0;
#X connect 7 0 17 1;
#X connect 7 0 18 1;
#X connect 8 0 1 0;
#X connect 9 0 8 0;
#X connect 10 0 8 0;
#X connect 10 1 9 0;
#X connect 11 0 21 0;
#X connect 11 1 12 0;
#X connect 12 0 21 0;
#X connect 13 0 14 0;
#X connect 14 0 7 0;
#X connect 14 1 7 1;
#X connect 15 0 14 0;
#X connect 16 0 13 0;
#X connect 16 0 20 0;
#X connect 16 1 19 0;
#X connect 17 0 3 0;
#X connect 18 0 2 0;
#X connect 19 0 13 0;
#X connect 19 1 31 0;
#X connect 20 0 31 0;
#X connect 21 0 25 0;
#X connect 21 0 26 0;
#X connect 23 0 0 0;
#X connect 24 0 6 0;
#X connect 24 1 25 2;
#X connect 24 2 26 1;
#X connect 25 0 27 0;
#X connect 25 1 28 0;
#X connect 26 0 27 0;
#X connect 26 1 28 0;
#X connect 27 0 18 0;
#X connect 28 0 17 0;
#X connect 29 0 25 0;
#X connect 29 0 26 0;
#X connect 31 0 15 0;
#X restore 41 95 pd loop-playback;
#N canvas 197 83 512 652 helicopter 0;
#X obj 139 373 hip~ 300;
#X obj 236 287 line;
#X msg 213 88 1;
#X msg 248 88 0;
#X obj 259 246 switch~;
#X obj 139 460 *~;
#X obj 139 306 catch~ helicopter;
#X obj 248 450 phasor~ 0.1;
#X obj 213 110 t f f f;
#X obj 248 430 *~ 20;
#X obj 213 331 sel 1 0;
#X obj 236 266 pack f 2500;
#X obj 52 219 noise~;
#X obj 259 131 sel 1 0;
#X msg 259 152 1;
#X msg 290 152 0;
#X obj 290 223 pipe 5000;
#X msg 283 201 clear;
#X obj 259 173 t f b;
#X obj 165 604 throw~ DELAY;
#X obj 52 288 *~;
#X obj 213 401 vline~;
#X msg 236 360 0 5000;
#X obj 173 43 list split 1;
#X obj 213 67 sel helicopter;
#X obj 139 500 throw~ FX-RETURN-L;
#X obj 248 520 throw~ FX-RETURN-R;
#X obj 139 479 e_circlepanCheap;
#N canvas 0 22 628 452 delay 0;
#X obj 93 172 bp~ 5400 2;
#X obj 368 175 bp~ 5400 2;
#X obj 93 149 *~ 0.4;
#X obj 368 152 *~ 0.4;
#X obj 452 41 m_bpm2ms;
#X floatatom 452 83 7 0 0 0 - - -;
#X msg 450 8 88;
#X obj 452 62 / 3;
#X obj 250 58 inlet~;
#X obj 93 208 delwrite~ \$0-heli-l 341;
#X obj 93 232 delread~ \$0-heli-l 341;
#X obj 368 208 delwrite~ \$0-heli-r 228;
#X obj 366 239 delread~ \$0-heli-r 227;
#X obj 252 389 outlet~;
#X obj 252 368 *~ 0.6;
#X connect 0 0 9 0;
#X connect 1 0 11 0;
#X connect 2 0 0 0;
#X connect 3 0 1 0;
#X connect 4 0 7 0;
#X connect 6 0 4 0;
#X connect 7 0 5 0;
#X connect 8 0 2 0;
#X connect 8 0 3 0;
#X connect 10 0 3 0;
#X connect 10 0 14 0;
#X connect 12 0 2 0;
#X connect 12 0 14 0;
#X connect 14 0 13 0;
#X restore 139 409 pd delay;
#X obj 70 245 *~ 0.01;
#X obj 70 266 +~ 0.02;
#X obj 165 583 *~ 0.15;
#X msg 213 380 1 50000 \, 0.1 50000 50000;
#X obj 173 22 r MIC;
#X obj 76 97 list split 1;
#X obj 76 76 r Sample-FX;
#X obj 116 163 spigot;
#X obj 155 123 swap 1;
#X obj 155 144 -;
#X msg 116 203 1;
#X msg 151 203 0;
#X obj 116 182 sel helicopter;
#X connect 0 0 28 0;
#X connect 1 0 5 1;
#X connect 2 0 8 0;
#X connect 2 0 37 0;
#X connect 3 0 8 0;
#X connect 3 0 37 0;
#X connect 5 0 27 0;
#X connect 6 0 0 0;
#X connect 7 0 27 1;
#X connect 8 0 10 0;
#X connect 8 1 11 0;
#X connect 8 2 13 0;
#X connect 9 0 7 0;
#X connect 10 0 32 0;
#X connect 10 1 22 0;
#X connect 11 0 1 0;
#X connect 12 0 20 0;
#X connect 13 0 14 0;
#X connect 13 1 15 0;
#X connect 14 0 18 0;
#X connect 15 0 16 0;
#X connect 16 0 4 0;
#X connect 17 0 16 0;
#X connect 18 0 4 0;
#X connect 18 1 17 0;
#X connect 20 0 5 0;
#X connect 21 0 9 0;
#X connect 21 0 29 0;
#X connect 22 0 21 0;
#X connect 23 1 24 0;
#X connect 24 0 2 0;
#X connect 24 1 3 0;
#X connect 27 0 25 0;
#X connect 27 0 31 0;
#X connect 27 1 26 0;
#X connect 27 1 31 0;
#X connect 28 0 5 0;
#X connect 29 0 30 0;
#X connect 30 0 20 1;
#X connect 31 0 19 0;
#X connect 32 0 21 0;
#X connect 33 0 23 0;
#X connect 34 1 36 0;
#X connect 35 0 34 0;
#X connect 36 0 41 0;
#X connect 37 0 38 0;
#X connect 37 1 38 1;
#X connect 38 0 36 1;
#X connect 39 0 8 0;
#X connect 40 0 8 0;
#X connect 41 0 39 0;
#X connect 41 1 40 0;
#X restore 43 270 pd helicopter;
#X text 696 35 OFF;
#X obj 689 56 r switchSamplesOff;
#X msg 689 77 bang;
#X obj 909 546 u_loadmeter;
#X obj 841 593 g_showtext;
#X msg 909 571 text \$1;
#X obj 841 429 loadbang;
#X obj 841 481 tgl 15 0 empty empty empty 17 7 0 10 -262144 -1 -1 0
1;
#X obj 841 460 t b b b;
#X obj 909 520 tgl 15 0 empty empty empty 17 7 0 10 -262144 -1 -1 0
1;
#X msg 864 480 move 160 300;
#X obj 250 385 print sampleToSwitchReceived;
#N canvas 0 22 753 720 butterflies 0;
#N canvas 536 22 640 580 seeding 0;
#X obj 83 260 snapshot~;
#X obj 83 144 inlet~;
#X msg 83 356 seed \$1;
#X obj 262 230 + 1;
#X obj 196 183 pipe;
#X obj 196 160 unpack 0 0;
#X obj 83 310 abs;
#X obj 83 334 int;
#X obj 83 286 * 1e+07;
#X obj 228 230 f 0;
#X obj 196 97 sel 1;
#X obj 196 76 == 64;
#X msg 164 319 symbol SEED-\$1;
#X obj 197 204 t b b b;
#X obj 83 385 list prepend;
#X obj 83 419 list prepend;
#X msg 83 448 \; \$1-\$2 \$3 \$4 \;;
#X obj 243 385 \$0;
#X obj 228 256 mod 1;
#X msg 196 124 0 100;
#X obj 196 54 r tick;
#X connect 0 0 8 0;
#X connect 1 0 0 0;
#X connect 2 0 14 0;
#X connect 3 0 9 1;
#X connect 4 0 13 0;
#X connect 5 0 4 0;
#X connect 5 1 4 1;
#X connect 6 0 7 0;
#X connect 7 0 2 0;
#X connect 8 0 6 0;
#X connect 9 0 18 0;
#X connect 10 0 19 0;
#X connect 11 0 10 0;
#X connect 12 0 14 1;
#X connect 13 0 0 0;
#X connect 13 1 9 0;
#X connect 13 2 17 0;
#X connect 14 0 15 0;
#X connect 15 0 16 0;
#X connect 17 0 15 1;
#X connect 18 0 3 0;
#X connect 18 0 12 0;
#X connect 19 0 5 0;
#X restore 264 120 pd seeding;
#X obj 350 82 catch~ butterflies;
#X obj 349 268 e_repeater repea;
#N canvas 38 22 368 560 panner4 0;
#X obj 97 -115 e_pan;
#X obj 97 -303 inlet~;
#X obj 2077 -450;
#X obj 2077 -429;
#X obj 2077 -429;
#X obj 97 -72 outlet~;
#X obj 153 -72 outlet~;
#X obj 129 -260 sel 0;
#X obj 129 -239 random 4;
#X obj 129 -218 sel 0 1 2 3;
#X msg 129 -194 0;
#X msg 166 -194 0.25;
#X msg 212 -194 0.5;
#X msg 249 -194 1;
#X obj 129 -141 line;
#X msg 129 -165 \$1 250;
#X obj 129 -282 inlet;
#X connect 0 0 5 0;
#X connect 0 1 6 0;
#X connect 1 0 0 0;
#X connect 2 0 3 0;
#X connect 2 0 4 0;
#X connect 7 0 8 0;
#X connect 8 0 9 0;
#X connect 9 0 10 0;
#X connect 9 1 11 0;
#X connect 9 2 12 0;
#X connect 9 3 13 0;
#X connect 10 0 15 0;
#X connect 11 0 15 0;
#X connect 12 0 15 0;
#X connect 13 0 15 0;
#X connect 14 0 0 1;
#X connect 15 0 14 0;
#X connect 16 0 7 0;
#X restore 348 591 pd panner4;
#X text 255 93 rmt;
#X obj 349 373 e_pitchshift;
#X obj 549 76 sel 0;
#X msg 600 186 0;
#X obj 549 140 sel 0 1 2 3 4 5;
#X msg 579 324 pitch \$1;
#X msg 617 163 1;
#X msg 634 186 2;
#X msg 583 163 -1;
#X msg 566 186 -2;
#X msg 549 163 -3;
#X obj 549 55 mod 2;
#X obj 349 238 *~;
#X obj 367 212 lop~ 80;
#X msg 407 188 0;
#X obj 365 416 vline~;
#X obj 348 436 *~;
#X obj 367 130 t b b b b;
#X msg 366 396 1 10 \, 1 0 1000 \, 0 3000 3000;
#X obj 349 295 hip~ 10000;
#X obj 348 459 lop~ 1800;
#X obj 415 567 mod 8;
#X obj 549 119 random 6;
#X obj 641 275 int;
#X obj 468 246 int;
#X obj 554 542 int;
#X obj 600 83 r \$0-SEED-0;
#X obj 384 684 throw~ REVERB;
#X obj 415 464 r tick;
#X obj 549 6 r tick;
#X obj 415 621 hip~ 1000;
#X obj 348 621 hip~ 1000;
#X obj 579 295 - 12;
#X obj 616 296 + 12;
#X obj 206 447 line;
#X msg 206 211 1;
#X msg 241 211 0;
#X obj 206 426 pack f 5000;
#X obj 238 265 sel 1 0;
#X msg 238 286 1;
#X msg 269 286 0;
#X obj 269 354 pipe 5000;
#X msg 259 331 clear;
#X obj 238 307 t f b;
#X obj 238 379 t f f;
#X obj 237 399 switch~;
#X obj 166 162 list split 1;
#X obj 206 188 sel butterflies;
#X obj 348 566 *~;
#X msg 367 189 2;
#X obj 468 206 * 400;
#X obj 468 164 random 100;
#X obj 468 185 / 100;
#X obj 468 227 + 1;
#X obj 641 215 random 100;
#X obj 641 234 / 100;
#X obj 549 97 t b b;
#X obj 555 481 / 100;
#X obj 555 460 random 100;
#X obj 555 418 mod 128;
#X obj 555 439 sel 0;
#X obj 407 167 del 600;
#X obj 409 47 bng 15 250 50 0 empty empty empty 17 7 0 10 -262144 -1
-1;
#X obj 348 646 throw~ FX-RETURN-L;
#X obj 415 665 throw~ FX-RETURN-R;
#X obj 367 110 onset_energylevel 128 15;
#X obj 349 316 *~ 0.7;
#X obj 398 316 *~ 0.3;
#X obj 554 501 * 7.99;
#X obj 554 522 + 1;
#X obj 475 572 * 19050;
#X obj 475 593 + 50;
#X obj 641 254 * 24.99;
#X obj 166 141 r MIC;
#X obj 206 237 t f f;
#X obj 415 485 route butterflies;
#X obj 549 32 route butterflies;
#X obj 56 210 list split 1;
#X obj 56 189 r Sample-FX;
#X obj 96 276 spigot;
#X obj 135 236 swap 1;
#X obj 135 257 -;
#X msg 96 324 1;
#X msg 131 324 0;
#X obj 96 299 sel butterflies;
#X obj 600 6 r sample-fx-tick;
#X connect 1 0 16 0;
#X connect 1 0 0 0;
#X connect 1 0 69 0;
#X connect 2 0 23 0;
#X connect 3 0 31 0;
#X connect 3 0 35 0;
#X connect 3 1 31 0;
#X connect 3 1 34 0;
#X connect 5 0 20 0;
#X connect 6 0 60 0;
#X connect 7 0 37 0;
#X connect 8 0 14 0;
#X connect 8 1 13 0;
#X connect 8 2 12 0;
#X connect 8 3 7 0;
#X connect 8 4 10 0;
#X connect 8 5 11 0;
#X connect 9 0 5 1;
#X connect 10 0 37 0;
#X connect 11 0 37 0;
#X connect 12 0 36 0;
#X connect 13 0 36 0;
#X connect 14 0 36 0;
#X connect 15 0 6 0;
#X connect 16 0 2 0;
#X connect 17 0 16 1;
#X connect 18 0 17 0;
#X connect 19 0 20 1;
#X connect 20 0 24 0;
#X connect 21 0 55 0;
#X connect 21 1 53 0;
#X connect 21 2 65 0;
#X connect 21 3 22 0;
#X connect 22 0 19 0;
#X connect 23 0 70 0;
#X connect 23 0 71 0;
#X connect 24 0 52 0;
#X connect 25 0 3 1;
#X connect 26 0 8 0;
#X connect 27 0 36 1;
#X connect 27 0 37 1;
#X connect 28 0 2 1;
#X connect 29 0 25 1;
#X connect 30 0 26 0;
#X connect 32 0 79 0;
#X connect 33 0 80 0;
#X connect 34 0 68 0;
#X connect 35 0 67 0;
#X connect 36 0 9 0;
#X connect 37 0 9 0;
#X connect 38 0 52 1;
#X connect 39 0 78 0;
#X connect 39 0 84 0;
#X connect 40 0 78 0;
#X connect 40 0 84 0;
#X connect 41 0 38 0;
#X connect 42 0 43 0;
#X connect 42 1 44 0;
#X connect 43 0 47 0;
#X connect 44 0 45 0;
#X connect 45 0 48 0;
#X connect 46 0 45 0;
#X connect 47 0 48 0;
#X connect 47 1 46 0;
#X connect 48 0 49 0;
#X connect 50 1 51 0;
#X connect 51 0 39 0;
#X connect 51 1 40 0;
#X connect 52 0 3 0;
#X connect 53 0 17 0;
#X connect 54 0 57 0;
#X connect 55 0 56 0;
#X connect 56 0 54 0;
#X connect 57 0 28 0;
#X connect 58 0 59 0;
#X connect 59 0 76 0;
#X connect 60 0 26 0;
#X connect 60 1 58 0;
#X connect 61 0 72 0;
#X connect 61 0 74 0;
#X connect 62 0 61 0;
#X connect 63 0 64 0;
#X connect 64 0 62 0;
#X connect 65 0 18 0;
#X connect 69 0 21 0;
#X connect 69 0 66 0;
#X connect 70 0 5 0;
#X connect 71 0 20 0;
#X connect 72 0 73 0;
#X connect 73 0 29 0;
#X connect 74 0 75 0;
#X connect 75 0 34 1;
#X connect 75 0 35 1;
#X connect 76 0 27 0;
#X connect 77 0 50 0;
#X connect 78 0 41 0;
#X connect 78 1 42 0;
#X connect 79 0 63 0;
#X connect 79 0 25 0;
#X connect 80 0 15 0;
#X connect 81 1 83 0;
#X connect 82 0 81 0;
#X connect 83 0 88 0;
#X connect 84 0 85 0;
#X connect 84 1 85 1;
#X connect 85 0 83 1;
#X connect 86 0 78 0;
#X connect 87 0 78 0;
#X connect 88 0 86 0;
#X connect 88 1 87 0;
#X connect 89 0 80 0;
#X restore 43 292 pd butterflies;
#N canvas 103 22 799 720 uplifts 0;
#X obj 401 42 hip~ 100;
#X obj 401 63 lop~ 5000;
#X obj 401 20 catch~ uplifts;
#X obj 418 332 e_freqshift;
#X msg 492 311 freq \$1;
#X obj 401 643 e_pan;
#N canvas 708 109 139 319 clfo 0;
#X obj 24 181 * 6.2824;
#X obj 24 201 cos;
#X obj 24 281 outlet;
#X obj 24 141 mod 512;
#X obj 24 161 / 512;
#X obj 70 116 inlet;
#X obj 24 241 * 0.4;
#X obj 24 221 + 1;
#X obj 24 262 + 0.1;
#X obj 24 56 r tick;
#X obj 24 77 route uplifts;
#X connect 0 0 1 0;
#X connect 1 0 7 0;
#X connect 3 0 4 0;
#X connect 4 0 0 0;
#X connect 5 0 3 1;
#X connect 5 0 4 1;
#X connect 6 0 8 0;
#X connect 7 0 6 0;
#X connect 8 0 2 0;
#X connect 9 0 10 0;
#X connect 10 0 3 0;
#X restore 433 620 pd clfo;
#X obj 418 377 hip~ 400;
#N canvas 0 22 599 480 wql-tanh 0;
#X obj 140 70 inlet~;
#X text 392 94 __;
#X text 474 94 __;
#X text 426 94 __;
#X text 525 94 __;
#X text 392 111 1 +;
#X text 428 111 3 +;
#X text 476 111 5 +;
#X text 526 111 7 +;
#X text 342 37 As a continued fraction;
#X obj 139 153 *~;
#X obj 64 270 /~;
#X obj 64 355 /~;
#X obj 64 293 /~;
#X obj 64 326 /~;
#X text 326 83 tanh(z) = z z^2 4z^2 9z^2 ...;
#X obj 191 180 *~ 4;
#X obj 190 211 +~ 3;
#X obj 234 179 *~ 9;
#X obj 233 210 +~ 5;
#X obj 274 180 *~ 16;
#X obj 273 210 +~ 7;
#X obj 139 211 +~ 1;
#X obj 64 406 outlet~;
#X obj 64 377 *~ 576;
#X obj 140 94 *~ 0.308319;
#X text 175 119 1/pi;
#X connect 0 0 25 0;
#X connect 10 0 16 0;
#X connect 10 0 18 0;
#X connect 10 0 20 0;
#X connect 10 0 22 0;
#X connect 11 0 13 0;
#X connect 12 0 24 0;
#X connect 13 0 14 0;
#X connect 14 0 12 0;
#X connect 16 0 17 0;
#X connect 17 0 13 1;
#X connect 18 0 19 0;
#X connect 19 0 14 1;
#X connect 20 0 21 0;
#X connect 21 0 12 1;
#X connect 22 0 11 1;
#X connect 24 0 23 0;
#X connect 25 0 10 1;
#X connect 25 0 10 0;
#X connect 25 0 11 0;
#X restore 401 289 pd wql-tanh;
#X obj 401 531 clip~ -1 1;
#X obj 418 229 delread~ \$0-abc 585.5;
#X msg 260 311 1;
#X msg 295 311 0;
#X obj 260 541 line;
#X obj 260 520 pack f 5000;
#X obj 292 360 sel 1 0;
#X msg 292 381 1;
#X msg 323 381 0;
#X obj 323 449 pipe 5000;
#X msg 313 426 clear;
#X obj 292 402 t f b;
#X obj 292 474 t f f;
#X obj 292 498 switch~;
#X obj 220 269 list split 1;
#X obj 260 290 sel uplifts;
#X obj 401 610 *~;
#X obj 517 33 r tick;
#X obj 517 96 sel 0;
#X obj 517 75 mod 128;
#X obj 401 691 throw~ FX-RETURN-L;
#X obj 433 672 throw~ FX-RETURN-R;
#X obj 401 480 lop~ 3000;
#X obj 290 685 throw~ REVERB;
#X obj 418 197 + 1;
#X obj 517 118 random 100;
#X obj 517 139 / 100;
#X obj 517 160 * 400;
#X obj 418 178 * 699;
#X obj 423 503 delwrite~ \$0-abc 700;
#X obj 433 578 * 500;
#X obj 433 599 + 10;
#X obj 418 353 lop~ 3500;
#X obj 290 664 *~ 0.15;
#X obj 220 248 r MIC;
#X obj 260 338 t f f;
#X obj 517 53 route uplifts;
#X obj 88 328 list split 1;
#X obj 88 307 r Sample-FX;
#X obj 128 394 spigot;
#X obj 167 354 swap 1;
#X obj 167 375 -;
#X msg 128 442 1;
#X msg 163 442 0;
#X obj 128 417 sel uplifts;
#X obj 567 32 r sample-fx-tick;
#X connect 0 0 1 0;
#X connect 1 0 8 0;
#X connect 2 0 0 0;
#X connect 3 0 41 0;
#X connect 4 0 3 1;
#X connect 5 0 29 0;
#X connect 5 1 30 0;
#X connect 6 0 5 1;
#X connect 7 0 31 0;
#X connect 8 0 31 0;
#X connect 9 0 25 0;
#X connect 10 0 3 0;
#X connect 11 0 44 0;
#X connect 11 0 49 0;
#X connect 12 0 44 0;
#X connect 12 0 49 0;
#X connect 13 0 25 1;
#X connect 14 0 13 0;
#X connect 15 0 16 0;
#X connect 15 1 17 0;
#X connect 16 0 20 0;
#X connect 17 0 18 0;
#X connect 18 0 21 0;
#X connect 19 0 18 0;
#X connect 20 0 21 0;
#X connect 20 1 19 0;
#X connect 21 0 22 0;
#X connect 23 1 24 0;
#X connect 24 0 11 0;
#X connect 24 1 12 0;
#X connect 25 0 5 0;
#X connect 25 0 42 0;
#X connect 26 0 45 0;
#X connect 27 0 34 0;
#X connect 28 0 27 0;
#X connect 31 0 9 0;
#X connect 31 0 38 0;
#X connect 33 0 10 0;
#X connect 34 0 35 0;
#X connect 35 0 36 0;
#X connect 35 0 37 0;
#X connect 35 0 39 0;
#X connect 36 0 4 0;
#X connect 37 0 33 0;
#X connect 39 0 40 0;
#X connect 40 0 6 0;
#X connect 41 0 7 0;
#X connect 42 0 32 0;
#X connect 43 0 23 0;
#X connect 44 0 14 0;
#X connect 44 1 15 0;
#X connect 45 0 28 0;
#X connect 46 1 48 0;
#X connect 47 0 46 0;
#X connect 48 0 53 0;
#X connect 49 0 50 0;
#X connect 49 1 50 1;
#X connect 50 0 48 1;
#X connect 51 0 44 0;
#X connect 52 0 44 0;
#X connect 53 0 51 0;
#X connect 53 1 52 0;
#X connect 54 0 45 0;
#X restore 43 313 pd uplifts;
#X text 358 630 Wind effects from Bergensbanen for outside images;
#X text 358 642 Reverse?;
#N canvas 240 24 811 640 cave 0;
#X obj 26 70 catch~ cave;
#X obj 114 115 loadbang;
#X obj 26 170 e_reverb cave;
#X obj 246 553 throw~ FX-RETURN-L;
#X obj 312 573 throw~ FX-RETURN-R;
#X msg 170 344 freq \$1;
#X obj 60 338 noise~;
#X obj 26 413 e_reslop cave 2000;
#X obj 112 434 e_reslop cave2 2000;
#X obj 354 322 loadbang;
#X obj 346 196 / 100;
#X msg 499 181 on \$1;
#X obj 499 160 tgl 15 0 empty empty empty 17 7 0 10 -262144 -1 -1 0
1;
#X msg 346 172 3;
#X obj 261 606 throw~ REVERB;
#X obj 522 304 line;
#X msg 499 105 1;
#X msg 534 105 0;
#X obj 545 263 switch~;
#X obj 499 127 t f f f;
#X obj 522 283 pack f 2500;
#X obj 545 148 sel 1 0;
#X msg 545 169 1;
#X msg 576 169 0;
#X obj 576 240 pipe 5000;
#X msg 569 218 clear;
#X obj 545 190 t f b;
#X obj 459 60 list split 1;
#X obj 499 84 sel cave;
#X obj 246 524 *~;
#X obj 312 524 *~;
#X obj 261 588 *~ 0.2;
#X obj 348 277 + 50;
#X obj 348 256 * 7900;
#X msg 354 345 dry 0.07 \, q 6;
#X msg 114 135 amp 92 \, hall 97 \, freq 3000 \, damp 25 \, dry 10
;
#X obj 348 216 c_lfo MYLFO2 1 50 sine;
#X obj 60 359 *~ 0.125;
#X obj 459 39 r MIC;
#X connect 0 0 2 0;
#X connect 1 0 35 0;
#X connect 1 0 13 0;
#X connect 2 0 7 0;
#X connect 2 1 8 0;
#X connect 5 0 7 1;
#X connect 5 0 8 1;
#X connect 6 0 37 0;
#X connect 7 0 29 0;
#X connect 8 0 30 0;
#X connect 9 0 34 0;
#X connect 10 0 36 0;
#X connect 11 0 36 1;
#X connect 12 0 11 0;
#X connect 13 0 10 0;
#X connect 15 0 30 1;
#X connect 15 0 29 1;
#X connect 16 0 19 0;
#X connect 17 0 19 0;
#X connect 19 0 12 0;
#X connect 19 1 20 0;
#X connect 19 2 21 0;
#X connect 20 0 15 0;
#X connect 21 0 22 0;
#X connect 21 1 23 0;
#X connect 22 0 26 0;
#X connect 23 0 24 0;
#X connect 24 0 18 0;
#X connect 25 0 24 0;
#X connect 26 0 18 0;
#X connect 26 1 25 0;
#X connect 27 1 28 0;
#X connect 28 0 16 0;
#X connect 28 1 17 0;
#X connect 29 0 3 0;
#X connect 29 0 31 0;
#X connect 30 0 4 0;
#X connect 30 0 31 0;
#X connect 31 0 14 0;
#X connect 32 0 5 0;
#X connect 33 0 32 0;
#X connect 34 0 7 1;
#X connect 34 0 8 1;
#X connect 35 0 2 1;
#X connect 36 0 33 0;
#X connect 37 0 7 0;
#X connect 37 0 8 0;
#X connect 38 0 27 0;
#X restore 43 227 pd cave;
#N canvas 0 22 1022 720 metallic 0;
#X obj 658 159 *;
#X obj 658 179 *;
#X obj 658 199 *;
#X obj 658 219 *;
#X obj 658 239 *;
#X obj 658 259 *;
#X obj 658 279 *;
#X obj 441 232 hip~ 100;
#X obj 658 299 *;
#X obj 658 322 *;
#X msg 721 98 1.12247;
#X obj 495 316 bp~ 1 640;
#X obj 494 336 bp~ 1 680;
#X obj 495 356 bp~ 1 720;
#X obj 495 377 bp~ 1 760;
#X obj 494 398 bp~ 1 800;
#X obj 414 398 bp~ 1 840;
#X obj 413 375 bp~ 1 880;
#X obj 413 350 bp~ 1 910;
#X obj 413 327 bp~ 1 930;
#X obj 412 304 bp~ 1 1100;
#X obj 721 71 loadbang;
#X obj 449 441 *~ 12;
#X obj 449 654 throw~ FX-RETURN-L;
#X obj 549 677 throw~ FX-RETURN-R;
#X obj 449 509 e_reverb;
#X obj 442 43 catch~ metallic;
#X obj 261 365 line;
#X msg 238 166 1;
#X msg 273 166 0;
#X obj 284 324 switch~;
#X obj 238 188 t f f f;
#X obj 261 344 pack f 2500;
#X obj 284 209 sel 1 0;
#X msg 284 230 1;
#X msg 315 230 0;
#X obj 315 301 pipe 5000;
#X msg 308 279 clear;
#X obj 284 251 t f b;
#X obj 198 121 list split 1;
#X obj 449 487 *~;
#X obj 238 145 sel metallic;
#X obj 502 463 loadbang;
#X obj 808 178 a_onset 128 20;
#X obj 808 350 line;
#X obj 808 199 t b b;
#X msg 808 329 \$1 3500;
#X obj 481 697 throw~ DELAY;
#X obj 481 677 *~ 0.2;
#X obj 808 220 random 6;
#X obj 808 241 sel 0 1 2 3 4 5;
#X msg 808 262 65;
#X msg 825 285 67;
#X msg 842 262 72;
#X msg 859 285 75;
#X msg 876 262 77;
#X msg 893 285 79;
#X obj 808 371 mtof;
#N canvas 500 156 450 300 monsterlop 0;
#X obj 138 260 outlet~;
#X obj 136 16 inlet~;
#X obj 138 47 lop~ \$1;
#X obj 310 17 inlet;
#X obj 138 72 lop~ \$1;
#X obj 139 97 lop~ \$1;
#X obj 138 122 lop~ \$1;
#X connect 1 0 2 0;
#X connect 2 0 4 0;
#X connect 3 0 2 1;
#X connect 3 0 4 1;
#X connect 3 0 5 1;
#X connect 3 0 6 1;
#X connect 4 0 5 0;
#X connect 5 0 6 0;
#X connect 6 0 0 0;
#X restore 449 605 pd monsterlop;
#X obj 637 513 loadbang;
#X obj 449 629 hip~ 80;
#X msg 637 534 6000;
#N canvas 500 156 450 300 monsterlop 0;
#X obj 138 260 outlet~;
#X obj 136 16 inlet~;
#X obj 138 47 lop~ \$1;
#X obj 310 17 inlet;
#X obj 138 72 lop~ \$1;
#X obj 139 97 lop~ \$1;
#X obj 138 122 lop~ \$1;
#X connect 1 0 2 0;
#X connect 2 0 4 0;
#X connect 3 0 2 1;
#X connect 3 0 4 1;
#X connect 3 0 5 1;
#X connect 3 0 6 1;
#X connect 4 0 5 0;
#X connect 5 0 6 0;
#X connect 6 0 0 0;
#X restore 549 604 pd monsterlop;
#X obj 549 628 hip~ 80;
#N canvas 0 22 460 414 nofeedback-analysis 0;
#X obj 48 28 inlet~;
#X obj 48 269 max 80;
#X obj 48 103 env~ 1024;
#X obj 48 220 +;
#X obj 48 195 * 0.05;
#X obj 80 221 * 0.95;
#X obj 48 246 min 6000;
#X obj 48 140 clip 75 83;
#X obj 48 169 m_scale 75 83 6000 80;
#X obj 48 357 outlet;
#X connect 0 0 2 0;
#X connect 1 0 9 0;
#X connect 2 0 7 0;
#X connect 3 0 5 0;
#X connect 3 0 6 0;
#X connect 4 0 3 0;
#X connect 5 0 3 1;
#X connect 6 0 1 0;
#X connect 7 0 8 0;
#X connect 8 0 4 0;
#X restore 606 576 pd nofeedback-analysis;
#X obj 658 139 * 1;
#X obj 549 540 bp~ 2000 3;
#X obj 449 539 bp~ 2000 3;
#N canvas 0 22 628 452 delay 0;
#X obj 93 172 bp~ 5400 2;
#X obj 368 175 bp~ 5400 2;
#X obj 93 149 *~ 0.4;
#X obj 368 152 *~ 0.4;
#X obj 452 41 m_bpm2ms;
#X floatatom 452 83 7 0 0 0 - - -;
#X msg 450 8 88;
#X obj 452 62 / 3;
#X obj 250 58 inlet~;
#X obj 252 389 outlet~;
#X obj 93 208 delwrite~ \$0-metal-l 341;
#X obj 93 232 delread~ \$0-metal-l 341;
#X obj 368 208 delwrite~ \$0-metal-r 228;
#X obj 366 239 delread~ \$0-metal-r 227;
#X obj 252 368 *~ 0.5;
#X obj 250 79 *~ 0.5;
#X connect 0 0 10 0;
#X connect 1 0 12 0;
#X connect 2 0 0 0;
#X connect 3 0 1 0;
#X connect 4 0 7 0;
#X connect 6 0 4 0;
#X connect 7 0 5 0;
#X connect 8 0 15 0;
#X connect 11 0 3 0;
#X connect 11 0 14 0;
#X connect 13 0 2 0;
#X connect 13 0 14 0;
#X connect 14 0 9 0;
#X connect 15 0 2 0;
#X connect 15 0 3 0;
#X connect 15 0 14 0;
#X restore 442 169 pd delay;
#X obj 442 148 hip~ 300;
#X msg 502 483 amp 90 \, hall 90 \, freq 3000 \, damp 2;
#X obj 364 430 *~ 0.2;
#X obj 198 100 r MIC;
#X obj 81 213 list split 1;
#X obj 81 192 r Sample-FX;
#X obj 121 279 spigot;
#X obj 160 239 swap 1;
#X obj 160 260 -;
#X msg 121 327 1;
#X msg 156 327 0;
#X obj 121 302 sel metallic;
#X connect 0 0 1 0;
#X connect 0 0 19 1;
#X connect 1 0 2 0;
#X connect 1 0 18 1;
#X connect 2 0 3 0;
#X connect 2 0 17 1;
#X connect 3 0 4 0;
#X connect 3 0 16 1;
#X connect 4 0 5 0;
#X connect 4 0 15 1;
#X connect 5 0 6 0;
#X connect 5 0 14 1;
#X connect 6 0 8 0;
#X connect 6 0 13 1;
#X connect 7 0 11 0;
#X connect 7 0 12 0;
#X connect 7 0 13 0;
#X connect 7 0 14 0;
#X connect 7 0 15 0;
#X connect 7 0 16 0;
#X connect 7 0 17 0;
#X connect 7 0 18 0;
#X connect 7 0 19 0;
#X connect 7 0 20 0;
#X connect 7 0 71 0;
#X connect 8 0 9 0;
#X connect 8 0 12 1;
#X connect 9 0 11 1;
#X connect 10 0 0 1;
#X connect 10 0 1 1;
#X connect 10 0 2 1;
#X connect 10 0 3 1;
#X connect 10 0 4 1;
#X connect 10 0 5 1;
#X connect 10 0 6 1;
#X connect 10 0 8 1;
#X connect 10 0 9 1;
#X connect 11 0 22 0;
#X connect 12 0 22 0;
#X connect 13 0 22 0;
#X connect 14 0 22 0;
#X connect 15 0 22 0;
#X connect 16 0 22 0;
#X connect 17 0 22 0;
#X connect 18 0 22 0;
#X connect 19 0 22 0;
#X connect 20 0 22 0;
#X connect 21 0 10 0;
#X connect 22 0 40 0;
#X connect 25 0 67 0;
#X connect 25 1 66 0;
#X connect 26 0 43 0;
#X connect 26 0 69 0;
#X connect 27 0 40 1;
#X connect 28 0 31 0;
#X connect 28 0 76 0;
#X connect 29 0 31 0;
#X connect 29 0 76 0;
#X connect 31 1 32 0;
#X connect 31 2 33 0;
#X connect 32 0 27 0;
#X connect 33 0 34 0;
#X connect 33 1 35 0;
#X connect 34 0 38 0;
#X connect 35 0 36 0;
#X connect 36 0 30 0;
#X connect 37 0 36 0;
#X connect 38 0 30 0;
#X connect 38 1 37 0;
#X connect 39 1 41 0;
#X connect 40 0 25 0;
#X connect 41 0 28 0;
#X connect 41 1 29 0;
#X connect 42 0 70 0;
#X connect 43 0 45 0;
#X connect 44 0 57 0;
#X connect 45 0 49 0;
#X connect 46 0 44 0;
#X connect 48 0 47 0;
#X connect 49 0 50 0;
#X connect 50 0 51 0;
#X connect 50 1 52 0;
#X connect 50 2 53 0;
#X connect 50 3 54 0;
#X connect 50 4 55 0;
#X connect 50 5 56 0;
#X connect 51 0 46 0;
#X connect 52 0 46 0;
#X connect 53 0 46 0;
#X connect 54 0 46 0;
#X connect 55 0 46 0;
#X connect 56 0 46 0;
#X connect 57 0 65 0;
#X connect 58 0 60 0;
#X connect 59 0 61 0;
#X connect 60 0 23 0;
#X connect 60 0 48 0;
#X connect 61 0 58 1;
#X connect 61 0 62 1;
#X connect 62 0 63 0;
#X connect 63 0 24 0;
#X connect 63 0 48 0;
#X connect 64 0 58 1;
#X connect 64 0 62 1;
#X connect 65 0 0 0;
#X connect 65 0 20 1;
#X connect 66 0 62 0;
#X connect 67 0 64 0;
#X connect 67 0 58 0;
#X connect 68 0 7 0;
#X connect 69 0 68 0;
#X connect 70 0 25 1;
#X connect 71 0 40 0;
#X connect 72 0 39 0;
#X connect 73 1 75 0;
#X connect 74 0 73 0;
#X connect 75 0 80 0;
#X connect 76 0 77 0;
#X connect 76 1 77 1;
#X connect 77 0 75 1;
#X connect 78 0 31 0;
#X connect 79 0 31 0;
#X connect 80 0 78 0;
#X connect 80 1 79 0;
#X restore 43 397 pd metallic;
#X text 358 658 Live decimator;
#N canvas 0 22 769 590 robotvoice 0;
#X obj 157 113 fiddle~ 2048;
#X obj 211 148 unpack;
#X obj 211 172 moses 1;
#X obj 239 307 *~;
#X obj 257 202 mtof;
#X obj 257 225 *;
#X obj 239 328 *~ 2;
#X obj 99 57 catch~ robotvoice;
#X obj 239 495 throw~ FX-RETURN-L;
#X obj 271 515 throw~ FX-RETURN-R;
#X obj 215 557 throw~ DELAY;
#N canvas 300 203 758 306 samp-delay 0;
#X obj 15 222 outlet~;
#X obj 14 21 inlet~;
#X obj 15 102 loadbang;
#X obj 14 49 delwrite~ E03-del 40;
#X obj 15 195 delread~ E03-del;
#X obj 15 152 expr 1000*1024/$f1;
#X obj 15 128 samplerate~;
#X text 208 47 write to delay line which has enough memory to hold
40 msec;
#X text 125 128 get sample rate at load time;
#X text 185 152 divide 1024 by sample rate to give time in seconds
\; multiply by 1000 to convert to milliseconds.;
#X text 168 197 read from the delay line at the calculater delay;
#X text 317 268 1024-sample delay;
#X connect 1 0 3 0;
#X connect 2 0 6 0;
#X connect 4 0 0 0;
#X connect 5 0 4 0;
#X connect 6 0 5 0;
#X restore 99 133 pd samp-delay;
#X obj 257 270 line;
#X msg 257 251 \$1 50;
#X obj 275 97 mod 128;
#X obj 275 118 sel 0;
#X obj 275 53 r tick;
#X obj 275 160 / 10;
#X obj 275 181 + 0.1;
#X obj 275 139 random 60;
#X msg 406 85 1;
#X msg 441 85 0;
#X obj 406 315 line;
#X obj 406 294 pack f 5000;
#X obj 438 134 sel 1 0;
#X msg 438 155 1;
#X msg 469 155 0;
#X obj 469 223 pipe 5000;
#X msg 459 200 clear;
#X obj 438 176 t f b;
#X obj 438 248 t f f;
#X obj 438 272 switch~;
#X obj 366 43 list split 1;
#X obj 406 64 sel robotvoice;
#X obj 239 431 *~;
#X obj 258 412 * 2;
#X obj 257 289 osc~ 2;
#X obj 239 350 bp~ 6000 5;
#X obj 239 470 e_pan;
#X obj 215 536 *~ 0.6;
#X obj 271 449 r panvalue;
#X obj 366 22 r MIC;
#X obj 406 112 t f f;
#X obj 275 75 route robotvoice;
#X obj 521 121 list split 1;
#X obj 521 100 r Sample-FX;
#X obj 561 187 spigot;
#X obj 600 147 swap 1;
#X obj 600 168 -;
#X msg 561 235 1;
#X msg 596 235 0;
#X obj 561 210 sel robotvoice;
#X obj 236 16 r sample-fx-tick;
#X connect 0 2 1 0;
#X connect 1 0 2 0;
#X connect 2 1 4 0;
#X connect 3 0 6 0;
#X connect 4 0 5 0;
#X connect 5 0 13 0;
#X connect 6 0 37 0;
#X connect 7 0 0 0;
#X connect 7 0 11 0;
#X connect 11 0 3 0;
#X connect 12 0 36 0;
#X connect 13 0 12 0;
#X connect 14 0 15 0;
#X connect 15 0 19 0;
#X connect 16 0 43 0;
#X connect 17 0 18 0;
#X connect 18 0 5 1;
#X connect 19 0 17 0;
#X connect 20 0 42 0;
#X connect 20 0 47 0;
#X connect 21 0 42 0;
#X connect 21 0 47 0;
#X connect 22 0 35 0;
#X connect 23 0 22 0;
#X connect 24 0 25 0;
#X connect 24 1 26 0;
#X connect 25 0 29 0;
#X connect 26 0 27 0;
#X connect 27 0 30 0;
#X connect 28 0 27 0;
#X connect 29 0 30 0;
#X connect 29 1 28 0;
#X connect 30 0 31 0;
#X connect 32 1 33 0;
#X connect 33 0 20 0;
#X connect 33 1 21 0;
#X connect 34 0 38 0;
#X connect 34 0 39 0;
#X connect 35 0 34 1;
#X connect 36 0 3 1;
#X connect 37 0 34 0;
#X connect 38 0 8 0;
#X connect 38 1 9 0;
#X connect 39 0 10 0;
#X connect 40 0 38 1;
#X connect 41 0 32 0;
#X connect 42 0 23 0;
#X connect 42 1 24 0;
#X connect 43 0 14 0;
#X connect 44 1 46 0;
#X connect 45 0 44 0;
#X connect 46 0 51 0;
#X connect 47 0 48 0;
#X connect 47 1 48 1;
#X connect 48 0 46 1;
#X connect 49 0 42 0;
#X connect 50 0 42 0;
#X connect 51 0 49 0;
#X connect 51 1 50 0;
#X connect 52 0 43 0;
#X restore 43 418 pd robotvoice;
#N canvas 55 22 808 714 spacecho 0;
#X obj 236 452 +~;
#X msg 352 364 freq \$1;
#X obj 254 395 e_freqshift \$0-diff;
#X obj 352 261 / 100;
#X msg 443 223 on \$1;
#X obj 443 142 tgl 15 0 empty empty empty 17 7 0 10 -262144 -1 -1 0
1;
#X msg 352 241 3;
#X obj 254 511 line;
#X msg 443 87 1;
#X msg 478 87 0;
#X obj 443 109 t f f f;
#X obj 254 490 pack f 2500;
#X obj 489 130 sel 1 0;
#X msg 489 151 1;
#X msg 520 151 0;
#X obj 520 222 pipe 5000;
#X msg 513 200 clear;
#X obj 489 172 t f b;
#X obj 352 282 c_lfo MYLFO2 1 50 sine;
#X obj 352 303 * 24.99;
#X obj 352 324 - 12.49;
#X obj 352 344 int;
#N canvas 0 22 628 452 delay 0;
#X obj 93 172 bp~ 5400 2;
#X obj 368 175 bp~ 5400 2;
#X obj 93 149 *~ 0.4;
#X obj 368 152 *~ 0.4;
#X obj 452 41 m_bpm2ms;
#X floatatom 452 83 7 0 0 0 - - -;
#X msg 450 8 88;
#X obj 452 62 / 3;
#X obj 250 58 inlet~;
#X obj 252 389 outlet~;
#X obj 252 368 *~ 0.6;
#X obj 93 208 delwrite~ \$0-diff-l 341;
#X obj 93 232 delread~ \$0-diff-l 341;
#X obj 368 208 delwrite~ \$0-diff-r 228;
#X obj 366 239 delread~ \$0-diff-r 227;
#X obj 250 79 *~ 0.5;
#X connect 0 0 11 0;
#X connect 1 0 13 0;
#X connect 2 0 0 0;
#X connect 3 0 1 0;
#X connect 4 0 7 0;
#X connect 6 0 4 0;
#X connect 7 0 5 0;
#X connect 8 0 15 0;
#X connect 10 0 9 0;
#X connect 12 0 3 0;
#X connect 12 0 10 0;
#X connect 14 0 2 0;
#X connect 14 0 10 0;
#X connect 15 0 2 0;
#X connect 15 0 3 0;
#X connect 15 0 10 0;
#X restore 236 343 pd delay;
#X obj 403 42 list split 1;
#X obj 443 66 sel spacecho;
#X obj 352 220 loadbang;
#X obj 236 282 catch~ spacecho;
#X obj 237 613 throw~ FX-RETURN-L;
#X obj 263 633 throw~ FX-RETURN-R;
#X obj 236 559 *~;
#X obj 490 254 switch~;
#X obj 258 673 throw~ DELAY;
#X obj 258 653 *~ 0.55;
#X obj 187 452 *~ 0.3;
#X obj 236 585 bp~ 7000 4;
#X obj 254 539 * 1;
#X obj 403 21 r MIC;
#X obj 289 85 list split 1;
#X obj 289 64 r Sample-FX;
#X obj 329 151 spigot;
#X obj 368 111 swap 1;
#X obj 368 132 -;
#X msg 329 199 1;
#X msg 364 199 0;
#X obj 329 174 sel spacecho;
#X connect 0 0 29 0;
#X connect 1 0 2 1;
#X connect 2 0 0 1;
#X connect 3 0 18 0;
#X connect 4 0 18 1;
#X connect 5 0 4 0;
#X connect 6 0 3 0;
#X connect 7 0 35 0;
#X connect 8 0 10 0;
#X connect 8 0 40 0;
#X connect 9 0 10 0;
#X connect 9 0 40 0;
#X connect 10 0 5 0;
#X connect 10 1 11 0;
#X connect 10 2 12 0;
#X connect 11 0 7 0;
#X connect 12 0 13 0;
#X connect 12 1 14 0;
#X connect 13 0 17 0;
#X connect 14 0 15 0;
#X connect 15 0 30 0;
#X connect 16 0 15 0;
#X connect 17 0 30 0;
#X connect 17 1 16 0;
#X connect 18 0 19 0;
#X connect 19 0 20 0;
#X connect 20 0 21 0;
#X connect 21 0 1 0;
#X connect 22 0 0 0;
#X connect 22 0 2 0;
#X connect 22 0 33 0;
#X connect 23 1 24 0;
#X connect 24 0 8 0;
#X connect 24 1 9 0;
#X connect 25 0 6 0;
#X connect 26 0 22 0;
#X connect 29 0 34 0;
#X connect 32 0 31 0;
#X connect 33 0 29 0;
#X connect 34 0 27 0;
#X connect 34 0 28 0;
#X connect 34 0 32 0;
#X connect 35 0 29 1;
#X connect 36 0 23 0;
#X connect 37 1 39 0;
#X connect 38 0 37 0;
#X connect 39 0 44 0;
#X connect 40 0 41 0;
#X connect 40 1 41 1;
#X connect 41 0 39 1;
#X connect 42 0 10 0;
#X connect 43 0 10 0;
#X connect 44 0 42 0;
#X connect 44 1 43 0;
#X restore 43 355 pd spacecho;
#N canvas 48 25 780 667 phasemod 0;
#X obj 457 248 *~;
#X obj 545 219 line~;
#X obj 439 322 cos~;
#X obj 439 295 +~;
#X obj 545 176 / 100;
#X obj 439 341 hip~ 5;
#N canvas 0 22 627 506 delay 0;
#X obj 250 58 inlet~;
#X obj 92 463 outlet~;
#X obj 92 442 *~ 0.5;
#X obj 250 79 *~ 0.5;
#X obj 352 459 outlet~;
#X obj 352 438 *~ 0.5;
#X obj 367 409 vd~ \$0-phase-r;
#X obj 367 389 line~;
#X obj 366 328 random 500;
#X obj 366 349 + 1;
#X obj 366 291 sel 0;
#X obj 93 418 vd~ \$0-phase-l;
#X obj 94 397 line~;
#X obj 93 336 random 500;
#X obj 93 357 + 1;
#X obj 93 314 sel 1;
#X obj 368 208 delwrite~ \$0-phase-r 501;
#X obj 93 207 delwrite~ \$0-phase-l 501;
#X obj 366 270 mod 128;
#X msg 366 368 \$1 500;
#X msg 93 376 \$1 500;
#X obj 368 152 *~ 0.3;
#X obj 93 149 *~ 0.3;
#X obj 93 172 bp~ 5400 3;
#X obj 368 175 bp~ 5400 3;
#X obj 366 228 r tick;
#X obj 366 249 route phasemod;
#X connect 0 0 3 0;
#X connect 2 0 1 0;
#X connect 3 0 2 0;
#X connect 3 0 5 0;
#X connect 3 0 21 0;
#X connect 3 0 22 0;
#X connect 5 0 4 0;
#X connect 6 0 5 0;
#X connect 6 0 22 0;
#X connect 7 0 6 0;
#X connect 8 0 9 0;
#X connect 9 0 19 0;
#X connect 10 0 8 0;
#X connect 11 0 2 0;
#X connect 11 0 21 0;
#X connect 12 0 11 0;
#X connect 13 0 14 0;
#X connect 14 0 20 0;
#X connect 15 0 13 0;
#X connect 18 0 10 0;
#X connect 18 0 15 0;
#X connect 19 0 7 0;
#X connect 20 0 12 0;
#X connect 21 0 24 0;
#X connect 22 0 23 0;
#X connect 23 0 17 0;
#X connect 24 0 16 0;
#X connect 25 0 26 0;
#X connect 26 0 18 0;
#X restore 408 455 pd delay;
#X obj 457 129 + 1;
#X obj 545 63 random 89;
#X obj 545 84 + 10;
#X obj 545 198 pack 0 200;
#X obj 493 623 throw~ FX-RETURN-R;
#X obj 408 640 throw~ FX-RETURN-L;
#X obj 382 272 catch~ phasemod;
#X msg 285 92 1;
#X msg 320 92 0;
#X obj 285 322 line;
#X obj 285 301 pack f 5000;
#X obj 317 141 sel 1 0;
#X msg 317 162 1;
#X msg 348 162 0;
#X obj 348 230 pipe 5000;
#X msg 338 207 clear;
#X obj 317 183 t f b;
#X obj 317 255 t f f;
#X obj 317 279 switch~;
#X obj 245 50 list split 1;
#X obj 457 216 osc~ 10;
#X obj 545 39 loadbang;
#X obj 285 71 sel phasemod;
#X obj 408 433 *~;
#X obj 408 534 *~ 2.5;
#X obj 382 370 *~ 0.75;
#X obj 439 370 *~ 0.65;
#X obj 457 85 sel 0 1;
#X obj 285 118 t f f;
#X obj 457 17 a_onset 128 20;
#X obj 457 38 t b;
#X obj 457 59 random 2;
#X obj 408 585 e_pan;
#X obj 440 557 r panvalue;
#X obj 457 108 random 20;
#X obj 293 591 throw~ DELAY;
#X obj 359 455 *~ 0.3;
#X obj 416 489 *~ 0.5;
#X obj 245 29 r MIC;
#X obj 408 514 bp~ 8000 4;
#X obj 293 569 *~ 0.3;
#X obj 110 122 list split 1;
#X obj 110 101 r Sample-FX;
#X obj 150 188 spigot;
#X obj 189 148 swap 1;
#X obj 189 169 -;
#X msg 150 236 1;
#X msg 185 236 0;
#X obj 150 211 sel phasemod;
#X connect 0 0 3 1;
#X connect 1 0 0 1;
#X connect 2 0 5 0;
#X connect 3 0 2 0;
#X connect 4 0 10 0;
#X connect 5 0 33 0;
#X connect 6 0 46 0;
#X connect 6 1 44 0;
#X connect 7 0 27 0;
#X connect 8 0 9 0;
#X connect 9 0 4 0;
#X connect 10 0 1 0;
#X connect 13 0 3 0;
#X connect 13 0 32 0;
#X connect 13 0 36 0;
#X connect 14 0 35 0;
#X connect 14 0 51 0;
#X connect 15 0 35 0;
#X connect 15 0 51 0;
#X connect 16 0 30 1;
#X connect 17 0 16 0;
#X connect 18 0 19 0;
#X connect 18 1 20 0;
#X connect 19 0 23 0;
#X connect 20 0 21 0;
#X connect 21 0 24 0;
#X connect 22 0 21 0;
#X connect 23 0 24 0;
#X connect 23 1 22 0;
#X connect 24 0 25 0;
#X connect 26 1 29 0;
#X connect 27 0 0 0;
#X connect 28 0 8 0;
#X connect 29 0 14 0;
#X connect 29 1 15 0;
#X connect 30 0 6 0;
#X connect 31 0 39 0;
#X connect 31 0 47 0;
#X connect 32 0 30 0;
#X connect 32 0 43 0;
#X connect 33 0 30 0;
#X connect 34 0 41 0;
#X connect 34 1 8 0;
#X connect 35 0 17 0;
#X connect 35 1 18 0;
#X connect 36 0 37 0;
#X connect 37 0 38 0;
#X connect 38 0 34 0;
#X connect 39 0 12 0;
#X connect 39 1 11 0;
#X connect 40 0 39 1;
#X connect 41 0 7 0;
#X connect 43 0 46 0;
#X connect 44 0 46 0;
#X connect 45 0 26 0;
#X connect 46 0 31 0;
#X connect 47 0 42 0;
#X connect 48 1 50 0;
#X connect 49 0 48 0;
#X connect 50 0 55 0;
#X connect 51 0 52 0;
#X connect 51 1 52 1;
#X connect 52 0 50 1;
#X connect 53 0 35 0;
#X connect 54 0 35 0;
#X connect 55 0 53 0;
#X connect 55 1 54 0;
#X restore 43 460 pd phasemod;
#N canvas 176 35 953 576 radio 0;
#X obj 386 1 r tick;
#X obj 117 104 hip~ 500;
#X obj 116 124 lop~ 3000;
#X obj 267 169 sel 0 8;
#X obj 386 469 throw~ LEFT;
#X obj 476 469 throw~ RIGHT;
#X obj 280 469 throw~ REVERB;
#X obj 386 133 sel 8;
#X msg 267 218 clear \, start;
#X obj 386 113 mod 48;
#X obj 116 266 u_record liverec1 3000;
#X msg 386 330 liverec1 1 1 0 \$1;
#X obj 386 238 t f b;
#X obj 386 48 / 2;
#X obj 386 69 int;
#X obj 386 93 change;
#X obj 535 281 line;
#X msg 535 78 1;
#X msg 570 78 0;
#X obj 558 240 switch~;
#X obj 535 100 t f f f;
#X obj 535 260 pack f 2500;
#X obj 558 125 sel 1 0;
#X msg 558 146 1;
#X msg 589 146 0;
#X obj 589 217 pipe 5000;
#X msg 582 195 clear;
#X obj 558 167 t f b;
#X obj 495 33 list split 1;
#X obj 386 351 s_playtable;
#X obj 386 377 *~;
#X obj 535 57 sel radio;
#X obj 386 26 spigot 0;
#X obj 117 82 catch~ radio;
#X obj 386 154 random 3;
#X obj 386 175 sel 0;
#X obj 386 196 random 1500;
#X obj 386 217 + 1500;
#X obj 495 12 r MIC;
#X connect 0 0 32 0;
#X connect 1 0 2 0;
#X connect 2 0 10 0;
#X connect 3 0 8 0;
#X connect 7 0 34 0;
#X connect 8 0 10 1;
#X connect 9 0 3 0;
#X connect 9 0 7 0;
#X connect 11 0 29 0;
#X connect 12 0 11 0;
#X connect 13 0 14 0;
#X connect 14 0 15 0;
#X connect 15 0 9 0;
#X connect 16 0 30 1;
#X connect 17 0 20 0;
#X connect 18 0 20 0;
#X connect 20 0 21 0;
#X connect 20 1 22 0;
#X connect 20 2 32 1;
#X connect 21 0 16 0;
#X connect 22 0 23 0;
#X connect 22 1 24 0;
#X connect 23 0 27 0;
#X connect 24 0 25 0;
#X connect 25 0 19 0;
#X connect 26 0 25 0;
#X connect 27 0 19 0;
#X connect 27 1 26 0;
#X connect 28 1 31 0;
#X connect 29 0 30 0;
#X connect 30 0 4 0;
#X connect 30 0 5 0;
#X connect 30 0 6 0;
#X connect 31 0 17 0;
#X connect 31 1 18 0;
#X connect 32 0 13 0;
#X connect 33 0 1 0;
#X connect 34 0 35 0;
#X connect 35 0 36 0;
#X connect 36 0 37 0;
#X connect 37 0 12 0;
#X connect 38 0 28 0;
#X restore 43 376 pd radio;
#N canvas 137 84 936 630 noise-synth 0;
#X obj 155 138 mtof;
#X obj 244 141 mtof;
#X obj 335 141 mtof;
#X obj 218 70 r notes;
#X obj 218 92 unpack f f f;
#X obj 137 236 sig~;
#N canvas 0 22 817 452 notes 0;
#X msg 195 183 59 63 66;
#X msg 265 183 59 64 68;
#X obj 195 19 r tick;
#X obj 195 70 mod 128;
#X obj 195 153 sel 0 64 96 112;
#X obj 195 330 s notes;
#X msg 428 226 63 68 70;
#X obj 195 114 route 0 1;
#X obj 290 71 tgl 15 0 empty empty empty 17 7 0 10 -262144 -1 -1 0
1;
#X obj 356 206 sel 0 32 64 96;
#X msg 356 227 59 63 66;
#X msg 451 247 61 65 68;
#X msg 385 247 63 60 68;
#X obj 195 92 list prepend 0;
#X msg 336 183 62 67 71;
#X obj 195 46 spigot 0;
#X obj 107 129 loadbang;
#X obj 248 20 inlet;
#X connect 0 0 5 0;
#X connect 1 0 5 0;
#X connect 2 0 15 0;
#X connect 3 0 13 0;
#X connect 4 0 0 0;
#X connect 4 1 1 0;
#X connect 4 2 14 0;
#X connect 4 3 1 0;
#X connect 6 0 5 0;
#X connect 7 0 4 0;
#X connect 7 1 9 0;
#X connect 8 0 13 1;
#X connect 9 0 10 0;
#X connect 9 1 12 0;
#X connect 9 2 6 0;
#X connect 9 3 11 0;
#X connect 10 0 5 0;
#X connect 11 0 5 0;
#X connect 12 0 5 0;
#X connect 13 0 7 0;
#X connect 14 0 5 0;
#X connect 15 0 3 0;
#X connect 16 0 0 0;
#X connect 17 0 15 1;
#X restore 562 141 pd notes;
#N canvas 0 22 628 452 delay 0;
#X obj 93 172 bp~ 5400 2;
#X obj 368 175 bp~ 5400 2;
#X obj 452 41 m_bpm2ms;
#X floatatom 452 83 7 0 0 0 - - -;
#X msg 450 8 88;
#X obj 452 62 / 3;
#X obj 250 58 inlet~;
#X obj 252 389 outlet~;
#X obj 252 368 *~ 0.5;
#X obj 250 79 *~ 0.5;
#X obj 93 208 delwrite~ \$0-noise-l 341;
#X obj 368 208 delwrite~ \$0-noise-r 228;
#X obj 93 232 delread~ \$0-noise-l 10;
#X obj 367 239 delread~ \$0-noise-r 5;
#X obj 368 152 *~ 0.5;
#X obj 93 149 *~ 0.5;
#X connect 0 0 10 0;
#X connect 1 0 11 0;
#X connect 2 0 5 0;
#X connect 4 0 2 0;
#X connect 5 0 3 0;
#X connect 6 0 9 0;
#X connect 8 0 7 0;
#X connect 9 0 8 0;
#X connect 9 0 14 0;
#X connect 9 0 15 0;
#X connect 12 0 8 0;
#X connect 12 0 14 0;
#X connect 13 0 8 0;
#X connect 13 0 15 0;
#X connect 14 0 1 0;
#X connect 15 0 0 0;
#X restore 118 41 pd delay;
#X obj 118 63 *~ 1;
#X obj 118 499 throw~ FX-RETURN-L;
#X obj 249 480 throw~ FX-RETURN-R;
#X obj 19 447 throw~ REVERB;
#X obj 41 185 *~ 0.003;
#X obj 118 299 vcf~ 3;
#X obj 137 216 * 20;
#X obj 249 439 delwrite~ noise 15;
#X obj 249 459 delread~ noise 15;
#X obj 432 281 line;
#X msg 432 78 1;
#X msg 467 78 0;
#X obj 455 240 switch~;
#X obj 432 100 t f f f;
#X obj 432 260 pack f 2500;
#X obj 455 125 sel 1 0;
#X msg 455 146 1;
#X msg 486 146 0;
#X obj 486 217 pipe 5000;
#X msg 479 195 clear;
#X obj 455 167 t f b;
#X obj 392 33 list split 1;
#X obj 118 411 *~;
#X obj 136 391 * 20;
#X obj 432 57 sel noise-synth;
#X text 117 541 Tune to track;
#N canvas 0 22 628 452 delay 0;
#X obj 93 172 bp~ 5400 2;
#X obj 368 175 bp~ 5400 2;
#X obj 452 41 m_bpm2ms;
#X floatatom 452 83 7 0 0 0 - - -;
#X msg 450 8 88;
#X obj 452 62 / 3;
#X obj 250 58 inlet~;
#X obj 252 389 outlet~;
#X obj 252 368 *~ 0.5;
#X obj 250 79 *~ 0.5;
#X obj 93 206 delwrite~ \$0-noise2-l 341;
#X obj 93 232 delread~ \$0-noise2-l 341;
#X obj 368 208 delwrite~ \$0-noise2-r 228;
#X obj 367 240 delread~ \$0-noise2-r 227;
#X obj 371 153 *~ 0.5;
#X obj 93 149 *~ 0.5;
#X connect 0 0 10 0;
#X connect 1 0 12 0;
#X connect 2 0 5 0;
#X connect 4 0 2 0;
#X connect 5 0 3 0;
#X connect 6 0 9 0;
#X connect 8 0 7 0;
#X connect 9 0 8 0;
#X connect 9 0 14 0;
#X connect 9 0 15 0;
#X connect 11 0 8 0;
#X connect 11 0 14 0;
#X connect 13 0 8 0;
#X connect 13 0 15 0;
#X connect 14 0 1 0;
#X connect 15 0 0 0;
#X restore 118 328 pd delay;
#X obj 118 184 bp~ 100 80;
#X obj 207 184 bp~ 100 80;
#X obj 298 183 bp~ 100 80;
#X obj 118 349 limiter~;
#X obj 392 14 r MIC;
#X obj 118 15 catch~ noise-synth;
#X connect 0 0 14 0;
#X connect 0 0 35 1;
#X connect 1 0 36 1;
#X connect 2 0 37 1;
#X connect 3 0 4 0;
#X connect 4 0 0 0;
#X connect 4 1 1 0;
#X connect 4 2 2 0;
#X connect 5 0 13 1;
#X connect 7 0 8 0;
#X connect 8 0 12 0;
#X connect 8 0 35 0;
#X connect 8 0 36 0;
#X connect 8 0 37 0;
#X connect 12 0 13 0;
#X connect 14 0 5 0;
#X connect 16 0 10 0;
#X connect 17 0 31 0;
#X connect 18 0 21 0;
#X connect 19 0 21 0;
#X connect 21 0 22 0;
#X connect 21 1 23 0;
#X connect 21 2 6 0;
#X connect 22 0 17 0;
#X connect 23 0 24 0;
#X connect 23 1 25 0;
#X connect 24 0 28 0;
#X connect 25 0 26 0;
#X connect 26 0 20 0;
#X connect 27 0 26 0;
#X connect 28 0 20 0;
#X connect 28 1 27 0;
#X connect 29 1 32 0;
#X connect 30 0 9 0;
#X connect 30 0 15 0;
#X connect 30 0 11 0;
#X connect 31 0 30 1;
#X connect 32 0 18 0;
#X connect 32 1 19 0;
#X connect 34 0 38 0;
#X connect 35 0 13 0;
#X connect 36 0 13 0;
#X connect 37 0 13 0;
#X connect 38 0 30 0;
#X connect 39 0 29 0;
#X connect 40 0 7 0;
#X restore 43 334 pd noise-synth;
#N canvas 75 22 636 527 spacewobble 0;
#N canvas 0 22 1200 644 funkyverb 0;
#X obj 161 497 +~;
#X obj 520 105 inlet;
#X obj 184 407 *~;
#X obj 486 412 *~;
#X obj 285 412 *~;
#X obj 387 412 *~;
#X obj 443 546 -~;
#X obj 364 545 -~;
#X obj 239 537 +~;
#X obj 161 534 +~;
#X obj 162 444 +~;
#X obj 262 440 +~;
#X obj 464 501 -~;
#X obj 387 499 +~;
#X obj 239 500 -~;
#X obj 452 105 inlet;
#X obj 609 429 line~;
#X obj 509 374 line~;
#X obj 530 500 *~;
#X obj 599 501 *~;
#X obj 609 357 dbtorms;
#X obj 609 403 pack 0 30;
#X obj 520 211 pack 0 50;
#X obj 9 390 inlet~;
#X obj 530 525 outlet~;
#X obj 599 525 outlet~;
#X obj 520 187 / 200;
#X obj 520 162 clip 0 100;
#X obj 52 236 lop~;
#X obj 625 143 f \$3;
#X obj 696 143 f \$4;
#X obj 367 106 loadbang;
#X obj 625 167 moses 1;
#X msg 631 193 3000;
#X obj 705 193 clip 0 100;
#X obj 618 216 f;
#X obj 618 105 inlet;
#X obj 696 109 inlet;
#X obj 705 216 f;
#X obj 705 239 * 0.01;
#X obj 705 263 pack 0 50;
#X obj 705 287 line~;
#X obj 29 269 -~;
#X obj 28 300 *~;
#X obj 16 331 +~;
#X obj 132 240 lop~;
#X obj 106 274 -~;
#X obj 105 309 *~;
#X obj 95 333 +~;
#X obj 214 245 lop~;
#X obj 188 273 -~;
#X obj 187 314 *~;
#X obj 176 339 +~;
#X obj 308 249 lop~;
#X obj 281 274 -~;
#X obj 281 318 *~;
#X obj 258 342 +~;
#X obj 609 379 * 0.125;
#X text 403 10 control inlets:;
#X text 400 29 1: output level \, dB \, 0-100;
#X text 399 79 4: high frequency damping \, 0-100;
#X text 400 62 3: crossover frequency in Hz. (3000 default);
#X text 400 45 2: liveness \, 0-100 \, usually between 85 and 100;
#X obj 452 137 f 80;
#X obj 520 138 f 80;
#X obj 16 121 vd~ \$0-del1 58.6435;
#X obj 94 143 vd~ \$0-del2 69.4325;
#X obj 176 165 vd~ \$0-del3 74.5234;
#X obj 258 189 vd~ \$0-del4 86.1244;
#X obj 17 92 +~ 58.6435;
#X obj 97 102 +~ 69.4325;
#X obj 177 122 +~ 74.5234;
#X obj 257 142 +~ 86.1244;
#X obj 161 641 delwrite~ \$0-del1 62.6435;
#X obj 240 617 delwrite~ \$0-del2 73.4325;
#X obj 365 595 delwrite~ \$0-del3 78.5234;
#X obj 444 573 delwrite~ \$0-del4 90.1244;
#X obj 138 75 s~ \$0-ER;
#N canvas 345 88 355 597 early-reflect 0;
#X obj 119 477 delread~ \$0-ref6 13.645;
#X obj 119 453 delwrite~ \$0-ref6 13.645;
#X obj 106 400 delread~ \$0-ref5 16.364;
#X obj 106 376 delwrite~ \$0-ref5 16.364;
#X obj 102 324 delread~ \$0-ref4 19.392;
#X obj 102 300 delwrite~ \$0-ref4 19.392;
#X obj 106 247 delread~ \$0-ref3 25.796;
#X obj 106 223 delwrite~ \$0-ref3 25.796;
#X obj 107 169 delread~ \$0-ref2 43.5337;
#X obj 107 145 delwrite~ \$0-ref2 43.5337;
#X obj 84 119 -~;
#X obj 49 119 +~;
#X obj 50 195 +~;
#X obj 85 196 -~;
#X obj 84 275 -~;
#X obj 49 274 +~;
#X obj 82 349 -~;
#X obj 48 350 +~;
#X obj 83 428 -~;
#X obj 49 428 +~;
#X obj 65 7 inlet~;
#X obj 109 46 delwrite~ \$0-ref1 75.2546;
#X obj 49 508 outlet~;
#X obj 119 507 outlet~;
#X obj 228 22 r~ \$0-ER;
#X obj 110 90 vd~ \$0-ref1 75.2546;
#X obj 110 70 +~ 73.2546;
#X connect 0 0 23 0;
#X connect 2 0 19 1;
#X connect 2 0 18 1;
#X connect 4 0 17 1;
#X connect 4 0 16 1;
#X connect 6 0 15 1;
#X connect 6 0 14 1;
#X connect 8 0 12 1;
#X connect 8 0 13 1;
#X connect 10 0 9 0;
#X connect 11 0 13 0;
#X connect 11 0 12 0;
#X connect 12 0 15 0;
#X connect 12 0 14 0;
#X connect 13 0 7 0;
#X connect 14 0 5 0;
#X connect 15 0 17 0;
#X connect 15 0 16 0;
#X connect 16 0 3 0;
#X connect 17 0 19 0;
#X connect 17 0 18 0;
#X connect 18 0 1 0;
#X connect 19 0 22 0;
#X connect 20 0 11 0;
#X connect 20 0 10 0;
#X connect 20 0 21 0;
#X connect 24 0 26 0;
#X connect 25 0 11 1;
#X connect 25 0 10 1;
#X connect 26 0 25 0;
#X restore 9 416 pd early-reflect;
#X obj 17 51 *~ 8;
#X obj 17 32 osc~ 1;
#X connect 0 0 9 0;
#X connect 0 0 7 0;
#X connect 1 0 64 0;
#X connect 2 0 10 1;
#X connect 3 0 12 1;
#X connect 3 0 13 1;
#X connect 4 0 11 1;
#X connect 5 0 13 0;
#X connect 5 0 12 0;
#X connect 6 0 76 0;
#X connect 7 0 75 0;
#X connect 8 0 74 0;
#X connect 9 0 73 0;
#X connect 10 0 14 0;
#X connect 10 0 0 0;
#X connect 10 0 18 0;
#X connect 11 0 0 1;
#X connect 11 0 14 1;
#X connect 11 0 19 0;
#X connect 12 0 8 1;
#X connect 12 0 6 1;
#X connect 13 0 9 1;
#X connect 13 0 7 1;
#X connect 14 0 8 0;
#X connect 14 0 6 0;
#X connect 15 0 63 0;
#X connect 16 0 18 1;
#X connect 16 0 19 1;
#X connect 17 0 4 1;
#X connect 17 0 2 1;
#X connect 17 0 5 1;
#X connect 17 0 3 1;
#X connect 18 0 24 0;
#X connect 19 0 25 0;
#X connect 20 0 57 0;
#X connect 21 0 16 0;
#X connect 22 0 17 0;
#X connect 23 0 78 0;
#X connect 26 0 22 0;
#X connect 27 0 26 0;
#X connect 28 0 42 0;
#X connect 29 0 32 0;
#X connect 30 0 34 0;
#X connect 31 0 29 0;
#X connect 31 0 30 0;
#X connect 31 0 63 0;
#X connect 31 0 64 0;
#X connect 32 0 33 0;
#X connect 32 1 35 0;
#X connect 33 0 35 0;
#X connect 34 0 38 0;
#X connect 35 0 28 1;
#X connect 35 0 45 1;
#X connect 35 0 49 1;
#X connect 35 0 53 1;
#X connect 36 0 35 0;
#X connect 37 0 30 0;
#X connect 38 0 39 0;
#X connect 39 0 40 0;
#X connect 40 0 41 0;
#X connect 41 0 43 1;
#X connect 41 0 47 1;
#X connect 41 0 51 1;
#X connect 41 0 55 1;
#X connect 42 0 43 0;
#X connect 43 0 44 1;
#X connect 44 0 2 0;
#X connect 45 0 46 0;
#X connect 46 0 47 0;
#X connect 47 0 48 1;
#X connect 48 0 4 0;
#X connect 49 0 50 0;
#X connect 50 0 51 0;
#X connect 51 0 52 1;
#X connect 52 0 5 0;
#X connect 53 0 54 0;
#X connect 54 0 55 0;
#X connect 55 0 56 1;
#X connect 56 0 3 0;
#X connect 57 0 21 0;
#X connect 63 0 20 0;
#X connect 64 0 27 0;
#X connect 65 0 28 0;
#X connect 65 0 42 1;
#X connect 65 0 44 0;
#X connect 66 0 45 0;
#X connect 66 0 46 1;
#X connect 66 0 48 0;
#X connect 67 0 52 0;
#X connect 67 0 49 0;
#X connect 67 0 50 1;
#X connect 68 0 56 0;
#X connect 68 0 54 1;
#X connect 68 0 53 0;
#X connect 69 0 65 0;
#X connect 70 0 66 0;
#X connect 71 0 67 0;
#X connect 72 0 68 0;
#X connect 78 0 10 0;
#X connect 78 1 11 0;
#X connect 79 0 69 0;
#X connect 79 0 77 0;
#X connect 79 0 70 0;
#X connect 79 0 71 0;
#X connect 79 0 72 0;
#X connect 80 0 79 0;
#X restore 125 239 pd funkyverb;
#X msg 145 196 90;
#X msg 175 196 85;
#X msg 242 196 10;
#X obj 145 117 loadbang;
#X obj 125 347 clip~ -1 1;
#X obj 206 347 clip~ -1 1;
#X obj 180 505 throw~ REVERB;
#X obj 125 75 catch~ spacewobble;
#X msg 300 68 1;
#X msg 335 68 0;
#X obj 300 95 t f f;
#X obj 300 298 line;
#X obj 300 277 pack f 5000;
#X obj 332 117 sel 1 0;
#X msg 332 138 1;
#X msg 363 138 0;
#X obj 363 206 pipe 5000;
#X msg 353 183 clear;
#X obj 332 159 t f b;
#X obj 332 231 t f f;
#X obj 332 255 switch~;
#X obj 260 26 list split 1;
#X obj 125 370 *~;
#X obj 206 370 *~;
#X obj 300 47 sel spacewobble;
#X obj 125 453 throw~ FX-RETURN-L;
#X obj 206 433 throw~ FX-RETURN-R;
#X msg 205 196 3000;
#X obj 206 405 hip~ 600;
#X obj 125 406 hip~ 600;
#X obj 260 5 r MIC;
#X obj 426 147 list split 1;
#X obj 426 126 r Sample-FX;
#X obj 466 213 spigot;
#X obj 505 173 swap 1;
#X obj 505 194 -;
#X msg 466 261 1;
#X msg 501 261 0;
#X obj 466 236 sel spacewobble;
#X connect 0 0 5 0;
#X connect 0 1 6 0;
#X connect 1 0 0 1;
#X connect 2 0 0 2;
#X connect 3 0 0 4;
#X connect 4 0 1 0;
#X connect 4 0 2 0;
#X connect 4 0 28 0;
#X connect 4 0 3 0;
#X connect 5 0 23 0;
#X connect 6 0 24 0;
#X connect 8 0 0 0;
#X connect 9 0 11 0;
#X connect 9 0 35 0;
#X connect 10 0 11 0;
#X connect 10 0 35 0;
#X connect 11 0 13 0;
#X connect 11 1 14 0;
#X connect 12 0 23 1;
#X connect 12 0 24 1;
#X connect 13 0 12 0;
#X connect 14 0 15 0;
#X connect 14 1 16 0;
#X connect 15 0 19 0;
#X connect 16 0 17 0;
#X connect 17 0 20 0;
#X connect 18 0 17 0;
#X connect 19 0 20 0;
#X connect 19 1 18 0;
#X connect 20 0 21 0;
#X connect 22 1 25 0;
#X connect 23 0 30 0;
#X connect 23 0 7 0;
#X connect 24 0 29 0;
#X connect 24 0 7 0;
#X connect 25 0 9 0;
#X connect 25 1 10 0;
#X connect 28 0 0 3;
#X connect 29 0 27 0;
#X connect 30 0 26 0;
#X connect 31 0 22 0;
#X connect 32 1 34 0;
#X connect 33 0 32 0;
#X connect 34 0 39 0;
#X connect 35 0 36 0;
#X connect 35 1 36 1;
#X connect 36 0 34 1;
#X connect 37 0 11 0;
#X connect 38 0 11 0;
#X connect 39 0 37 0;
#X connect 39 1 38 0;
#X restore 43 439 pd spacewobble;
#N canvas 0 22 775 609 motor 0;
#X obj 388 182 vd~ stringtest 10;
#X obj 388 203 lop~ 3000;
#X obj 388 322 delwrite~ stringtest 40;
#X obj 388 98 random 39;
#X obj 388 119 + 1;
#X obj 388 161 line~;
#X msg 388 140 \$1 400;
#X obj 388 28 a_onset 128 20;
#X obj 388 78 t b;
#X obj 311 227 catch~ motor;
#X obj 311 536 throw~ FX-RETURN-L;
#X obj 420 557 throw~ FX-RETURN-R;
#X obj 311 405 *~;
#X msg 156 71 1;
#X msg 191 71 0;
#X obj 156 98 t f f;
#X obj 156 301 line;
#X obj 156 280 pack f 5000;
#X obj 188 120 sel 1 0;
#X msg 188 141 1;
#X msg 219 141 0;
#X obj 219 209 pipe 5000;
#X msg 209 186 clear;
#X obj 188 162 t f b;
#X obj 188 234 t f f;
#X obj 188 258 switch~;
#X obj 116 29 list split 1;
#X obj 156 50 sel motor;
#X obj 304 26 loadbang;
#X obj 417 508 throw~ DELAY;
#X obj 388 282 *~ 0.98;
#N canvas 500 156 450 300 monsterlop 0;
#X obj 138 260 outlet~;
#X obj 136 16 inlet~;
#X obj 138 47 lop~ \$1;
#X obj 310 17 inlet;
#X obj 138 72 lop~ \$1;
#X obj 139 97 lop~ \$1;
#X obj 138 122 lop~ \$1;
#X connect 1 0 2 0;
#X connect 2 0 4 0;
#X connect 3 0 2 1;
#X connect 3 0 4 1;
#X connect 3 0 5 1;
#X connect 3 0 6 1;
#X connect 4 0 5 0;
#X connect 5 0 6 0;
#X connect 6 0 0 0;
#X restore 388 301 pd monsterlop;
#N canvas 0 22 460 414 nofeedback-analysis 0;
#X obj 48 28 inlet~;
#X obj 48 269 max 80;
#X obj 48 103 env~ 1024;
#X obj 48 220 +;
#X obj 48 195 * 0.05;
#X obj 80 221 * 0.95;
#X obj 48 246 min 6000;
#X obj 48 357 outlet;
#X obj 48 139 clip 84 94;
#X obj 48 169 m_scale 84 94 6000 80;
#X connect 0 0 2 0;
#X connect 1 0 7 0;
#X connect 2 0 8 0;
#X connect 3 0 5 0;
#X connect 3 0 6 0;
#X connect 4 0 3 0;
#X connect 5 0 3 1;
#X connect 6 0 1 0;
#X connect 8 0 9 0;
#X connect 9 0 4 0;
#X restore 476 281 pd nofeedback-analysis;
#X obj 397 53 bng 15 250 50 0 empty empty empty 17 7 0 10 -262144 -1
-1;
#X obj 329 387 * 2;
#X obj 417 487 *~ 0.35;
#X obj 311 343 bp~ 4000 2;
#X obj 388 260 limiter~ 70 10;
#X obj 116 8 r MIC;
#X connect 0 0 1 0;
#X connect 1 0 32 0;
#X connect 1 0 36 0;
#X connect 1 0 37 0;
#X connect 3 0 4 0;
#X connect 4 0 6 0;
#X connect 5 0 0 0;
#X connect 6 0 5 0;
#X connect 7 0 8 0;
#X connect 8 0 3 0;
#X connect 9 0 2 0;
#X connect 9 0 7 0;
#X connect 12 0 10 0;
#X connect 12 0 11 0;
#X connect 13 0 15 0;
#X connect 14 0 15 0;
#X connect 15 0 17 0;
#X connect 15 1 18 0;
#X connect 16 0 34 0;
#X connect 17 0 16 0;
#X connect 18 0 19 0;
#X connect 18 1 20 0;
#X connect 19 0 23 0;
#X connect 20 0 21 0;
#X connect 21 0 24 0;
#X connect 22 0 21 0;
#X connect 23 0 24 0;
#X connect 23 1 22 0;
#X connect 24 0 25 0;
#X connect 26 1 27 0;
#X connect 27 0 13 0;
#X connect 27 1 14 0;
#X connect 28 0 8 0;
#X connect 30 0 31 0;
#X connect 31 0 2 0;
#X connect 32 0 31 1;
#X connect 33 0 8 0;
#X connect 34 0 12 1;
#X connect 35 0 29 0;
#X connect 36 0 12 0;
#X connect 37 0 30 0;
#X connect 38 0 26 0;
#X restore 43 481 pd motor;
#N canvas 132 39 1061 714 contact 0;
#X obj 456 274 mtof;
#X obj 456 296 / 8.1758;
#X obj 456 370 line~;
#X obj 65 138 tabwrite~ box;
#X obj 456 484 tabread4~ box;
#X obj 22 82 bang;
#X obj 456 461 +~ 1;
#X obj 456 399 phasor~ 1;
#X obj 456 339 pack 0 100;
#X msg 363 179 0;
#X msg 403 179 4;
#X msg 440 178 5;
#X msg 477 178 7;
#X msg 517 178 11;
#X msg 556 178 12;
#X obj 405 128 select 0 1 2 3 4 5;
#X obj 405 90 random 6;
#X obj 405 67 metro 1000;
#X obj 613 447 tabread4~ box;
#X obj 613 424 +~ 1;
#X obj 613 374 phasor~ 1;
#X obj 613 352 line~;
#X obj 275 320 mtof;
#X obj 275 342 / 8.1758;
#X obj 275 394 line~;
#X obj 275 508 tabread4~ box;
#X obj 275 481 +~ 1;
#X obj 275 430 phasor~ 1;
#X obj 275 363 pack 0 100;
#X msg 182 253 0;
#X msg 222 253 4;
#X msg 259 252 5;
#X msg 296 252 7;
#X msg 336 252 11;
#X msg 370 252 12;
#X obj 224 202 select 0 1 2 3 4 5;
#X obj 224 163 random 6;
#X obj 613 285 mtof;
#X obj 613 307 / 8.1758;
#X obj 613 329 pack 0 100;
#X msg 613 162 -12;
#X msg 631 183 -12;
#X msg 649 162 -12;
#X msg 668 183 -5;
#X msg 686 162 -5;
#X msg 704 183 -15;
#X msg 723 162 -7;
#X msg 741 183 -7;
#X msg 759 162 -3;
#X obj 613 142 select 0 1 2 3 4 5 6 7 8;
#X obj 613 116 random 9;
#X obj 613 96 metro 4000;
#X obj 405 16 loadbang;
#X obj 613 42 loadbang;
#X obj 495 648 throw~ DELAY;
#X obj 22 59 metro 2000;
#X obj 456 671 throw~ FX-RETURN-L;
#X obj 505 691 throw~ FX-RETURN-R;
#X obj 275 454 *~ 22050;
#X obj 456 434 *~ 22050;
#X obj 613 397 *~ 22050;
#X obj 22 12 loadbang;
#X obj 65 82 catch~ contact;
#X obj 495 627 *~ 0.5;
#X msg 764 301 1;
#X msg 799 301 0;
#X obj 764 531 line;
#X obj 764 510 pack f 5000;
#X obj 773 352 sel 1 0;
#X msg 773 373 1;
#X msg 804 373 0;
#X obj 804 444 pipe 5000;
#X msg 794 421 clear;
#X obj 773 394 t f b;
#X obj 773 466 t f f;
#X obj 773 490 switch~;
#X obj 724 259 list split 1;
#X obj 456 603 *~;
#X obj 764 280 sel contact;
#X obj 764 328 t f f f;
#X obj 840 353 s metro;
#X obj 625 70 r metro;
#X obj 415 42 r metro;
#X obj 38 34 r metro;
#X obj 878 -1 table box 44103;
#X obj 724 238 r MIC;
#X obj 874 411 list split 1;
#X obj 874 390 r Sample-FX;
#X obj 914 477 spigot;
#X obj 953 437 swap 1;
#X obj 953 458 -;
#X msg 914 525 1;
#X msg 949 525 0;
#X obj 914 500 sel contact;
#X connect 0 0 1 0;
#X connect 1 0 8 0;
#X connect 2 0 7 0;
#X connect 4 0 77 0;
#X connect 5 0 3 0;
#X connect 6 0 4 0;
#X connect 7 0 59 0;
#X connect 8 0 2 0;
#X connect 9 0 0 0;
#X connect 10 0 0 0;
#X connect 11 0 0 0;
#X connect 12 0 0 0;
#X connect 13 0 0 0;
#X connect 14 0 0 0;
#X connect 15 0 9 0;
#X connect 15 1 10 0;
#X connect 15 2 11 0;
#X connect 15 3 12 0;
#X connect 15 4 13 0;
#X connect 15 5 14 0;
#X connect 16 0 15 0;
#X connect 17 0 16 0;
#X connect 17 0 36 0;
#X connect 18 0 77 0;
#X connect 19 0 18 0;
#X connect 20 0 60 0;
#X connect 21 0 20 0;
#X connect 22 0 23 0;
#X connect 23 0 28 0;
#X connect 24 0 27 0;
#X connect 25 0 77 0;
#X connect 26 0 25 0;
#X connect 27 0 58 0;
#X connect 28 0 24 0;
#X connect 29 0 22 0;
#X connect 30 0 22 0;
#X connect 31 0 22 0;
#X connect 32 0 22 0;
#X connect 33 0 22 0;
#X connect 34 0 22 0;
#X connect 35 0 29 0;
#X connect 35 1 30 0;
#X connect 35 2 31 0;
#X connect 35 3 32 0;
#X connect 35 4 33 0;
#X connect 35 5 34 0;
#X connect 36 0 35 0;
#X connect 37 0 38 0;
#X connect 38 0 39 0;
#X connect 39 0 21 0;
#X connect 40 0 37 0;
#X connect 41 0 37 0;
#X connect 42 0 37 0;
#X connect 43 0 37 0;
#X connect 44 0 37 0;
#X connect 45 0 37 0;
#X connect 46 0 37 0;
#X connect 47 0 37 0;
#X connect 48 0 37 0;
#X connect 49 0 40 0;
#X connect 49 1 41 0;
#X connect 49 2 42 0;
#X connect 49 3 43 0;
#X connect 49 4 44 0;
#X connect 49 5 45 0;
#X connect 49 6 46 0;
#X connect 49 7 47 0;
#X connect 49 8 48 0;
#X connect 50 0 49 0;
#X connect 51 0 50 0;
#X connect 52 0 17 0;
#X connect 53 0 51 0;
#X connect 55 0 5 0;
#X connect 58 0 26 0;
#X connect 59 0 6 0;
#X connect 60 0 19 0;
#X connect 61 0 55 0;
#X connect 62 0 3 0;
#X connect 63 0 54 0;
#X connect 64 0 79 0;
#X connect 64 0 89 0;
#X connect 65 0 79 0;
#X connect 65 0 89 0;
#X connect 66 0 77 1;
#X connect 67 0 66 0;
#X connect 68 0 69 0;
#X connect 68 1 70 0;
#X connect 69 0 73 0;
#X connect 70 0 71 0;
#X connect 71 0 74 0;
#X connect 72 0 71 0;
#X connect 73 0 74 0;
#X connect 73 1 72 0;
#X connect 74 0 75 0;
#X connect 76 1 78 0;
#X connect 77 0 56 0;
#X connect 77 0 63 0;
#X connect 77 0 57 0;
#X connect 78 0 64 0;
#X connect 78 1 65 0;
#X connect 79 0 67 0;
#X connect 79 1 68 0;
#X connect 79 2 80 0;
#X connect 81 0 51 0;
#X connect 82 0 17 0;
#X connect 83 0 55 0;
#X connect 85 0 76 0;
#X connect 86 1 88 0;
#X connect 87 0 86 0;
#X connect 88 0 93 0;
#X connect 89 0 90 0;
#X connect 89 1 90 1;
#X connect 90 0 88 1;
#X connect 91 0 79 0;
#X connect 92 0 79 0;
#X connect 93 0 91 0;
#X connect 93 1 92 0;
#X restore 43 502 pd contact;
#N canvas 187 22 894 720 cutter 0;
#X obj 279 208 e_repeater;
#X msg 292 175 num 0;
#X obj 489 97 sel 1 2 3 4 5 6 7;
#X msg 405 152 dry \$1;
#X obj 405 132 line;
#X obj 292 156 loadbang;
#X obj 406 67 swap 1;
#X obj 406 89 -;
#X msg 588 265 566.038;
#X msg 555 220 283.019;
#X msg 522 175 141.509;
#X msg 489 130 70.7547;
#X msg 572 243 424.528;
#X msg 538 198 212.264;
#X msg 505 153 106.132;
#X obj 279 646 e_pan;
#X obj 345 444 metro;
#X obj 345 485 f;
#X obj 376 485 + 1;
#X obj 345 507 mod 2;
#X msg 345 420 1;
#X msg 391 420 0;
#X obj 345 528 - 0.5;
#X obj 345 570 + 0.5;
#X obj 345 549 *;
#X obj 345 399 t b f b;
#X obj 489 299 s repeat-time;
#X obj 345 379 r repeat-time;
#X obj 346 183 r repeat-time;
#X obj 323 260 line;
#X obj 279 281 e_lop2 1000 2;
#X obj 406 112 pack f 500;
#X obj 323 133 sel 1;
#X obj 291 354 delread~ \$0-cutterdelay 566.038;
#X obj 291 311 *~ 1;
#X obj 396 259 swap 1;
#X obj 396 280 -;
#X obj 326 311 r repeat-time;
#X msg 355 215 100 1000;
#X obj 489 75 + 1;
#X obj 489 54 random 7;
#X obj 182 521 e_pitchshift;
#X msg 263 502 pitch \$1;
#X obj 263 482 f;
#X obj 181 542 lop~ 3000;
#X obj 279 626 lop~ 10000;
#X obj 291 333 delwrite~ \$0-cutterdelay 567;
#X obj 211 353 *~ 0.5;
#X obj 211 334 lop~ 800;
#N canvas 465 22 387 365 lfo 0;
#X obj 114 157 moses 100;
#X obj 124 184 swap 200;
#X obj 124 205 -;
#X obj 114 116 f;
#X obj 146 116 + 1;
#X obj 114 137 mod 200;
#X obj 114 234 / 100;
#X obj 114 255 outlet;
#X obj 114 93 inlet;
#X connect 0 0 6 0;
#X connect 0 1 1 0;
#X connect 1 0 2 0;
#X connect 1 1 2 1;
#X connect 2 0 6 0;
#X connect 3 0 4 0;
#X connect 3 0 5 0;
#X connect 4 0 3 1;
#X connect 5 0 0 0;
#X connect 6 0 7 0;
#X connect 8 0 3 0;
#X restore 391 506 pd lfo;
#X obj 345 465 t b b;
#X msg 323 235 100 \, 7000 10000;
#X obj 311 666 throw~ FX-RETURN-R;
#X obj 279 684 throw~ FX-RETURN-L;
#X obj 279 77 catch~ cutter;
#X obj 176 164 change;
#X obj 176 122 env~ 128;
#X obj 176 188 moses 1;
#X obj 176 251 pipe 10000;
#X msg 220 230 clear;
#X obj 188 209 t f b;
#X obj 389 -14 r drumbutton;
#X obj 489 34 sel 1;
#X obj 389 7 t f f b f f f;
#X obj 176 292 s drumbutton;
#X obj 176 684 throw~ DELAY;
#X obj 98 267 swap 0;
#X obj 98 288 -;
#X obj 98 393 line;
#X obj 98 414 int;
#X obj 98 309 max 0;
#X obj 98 350 - 13;
#X obj 98 329 * 41;
#X obj 98 184 sel 1;
#X obj 98 205 random 100;
#X obj 98 226 - 50;
#X obj 98 247 / 100;
#X msg 98 372 \$1 10000;
#X obj 176 143 > 96;
#X obj 279 399 hip~ 550;
#X obj 176 665 *~ 0.5;
#X msg 500 441 1;
#X msg 535 441 0;
#X obj 500 671 line;
#X obj 500 650 pack f 5000;
#X obj 532 492 sel 1 0;
#X msg 532 513 1;
#X msg 563 513 0;
#X obj 563 584 pipe 5000;
#X msg 553 561 clear;
#X obj 532 534 t f b;
#X obj 532 606 t f f;
#X obj 532 630 switch~;
#X obj 460 399 list split 1;
#X obj 279 606 *~;
#X obj 460 378 r MIC;
#X obj 500 468 t f f;
#X obj 580 535 s drumbutton;
#X obj 500 420 sel cutter;
#X obj 279 421 *~ 1.5;
#X obj 232 208 *~ 0.5;
#X obj 671 511 list split 1;
#X obj 671 490 r Sample-FX;
#X obj 711 577 spigot;
#X obj 750 537 swap 1;
#X obj 750 558 -;
#X msg 711 625 1;
#X msg 746 625 0;
#X obj 711 600 sel cutter;
#X connect 0 0 30 0;
#X connect 1 0 0 1;
#X connect 2 0 11 0;
#X connect 2 1 14 0;
#X connect 2 2 10 0;
#X connect 2 3 13 0;
#X connect 2 4 9 0;
#X connect 2 5 12 0;
#X connect 2 6 8 0;
#X connect 3 0 0 1;
#X connect 4 0 3 0;
#X connect 5 0 1 0;
#X connect 6 0 7 0;
#X connect 6 1 7 1;
#X connect 7 0 31 0;
#X connect 8 0 26 0;
#X connect 9 0 26 0;
#X connect 10 0 26 0;
#X connect 11 0 26 0;
#X connect 12 0 26 0;
#X connect 13 0 26 0;
#X connect 14 0 26 0;
#X connect 15 0 53 0;
#X connect 15 1 52 0;
#X connect 16 0 43 0;
#X connect 16 0 50 0;
#X connect 17 0 18 0;
#X connect 17 0 19 0;
#X connect 18 0 17 1;
#X connect 19 0 22 0;
#X connect 20 0 16 0;
#X connect 21 0 16 0;
#X connect 21 0 17 1;
#X connect 22 0 24 0;
#X connect 23 0 15 1;
#X connect 24 0 23 0;
#X connect 25 0 20 0;
#X connect 25 1 16 1;
#X connect 25 2 21 0;
#X connect 27 0 25 0;
#X connect 28 0 0 1;
#X connect 29 0 30 1;
#X connect 30 0 34 0;
#X connect 30 0 79 0;
#X connect 31 0 4 0;
#X connect 32 0 51 0;
#X connect 32 1 38 0;
#X connect 33 0 48 0;
#X connect 34 0 46 0;
#X connect 35 0 36 0;
#X connect 35 1 36 1;
#X connect 36 0 34 1;
#X connect 37 0 33 0;
#X connect 38 0 29 0;
#X connect 39 0 2 0;
#X connect 40 0 39 0;
#X connect 41 0 44 0;
#X connect 42 0 41 1;
#X connect 43 0 42 0;
#X connect 44 0 94 0;
#X connect 45 0 15 0;
#X connect 45 0 80 0;
#X connect 47 0 46 0;
#X connect 47 0 79 0;
#X connect 48 0 47 0;
#X connect 49 0 24 1;
#X connect 50 0 17 0;
#X connect 50 1 49 0;
#X connect 51 0 29 0;
#X connect 54 0 56 0;
#X connect 54 0 0 0;
#X connect 54 0 100 0;
#X connect 55 0 57 0;
#X connect 56 0 78 0;
#X connect 57 0 58 0;
#X connect 57 1 60 0;
#X connect 58 0 64 0;
#X connect 59 0 58 0;
#X connect 60 0 64 0;
#X connect 60 1 59 0;
#X connect 61 0 63 0;
#X connect 62 0 40 0;
#X connect 63 1 6 0;
#X connect 63 3 62 0;
#X connect 63 4 32 0;
#X connect 63 5 35 0;
#X connect 66 0 67 0;
#X connect 66 1 67 1;
#X connect 67 0 70 0;
#X connect 68 0 69 0;
#X connect 69 0 43 1;
#X connect 70 0 72 0;
#X connect 71 0 77 0;
#X connect 72 0 71 0;
#X connect 73 0 74 0;
#X connect 74 0 75 0;
#X connect 75 0 76 0;
#X connect 76 0 66 0;
#X connect 77 0 68 0;
#X connect 78 0 55 0;
#X connect 78 0 73 0;
#X connect 79 0 99 0;
#X connect 80 0 65 0;
#X connect 81 0 96 0;
#X connect 81 0 104 0;
#X connect 82 0 96 0;
#X connect 82 0 104 0;
#X connect 83 0 94 1;
#X connect 84 0 83 0;
#X connect 85 0 86 0;
#X connect 85 1 87 0;
#X connect 86 0 90 0;
#X connect 87 0 88 0;
#X connect 87 0 97 0;
#X connect 88 0 91 0;
#X connect 89 0 88 0;
#X connect 90 0 91 0;
#X connect 90 1 89 0;
#X connect 91 0 92 0;
#X connect 93 1 98 0;
#X connect 94 0 45 0;
#X connect 95 0 93 0;
#X connect 96 0 84 0;
#X connect 96 1 85 0;
#X connect 98 0 81 0;
#X connect 98 1 82 0;
#X connect 99 0 41 0;
#X connect 99 0 94 0;
#X connect 100 0 30 0;
#X connect 101 1 103 0;
#X connect 102 0 101 0;
#X connect 103 0 108 0;
#X connect 104 0 105 0;
#X connect 104 1 105 1;
#X connect 105 0 103 1;
#X connect 106 0 96 0;
#X connect 107 0 96 0;
#X connect 108 0 106 0;
#X connect 108 1 107 0;
#X restore 44 523 pd cutter;
#X msg 608 270 spacecho;
#X msg 608 290 radio;
#X text 358 673 Vocoder with osc instead of phasor as control input
;
#N canvas 323 22 517 651 rhythmic 0;
#X obj 251 193 r tick;
#X obj 179 494 *~;
#X obj 197 472 lop~ 40;
#X obj 251 401 sel 0 2 4 6;
#X obj 123 565 throw~ REVERB;
#X obj 251 365 route 0 1;
#X obj 286 257 sel 0;
#X obj 251 344 list prepend;
#X obj 354 400 sel 0 3 5 6;
#X obj 140 296 hip~ 300;
#X obj 105 585 throw~ CHORUS;
#X obj 159 233 line;
#X msg 159 57 1;
#X msg 194 57 0;
#X obj 140 317 *~;
#X obj 159 212 pack f 5000;
#X obj 191 164 pipe 5000;
#X msg 200 144 clear;
#X obj 168 124 t f b;
#X obj 159 83 t f f;
#X obj 191 184 switch~;
#X obj 251 233 mod 8;
#X obj 119 8 list split 1;
#X obj 179 355 *~ 0.3;
#X obj 251 427 0.1;
#X obj 325 426 0.4;
#X obj 428 425 0.4;
#X obj 354 426 0.1;
#X obj 179 529 throw~ FX-RETURN-L;
#X obj 265 549 throw~ FX-RETURN-R;
#X obj 123 543 *~ 0.3;
#X obj 159 34 sel rhythmic;
#X obj 140 275 catch~ rhythmic;
#X obj 119 -13 r MIC;
#X obj 251 213 route rhythmic;
#X obj 286 277 random 3;
#X obj 286 298 moses 2;
#X msg 286 319 0;
#X msg 332 319 1;
#X obj 191 103 moses 1;
#X obj 14 65 list split 1;
#X obj 14 44 r Sample-FX;
#X obj 54 131 spigot;
#X obj 93 91 swap 1;
#X obj 93 112 -;
#X msg 54 175 1;
#X msg 89 175 0;
#X obj 54 152 sel rhythmic;
#X obj 307 193 r sample-fx-tick;
#X connect 0 0 34 0;
#X connect 1 0 28 0;
#X connect 1 0 29 0;
#X connect 1 0 30 0;
#X connect 2 0 1 1;
#X connect 3 0 24 0;
#X connect 3 1 24 0;
#X connect 3 2 24 0;
#X connect 3 3 24 0;
#X connect 3 4 25 0;
#X connect 5 0 3 0;
#X connect 5 1 8 0;
#X connect 6 0 35 0;
#X connect 7 0 5 0;
#X connect 8 0 27 0;
#X connect 8 1 27 0;
#X connect 8 2 27 0;
#X connect 8 3 27 0;
#X connect 8 4 26 0;
#X connect 9 0 14 0;
#X connect 11 0 14 1;
#X connect 12 0 19 0;
#X connect 12 0 43 0;
#X connect 13 0 19 0;
#X connect 13 0 43 0;
#X connect 14 0 23 0;
#X connect 15 0 11 0;
#X connect 16 0 20 0;
#X connect 17 0 16 0;
#X connect 18 0 20 0;
#X connect 18 1 17 0;
#X connect 19 0 15 0;
#X connect 19 1 39 0;
#X connect 21 0 7 0;
#X connect 21 0 6 0;
#X connect 22 1 31 0;
#X connect 23 0 1 0;
#X connect 24 0 2 0;
#X connect 25 0 2 0;
#X connect 26 0 2 0;
#X connect 27 0 2 0;
#X connect 30 0 4 0;
#X connect 30 0 10 0;
#X connect 31 0 12 0;
#X connect 31 1 13 0;
#X connect 32 0 9 0;
#X connect 33 0 22 0;
#X connect 34 0 21 0;
#X connect 35 0 36 0;
#X connect 36 0 37 0;
#X connect 36 1 38 0;
#X connect 37 0 7 1;
#X connect 38 0 7 1;
#X connect 39 0 16 0;
#X connect 39 1 18 0;
#X connect 40 1 42 0;
#X connect 41 0 40 0;
#X connect 42 0 47 0;
#X connect 43 0 44 0;
#X connect 43 1 44 1;
#X connect 44 0 42 1;
#X connect 45 0 19 0;
#X connect 46 0 19 0;
#X connect 47 0 45 0;
#X connect 47 1 46 0;
#X connect 48 0 34 0;
#X restore 43 164 pd rhythmic;
#N canvas 47 22 948 720 d-delay 0;
#X obj 171 451 delwrite~ d-delay1 700;
#X obj 171 471 delread~ d-delay1 700;
#X obj 482 209 s d-delay-time;
#X obj 204 428 r d-delay-time;
#X obj 409 241 +;
#X obj 495 261 +;
#X obj 581 280 +;
#X obj 667 300 +;
#X obj 741 370 delwrite~ straight-delay 700;
#X obj 771 347 r d-delay-time;
#X obj 741 390 delread~ straight-delay;
#X obj 687 378 *~ 0.7;
#X obj 687 399 *~ 0.5;
#X obj 171 562 *~ 1;
#X obj 208 562 *~ 1;
#X obj 226 511 swap 1;
#X obj 226 532 -;
#X obj 226 491 t f f;
#X msg 365 179 1 -0.2;
#X obj 365 200 unpack f f;
#X obj 432 220 f;
#X obj 365 221 t f f;
#X msg 377 159 0 0.2;
#X obj 145 403 *~ 1;
#X obj 182 403 *~ 1;
#X obj 190 352 swap 1;
#X obj 190 373 -;
#X obj 190 332 t f f;
#X obj 754 319 +;
#X obj 687 482 *~ 1;
#X obj 724 482 *~ 1;
#X obj 712 441 swap 1;
#X obj 712 462 -;
#X obj 712 421 t f f;
#X msg 482 174 214;
#X msg 512 174 286;
#X msg 542 174 483;
#X obj 365 -33 r tick;
#X obj 365 8 mod 256;
#X obj 482 60 t b b;
#X obj 514 79 random 2;
#X obj 482 102 spigot 0;
#X obj 482 144 sel 0 1 2 3;
#X obj 482 123 random 3;
#X obj 365 30 sel 0 128;
#X obj 365 53 t b b;
#X obj 397 72 random 2;
#X obj 365 95 spigot 0;
#X obj 365 137 sel 0 1;
#X obj 365 115 random 2;
#X obj 508 664 throw~ REVERB;
#X obj 231 616 *~;
#X obj 145 616 *~;
#X obj 508 642 *~;
#X obj 581 300 d-delay 3 4;
#X obj 409 261 d-delay 1 2;
#X obj 667 320 d-delay 4 5;
#X obj 495 280 d-delay 2 3;
#X obj 482 482 s~ delfade;
#X obj 482 462 lop~ 0.2;
#X obj 526 616 lop~ 0.2;
#X obj 482 442 * 0.85;
#X obj 145 269 catch~ d-delay;
#X obj 145 290 *~;
#X obj 145 310 *~ 0.7;
#X obj 296 78 loadbang;
#X obj 163 251 line;
#X obj 163 230 pack f 5000;
#X obj 186 72 sel 1 0;
#X msg 186 93 1;
#X msg 217 93 0;
#X obj 217 161 pipe 5000;
#X msg 207 138 clear;
#X obj 186 114 t f b;
#X obj 186 186 t f f;
#X obj 186 210 switch~;
#X msg 163 28 1;
#X msg 196 28 0;
#X obj 123 -13 list split 1;
#X obj 163 7 sel d-delay;
#X obj 526 593 * 0.7;
#X obj 145 636 throw~ FX-RETURN-L;
#X obj 231 656 throw~ FX-RETURN-R;
#X obj 123 -34 r MIC;
#X obj 163 51 t f f f;
#X obj 365 -12 route d-delay;
#X obj 14 65 list split 1;
#X obj 14 44 r Sample-FX;
#X obj 54 131 spigot;
#X obj 93 91 swap 1;
#X obj 93 112 -;
#X msg 54 175 1;
#X msg 87 175 0;
#X obj 54 154 sel d-delay;
#X obj 423 -33 r sample-fx-tick;
#X connect 1 0 13 0;
#X connect 1 0 14 0;
#X connect 3 0 1 0;
#X connect 4 0 5 0;
#X connect 4 0 55 0;
#X connect 5 0 6 0;
#X connect 5 0 57 0;
#X connect 6 0 7 0;
#X connect 6 0 54 0;
#X connect 7 0 28 0;
#X connect 7 0 56 0;
#X connect 9 0 10 0;
#X connect 10 0 11 0;
#X connect 11 0 8 0;
#X connect 11 0 12 0;
#X connect 12 0 29 0;
#X connect 12 0 30 0;
#X connect 13 0 52 0;
#X connect 13 0 53 0;
#X connect 14 0 51 0;
#X connect 14 0 53 0;
#X connect 15 0 16 0;
#X connect 15 1 16 1;
#X connect 16 0 13 1;
#X connect 17 0 15 0;
#X connect 17 1 14 1;
#X connect 18 0 19 0;
#X connect 19 0 21 0;
#X connect 19 1 20 0;
#X connect 20 0 4 1;
#X connect 20 0 5 1;
#X connect 20 0 6 1;
#X connect 20 0 7 1;
#X connect 20 0 28 1;
#X connect 21 0 17 0;
#X connect 21 0 27 0;
#X connect 21 1 4 0;
#X connect 22 0 19 0;
#X connect 23 0 0 0;
#X connect 23 0 52 0;
#X connect 24 0 0 0;
#X connect 24 0 51 0;
#X connect 25 0 26 0;
#X connect 25 1 26 1;
#X connect 26 0 23 1;
#X connect 27 0 25 0;
#X connect 27 1 24 1;
#X connect 28 0 33 0;
#X connect 29 0 52 0;
#X connect 29 0 53 0;
#X connect 30 0 51 0;
#X connect 30 0 53 0;
#X connect 31 0 32 0;
#X connect 31 1 32 1;
#X connect 32 0 29 1;
#X connect 33 0 31 0;
#X connect 33 1 30 1;
#X connect 34 0 2 0;
#X connect 35 0 2 0;
#X connect 36 0 2 0;
#X connect 37 0 85 0;
#X connect 38 0 44 0;
#X connect 39 0 41 0;
#X connect 39 1 40 0;
#X connect 40 0 41 1;
#X connect 41 0 43 0;
#X connect 42 0 34 0;
#X connect 42 1 35 0;
#X connect 42 2 36 0;
#X connect 43 0 42 0;
#X connect 44 0 45 0;
#X connect 44 1 39 0;
#X connect 45 0 47 0;
#X connect 45 1 46 0;
#X connect 46 0 47 1;
#X connect 47 0 49 0;
#X connect 48 0 18 0;
#X connect 48 1 22 0;
#X connect 49 0 48 0;
#X connect 51 0 82 0;
#X connect 52 0 81 0;
#X connect 53 0 50 0;
#X connect 56 0 8 0;
#X connect 56 1 8 0;
#X connect 59 0 51 1;
#X connect 59 0 52 1;
#X connect 59 0 58 0;
#X connect 60 0 53 1;
#X connect 61 0 59 0;
#X connect 61 0 80 0;
#X connect 62 0 63 0;
#X connect 63 0 64 0;
#X connect 64 0 23 0;
#X connect 64 0 24 0;
#X connect 65 0 22 0;
#X connect 65 0 34 0;
#X connect 66 0 63 1;
#X connect 67 0 66 0;
#X connect 68 0 69 0;
#X connect 68 1 70 0;
#X connect 69 0 73 0;
#X connect 70 0 71 0;
#X connect 71 0 74 0;
#X connect 72 0 71 0;
#X connect 73 0 74 0;
#X connect 73 1 72 0;
#X connect 74 0 75 0;
#X connect 76 0 84 0;
#X connect 76 0 89 0;
#X connect 77 0 84 0;
#X connect 77 0 89 0;
#X connect 78 1 79 0;
#X connect 79 0 76 0;
#X connect 79 1 77 0;
#X connect 80 0 60 0;
#X connect 83 0 78 0;
#X connect 84 0 67 0;
#X connect 84 1 68 0;
#X connect 84 2 61 0;
#X connect 85 0 38 0;
#X connect 86 1 88 0;
#X connect 87 0 86 0;
#X connect 88 0 93 0;
#X connect 89 0 90 0;
#X connect 89 1 90 1;
#X connect 90 0 88 1;
#X connect 91 0 84 0;
#X connect 92 0 84 0;
#X connect 93 0 91 0;
#X connect 93 1 92 0;
#X connect 94 0 85 0;
#X restore 43 206 pd d-delay;
#X text 839 630 Dummy receives to avoid errors;
#X obj 738 31 loadbang;
#X obj 514 417 pack s s s;
#X msg 514 440 \; PPC 1 PPC-\$1 PPC-\$3 \; MIC 1 \$2 \;;
#X msg 473 215 I rhythmic I-Drums;
#X msg 472 56 A d-delay off;
#X msg 472 76 B octaver off;
#X msg 472 115 D helicopter off;
#X msg 875 353 \; PPC 0 PPC-A PPC-off \; MIC 0 FX \;;
#X msg 473 196 H butterflies off;
#X msg 473 235 J granular off;
#X msg 472 255 K spacecho off;
#X msg 473 275 L robotvoice off;
#X msg 473 295 M contact off;
#X msg 473 316 P cutter off;
#N canvas 0 22 448 713 freqmod 0;
#X obj 82 88 delwrite~ d1 100;
#X obj 108 303 +~ 1;
#X obj 108 324 *~ 0.5;
#X obj 108 366 vd~ d1;
#X obj 82 53 *~ 1;
#X obj 108 345 *~ 0.1;
#X obj 108 282 osc~ 1;
#X obj 109 175 random 50;
#X obj 109 195 + 1;
#X msg 109 219 \$1 1000;
#X obj 108 260 int;
#X obj 212 166 random 50;
#X obj 212 187 + 1;
#X msg 212 208 \$1 1000;
#X obj 212 250 int;
#X obj 212 118 a_onset 128 15;
#X obj 109 240 line;
#X obj 212 229 line;
#X obj 52 476 throw~ DELAY;
#X obj 158 397 delread~ d1 1;
#X obj 212 139 t b;
#X obj 108 544 throw~ FX-RETURN-L;
#X obj 158 565 throw~ FX-RETURN-R;
#X obj 108 506 *~ 1;
#X obj 52 455 *~ 0.35;
#X obj 158 418 *~ 0.75;
#X obj 82 17 catch~ freqmod;
#X connect 1 0 2 0;
#X connect 2 0 5 0;
#X connect 3 0 23 0;
#X connect 3 0 24 0;
#X connect 4 0 0 0;
#X connect 4 0 15 0;
#X connect 5 0 3 0;
#X connect 6 0 1 0;
#X connect 7 0 8 0;
#X connect 8 0 9 0;
#X connect 9 0 16 0;
#X connect 10 0 6 0;
#X connect 11 0 12 0;
#X connect 12 0 13 0;
#X connect 13 0 17 0;
#X connect 14 0 5 1;
#X connect 15 0 20 0;
#X connect 16 0 10 0;
#X connect 17 0 14 0;
#X connect 19 0 25 0;
#X connect 20 0 11 0;
#X connect 20 0 7 0;
#X connect 23 0 21 0;
#X connect 23 0 22 0;
#X connect 24 0 18 0;
#X connect 25 0 23 0;
#X connect 25 0 24 0;
#X connect 26 0 4 0;
#X restore 44 544 pd freqmod;
#X msg 558 390 A freqmod off;
#X msg 472 96 C uplifts off;
#X msg 689 352 \; PPC 1 PPC-F PPC-off \; MIC 0 FX \;;
#X msg 472 136 E metallic E-Piano;
#X msg 473 155 F spacewobble Breathing;
#X msg 473 175 G phasemod Breathing;
#X obj 504 576 s mic-on/off;
#X obj 504 534 tgl 35 0 empty empty MIC_ON/OFF -20 -12 0 15 -262144
-1 -1 1 1;
#X obj 207 343 sel 0 1 2 3 4 5 6 7 8 9 10 11 12 13 14 15 16 17 18 19
;
#X connect 15 0 16 0;
#X connect 16 0 17 0;
#X connect 16 0 23 0;
#X connect 17 0 16 1;
#X connect 19 0 20 0;
#X connect 20 0 37 0;
#X connect 20 0 83 0;
#X connect 27 0 28 0;
#X connect 28 0 77 0;
#X connect 29 0 31 0;
#X connect 31 0 30 1;
#X connect 33 0 30 0;
#X connect 34 0 33 0;
#X connect 34 1 36 0;
#X connect 34 2 35 0;
#X connect 35 0 29 0;
#X connect 36 0 30 1;
#X connect 60 0 28 0;
#X connect 61 0 62 0;
#X connect 63 0 61 0;
#X connect 64 0 61 0;
#X connect 65 0 61 0;
#X connect 66 0 61 0;
#X connect 68 0 61 0;
#X connect 69 0 61 0;
#X connect 70 0 61 0;
#X connect 71 0 61 0;
#X connect 72 0 61 0;
#X connect 73 0 61 0;
#X connect 75 0 61 0;
#X connect 76 0 61 0;
#X connect 78 0 61 0;
#X connect 79 0 61 0;
#X connect 80 0 61 0;
#X connect 82 0 81 0;
#X connect 83 0 64 0;
#X connect 83 1 65 0;
#X connect 83 2 76 0;
#X connect 83 3 66 0;
#X connect 83 4 78 0;
#X connect 83 5 79 0;
#X connect 83 6 80 0;
#X connect 83 7 68 0;
#X connect 83 8 63 0;
#X connect 83 9 69 0;
#X connect 83 10 70 0;
#X connect 83 11 71 0;
#X connect 83 12 72 0;
#X connect 83 13 73 0;
