#N canvas 250 496 929 522 10;
#X obj 328 275 e_freqshift;
#N canvas 696 274 450 300 freqshift 0;
#X obj 145 77 t b b;
#X obj 145 248 outlet;
#X obj 145 208 line;
#X obj 163 101 + 1;
#X obj 188 148 f;
#X obj 145 167 f;
#X obj 282 79 t f f f;
#X obj 282 58 / 2;
#X obj 145 121 del;
#X obj 145 58 r \$0-start;
#X obj 282 36 r \$0-length;
#X msg 188 169 0 \, 1 \$1;
#X msg 145 187 1 \, 0 \$1;
#X obj 145 227 m_scale 0 1 10 100;
#X obj 243 205 * 2000;
#X obj 243 184 r Doppler;
#X connect 0 0 8 0;
#X connect 0 1 4 0;
#X connect 2 0 13 0;
#X connect 3 0 8 1;
#X connect 4 0 11 0;
#X connect 5 0 12 0;
#X connect 6 0 3 0;
#X connect 6 1 4 1;
#X connect 6 2 5 1;
#X connect 7 0 6 0;
#X connect 8 0 5 0;
#X connect 9 0 0 0;
#X connect 10 0 7 0;
#X connect 11 0 2 0;
#X connect 12 0 2 0;
#X connect 13 0 1 0;
#X connect 14 0 13 4;
#X connect 15 0 14 0;
#X restore 402 235 pd freqshift;
#X msg 402 255 freq \$1;
#N canvas 0 22 450 300 vol 0;
#X obj 107 74 t b b;
#X obj 181 200 line;
#X obj 181 221 m_scale 0 1 0 1 3;
#X obj 181 242 outlet;
#X msg 181 179 0 \, 1 \$1;
#X obj 181 159 f;
#X obj 125 98 + 1;
#X obj 107 157 f;
#X obj 205 34 t f f;
#X msg 107 179 1 \, 0 \$1;
#X obj 205 57 / 2;
#X obj 107 118 del;
#X obj 205 13 r \$0-length;
#X obj 205 78 t f f f;
#X obj 107 54 r \$0-start;
#X connect 0 0 11 0;
#X connect 0 1 5 0;
#X connect 1 0 2 0;
#X connect 2 0 3 0;
#X connect 4 0 1 0;
#X connect 5 0 4 0;
#X connect 6 0 11 1;
#X connect 7 0 9 0;
#X connect 8 0 10 0;
#X connect 9 0 1 0;
#X connect 10 0 13 0;
#X connect 11 0 7 0;
#X connect 12 0 8 0;
#X connect 13 0 6 0;
#X connect 13 1 5 1;
#X connect 13 2 7 1;
#X connect 14 0 0 0;
#X restore 353 200 pd vol;
#X obj 328 438 e_circlepan;
#X obj 402 417 sig~;
#N canvas 562 72 635 622 circlepan 0;
#X obj 76 165 t b b b;
#X obj 76 481 outlet;
#X obj 223 126 + 1;
#X obj 223 80 t f f f;
#X obj 223 103 / 2;
#X obj 223 57 r \$0-length;
#X msg 76 243 0 \, 1 \$1;
#X obj 76 221 f;
#X obj 76 265 line;
#X obj 76 352 route a b;
#X obj 76 306 list prepend;
#X obj 76 327 list trim;
#X msg 138 227 a;
#X msg 168 227 b;
#X obj 170 195 del;
#X obj 76 390 m_scale 0 0.5 0.125 0.25 10;
#X obj 118 406 m_scale 0.5 1 0.25 0.375 0.2;
#X obj 76 143 r \$0-start;
#X text 429 35 0 = left;
#X text 431 53 0.125 = behind;
#X text 430 88 0.375 = infront;
#X text 430 107 0.5 = left;
#X text 430 126 0.625 = behind;
#X text 430 70 0.25 = right;
#X text 430 143 0.75 = right;
#X text 429 180 1 = left;
#X text 429 161 0.875 = infront;
#X text 431 16 -0.125 = infront;
#X text 432 -19 -0.375 = behind;
#X text 431 -1 -0.25 = right;
#X obj 224 336 + 0.125;
#X obj 272 358 + 0.125;
#X obj 187 317 f;
#X obj 266 160 r \$0-direction;
#X text 456 -38 CIRCLEPAN;
#X text 456 -37 _________;
#X msg 215 264 0;
#X msg 233 286 0.125;
#X msg 271 264 0.25;
#X msg 298 285 0.375;
#X text 350 204 So F2B and B2F are first;
#X obj 266 204 sel 3 1 2 0;
#X text 459 248 _________;
#X text 459 247 DIRECTION;
#X text 465 266 0 = F2B;
#X text 464 284 1 = B2F;
#X text 464 301 2 = R2L;
#X connect 0 0 14 0;
#X connect 0 1 7 0;
#X connect 0 2 12 0;
#X connect 2 0 14 1;
#X connect 3 0 4 0;
#X connect 3 2 7 1;
#X connect 4 0 2 0;
#X connect 5 0 3 0;
#X connect 6 0 8 0;
#X connect 7 0 6 0;
#X connect 8 0 10 0;
#X connect 9 0 15 0;
#X connect 9 1 16 0;
#X connect 10 0 11 0;
#X connect 11 0 9 0;
#X connect 12 0 10 1;
#X connect 13 0 10 1;
#X connect 14 0 13 0;
#X connect 15 0 1 0;
#X connect 16 0 1 0;
#X connect 17 0 0 0;
#X connect 30 0 31 0;
#X connect 30 0 16 3;
#X connect 30 0 15 4;
#X connect 31 0 16 4;
#X connect 32 0 30 0;
#X connect 32 0 15 3;
#X connect 33 0 41 0;
#X connect 36 0 32 0;
#X connect 37 0 32 0;
#X connect 38 0 32 0;
#X connect 39 0 32 0;
#X connect 41 0 36 0;
#X connect 41 1 37 0;
#X connect 41 2 38 0;
#X connect 41 3 39 0;
#X restore 402 397 pd circlepan;
#X obj 328 459 outlet~;
#X obj 402 459 outlet~;
#X obj 550 90 inlet start;
#X obj 605 401 s \$0-start;
#X obj 496 356 t b b;
#X msg 528 377 0;
#X obj 496 377 del;
#X msg 496 398 1;
#X obj 570 281 s \$0-length;
#X obj 588 334 random 4;
#X obj 588 376 s \$0-direction;
#X obj 570 240 + 600;
#X obj 570 219 random 1700;
#X obj 570 261 int;
#X obj 772 182 -;
#X obj 732 105 f;
#X obj 328 176 s_fplaytable;
#X obj 328 71 r \$1-tick;
#X obj 328 92 sel 5;
#X obj 405 49 loadbang;
#X obj 405 70 del 1000;
#X msg 458 95 0;
#X text 467 49 failsafe;
#X obj 550 193 t b b b b b;
#X obj 528 430 s \$1-on3;
#X obj 405 114 spigot 1;
#X obj 328 220 *~ 0;
#X obj 682 176 f;
#X obj 772 105 t f b f;
#X obj 700 85 t f f;
#X text 787 128 What a mess...;
#X obj 700 38 * 10000;
#X obj 772 62 * 10000;
#X obj 700 61 min;
#X obj 772 83 max;
#X obj 588 355 +;
#N canvas 179 23 547 566 wind 0;
#X obj 126 464 outlet~;
#X obj 192 244 mtof;
#X obj 127 92 loadbang;
#X obj 192 220 f;
#X obj 126 322 lop~ 1000;
#X obj 126 440 *~ 0.1;
#X obj 192 71 r \$0-start;
#X obj 192 177 random 10;
#X obj 192 198 + 85;
#X msg 192 92 bang;
#X obj 116 175 noise~;
#X obj 116 194 lop~ 1000;
#X obj 116 214 *~ 5;
#X obj 144 283 sig~;
#X obj 126 302 vcf~ 5;
#X connect 1 0 13 0;
#X connect 2 0 7 0;
#X connect 3 0 1 0;
#X connect 4 0 5 0;
#X connect 5 0 0 0;
#X connect 6 0 9 0;
#X connect 7 0 8 0;
#X connect 8 0 3 0;
#X connect 9 0 7 0;
#X connect 10 0 11 0;
#X connect 11 0 12 0;
#X connect 12 0 14 0;
#X connect 13 0 14 1;
#X connect 14 0 4 0;
#X restore 271 91 pd wind;
#N canvas 0 22 450 300 delay 0;
#X obj 155 135 inlet~;
#X obj 99 237 outlet~;
#X obj 99 190 *~ 0.4;
#X obj 87 128 / 10;
#X obj 87 86 r \$0-start;
#X obj 87 150 spigot 1;
#X obj 155 156 delwrite~ \$0-dela 357.143;
#X obj 87 107 random 7;
#X obj 154 182 r doppler-delaytime;
#X obj 154 207 delread~ \$0-dela 357.143;
#X connect 0 0 6 0;
#X connect 2 0 1 0;
#X connect 2 0 6 0;
#X connect 3 0 5 0;
#X connect 4 0 7 0;
#X connect 5 0 2 1;
#X connect 7 0 3 0;
#X connect 8 0 9 0;
#X connect 9 0 2 0;
#X restore 342 308 pd delay;
#N canvas 349 403 508 401 directionstates 0;
#X obj 144 30 int;
#X msg 144 73 4;
#X msg 151 94 0;
#X msg 184 134 0;
#X msg 177 113 2;
#X msg 205 156 2;
#X msg 212 177 2;
#X msg 228 202 1;
#X msg 235 224 2;
#X msg 255 245 1;
#X msg 262 267 3;
#X text 194 83 ALL;
#X text 217 124 F2B + B2F;
#X text 248 164 L2R + R2L;
#X text 271 214 L2R;
#X text 299 254 R2L;
#X obj 52 316 outlet random;
#X obj 155 316 outlet +;
#X obj 144 52 sel 0 1 2 3 4;
#X obj 144 9 * 4;
#X obj 144 -14 r Direction;
#X connect 0 0 18 0;
#X connect 1 0 16 0;
#X connect 2 0 17 0;
#X connect 3 0 17 0;
#X connect 4 0 16 0;
#X connect 5 0 16 0;
#X connect 6 0 17 0;
#X connect 7 0 16 0;
#X connect 8 0 17 0;
#X connect 9 0 16 0;
#X connect 10 0 17 0;
#X connect 18 0 1 0;
#X connect 18 0 2 0;
#X connect 18 1 4 0;
#X connect 18 1 3 0;
#X connect 18 2 5 0;
#X connect 18 2 6 0;
#X connect 18 3 7 0;
#X connect 18 3 8 0;
#X connect 18 4 9 0;
#X connect 18 4 10 0;
#X connect 19 0 0 0;
#X connect 20 0 19 0;
#X restore 637 314 pd directionstates;
#X msg 328 154 \$1-sample\$2;
#X obj 328 133 \$1 \$3;
#X obj 550 169 debounce 3500;
#X obj 638 149 - 50;
#X obj 271 112 *~ 0.05;
#X obj 328 367 e_pitchshift;
#X msg 409 348 pitch \$1;
#X obj 409 328 line;
#X obj 772 41 r MaxLength;
#X obj 700 17 r MinLength;
#X obj 409 307 r Slowpitch;
#X obj 516 100 bng 15 250 50 0 empty empty empty 17 7 0 10 -262144
-1 -1;
#X obj 505 180 bng 15 250 50 0 empty empty empty 17 7 0 10 -262144
-1 -1;
#X obj 545 64 r doppler-recording-sample;
#X obj 679 222 s doppler-debounce;
#X floatatom 422 151 5 0 0 0 - - -;
#X obj 550 118 mod 128;
#X obj 550 144 sel 8;
#X connect 0 0 44 0;
#X connect 0 0 51 0;
#X connect 1 0 2 0;
#X connect 2 0 0 1;
#X connect 3 0 33 1;
#X connect 4 0 7 0;
#X connect 4 1 8 0;
#X connect 5 0 4 1;
#X connect 6 0 5 0;
#X connect 9 0 62 0;
#X connect 11 0 13 0;
#X connect 11 1 12 0;
#X connect 12 0 31 0;
#X connect 13 0 14 0;
#X connect 14 0 31 0;
#X connect 16 0 42 0;
#X connect 18 0 20 0;
#X connect 19 0 18 0;
#X connect 20 0 15 0;
#X connect 20 0 13 1;
#X connect 21 0 19 1;
#X connect 22 0 21 1;
#X connect 22 0 18 1;
#X connect 23 0 33 0;
#X connect 23 1 47 0;
#X connect 24 0 25 0;
#X connect 24 0 61 0;
#X connect 25 0 28 0;
#X connect 25 0 47 0;
#X connect 26 0 27 0;
#X connect 27 0 32 0;
#X connect 28 0 32 1;
#X connect 30 0 11 0;
#X connect 30 1 19 0;
#X connect 30 2 16 0;
#X connect 30 3 10 0;
#X connect 30 4 32 0;
#X connect 32 0 47 0;
#X connect 33 0 0 0;
#X connect 34 0 18 1;
#X connect 35 0 21 0;
#X connect 35 1 34 0;
#X connect 35 2 49 0;
#X connect 36 0 34 1;
#X connect 36 1 22 0;
#X connect 38 0 40 0;
#X connect 38 0 41 1;
#X connect 39 0 41 0;
#X connect 39 0 40 1;
#X connect 40 0 36 0;
#X connect 41 0 35 0;
#X connect 42 0 17 0;
#X connect 43 0 50 0;
#X connect 44 0 51 0;
#X connect 45 0 16 1;
#X connect 45 1 42 1;
#X connect 46 0 23 0;
#X connect 47 0 46 0;
#X connect 48 0 30 0;
#X connect 48 0 58 0;
#X connect 49 0 48 1;
#X connect 49 0 60 0;
#X connect 50 0 33 0;
#X connect 51 0 4 0;
#X connect 52 0 51 1;
#X connect 53 0 52 0;
#X connect 54 0 39 0;
#X connect 55 0 38 0;
#X connect 56 0 53 0;
#X connect 57 0 48 0;
#X connect 59 0 57 0;
#X connect 62 0 63 0;
#X connect 63 0 48 0;
#X coords 0 0 1 1 140 100 0;
