#N canvas 9 38 450 300 10;
#X msg 186 194 clear \, start;
#X obj 120 173 t b b;
#X obj 120 194 del \$3;
#X obj 98 83 inlet~;
#X msg 120 215 normalize;
#X obj 255 241 print doppler-recording-sample;
#X obj 255 266 s doppler-recording-sample;
#X obj 120 148 debounce 3000;
#X obj 237 113 r doppler-debounce;
#X obj 120 109 a_onset 128 13;
#X obj 280 147 r doppler-delaytime;
#X floatatom 287 173 5 0 0 0 - - -;
#X obj 98 240 u_record \$1-sample\$2 200;
#X connect 0 0 12 1;
#X connect 1 0 2 0;
#X connect 1 1 0 0;
#X connect 2 0 4 0;
#X connect 3 0 9 0;
#X connect 3 0 12 0;
#X connect 4 0 12 1;
#X connect 7 0 1 0;
#X connect 8 0 7 1;
#X connect 9 0 5 0;
#X connect 9 0 6 0;
#X connect 9 0 7 0;
#X connect 10 0 2 1;
#X connect 10 0 11 0;
#X connect 10 0 12 2;
