#N canvas 122 482 450 300 10;
#X declare -path .;
#X declare -path .;
#X declare -path ../;
#X obj 165 129 _PPC-Sample PPC-I;
#X obj 165 149 _PPC-Sample PPC-I-Drums;
#N canvas 741 101 604 472 doppler 0;
#X obj 33 67 r tick;
#X obj 33 96 route doppler;
#X obj 34 -1 catch~ doppler;
#X obj 33 390 throw~ FX-RETURN-L;
#X obj 170 390 throw~ FX-RETURN-R;
#X obj 70 141 mod 392;
#X obj 70 166 sel 0 128 256;
#X msg 417 232 \; MaxLength 0.3 \; MinLength 0.6 \; Doppler 0.4 \;
Direction 0.3 \; Slowpitch -12 10000 \;;
#X msg 258 67 1;
#X msg 293 67 0;
#X obj 218 25 list split 1;
#X obj 218 4 r MIC;
#X obj 258 46 sel doppler;
#X obj 258 111 switch~;
#X obj 258 91 pipe 2000;
#X obj 33 333 dopplereffect \$0 1 1;
#X msg 244 232 \; MaxLength 0.5 \; MinLength 0.2 \; Doppler 0.8 \;
Direction 0.3 \; Slowpitch 0 10000 \; doppler-delaytime 2000 \;;
#X msg 70 232 \; MaxLength 0.7 \; MinLength 0.3 \; Doppler 0.5 \; Direction
0.3 \; Slowpitch 0 10000 \; doppler-delaytime 1000 \;;
#X obj 34 22 recordsample \$0 1 357.142;
#X obj 361 19 declare -path ../;
#X connect 0 0 1 0;
#X connect 1 0 5 0;
#X connect 1 0 15 0;
#X connect 2 0 18 0;
#X connect 5 0 6 0;
#X connect 6 0 17 0;
#X connect 6 1 16 0;
#X connect 6 2 7 0;
#X connect 8 0 14 0;
#X connect 9 0 14 0;
#X connect 10 1 12 0;
#X connect 11 0 10 0;
#X connect 12 0 8 0;
#X connect 12 1 9 0;
#X connect 14 0 13 0;
#X connect 15 0 3 0;
#X connect 15 1 4 0;
#X restore 165 176 pd doppler;
