#N canvas 263 74 450 300 10;
#X declare -path .;
#X obj 165 129 _PPC-Sample PPC-S;
#N canvas 60 176 850 698 soslooper 0;
#X obj 381 436 *~;
#X obj 466 437 *~;
#X obj 554 270 *~;
#X obj 368 267 *~;
#X obj 27 254 hsl 128 25 0 1 0 1 \$0-feedback empty feedback 20 12
0 10 -228856 -260097 -1 12700 0;
#X obj 27 295 hsl 128 25 0 1 0 1 \$0-outlevel empty outlevel 20 12
0 10 -228856 -260097 -1 12700 0;
#N canvas 199 302 202 209 feedbacklevel 0;
#X obj 27 81 line~;
#X obj 27 139 outlet~;
#X msg 27 57 \$1 500;
#X text 25 161 feedback level;
#X obj 95 139 outlet;
#X obj 29 26 r \$0-feedback;
#X obj 27 102 *~ 0.9;
#X connect 0 0 6 0;
#X connect 2 0 0 0;
#X connect 5 0 2 0;
#X connect 5 0 4 0;
#X connect 6 0 1 0;
#X restore 386 229 pd feedbacklevel;
#N canvas 199 302 187 173 outlevel 1;
#X obj 27 81 line~;
#X obj 27 109 outlet~;
#X msg 27 57 \$1 500;
#X obj 95 109 outlet;
#X obj 27 24 r \$0-outlevel;
#X text 25 131 output level;
#X msg 127 24 1;
#X connect 0 0 1 0;
#X connect 2 0 0 0;
#X connect 4 0 2 0;
#X connect 4 0 3 0;
#X connect 6 0 2 0;
#X restore 399 391 pd outlevel;
#X obj 378 334 hip~ 5;
#X obj 568 336 hip~ 5;
#X text 23 23 stereo sound-on-sound looping delay;
#X text 23 47 Katja Vetter dec 2010;
#N canvas 583 172 466 252 more-info 0;
#X text 14 204 This patch uses [count~] and [poke~] from cyclone \,
[limiter~] from zexy.;
#X text 16 72 With feedback setting at max \, it is a looper. With
lower feedback settings \, the loop content will fade away.;
#X text 15 115 The read index is one sample ahead of the write index
\, and wrapped within the loop size.;
#X text 14 17 Elementary looping delay with sound on sound. A similar
thing can be done with [delwrite~] and [delread~] or [vd~] \, but [delwrite~]
lacks the option to clear the delay buffer.;
#X text 16 153 Loop size could be up to 2^23-1 samples theoretically.
Beyond that size \, indexing will loose the required precision.;
#X restore 24 75 pd more-info;
#N canvas 605 242 387 274 limiter-for-two-channels 1;
#X obj 24 22 inlet~;
#X obj 131 21 inlet~;
#X obj 24 230 outlet~;
#X obj 131 230 outlet~;
#X connect 0 0 2 0;
#X connect 1 0 3 0;
#X restore 368 365 pd limiter-for-two-channels;
#X obj 378 290 catch~ soslooper;
#X obj 497 585 throw~ FX-RETURN-R;
#X obj 382 563 throw~ FX-RETURN-L;
#X obj 554 629 delwrite~ \$0-looperright 10000;
#X obj 368 609 delwrite~ \$0-looperleft 10000;
#X obj 554 149 line~;
#X obj 554 45 a_onset 128 20;
#X obj 554 66 t b;
#X msg 554 127 \$1 5000;
#X obj 415 653 throw~ REVERB;
#X msg 212 140 1;
#X msg 247 140 0;
#X obj 253 278 line;
#X obj 212 211 switch~;
#X obj 172 98 list split 1;
#X obj 172 77 r MIC;
#X obj 212 119 sel soslooper;
#X obj 253 299 s \$0-outlevel;
#X obj 465 534 e_pan;
#X obj 382 534 e_pan;
#X obj 497 508 r panvalue;
#X obj 554 203 vd~ \$0-looperright 4000;
#X obj 554 107 + 2000;
#X obj 368 183 vd~ \$0-looperleft 4000;
#X obj 554 86 random 8000;
#X obj 415 632 *~ 0.15;
#X obj 554 238 lop~ 3000;
#X obj 368 209 lop~ 3000;
#X obj 465 462 lop~ 1500;
#X obj 381 464 lop~ 1500;
#X obj 381 486 hip~ 400;
#X obj 465 485 hip~ 400;
#X obj 253 257 pack f 2000;
#X obj 212 167 pipe 2000;
#X obj 236 233 moses 1;
#X obj 212 187 t f f f;
#X connect 0 0 43 0;
#X connect 1 0 42 0;
#X connect 2 0 13 1;
#X connect 3 0 13 0;
#X connect 6 0 3 1;
#X connect 6 0 2 1;
#X connect 7 0 0 1;
#X connect 7 0 1 0;
#X connect 8 0 13 0;
#X connect 9 0 13 1;
#X connect 13 0 0 0;
#X connect 13 0 18 0;
#X connect 13 1 1 1;
#X connect 13 1 17 0;
#X connect 14 0 8 0;
#X connect 14 0 9 0;
#X connect 14 0 20 0;
#X connect 19 0 35 0;
#X connect 19 0 37 0;
#X connect 20 0 21 0;
#X connect 21 0 38 0;
#X connect 22 0 19 0;
#X connect 24 0 47 0;
#X connect 25 0 47 0;
#X connect 26 0 31 0;
#X connect 28 1 30 0;
#X connect 29 0 28 0;
#X connect 30 0 24 0;
#X connect 30 1 25 0;
#X connect 32 0 16 0;
#X connect 32 1 15 0;
#X connect 33 0 16 0;
#X connect 33 1 15 0;
#X connect 34 0 32 1;
#X connect 34 0 33 1;
#X connect 35 0 40 0;
#X connect 36 0 22 0;
#X connect 37 0 41 0;
#X connect 38 0 36 0;
#X connect 39 0 23 0;
#X connect 40 0 2 0;
#X connect 41 0 3 0;
#X connect 42 0 45 0;
#X connect 43 0 44 0;
#X connect 44 0 33 0;
#X connect 44 0 39 0;
#X connect 45 0 32 0;
#X connect 45 0 39 0;
#X connect 46 0 26 0;
#X connect 47 0 49 0;
#X connect 48 0 26 0;
#X connect 48 1 46 0;
#X connect 49 0 27 0;
#X connect 49 1 48 0;
#X restore 164 152 pd soslooper;
