#N canvas 630 209 450 300 10;
#X declare -path .;
#X obj 165 129 _PPC-Sample PPC-T;
#N canvas 403 73 857 734 panned-and-pitched 0;
#X msg 379 112 1;
#X msg 414 112 0;
#X obj 379 158 t f f;
#X obj 379 182 switch~;
#X obj 339 70 list split 1;
#X obj 339 49 r MIC;
#X obj 73 653 throw~ FX-RETURN-R;
#X obj 41 674 throw~ FX-RETURN-L;
#X obj 41 161 catch~ panned-and-pitched;
#X obj 379 91 sel panned-and-pitched;
#X obj 41 619 e_pan;
#X obj 41 550 e_pitchshift;
#X msg 110 527 pitch \$1;
#X obj 110 481 * 12;
#X obj 110 504 - 6;
#X obj 146 385 delwrite~ pap-del 300;
#X obj 284 322 * 250;
#X obj 284 346 + 50;
#X obj 135 344 + 0.6;
#X obj 96 396 *~ 0.4;
#X obj 146 406 e_noclickdel pap-del;
#X msg 341 338 48;
#X obj 341 314 loadbang;
#X obj 41 260 *~;
#X obj 118 307 lop~ 10;
#X obj 118 284 * 0.9;
#X msg 412 223 on \$1;
#X obj 379 138 pipe 2000;
#X obj 118 263 c_lfo pap-vol 0.02 50 sine;
#X obj 247 293 c_lfo pap-pan 0.1 50 tri;
#X obj 41 590 *~ 0.55;
#X connect 0 0 27 0;
#X connect 1 0 27 0;
#X connect 2 0 3 0;
#X connect 2 1 26 0;
#X connect 4 1 9 0;
#X connect 5 0 4 0;
#X connect 8 0 23 0;
#X connect 9 0 0 0;
#X connect 9 1 1 0;
#X connect 10 0 7 0;
#X connect 10 1 6 0;
#X connect 11 0 30 0;
#X connect 12 0 11 1;
#X connect 13 0 14 0;
#X connect 14 0 12 0;
#X connect 16 0 17 0;
#X connect 17 0 20 0;
#X connect 18 0 19 1;
#X connect 19 0 11 0;
#X connect 19 0 15 0;
#X connect 20 0 19 0;
#X connect 21 0 20 1;
#X connect 22 0 21 0;
#X connect 23 0 15 0;
#X connect 23 0 11 0;
#X connect 24 0 23 1;
#X connect 25 0 24 0;
#X connect 26 0 28 1;
#X connect 26 0 29 1;
#X connect 27 0 2 0;
#X connect 28 0 25 0;
#X connect 29 0 10 1;
#X connect 29 0 13 0;
#X connect 29 0 18 0;
#X connect 29 0 16 0;
#X connect 30 0 10 0;
#X restore 165 152 pd panned-and-pitched;
