#N canvas 445 173 450 300 10;
#X declare -path .;
#X obj 165 129 _PPC-Sample PPC-E;
#N canvas 12 22 857 720 metallic 0;
#X obj 478 139 *;
#X obj 478 159 *;
#X obj 478 179 *;
#X obj 478 199 *;
#X obj 478 219 *;
#X obj 478 239 *;
#X obj 478 259 *;
#X obj 261 212 hip~ 100;
#X obj 478 279 *;
#X obj 478 302 *;
#X msg 541 78 1.12247;
#X obj 315 296 bp~ 1 640;
#X obj 314 316 bp~ 1 680;
#X obj 315 336 bp~ 1 720;
#X obj 315 357 bp~ 1 760;
#X obj 314 378 bp~ 1 800;
#X obj 234 378 bp~ 1 840;
#X obj 233 355 bp~ 1 880;
#X obj 233 330 bp~ 1 910;
#X obj 233 307 bp~ 1 930;
#X obj 232 284 bp~ 1 1100;
#X obj 541 51 loadbang;
#X obj 269 674 throw~ FX-RETURN-L;
#X obj 409 697 throw~ FX-RETURN-R;
#X obj 269 489 e_reverb;
#X obj 262 23 catch~ metallic;
#X msg 97 144 1;
#X msg 132 144 0;
#X obj 57 99 list split 1;
#X obj 97 123 sel metallic;
#X obj 322 443 loadbang;
#X obj 628 330 line;
#X obj 628 179 t b b;
#X msg 628 309 \$1 3500;
#X obj 628 200 random 6;
#X obj 628 221 sel 0 1 2 3 4 5;
#X msg 628 242 65;
#X msg 645 265 67;
#X msg 662 242 72;
#X msg 679 265 75;
#X msg 696 242 77;
#X msg 713 265 79;
#X obj 628 351 mtof;
#N canvas 500 156 450 300 monsterlop 0;
#X obj 138 260 outlet~;
#X obj 136 16 inlet~;
#X obj 138 47 lop~ \$1;
#X obj 310 17 inlet;
#X obj 138 72 lop~ \$1;
#X obj 139 97 lop~ \$1;
#X obj 138 122 lop~ \$1;
#X connect 1 0 2 0;
#X connect 2 0 4 0;
#X connect 3 0 2 1;
#X connect 3 0 4 1;
#X connect 3 0 5 1;
#X connect 3 0 6 1;
#X connect 4 0 5 0;
#X connect 5 0 6 0;
#X connect 6 0 0 0;
#X restore 269 585 pd monsterlop;
#X obj 497 493 loadbang;
#X obj 269 609 hip~ 80;
#X msg 497 514 6000;
#N canvas 500 156 450 300 monsterlop 0;
#X obj 138 260 outlet~;
#X obj 136 16 inlet~;
#X obj 138 47 lop~ \$1;
#X obj 310 17 inlet;
#X obj 138 72 lop~ \$1;
#X obj 139 97 lop~ \$1;
#X obj 138 122 lop~ \$1;
#X connect 1 0 2 0;
#X connect 2 0 4 0;
#X connect 3 0 2 1;
#X connect 3 0 4 1;
#X connect 3 0 5 1;
#X connect 3 0 6 1;
#X connect 4 0 5 0;
#X connect 5 0 6 0;
#X connect 6 0 0 0;
#X restore 409 584 pd monsterlop;
#X obj 409 608 hip~ 80;
#N canvas 0 22 460 414 nofeedback-analysis 0;
#X obj 48 28 inlet~;
#X obj 48 269 max 80;
#X obj 48 103 env~ 1024;
#X obj 48 220 +;
#X obj 48 195 * 0.05;
#X obj 80 221 * 0.95;
#X obj 48 246 min 6000;
#X obj 48 357 outlet;
#X obj 48 140 clip 80 90;
#X obj 48 169 m_scale 80 90 6000 80;
#X connect 0 0 2 0;
#X connect 1 0 7 0;
#X connect 2 0 8 0;
#X connect 3 0 5 0;
#X connect 3 0 6 0;
#X connect 4 0 3 0;
#X connect 5 0 3 1;
#X connect 6 0 1 0;
#X connect 8 0 9 0;
#X connect 9 0 4 0;
#X restore 357 552 pd nofeedback-analysis;
#X obj 478 119 * 1;
#X obj 409 520 bp~ 2000 3;
#X obj 269 519 bp~ 2000 3;
#N canvas 0 22 628 452 delay 0;
#X obj 93 172 bp~ 5400 2;
#X obj 368 175 bp~ 5400 2;
#X obj 93 149 *~ 0.4;
#X obj 368 152 *~ 0.4;
#X obj 452 41 m_bpm2ms;
#X floatatom 452 83 7 0 0 0 - - -;
#X msg 450 8 88;
#X obj 452 62 / 3;
#X obj 250 58 inlet~;
#X obj 252 389 outlet~;
#X obj 93 208 delwrite~ \$0-metal-l 341;
#X obj 93 232 delread~ \$0-metal-l 341;
#X obj 368 208 delwrite~ \$0-metal-r 228;
#X obj 366 239 delread~ \$0-metal-r 227;
#X obj 252 368 *~ 0.5;
#X obj 250 79 *~ 0.5;
#X connect 0 0 10 0;
#X connect 1 0 12 0;
#X connect 2 0 0 0;
#X connect 3 0 1 0;
#X connect 4 0 7 0;
#X connect 6 0 4 0;
#X connect 7 0 5 0;
#X connect 8 0 15 0;
#X connect 11 0 3 0;
#X connect 11 0 14 0;
#X connect 13 0 2 0;
#X connect 13 0 14 0;
#X connect 14 0 9 0;
#X connect 15 0 2 0;
#X connect 15 0 3 0;
#X connect 15 0 14 0;
#X restore 262 149 pd delay;
#X obj 262 128 hip~ 300;
#X msg 322 463 amp 90 \, hall 90 \, freq 3000 \, damp 2;
#X obj 57 78 r MIC;
#X obj 409 638 *~;
#X obj 269 639 *~;
#X obj 661 444 vline~;
#X obj 269 421 *~ 24;
#X obj 184 421 *~ 0.4;
#X obj 628 158 a_onset 128 13;
#X obj 97 188 switch~;
#X obj 97 167 pipe 2000;
#X msg 661 417 2 \, 0 6000 2000;
#X connect 0 0 1 0;
#X connect 0 0 19 1;
#X connect 1 0 2 0;
#X connect 1 0 18 1;
#X connect 2 0 3 0;
#X connect 2 0 17 1;
#X connect 3 0 4 0;
#X connect 3 0 16 1;
#X connect 4 0 5 0;
#X connect 4 0 15 1;
#X connect 5 0 6 0;
#X connect 5 0 14 1;
#X connect 6 0 8 0;
#X connect 6 0 13 1;
#X connect 7 0 11 0;
#X connect 7 0 12 0;
#X connect 7 0 13 0;
#X connect 7 0 14 0;
#X connect 7 0 15 0;
#X connect 7 0 16 0;
#X connect 7 0 17 0;
#X connect 7 0 18 0;
#X connect 7 0 19 0;
#X connect 7 0 20 0;
#X connect 7 0 61 0;
#X connect 8 0 9 0;
#X connect 8 0 12 1;
#X connect 9 0 11 1;
#X connect 10 0 0 1;
#X connect 10 0 1 1;
#X connect 10 0 2 1;
#X connect 10 0 3 1;
#X connect 10 0 4 1;
#X connect 10 0 5 1;
#X connect 10 0 6 1;
#X connect 10 0 8 1;
#X connect 10 0 9 1;
#X connect 11 0 60 0;
#X connect 12 0 60 0;
#X connect 13 0 60 0;
#X connect 14 0 60 0;
#X connect 15 0 60 0;
#X connect 16 0 60 0;
#X connect 17 0 60 0;
#X connect 18 0 60 0;
#X connect 19 0 60 0;
#X connect 20 0 60 0;
#X connect 21 0 10 0;
#X connect 24 0 52 0;
#X connect 24 1 51 0;
#X connect 25 0 54 0;
#X connect 25 0 62 0;
#X connect 26 0 64 0;
#X connect 27 0 64 0;
#X connect 28 1 29 0;
#X connect 29 0 26 0;
#X connect 29 1 27 0;
#X connect 30 0 55 0;
#X connect 31 0 42 0;
#X connect 32 0 34 0;
#X connect 32 1 65 0;
#X connect 33 0 31 0;
#X connect 34 0 35 0;
#X connect 35 0 36 0;
#X connect 35 1 37 0;
#X connect 35 2 38 0;
#X connect 35 3 39 0;
#X connect 35 4 40 0;
#X connect 35 5 41 0;
#X connect 36 0 33 0;
#X connect 37 0 33 0;
#X connect 38 0 33 0;
#X connect 39 0 33 0;
#X connect 40 0 33 0;
#X connect 41 0 33 0;
#X connect 42 0 50 0;
#X connect 43 0 45 0;
#X connect 44 0 46 0;
#X connect 45 0 58 0;
#X connect 46 0 43 1;
#X connect 46 0 47 1;
#X connect 47 0 48 0;
#X connect 48 0 57 0;
#X connect 49 0 43 1;
#X connect 49 0 47 1;
#X connect 50 0 0 0;
#X connect 50 0 20 1;
#X connect 51 0 47 0;
#X connect 52 0 49 0;
#X connect 52 0 43 0;
#X connect 53 0 7 0;
#X connect 54 0 53 0;
#X connect 55 0 24 1;
#X connect 56 0 28 0;
#X connect 57 0 23 0;
#X connect 58 0 22 0;
#X connect 59 0 57 1;
#X connect 59 0 58 1;
#X connect 60 0 24 0;
#X connect 61 0 24 0;
#X connect 62 0 32 0;
#X connect 64 0 63 0;
#X connect 65 0 59 0;
#X restore 165 151 pd metallic;
