#N canvas 229 347 450 300 10;
#X declare -path .;
#X obj 165 129 _PPC-Sample PPC-B;
#N canvas 103 22 731 714 uplifts 0;
#X obj 161 32 hip~ 100;
#X obj 161 53 lop~ 5000;
#X obj 161 10 catch~ uplifts;
#X obj 161 643 e_pan;
#X obj 178 457 hip~ 400;
#N canvas 0 22 599 480 wql-tanh 0;
#X obj 140 70 inlet~;
#X text 392 94 __;
#X text 474 94 __;
#X text 426 94 __;
#X text 525 94 __;
#X text 392 111 1 +;
#X text 428 111 3 +;
#X text 476 111 5 +;
#X text 526 111 7 +;
#X text 342 37 As a continued fraction;
#X obj 139 153 *~;
#X obj 64 270 /~;
#X obj 64 355 /~;
#X obj 64 293 /~;
#X obj 64 326 /~;
#X text 326 83 tanh(z) = z z^2 4z^2 9z^2 ...;
#X obj 191 180 *~ 4;
#X obj 190 211 +~ 3;
#X obj 234 179 *~ 9;
#X obj 233 210 +~ 5;
#X obj 274 180 *~ 16;
#X obj 273 210 +~ 7;
#X obj 139 211 +~ 1;
#X obj 64 406 outlet~;
#X obj 64 377 *~ 576;
#X obj 140 94 *~ 0.308319;
#X text 175 119 1/pi;
#X connect 0 0 25 0;
#X connect 10 0 16 0;
#X connect 10 0 18 0;
#X connect 10 0 20 0;
#X connect 10 0 22 0;
#X connect 11 0 13 0;
#X connect 12 0 24 0;
#X connect 13 0 14 0;
#X connect 14 0 12 0;
#X connect 16 0 17 0;
#X connect 17 0 13 1;
#X connect 18 0 19 0;
#X connect 19 0 14 1;
#X connect 20 0 21 0;
#X connect 21 0 12 1;
#X connect 22 0 11 1;
#X connect 24 0 23 0;
#X connect 25 0 10 1;
#X connect 25 0 10 0;
#X connect 25 0 11 0;
#X restore 161 304 pd wql-tanh;
#X obj 161 531 clip~ -1 1;
#X msg 335 453 1;
#X msg 370 453 0;
#X obj 335 523 switch~;
#X obj 295 411 list split 1;
#X obj 335 432 sel uplifts;
#X obj 161 691 throw~ FX-RETURN-L;
#X obj 193 672 throw~ FX-RETURN-R;
#X obj 161 480 lop~ 3000;
#X obj 178 433 lop~ 3500;
#X obj 50 664 *~ 0.15;
#X obj 295 390 r MIC;
#X obj 247 597 / 100;
#X msg 367 590 on \$1;
#X obj 248 555 loadbang;
#X obj 246 617 c_lfo MYLFO2 1 50 tri;
#X msg 248 576 10;
#X msg 421 543 symbol saw;
#X msg 501 543 symbol tri;
#X msg 581 543 symbol sine;
#X msg 421 589 waveform \$1;
#X obj 421 484 random 3;
#X obj 421 505 sel 0 1 2;
#X obj 308 222 +~ 1;
#X obj 308 243 *~ 0.5;
#X obj 308 285 vd~ d1;
#X obj 182 182 *~ 1;
#X obj 308 264 *~ 0.1;
#X obj 308 201 osc~ 1;
#X obj 309 94 random 50;
#X obj 309 114 + 1;
#X msg 309 138 \$1 1000;
#X obj 308 179 int;
#X obj 382 145 random 50;
#X obj 382 166 + 1;
#X msg 382 187 \$1 1000;
#X obj 382 229 int;
#X obj 382 97 a_onset 128 15;
#X obj 309 159 line;
#X obj 382 208 line;
#X obj 318 309 delread~ d1 1;
#X obj 382 118 t b;
#X obj 308 355 *~ 1;
#X obj 318 330 *~ 0.75;
#X obj 178 412 *~ 0.75;
#X obj 50 684 throw~ REVERB;
#X obj 183 503 delwrite~ \$0-abc 500;
#X obj 182 75 delread~ \$0-abc 300;
#X obj 182 98 *~ 0.75;
#X obj 182 217 delwrite~ d1 300;
#X obj 335 479 pipe 2000;
#X obj 335 500 t f f;
#X connect 0 0 1 0;
#X connect 1 0 32 0;
#X connect 1 0 5 0;
#X connect 2 0 0 0;
#X connect 3 0 12 0;
#X connect 3 1 13 0;
#X connect 4 0 14 0;
#X connect 5 0 14 0;
#X connect 6 0 3 0;
#X connect 6 0 16 0;
#X connect 7 0 56 0;
#X connect 8 0 56 0;
#X connect 10 1 11 0;
#X connect 11 0 7 0;
#X connect 11 1 8 0;
#X connect 14 0 6 0;
#X connect 14 0 52 0;
#X connect 15 0 4 0;
#X connect 16 0 51 0;
#X connect 17 0 10 0;
#X connect 18 0 21 0;
#X connect 19 0 21 1;
#X connect 20 0 22 0;
#X connect 21 0 3 1;
#X connect 22 0 18 0;
#X connect 23 0 26 0;
#X connect 24 0 26 0;
#X connect 25 0 26 0;
#X connect 26 0 21 1;
#X connect 27 0 28 0;
#X connect 28 0 23 0;
#X connect 28 1 24 0;
#X connect 28 2 25 0;
#X connect 29 0 30 0;
#X connect 30 0 33 0;
#X connect 31 0 48 0;
#X connect 32 0 43 0;
#X connect 32 0 55 0;
#X connect 33 0 31 0;
#X connect 34 0 29 0;
#X connect 35 0 36 0;
#X connect 36 0 37 0;
#X connect 37 0 44 0;
#X connect 38 0 34 0;
#X connect 39 0 40 0;
#X connect 40 0 41 0;
#X connect 41 0 45 0;
#X connect 42 0 33 1;
#X connect 43 0 47 0;
#X connect 44 0 38 0;
#X connect 45 0 42 0;
#X connect 46 0 49 0;
#X connect 47 0 39 0;
#X connect 47 0 35 0;
#X connect 47 0 27 0;
#X connect 48 0 50 0;
#X connect 49 0 48 0;
#X connect 50 0 15 0;
#X connect 53 0 54 0;
#X connect 54 0 32 0;
#X connect 56 0 57 0;
#X connect 57 0 9 0;
#X connect 57 1 19 0;
#X restore 165 151 pd uplifts;
