#N canvas 331 321 450 300 10;
#X declare -path .;
#X obj 165 129 _PPC-Sample PPC-C;
#N canvas 175 201 953 576 radio 0;
#X msg 141 228 clear \, start;
#X msg 397 78 1;
#X msg 432 78 0;
#X obj 357 33 list split 1;
#X obj 451 399 s_playtable;
#X obj 397 57 sel radio;
#X obj 66 95 catch~ radio;
#X obj 357 12 r MIC;
#X obj 240 335 noise~;
#X obj 240 361 hip~ 1000;
#X obj 296 416 *~;
#X obj 314 391 vline~;
#X obj 296 445 clip~ -0.5 0.5;
#X msg 314 279 bang;
#X obj 314 301 t b b;
#X obj 66 217 lop~ 700;
#X obj 66 147 hip~ 2000;
#X obj 240 381 lop~ 1500;
#X obj 66 167 hip~ 2000;
#X obj 66 187 hip~ 2000;
#X obj 451 424 e_bitcrusher;
#X obj 582 376 loadbang;
#X obj 141 143 a_onset 1024 13;
#X obj 232 418 *~ 0.2;
#X obj 314 333 del 2000;
#X obj 451 339 del 2350;
#X obj 66 237 lop~ 700;
#X obj 141 171 debounce 2000;
#X msg 314 360 0 \, 0.25 3 \, 0 3 300;
#X msg 451 360 liverec1 3 0.9 0;
#X obj 397 123 switch~;
#X obj 296 544 throw~ FX-RETURN-L;
#X obj 451 544 throw~ FX-RETURN-R;
#X obj 397 102 pipe 2000;
#X msg 642 399 dry 0.5;
#X obj 66 260 delwrite~ radio-del 100;
#X obj 66 280 delread~ radio-del 100;
#X msg 582 399 depth 2;
#X obj 66 309 u_record liverec1 1000;
#X obj 451 444 *~ 0.6;
#X connect 0 0 38 1;
#X connect 1 0 33 0;
#X connect 2 0 33 0;
#X connect 3 1 5 0;
#X connect 4 0 20 0;
#X connect 5 0 1 0;
#X connect 5 1 2 0;
#X connect 6 0 16 0;
#X connect 6 0 22 0;
#X connect 6 0 23 0;
#X connect 7 0 3 0;
#X connect 8 0 9 0;
#X connect 9 0 17 0;
#X connect 10 0 12 0;
#X connect 11 0 10 1;
#X connect 12 0 31 0;
#X connect 12 0 32 0;
#X connect 13 0 14 0;
#X connect 14 0 24 0;
#X connect 14 1 25 0;
#X connect 15 0 26 0;
#X connect 16 0 18 0;
#X connect 17 0 10 0;
#X connect 18 0 19 0;
#X connect 19 0 15 0;
#X connect 20 0 39 0;
#X connect 21 0 37 0;
#X connect 21 0 34 0;
#X connect 22 0 27 0;
#X connect 23 0 12 0;
#X connect 24 0 28 0;
#X connect 25 0 29 0;
#X connect 26 0 35 0;
#X connect 27 0 0 0;
#X connect 27 0 13 0;
#X connect 28 0 11 0;
#X connect 29 0 4 0;
#X connect 33 0 30 0;
#X connect 34 0 20 1;
#X connect 36 0 38 0;
#X connect 37 0 20 1;
#X connect 39 0 31 0;
#X connect 39 0 32 0;
#X restore 165 151 pd radio;
