#N canvas 263 74 450 300 10;
#X declare -path .;
#X obj 165 129 _PPC-Sample PPC-L;
#N canvas 0 22 769 590 robotvoice 0;
#X obj 157 113 fiddle~ 2048;
#X obj 211 148 unpack;
#X obj 211 172 moses 1;
#X obj 239 307 *~;
#X obj 257 202 mtof;
#X obj 257 225 *;
#X obj 239 328 *~ 2;
#X obj 99 57 catch~ robotvoice;
#X obj 239 437 throw~ FX-RETURN-L;
#X obj 271 457 throw~ FX-RETURN-R;
#X obj 215 499 throw~ DELAY;
#N canvas 300 203 758 306 samp-delay 0;
#X obj 15 222 outlet~;
#X obj 14 21 inlet~;
#X obj 15 102 loadbang;
#X obj 14 49 delwrite~ E03-del 40;
#X obj 15 195 delread~ E03-del;
#X obj 15 152 expr 1000*1024/$f1;
#X obj 15 128 samplerate~;
#X text 208 47 write to delay line which has enough memory to hold
40 msec;
#X text 125 128 get sample rate at load time;
#X text 185 152 divide 1024 by sample rate to give time in seconds
\; multiply by 1000 to convert to milliseconds.;
#X text 168 197 read from the delay line at the calculater delay;
#X text 317 268 1024-sample delay;
#X connect 1 0 3 0;
#X connect 2 0 6 0;
#X connect 4 0 0 0;
#X connect 5 0 4 0;
#X connect 6 0 5 0;
#X restore 99 133 pd samp-delay;
#X obj 257 270 line;
#X msg 257 251 \$1 50;
#X obj 275 97 mod 128;
#X obj 275 118 sel 0;
#X obj 275 53 r tick;
#X obj 275 160 / 10;
#X obj 275 181 + 0.1;
#X obj 275 139 random 60;
#X msg 577 107 1;
#X msg 612 107 0;
#X obj 577 148 switch~;
#X obj 537 65 list split 1;
#X obj 577 86 sel robotvoice;
#X obj 257 289 osc~ 2;
#X obj 239 350 bp~ 6000 5;
#X obj 239 412 e_pan;
#X obj 271 391 r panvalue;
#X obj 537 44 r MIC;
#X obj 275 75 route robotvoice;
#X obj 239 373 *~ 2;
#X obj 577 128 pipe 2000;
#X obj 215 477 *~ 0.05;
#X connect 0 2 1 0;
#X connect 1 0 2 0;
#X connect 2 1 4 0;
#X connect 3 0 6 0;
#X connect 4 0 5 0;
#X connect 5 0 13 0;
#X connect 6 0 26 0;
#X connect 7 0 0 0;
#X connect 7 0 11 0;
#X connect 11 0 3 0;
#X connect 12 0 25 0;
#X connect 13 0 12 0;
#X connect 14 0 15 0;
#X connect 15 0 19 0;
#X connect 16 0 30 0;
#X connect 17 0 18 0;
#X connect 18 0 5 1;
#X connect 19 0 17 0;
#X connect 20 0 32 0;
#X connect 23 1 24 0;
#X connect 24 0 20 0;
#X connect 24 1 21 0;
#X connect 25 0 3 1;
#X connect 26 0 31 0;
#X connect 27 0 8 0;
#X connect 27 1 9 0;
#X connect 28 0 27 1;
#X connect 29 0 23 0;
#X connect 30 0 14 0;
#X connect 31 0 27 0;
#X connect 31 0 33 0;
#X connect 32 0 22 0;
#X connect 33 0 10 0;
#X restore 165 152 pd robotvoice;
