#N canvas 263 74 450 300 10;
#X declare -path .;
#X obj 165 129 _PPC-Sample PPC-P;
#N canvas 187 22 715 718 cutter 0;
#X obj 279 208 e_repeater;
#X msg 292 175 num 0;
#X obj 489 97 sel 1 2 3 4 5 6 7;
#X msg 405 152 dry \$1;
#X obj 405 132 line;
#X obj 292 156 loadbang;
#X obj 406 67 swap 1;
#X obj 406 89 -;
#X msg 588 265 566.038;
#X msg 555 220 283.019;
#X msg 522 175 141.509;
#X msg 489 130 70.7547;
#X msg 572 243 424.528;
#X msg 538 198 212.264;
#X msg 505 153 106.132;
#X obj 279 646 e_pan;
#X obj 345 444 metro;
#X obj 345 485 f;
#X obj 376 485 + 1;
#X obj 345 507 mod 2;
#X msg 345 420 1;
#X msg 391 420 0;
#X obj 345 528 - 0.5;
#X obj 345 570 + 0.5;
#X obj 345 549 *;
#X obj 345 399 t b f b;
#X obj 489 299 s repeat-time;
#X obj 345 379 r repeat-time;
#X obj 346 183 r repeat-time;
#X obj 323 260 line;
#X obj 279 281 e_lop2 1000 2;
#X obj 406 112 pack f 500;
#X obj 323 133 sel 1;
#X obj 291 354 delread~ \$0-cutterdelay 566.038;
#X obj 291 311 *~ 1;
#X obj 396 259 swap 1;
#X obj 396 280 -;
#X obj 326 311 r repeat-time;
#X msg 355 215 100 1000;
#X obj 489 75 + 1;
#X obj 489 54 random 7;
#X obj 182 521 e_pitchshift;
#X msg 263 502 pitch \$1;
#X obj 263 482 f;
#X obj 181 542 lop~ 3000;
#X obj 279 626 lop~ 10000;
#X obj 291 333 delwrite~ \$0-cutterdelay 567;
#X obj 211 353 *~ 0.5;
#X obj 211 334 lop~ 800;
#N canvas 465 22 387 365 lfo 0;
#X obj 114 157 moses 100;
#X obj 124 184 swap 200;
#X obj 124 205 -;
#X obj 114 116 f;
#X obj 146 116 + 1;
#X obj 114 137 mod 200;
#X obj 114 234 / 100;
#X obj 114 255 outlet;
#X obj 114 93 inlet;
#X connect 0 0 6 0;
#X connect 0 1 1 0;
#X connect 1 0 2 0;
#X connect 1 1 2 1;
#X connect 2 0 6 0;
#X connect 3 0 4 0;
#X connect 3 0 5 0;
#X connect 4 0 3 1;
#X connect 5 0 0 0;
#X connect 6 0 7 0;
#X connect 8 0 3 0;
#X restore 391 506 pd lfo;
#X obj 345 465 t b b;
#X obj 311 666 throw~ FX-RETURN-R;
#X obj 279 684 throw~ FX-RETURN-L;
#X obj 279 77 catch~ cutter;
#X obj 176 164 change;
#X obj 176 122 env~ 128;
#X obj 176 188 moses 1;
#X obj 176 251 pipe 10000;
#X msg 220 230 clear;
#X obj 188 209 t f b;
#X obj 389 -14 r drumbutton;
#X obj 489 34 sel 1;
#X obj 389 7 t f f b f f f;
#X obj 176 292 s drumbutton;
#X obj 98 267 swap 0;
#X obj 98 288 -;
#X obj 98 393 line;
#X obj 98 414 int;
#X obj 98 309 max 0;
#X obj 98 350 - 13;
#X obj 98 329 * 41;
#X obj 98 184 sel 1;
#X obj 98 205 random 100;
#X obj 98 226 - 50;
#X obj 98 247 / 100;
#X msg 98 372 \$1 10000;
#X obj 176 143 > 96;
#X obj 279 399 hip~ 550;
#X msg 54 55 1;
#X msg 85 55 0;
#X obj 54 101 switch~;
#X obj 14 11 list split 1;
#X obj 14 -10 r MIC;
#X obj 54 32 sel cutter;
#X obj 279 421 *~ 1.5;
#X obj 232 208 *~ 0.5;
#X msg 323 235 300 \, 7000 10000;
#X obj 54 80 pipe 2000;
#X connect 0 0 30 0;
#X connect 1 0 0 1;
#X connect 2 0 11 0;
#X connect 2 1 14 0;
#X connect 2 2 10 0;
#X connect 2 3 13 0;
#X connect 2 4 9 0;
#X connect 2 5 12 0;
#X connect 2 6 8 0;
#X connect 3 0 0 1;
#X connect 4 0 3 0;
#X connect 5 0 1 0;
#X connect 6 0 7 0;
#X connect 6 1 7 1;
#X connect 7 0 31 0;
#X connect 8 0 26 0;
#X connect 9 0 26 0;
#X connect 10 0 26 0;
#X connect 11 0 26 0;
#X connect 12 0 26 0;
#X connect 13 0 26 0;
#X connect 14 0 26 0;
#X connect 15 0 52 0;
#X connect 15 1 51 0;
#X connect 16 0 43 0;
#X connect 16 0 50 0;
#X connect 17 0 18 0;
#X connect 17 0 19 0;
#X connect 18 0 17 1;
#X connect 19 0 22 0;
#X connect 20 0 16 0;
#X connect 21 0 16 0;
#X connect 21 0 17 1;
#X connect 22 0 24 0;
#X connect 23 0 15 1;
#X connect 24 0 23 0;
#X connect 25 0 20 0;
#X connect 25 1 16 1;
#X connect 25 2 21 0;
#X connect 27 0 25 0;
#X connect 28 0 0 1;
#X connect 29 0 30 1;
#X connect 30 0 34 0;
#X connect 30 0 77 0;
#X connect 31 0 4 0;
#X connect 32 0 86 0;
#X connect 32 1 38 0;
#X connect 33 0 48 0;
#X connect 34 0 46 0;
#X connect 35 0 36 0;
#X connect 35 1 36 1;
#X connect 36 0 34 1;
#X connect 37 0 33 0;
#X connect 38 0 29 0;
#X connect 39 0 2 0;
#X connect 40 0 39 0;
#X connect 41 0 44 0;
#X connect 42 0 41 1;
#X connect 43 0 42 0;
#X connect 44 0 45 0;
#X connect 45 0 15 0;
#X connect 47 0 46 0;
#X connect 47 0 77 0;
#X connect 48 0 47 0;
#X connect 49 0 24 1;
#X connect 50 0 17 0;
#X connect 50 1 49 0;
#X connect 53 0 55 0;
#X connect 53 0 0 0;
#X connect 53 0 85 0;
#X connect 54 0 56 0;
#X connect 55 0 76 0;
#X connect 56 0 57 0;
#X connect 56 1 59 0;
#X connect 57 0 63 0;
#X connect 58 0 57 0;
#X connect 59 0 63 0;
#X connect 59 1 58 0;
#X connect 60 0 62 0;
#X connect 61 0 40 0;
#X connect 62 1 6 0;
#X connect 62 3 61 0;
#X connect 62 4 32 0;
#X connect 62 5 35 0;
#X connect 64 0 65 0;
#X connect 64 1 65 1;
#X connect 65 0 68 0;
#X connect 66 0 67 0;
#X connect 67 0 43 1;
#X connect 68 0 70 0;
#X connect 69 0 75 0;
#X connect 70 0 69 0;
#X connect 71 0 72 0;
#X connect 72 0 73 0;
#X connect 73 0 74 0;
#X connect 74 0 64 0;
#X connect 75 0 66 0;
#X connect 76 0 54 0;
#X connect 76 0 71 0;
#X connect 77 0 84 0;
#X connect 78 0 87 0;
#X connect 79 0 87 0;
#X connect 81 1 83 0;
#X connect 82 0 81 0;
#X connect 83 0 78 0;
#X connect 83 1 79 0;
#X connect 84 0 41 0;
#X connect 84 0 45 0;
#X connect 85 0 30 0;
#X connect 86 0 29 0;
#X connect 87 0 80 0;
#X restore 165 152 pd cutter;
