#N canvas 263 74 450 300 10;
#X declare -path .;
#X obj 165 129 _PPC-Sample PPC-A;
#N canvas 47 22 948 720 d-delay 0;
#X obj 182 447 delwrite~ d-delay1 700;
#X obj 182 467 delread~ d-delay1 700;
#X obj 432 209 s d-delay-time;
#X obj 215 424 r d-delay-time;
#X obj 359 241 +;
#X obj 445 261 +;
#X obj 531 280 +;
#X obj 617 300 +;
#X obj 691 370 delwrite~ straight-delay 700;
#X obj 721 347 r d-delay-time;
#X obj 691 390 delread~ straight-delay;
#X obj 637 378 *~ 0.7;
#X obj 637 399 *~ 0.5;
#X obj 205 513 swap 1;
#X obj 205 534 -;
#X obj 205 493 t f f;
#X msg 315 179 1 -0.2;
#X obj 315 200 unpack f f;
#X obj 382 220 f;
#X obj 315 221 t f f;
#X msg 327 159 0 0.2;
#X obj 168 355 swap 1;
#X obj 168 376 -;
#X obj 168 335 t f f;
#X obj 704 319 +;
#X obj 637 482 *~ 1;
#X obj 674 482 *~ 1;
#X obj 662 441 swap 1;
#X obj 662 462 -;
#X obj 662 421 t f f;
#X msg 432 174 214;
#X msg 462 174 286;
#X msg 492 174 483;
#X obj 315 -33 r tick;
#X obj 315 8 mod 256;
#X obj 432 60 t b b;
#X obj 464 79 random 2;
#X obj 432 102 spigot 0;
#X obj 432 144 sel 0 1 2 3;
#X obj 432 123 random 3;
#X obj 315 30 sel 0 128;
#X obj 315 53 t b b;
#X obj 347 72 random 2;
#X obj 315 95 spigot 0;
#X obj 315 137 sel 0 1;
#X obj 315 115 random 2;
#X obj 403 655 throw~ REVERB;
#X obj 230 617 *~;
#X obj 145 616 *~;
#X obj 403 633 *~;
#X obj 531 300 d-delay 3 4;
#X obj 359 261 d-delay 1 2;
#X obj 617 320 d-delay 4 5;
#X obj 445 280 d-delay 2 3;
#X obj 369 518 s~ delfade;
#X obj 369 498 lop~ 0.2;
#X obj 421 607 lop~ 0.2;
#X obj 369 478 * 0.85;
#X obj 145 269 catch~ d-delay;
#X obj 145 301 *~ 0.7;
#X obj 246 78 loadbang;
#X obj 163 95 switch~;
#X msg 163 28 1;
#X msg 196 28 0;
#X obj 123 -13 list split 1;
#X obj 163 7 sel d-delay;
#X obj 421 584 * 0.7;
#X obj 145 636 throw~ FX-RETURN-L;
#X obj 230 656 throw~ FX-RETURN-R;
#X obj 123 -34 r MIC;
#X obj 315 -12 route d-delay;
#X obj 163 51 t f f;
#X obj 182 558 *~;
#X obj 230 558 *~;
#X obj 145 403 *~;
#X obj 182 403 *~;
#X obj 163 74 pipe 2000;
#X connect 1 0 72 0;
#X connect 1 0 73 0;
#X connect 3 0 1 0;
#X connect 4 0 5 0;
#X connect 4 0 51 0;
#X connect 5 0 6 0;
#X connect 5 0 53 0;
#X connect 6 0 7 0;
#X connect 6 0 50 0;
#X connect 7 0 24 0;
#X connect 7 0 52 0;
#X connect 9 0 10 0;
#X connect 10 0 11 0;
#X connect 11 0 8 0;
#X connect 11 0 12 0;
#X connect 12 0 25 0;
#X connect 12 0 26 0;
#X connect 13 0 14 0;
#X connect 13 1 14 1;
#X connect 14 0 72 1;
#X connect 15 0 13 0;
#X connect 15 1 73 1;
#X connect 16 0 17 0;
#X connect 17 0 19 0;
#X connect 17 1 18 0;
#X connect 18 0 4 1;
#X connect 18 0 5 1;
#X connect 18 0 6 1;
#X connect 18 0 7 1;
#X connect 18 0 24 1;
#X connect 19 0 15 0;
#X connect 19 0 23 0;
#X connect 19 1 4 0;
#X connect 20 0 17 0;
#X connect 21 0 22 0;
#X connect 21 1 22 1;
#X connect 22 0 74 1;
#X connect 23 0 21 0;
#X connect 23 1 75 1;
#X connect 24 0 29 0;
#X connect 25 0 48 0;
#X connect 25 0 49 0;
#X connect 26 0 47 0;
#X connect 26 0 49 0;
#X connect 27 0 28 0;
#X connect 27 1 28 1;
#X connect 28 0 25 1;
#X connect 29 0 27 0;
#X connect 29 1 26 1;
#X connect 30 0 2 0;
#X connect 31 0 2 0;
#X connect 32 0 2 0;
#X connect 33 0 70 0;
#X connect 34 0 40 0;
#X connect 35 0 37 0;
#X connect 35 1 36 0;
#X connect 36 0 37 1;
#X connect 37 0 39 0;
#X connect 38 0 30 0;
#X connect 38 1 31 0;
#X connect 38 2 32 0;
#X connect 39 0 38 0;
#X connect 40 0 41 0;
#X connect 40 1 35 0;
#X connect 41 0 43 0;
#X connect 41 1 42 0;
#X connect 42 0 43 1;
#X connect 43 0 45 0;
#X connect 44 0 16 0;
#X connect 44 1 20 0;
#X connect 45 0 44 0;
#X connect 47 0 68 0;
#X connect 48 0 67 0;
#X connect 49 0 46 0;
#X connect 52 0 8 0;
#X connect 52 1 8 0;
#X connect 55 0 47 1;
#X connect 55 0 48 1;
#X connect 55 0 54 0;
#X connect 56 0 49 1;
#X connect 57 0 55 0;
#X connect 57 0 66 0;
#X connect 58 0 59 0;
#X connect 59 0 74 0;
#X connect 59 0 75 0;
#X connect 60 0 20 0;
#X connect 60 0 30 0;
#X connect 62 0 71 0;
#X connect 63 0 71 0;
#X connect 64 1 65 0;
#X connect 65 0 62 0;
#X connect 65 1 63 0;
#X connect 66 0 56 0;
#X connect 69 0 64 0;
#X connect 70 0 34 0;
#X connect 71 0 76 0;
#X connect 71 1 57 0;
#X connect 72 0 48 0;
#X connect 72 0 49 0;
#X connect 73 0 47 0;
#X connect 73 0 49 0;
#X connect 74 0 0 0;
#X connect 74 0 48 0;
#X connect 75 0 0 0;
#X connect 75 0 47 0;
#X connect 76 0 61 0;
#X restore 165 150 pd d-delay;
