#N canvas 263 74 450 300 10;
#X declare -path .;
#X declare -path .;
#X obj 165 129 _PPC-Sample PPC-Q;
#X obj 165 149 _PPC-Sample PPC-Q-Drums;
#N canvas 69 53 1002 671 q-drums 1;
#X msg 320 67 1;
#X msg 355 67 0;
#X obj 320 117 switch~;
#X obj 280 25 list split 1;
#X obj 280 4 r MIC;
#X obj 320 46 sel q-drums;
#X obj 151 280 sel 0;
#X obj 151 251 mod 256;
#X obj 251 466 e_repeater;
#X msg 449 380 num 0;
#X msg 532 350 dry \$1;
#X obj 532 330 line;
#X obj 449 241 loadbang;
#X obj 533 265 swap 1;
#X obj 533 287 -;
#X obj 612 299 + 1;
#X obj 612 258 sel 1;
#X obj 288 493 e_repeater;
#X msg 612 354 64.1026;
#X msg 628 377 128.205;
#X msg 645 399 256.41;
#X obj 533 310 pack f 100;
#X obj 533 86 catch~ q-drums;
#X obj 533 112 env~;
#X obj 533 179 change;
#X obj 612 278 random 3;
#N canvas 275 111 552 488 record-samples 0;
#X msg 189 336 clear \, start;
#X obj 123 315 t b b;
#X obj 59 45 inlet~;
#X msg 123 357 normalize;
#X msg 359 336 clear \, start;
#X obj 293 315 t b b;
#X msg 293 357 normalize;
#X obj 59 377 *~ 1;
#X obj 123 113 debounce 500;
#X obj 192 177 f;
#X obj 219 177 + 1;
#X obj 123 230 list prepend;
#X obj 123 255 list trim;
#X obj 123 336 del 500;
#X obj 293 336 del 500;
#X msg 123 141 bang;
#X obj 58 177 lop~ 2500;
#X obj 58 197 lop~ 2500;
#X obj 59 442 u_record q-drum-0 100;
#X obj 249 442 u_record q-drum-1 100;
#X obj 248 235 s just-recorded-q-drum;
#X obj 192 201 mod 2;
#X text 282 146 Alternately record into 2 buffers...;
#X obj 123 283 route 0 1;
#X obj 123 81 a_onset 1024 11;
#X connect 0 0 18 1;
#X connect 1 0 13 0;
#X connect 1 1 0 0;
#X connect 2 0 16 0;
#X connect 2 0 24 0;
#X connect 3 0 18 1;
#X connect 4 0 19 1;
#X connect 5 0 14 0;
#X connect 5 1 4 0;
#X connect 6 0 19 1;
#X connect 7 0 18 0;
#X connect 7 0 19 0;
#X connect 8 0 15 0;
#X connect 9 0 10 0;
#X connect 9 0 21 0;
#X connect 10 0 9 1;
#X connect 11 0 12 0;
#X connect 12 0 23 0;
#X connect 13 0 3 0;
#X connect 14 0 6 0;
#X connect 15 0 9 0;
#X connect 15 0 11 0;
#X connect 16 0 17 0;
#X connect 17 0 7 0;
#X connect 21 0 11 1;
#X connect 21 0 20 0;
#X connect 23 0 1 0;
#X connect 23 1 5 0;
#X connect 24 0 8 0;
#X restore 588 158 pd record-samples;
#N canvas 1 22 637 660 user-drums 0;
#X obj 94 96 inlet;
#X obj 94 536 outlet~;
#X obj 151 536 outlet~;
#X obj 94 129 mod 64;
#X obj 94 232 s_playtable;
#X obj 94 162 sel 8 16 28 40 52;
#X obj 169 347 loadbang;
#X obj 229 262 s_playtable;
#X obj 94 262 *~;
#X obj 229 292 *~;
#X obj 335 130 r just-recorded-q-drum;
#X obj 335 180 line~;
#X obj 229 162 sel 0 32;
#X msg 335 154 1.5 \, 0 20000 10000;
#X msg 169 374 dry 0.8 \, decay_diffusion2 0.74 \, decay_diffusion1
0.889 \, input_diffusion2 0.779 \, excursion 0 \, input_diffusion1
0.685 \, decay 0.89 \, damping 4637 \, bandwidth 10000 \, predelay
10 \,;
#X obj 94 438 e_platereverb;
#X msg 94 200 q-drum-0 0.5;
#X msg 229 230 q-drum-1 0.5;
#X connect 0 0 3 0;
#X connect 3 0 5 0;
#X connect 3 0 12 0;
#X connect 4 0 8 0;
#X connect 5 0 16 0;
#X connect 5 1 16 0;
#X connect 5 2 16 0;
#X connect 5 3 16 0;
#X connect 5 4 16 0;
#X connect 6 0 14 0;
#X connect 7 0 9 0;
#X connect 8 0 15 0;
#X connect 8 0 15 1;
#X connect 9 0 15 1;
#X connect 9 0 15 0;
#X connect 10 0 13 0;
#X connect 11 0 8 1;
#X connect 11 0 9 1;
#X connect 12 0 17 0;
#X connect 12 1 17 0;
#X connect 13 0 11 0;
#X connect 14 0 15 2;
#X connect 15 0 1 0;
#X connect 15 1 2 0;
#X connect 16 0 4 0;
#X connect 17 0 7 0;
#X restore 354 354 pd user-drums;
#X obj 533 211 t f f;
#X obj 612 321 sel 1 2 3;
#X text 567 113 Repeater triggered by audio level;
#X obj 612 433 f;
#X text 680 376 Repeat-time;
#X msg 458 267 1;
#X obj 152 367 s_playtable2;
#X obj 251 368 s_playtable2;
#X obj 213 538 *~ 1;
#X obj 151 566 *~ 1;
#X obj 213 568 throw~ RIGHT;
#X obj 151 596 throw~ LEFT;
#X obj 151 155 r tick;
#X obj 151 176 route q-drums;
#X obj 151 197 t b;
#X obj 151 218 f;
#X obj 184 218 + 1;
#X obj 242 125 sel 1;
#X msg 242 146 0;
#X obj 320 93 pipe 2000;
#X obj 533 149 > 93;
#X msg 152 343 PPC-Q 0.5;
#X msg 251 344 PPC-Q-Drums 0.5;
#X connect 0 0 47 0;
#X connect 1 0 47 0;
#X connect 3 1 5 0;
#X connect 4 0 3 0;
#X connect 5 0 0 0;
#X connect 5 1 1 0;
#X connect 6 0 50 0;
#X connect 6 0 49 0;
#X connect 7 0 6 0;
#X connect 7 0 27 0;
#X connect 8 0 37 0;
#X connect 9 0 8 1;
#X connect 9 0 17 1;
#X connect 10 0 8 1;
#X connect 10 0 17 1;
#X connect 11 0 10 0;
#X connect 12 0 9 0;
#X connect 12 0 33 0;
#X connect 13 0 14 0;
#X connect 13 1 14 1;
#X connect 14 0 21 0;
#X connect 15 0 29 0;
#X connect 16 0 25 0;
#X connect 17 0 36 0;
#X connect 18 0 31 0;
#X connect 19 0 31 0;
#X connect 20 0 31 0;
#X connect 21 0 11 0;
#X connect 22 0 23 0;
#X connect 22 0 26 0;
#X connect 23 0 48 0;
#X connect 24 0 28 0;
#X connect 25 0 15 0;
#X connect 27 0 8 0;
#X connect 27 1 17 0;
#X connect 28 0 13 0;
#X connect 28 1 16 0;
#X connect 29 0 18 0;
#X connect 29 1 19 0;
#X connect 29 2 20 0;
#X connect 31 0 17 1;
#X connect 31 0 8 1;
#X connect 33 0 21 0;
#X connect 34 0 37 0;
#X connect 34 1 36 0;
#X connect 35 0 8 0;
#X connect 35 1 17 0;
#X connect 36 0 38 0;
#X connect 37 0 39 0;
#X connect 40 0 41 0;
#X connect 41 0 42 0;
#X connect 42 0 43 0;
#X connect 43 0 44 0;
#X connect 43 0 7 0;
#X connect 44 0 43 1;
#X connect 45 0 46 0;
#X connect 46 0 43 1;
#X connect 47 0 2 0;
#X connect 47 0 45 0;
#X connect 48 0 24 0;
#X connect 49 0 34 0;
#X connect 50 0 35 0;
#X restore 165 180 pd q-drums;
