#N canvas 263 74 450 300 10;
#X declare -path .;
#X obj 165 129 _PPC-Sample PPC-R;
#N canvas 84 22 559 695 confusion 0;
#X msg 136 305 0;
#X obj 223 357 *~ 44100;
#X obj 136 220 metro 2000;
#X obj 62 379 -~ 1;
#X obj 62 339 phasor~ 0.4;
#X msg 304 304 0;
#X obj 62 358 *~ 44100;
#X obj 62 634 throw~ FX-RETURN-L;
#X obj 182 614 throw~ FX-RETURN-R;
#X obj 270 595 throw~ REVERB;
#X msg 265 75 1;
#X msg 300 75 0;
#X obj 311 140 switch~;
#X obj 225 33 list split 1;
#X obj 225 12 r MIC;
#X obj 265 54 sel confusion;
#X obj 62 529 e_pan;
#X obj 150 529 e_pan;
#X obj 94 439 r panvalue;
#X obj 183 488 swap 1;
#X obj 183 509 - 1;
#X obj 270 574 *~ 0.25;
#X obj 223 337 phasor~ -0.5;
#X obj 223 428 *~ 1.5;
#X obj 38 235 hip~ 200;
#X obj 265 97 pipe 2000;
#X obj 265 119 t f f f;
#X msg 288 183 const 0;
#X obj 288 162 sel 0;
#X obj 38 89 catch~ confusion;
#X obj 38 13 table \$0-confusion 44103;
#X obj 38 257 tabwrite~ \$0-confusion;
#X obj 62 407 tabread4~ \$0-confusion;
#X obj 223 407 tabread4~ \$0-confusion;
#X obj 288 206 s \$0-confusion;
#X connect 0 0 4 1;
#X connect 1 0 33 0;
#X connect 2 0 5 0;
#X connect 2 0 0 0;
#X connect 2 0 31 0;
#X connect 3 0 32 0;
#X connect 4 0 6 0;
#X connect 5 0 22 1;
#X connect 6 0 3 0;
#X connect 10 0 25 0;
#X connect 11 0 25 0;
#X connect 13 1 15 0;
#X connect 14 0 13 0;
#X connect 15 0 10 0;
#X connect 15 1 11 0;
#X connect 16 0 7 0;
#X connect 16 1 8 0;
#X connect 17 0 7 0;
#X connect 17 1 8 0;
#X connect 18 0 16 1;
#X connect 18 0 19 0;
#X connect 19 0 20 0;
#X connect 19 1 20 1;
#X connect 20 0 17 1;
#X connect 21 0 9 0;
#X connect 22 0 1 0;
#X connect 23 0 17 0;
#X connect 23 0 21 0;
#X connect 24 0 31 0;
#X connect 25 0 26 0;
#X connect 26 0 2 0;
#X connect 26 1 28 0;
#X connect 26 2 12 0;
#X connect 27 0 34 0;
#X connect 28 0 27 0;
#X connect 29 0 24 0;
#X connect 32 0 16 0;
#X connect 33 0 23 0;
#X restore 165 151 pd confusion;
