#N canvas 170 241 450 300 10;
#X declare -path .;
#X obj 165 129 _PPC-Sample PPC-D;
#N canvas 197 83 581 565 helicopter 0;
#X obj 109 273 hip~ 300;
#X obj 109 176 catch~ helicopter;
#X obj 218 385 phasor~ 0.1;
#X obj 34 203 noise~;
#X obj 327 34 list split 1;
#X obj 367 58 sel helicopter;
#X obj 109 440 throw~ FX-RETURN-L;
#X obj 218 461 throw~ FX-RETURN-R;
#X obj 109 409 e_circlepanCheap;
#X obj 327 13 r MIC;
#N canvas 0 22 450 300 straight-del 0;
#X obj 107 196 outlet~;
#X obj 192 95 inlet~;
#X obj 192 169 hip~ 1000;
#X obj 192 127 delwrite~ helicopter-del 2000;
#X obj 192 147 delread~ helicopter-del 2000;
#X obj 107 147 *~ 0.4;
#X connect 1 0 3 0;
#X connect 2 0 5 0;
#X connect 4 0 2 0;
#X connect 5 0 0 0;
#X connect 5 0 3 0;
#X restore 139 334 pd straight-del;
#X obj 218 287 * 0.9;
#X obj 218 306 + 0.1;
#X obj 218 365 *~ 10;
#X obj 218 267 c_lfo MYLFO2 0.01 50 sine;
#X obj 34 224 hip~ 1000;
#X obj 34 272 *~ 0.04;
#X obj 367 147 switch~;
#X msg 404 79 0;
#X msg 367 79 1;
#X obj 367 126 pipe 2000;
#X msg 390 247 on \$1;
#X obj 413 201 sel 1;
#X msg 413 221 phase 0.75;
#X obj 367 100 t f f f;
#X connect 0 0 10 0;
#X connect 0 0 8 0;
#X connect 1 0 0 0;
#X connect 2 0 8 1;
#X connect 3 0 15 0;
#X connect 4 1 5 0;
#X connect 5 0 19 0;
#X connect 5 1 18 0;
#X connect 8 0 6 0;
#X connect 8 1 7 0;
#X connect 9 0 4 0;
#X connect 10 0 8 0;
#X connect 11 0 12 0;
#X connect 12 0 13 0;
#X connect 13 0 2 0;
#X connect 14 0 11 0;
#X connect 15 0 16 0;
#X connect 16 0 8 0;
#X connect 18 0 24 0;
#X connect 19 0 24 0;
#X connect 20 0 17 0;
#X connect 21 0 14 1;
#X connect 22 0 23 0;
#X connect 23 0 14 1;
#X connect 24 0 20 0;
#X connect 24 1 21 0;
#X connect 24 2 22 0;
#X restore 164 151 pd helicopter;
