#N canvas 293 438 450 300 10;
#X declare -path .;
#X obj 165 129 _PPC-Sample PPC-F;
#N canvas 75 22 636 527 spacewobble 0;
#N canvas 0 22 1200 644 funkyverb 0;
#X obj 161 497 +~;
#X obj 520 105 inlet;
#X obj 184 407 *~;
#X obj 486 412 *~;
#X obj 285 412 *~;
#X obj 387 412 *~;
#X obj 443 546 -~;
#X obj 364 545 -~;
#X obj 239 537 +~;
#X obj 161 534 +~;
#X obj 162 444 +~;
#X obj 262 440 +~;
#X obj 464 501 -~;
#X obj 387 499 +~;
#X obj 239 500 -~;
#X obj 452 105 inlet;
#X obj 609 429 line~;
#X obj 509 374 line~;
#X obj 530 500 *~;
#X obj 599 501 *~;
#X obj 609 357 dbtorms;
#X obj 609 403 pack 0 30;
#X obj 520 211 pack 0 50;
#X obj 9 390 inlet~;
#X obj 530 525 outlet~;
#X obj 599 525 outlet~;
#X obj 520 187 / 200;
#X obj 520 162 clip 0 100;
#X obj 52 236 lop~;
#X obj 625 143 f \$3;
#X obj 696 143 f \$4;
#X obj 367 106 loadbang;
#X obj 625 167 moses 1;
#X msg 631 193 3000;
#X obj 705 193 clip 0 100;
#X obj 618 216 f;
#X obj 618 105 inlet;
#X obj 696 109 inlet;
#X obj 705 216 f;
#X obj 705 239 * 0.01;
#X obj 705 263 pack 0 50;
#X obj 705 287 line~;
#X obj 29 269 -~;
#X obj 28 300 *~;
#X obj 16 331 +~;
#X obj 132 240 lop~;
#X obj 106 274 -~;
#X obj 105 309 *~;
#X obj 95 333 +~;
#X obj 214 245 lop~;
#X obj 188 273 -~;
#X obj 187 314 *~;
#X obj 176 339 +~;
#X obj 308 249 lop~;
#X obj 281 274 -~;
#X obj 281 318 *~;
#X obj 258 342 +~;
#X obj 609 379 * 0.125;
#X text 403 10 control inlets:;
#X text 400 29 1: output level \, dB \, 0-100;
#X text 399 79 4: high frequency damping \, 0-100;
#X text 400 62 3: crossover frequency in Hz. (3000 default);
#X text 400 45 2: liveness \, 0-100 \, usually between 85 and 100;
#X obj 452 137 f 80;
#X obj 520 138 f 80;
#X obj 16 121 vd~ \$0-del1 58.6435;
#X obj 94 143 vd~ \$0-del2 69.4325;
#X obj 176 165 vd~ \$0-del3 74.5234;
#X obj 258 189 vd~ \$0-del4 86.1244;
#X obj 17 92 +~ 58.6435;
#X obj 97 102 +~ 69.4325;
#X obj 177 122 +~ 74.5234;
#X obj 257 142 +~ 86.1244;
#X obj 161 641 delwrite~ \$0-del1 62.6435;
#X obj 240 617 delwrite~ \$0-del2 73.4325;
#X obj 365 595 delwrite~ \$0-del3 78.5234;
#X obj 444 573 delwrite~ \$0-del4 90.1244;
#X obj 138 75 s~ \$0-ER;
#N canvas 345 88 355 597 early-reflect 0;
#X obj 119 477 delread~ \$0-ref6 13.645;
#X obj 119 453 delwrite~ \$0-ref6 13.645;
#X obj 106 400 delread~ \$0-ref5 16.364;
#X obj 106 376 delwrite~ \$0-ref5 16.364;
#X obj 102 324 delread~ \$0-ref4 19.392;
#X obj 102 300 delwrite~ \$0-ref4 19.392;
#X obj 106 247 delread~ \$0-ref3 25.796;
#X obj 106 223 delwrite~ \$0-ref3 25.796;
#X obj 107 169 delread~ \$0-ref2 43.5337;
#X obj 107 145 delwrite~ \$0-ref2 43.5337;
#X obj 84 119 -~;
#X obj 49 119 +~;
#X obj 50 195 +~;
#X obj 85 196 -~;
#X obj 84 275 -~;
#X obj 49 274 +~;
#X obj 82 349 -~;
#X obj 48 350 +~;
#X obj 83 428 -~;
#X obj 49 428 +~;
#X obj 65 7 inlet~;
#X obj 109 46 delwrite~ \$0-ref1 75.2546;
#X obj 49 508 outlet~;
#X obj 119 507 outlet~;
#X obj 228 22 r~ \$0-ER;
#X obj 110 90 vd~ \$0-ref1 75.2546;
#X obj 110 70 +~ 73.2546;
#X connect 0 0 23 0;
#X connect 2 0 19 1;
#X connect 2 0 18 1;
#X connect 4 0 17 1;
#X connect 4 0 16 1;
#X connect 6 0 15 1;
#X connect 6 0 14 1;
#X connect 8 0 12 1;
#X connect 8 0 13 1;
#X connect 10 0 9 0;
#X connect 11 0 13 0;
#X connect 11 0 12 0;
#X connect 12 0 15 0;
#X connect 12 0 14 0;
#X connect 13 0 7 0;
#X connect 14 0 5 0;
#X connect 15 0 17 0;
#X connect 15 0 16 0;
#X connect 16 0 3 0;
#X connect 17 0 19 0;
#X connect 17 0 18 0;
#X connect 18 0 1 0;
#X connect 19 0 22 0;
#X connect 20 0 11 0;
#X connect 20 0 10 0;
#X connect 20 0 21 0;
#X connect 24 0 26 0;
#X connect 25 0 11 1;
#X connect 25 0 10 1;
#X connect 26 0 25 0;
#X restore 9 416 pd early-reflect;
#X obj 17 51 *~ 8;
#X obj 17 32 osc~ 1;
#X connect 0 0 9 0;
#X connect 0 0 7 0;
#X connect 1 0 64 0;
#X connect 2 0 10 1;
#X connect 3 0 12 1;
#X connect 3 0 13 1;
#X connect 4 0 11 1;
#X connect 5 0 13 0;
#X connect 5 0 12 0;
#X connect 6 0 76 0;
#X connect 7 0 75 0;
#X connect 8 0 74 0;
#X connect 9 0 73 0;
#X connect 10 0 14 0;
#X connect 10 0 0 0;
#X connect 10 0 18 0;
#X connect 11 0 0 1;
#X connect 11 0 14 1;
#X connect 11 0 19 0;
#X connect 12 0 8 1;
#X connect 12 0 6 1;
#X connect 13 0 9 1;
#X connect 13 0 7 1;
#X connect 14 0 8 0;
#X connect 14 0 6 0;
#X connect 15 0 63 0;
#X connect 16 0 18 1;
#X connect 16 0 19 1;
#X connect 17 0 4 1;
#X connect 17 0 2 1;
#X connect 17 0 5 1;
#X connect 17 0 3 1;
#X connect 18 0 24 0;
#X connect 19 0 25 0;
#X connect 20 0 57 0;
#X connect 21 0 16 0;
#X connect 22 0 17 0;
#X connect 23 0 78 0;
#X connect 26 0 22 0;
#X connect 27 0 26 0;
#X connect 28 0 42 0;
#X connect 29 0 32 0;
#X connect 30 0 34 0;
#X connect 31 0 29 0;
#X connect 31 0 30 0;
#X connect 31 0 63 0;
#X connect 31 0 64 0;
#X connect 32 0 33 0;
#X connect 32 1 35 0;
#X connect 33 0 35 0;
#X connect 34 0 38 0;
#X connect 35 0 28 1;
#X connect 35 0 45 1;
#X connect 35 0 49 1;
#X connect 35 0 53 1;
#X connect 36 0 35 0;
#X connect 37 0 30 0;
#X connect 38 0 39 0;
#X connect 39 0 40 0;
#X connect 40 0 41 0;
#X connect 41 0 43 1;
#X connect 41 0 47 1;
#X connect 41 0 51 1;
#X connect 41 0 55 1;
#X connect 42 0 43 0;
#X connect 43 0 44 1;
#X connect 44 0 2 0;
#X connect 45 0 46 0;
#X connect 46 0 47 0;
#X connect 47 0 48 1;
#X connect 48 0 4 0;
#X connect 49 0 50 0;
#X connect 50 0 51 0;
#X connect 51 0 52 1;
#X connect 52 0 5 0;
#X connect 53 0 54 0;
#X connect 54 0 55 0;
#X connect 55 0 56 1;
#X connect 56 0 3 0;
#X connect 57 0 21 0;
#X connect 63 0 20 0;
#X connect 64 0 27 0;
#X connect 65 0 28 0;
#X connect 65 0 42 1;
#X connect 65 0 44 0;
#X connect 66 0 45 0;
#X connect 66 0 46 1;
#X connect 66 0 48 0;
#X connect 67 0 52 0;
#X connect 67 0 49 0;
#X connect 67 0 50 1;
#X connect 68 0 56 0;
#X connect 68 0 54 1;
#X connect 68 0 53 0;
#X connect 69 0 65 0;
#X connect 70 0 66 0;
#X connect 71 0 67 0;
#X connect 72 0 68 0;
#X connect 78 0 10 0;
#X connect 78 1 11 0;
#X connect 79 0 69 0;
#X connect 79 0 77 0;
#X connect 79 0 70 0;
#X connect 79 0 71 0;
#X connect 79 0 72 0;
#X connect 80 0 79 0;
#X restore 125 239 pd funkyverb;
#X msg 145 196 90;
#X msg 175 196 85;
#X msg 242 196 10;
#X obj 145 117 loadbang;
#X obj 125 277 clip~ -1 1;
#X obj 206 277 clip~ -1 1;
#X obj 180 435 throw~ REVERB;
#X obj 125 75 catch~ spacewobble;
#X msg 407 80 1;
#X msg 442 80 0;
#X obj 367 38 list split 1;
#X obj 407 59 sel spacewobble;
#X obj 125 403 throw~ FX-RETURN-L;
#X obj 206 383 throw~ FX-RETURN-R;
#X msg 205 196 3000;
#X obj 206 355 hip~ 600;
#X obj 125 356 hip~ 600;
#X obj 367 17 r MIC;
#X obj 206 310 *~ 2;
#X obj 125 310 *~ 2;
#X obj 407 123 switch~;
#X obj 407 103 pipe 2000;
#X connect 0 0 5 0;
#X connect 0 1 6 0;
#X connect 1 0 0 1;
#X connect 2 0 0 2;
#X connect 3 0 0 4;
#X connect 4 0 1 0;
#X connect 4 0 2 0;
#X connect 4 0 15 0;
#X connect 4 0 3 0;
#X connect 5 0 20 0;
#X connect 6 0 19 0;
#X connect 8 0 0 0;
#X connect 9 0 22 0;
#X connect 10 0 22 0;
#X connect 11 1 12 0;
#X connect 12 0 9 0;
#X connect 12 1 10 0;
#X connect 15 0 0 3;
#X connect 16 0 14 0;
#X connect 17 0 13 0;
#X connect 18 0 11 0;
#X connect 19 0 16 0;
#X connect 19 0 7 0;
#X connect 20 0 17 0;
#X connect 20 0 7 0;
#X connect 22 0 21 0;
#X restore 165 151 pd spacewobble;
