#N canvas 263 74 450 300 10;
#X declare -path .;
#X obj 165 129 _PPC-Sample PPC-M;
#N canvas 132 39 801 714 contact 0;
#X obj 336 344 mtof;
#X obj 336 366 / 8.1758;
#X obj 336 440 line~;
#X obj 336 531 +~ 1;
#X obj 336 469 phasor~ 1;
#X obj 336 409 pack 0 100;
#X msg 243 249 0;
#X msg 283 249 4;
#X msg 320 248 5;
#X msg 357 248 7;
#X msg 397 248 11;
#X msg 436 248 12;
#X obj 285 198 select 0 1 2 3 4 5;
#X obj 285 178 random 6;
#X obj 285 45 metro 1000;
#X obj 473 494 +~ 1;
#X obj 473 444 phasor~ 1;
#X obj 473 422 line~;
#X obj 155 390 mtof;
#X obj 155 412 / 8.1758;
#X obj 155 464 line~;
#X obj 155 551 +~ 1;
#X obj 155 500 phasor~ 1;
#X obj 155 433 pack 0 100;
#X msg 62 323 0;
#X msg 102 323 4;
#X msg 139 322 5;
#X msg 176 322 7;
#X msg 216 322 11;
#X msg 250 322 12;
#X obj 104 272 select 0 1 2 3 4 5;
#X obj 104 233 random 6;
#X obj 473 355 mtof;
#X obj 473 377 / 8.1758;
#X obj 473 399 pack 0 100;
#X msg 473 262 -12;
#X msg 491 283 -12;
#X msg 509 262 -12;
#X msg 528 283 -5;
#X msg 546 262 -5;
#X msg 564 283 -15;
#X msg 583 262 -7;
#X msg 601 283 -7;
#X msg 619 262 -3;
#X obj 473 242 select 0 1 2 3 4 5 6 7 8;
#X obj 473 220 random 9;
#X obj 285 0 loadbang;
#X obj 336 647 throw~ FX-RETURN-L;
#X obj 385 667 throw~ FX-RETURN-R;
#X obj 155 524 *~ 22050;
#X obj 336 504 *~ 22050;
#X obj 473 467 *~ 22050;
#X obj 105 22 catch~ contact;
#X msg 585 95 1;
#X msg 620 95 0;
#X obj 585 180 switch~;
#X obj 545 53 list split 1;
#X obj 585 74 sel contact;
#X obj 545 32 r MIC;
#X obj 292 24 r contact-metro;
#X obj 120 133 f;
#X obj 150 133 + 1;
#X obj 120 154 mod 2;
#X obj 120 175 sel 0;
#X obj 473 159 f;
#X obj 503 159 + 1;
#X obj 473 201 sel 0;
#X obj 473 180 mod 4;
#X obj 265 677 throw~ REVERB;
#X obj 265 658 *~ 0.75;
#X obj 336 622 *~ 1.6;
#X obj 585 118 pipe 2000;
#X obj 652 162 s contact-metro;
#X obj 105 198 tabwrite~ \$0-contact;
#X obj 155 578 tabread4~ \$0-contact;
#X obj 336 554 tabread4~ \$0-contact;
#X obj 473 517 tabread4~ \$0-contact;
#X obj 544 4 table \$0-contact 44103;
#X obj 585 139 t f f f;
#X obj 608 162 sel 0;
#X msg 608 199 const 0;
#X obj 608 220 s \$0-contact;
#X connect 0 0 1 0;
#X connect 1 0 5 0;
#X connect 2 0 4 0;
#X connect 3 0 75 0;
#X connect 4 0 50 0;
#X connect 5 0 2 0;
#X connect 6 0 0 0;
#X connect 7 0 0 0;
#X connect 8 0 0 0;
#X connect 9 0 0 0;
#X connect 10 0 0 0;
#X connect 11 0 0 0;
#X connect 12 0 6 0;
#X connect 12 1 7 0;
#X connect 12 2 8 0;
#X connect 12 3 9 0;
#X connect 12 4 10 0;
#X connect 12 5 11 0;
#X connect 13 0 12 0;
#X connect 14 0 13 0;
#X connect 14 0 31 0;
#X connect 14 0 60 0;
#X connect 14 0 64 0;
#X connect 15 0 76 0;
#X connect 16 0 51 0;
#X connect 17 0 16 0;
#X connect 18 0 19 0;
#X connect 19 0 23 0;
#X connect 20 0 22 0;
#X connect 21 0 74 0;
#X connect 22 0 49 0;
#X connect 23 0 20 0;
#X connect 24 0 18 0;
#X connect 25 0 18 0;
#X connect 26 0 18 0;
#X connect 27 0 18 0;
#X connect 28 0 18 0;
#X connect 29 0 18 0;
#X connect 30 0 24 0;
#X connect 30 1 25 0;
#X connect 30 2 26 0;
#X connect 30 3 27 0;
#X connect 30 4 28 0;
#X connect 30 5 29 0;
#X connect 31 0 30 0;
#X connect 32 0 33 0;
#X connect 33 0 34 0;
#X connect 34 0 17 0;
#X connect 35 0 32 0;
#X connect 36 0 32 0;
#X connect 37 0 32 0;
#X connect 38 0 32 0;
#X connect 39 0 32 0;
#X connect 40 0 32 0;
#X connect 41 0 32 0;
#X connect 42 0 32 0;
#X connect 43 0 32 0;
#X connect 44 0 35 0;
#X connect 44 1 36 0;
#X connect 44 2 37 0;
#X connect 44 3 38 0;
#X connect 44 4 39 0;
#X connect 44 5 40 0;
#X connect 44 6 41 0;
#X connect 44 7 42 0;
#X connect 44 8 43 0;
#X connect 45 0 44 0;
#X connect 46 0 14 0;
#X connect 49 0 21 0;
#X connect 50 0 3 0;
#X connect 51 0 15 0;
#X connect 52 0 73 0;
#X connect 53 0 71 0;
#X connect 54 0 71 0;
#X connect 56 1 57 0;
#X connect 57 0 53 0;
#X connect 57 1 54 0;
#X connect 58 0 56 0;
#X connect 59 0 14 0;
#X connect 60 0 61 0;
#X connect 60 0 62 0;
#X connect 61 0 60 1;
#X connect 62 0 63 0;
#X connect 63 0 73 0;
#X connect 64 0 65 0;
#X connect 64 0 67 0;
#X connect 65 0 64 1;
#X connect 66 0 45 0;
#X connect 67 0 66 0;
#X connect 69 0 68 0;
#X connect 70 0 47 0;
#X connect 70 0 48 0;
#X connect 70 0 69 0;
#X connect 71 0 78 0;
#X connect 74 0 70 0;
#X connect 75 0 70 0;
#X connect 76 0 70 0;
#X connect 78 0 55 0;
#X connect 78 1 79 0;
#X connect 78 2 72 0;
#X connect 79 0 80 0;
#X connect 80 0 81 0;
#X restore 165 151 pd contact;
