#N canvas 281 336 450 300 10;
#X declare -path .;
#X obj 165 129 _PPC-Sample PPC-H;
#N canvas 76 28 568 464 platereverb 0;
#X msg 261 93 1;
#X msg 296 93 0;
#X obj 221 51 list split 1;
#X obj 221 30 r MIC;
#X obj 93 349 throw~ FX-RETURN-R;
#X obj 49 380 throw~ FX-RETURN-L;
#X obj 49 304 e_platereverb;
#X obj 114 213 loadbang;
#X obj 261 72 sel platereverb;
#X obj 49 121 catch~ platereverb;
#X msg 114 240 dry 0.2 \, decay_diffusion2 0.74 \, decay_diffusion1
0.889 \, input_diffusion2 0.779 \, excursion 0 \, input_diffusion1
0.685 \, decay 0.96 \, damping 4637 \, bandwidth 10000 \, predelay
10 \,;
#X obj 261 140 switch~;
#X obj 261 120 pipe 2000;
#X connect 0 0 12 0;
#X connect 1 0 12 0;
#X connect 2 1 8 0;
#X connect 3 0 2 0;
#X connect 6 0 5 0;
#X connect 6 1 4 0;
#X connect 7 0 10 0;
#X connect 8 0 0 0;
#X connect 8 1 1 0;
#X connect 9 0 6 0;
#X connect 9 0 6 1;
#X connect 10 0 6 2;
#X connect 12 0 11 0;
#X restore 165 152 pd platereverb;
