#N canvas 202 284 450 300 10;
#X declare -path .;
#X obj 165 129 _PPC-Sample PPC-K;
#N canvas 80 22 1200 720 whispers 0;
#X msg 952 395 1;
#X msg 987 395 0;
#X obj 975 463 switch~;
#X obj 912 346 list split 1;
#X obj 912 322 r MIC;
#X obj 77 230 catch~ whispers;
#X obj 952 372 sel whispers;
#X obj 302 732 s_playtable;
#X msg 318 451 clear \, bang;
#X obj 512 731 s_playtable;
#X obj 280 59 random 2;
#X obj 280 80 select 0;
#X obj 280 254 s timing;
#X obj 391 14 r timing;
#X msg 378 105 bang;
#X obj 378 256 s timing;
#X obj 280 231 * 1;
#X obj 378 235 * 0.6;
#X msg 302 294 bang;
#X msg 612 300 bang;
#X obj 280 38 metro 1500;
#X obj 280 132 random 300;
#X obj 378 130 random 400;
#X obj 446 147 c_lfo whispers-lfo 0.01 50 sine;
#X msg 645 724 dry 0.6 \, decay_diffusion2 0.74 \, decay_diffusion1
0.889 \, input_diffusion2 0.779 \, excursion 0 \, input_diffusion1
0.685 \, decay 0.89 \, damping 4637 \, bandwidth 10000 \, predelay
10 \,;
#X obj 645 697 loadbang;
#X obj 302 861 throw~ FX-RETURN-L;
#X obj 442 861 throw~ FX-RETURN-R;
#X obj 329 538 random 2;
#X obj 329 563 / 2;
#X obj 329 587 + 0.5;
#X obj 413 423 + 0.5;
#X obj 413 399 / 10;
#X msg 612 663 whisper-\$1 \$3 \$2;
#X obj 121 328 r just-recorded-whisper;
#X msg 153 448 set \$1;
#X obj 202 539 list prepend;
#X obj 202 563 list trim;
#X obj 202 586 route 1 0;
#X obj 121 357 t b f;
#X msg 239 468 0;
#X msg 208 468 1;
#X msg 202 658 whisper-\$1;
#X obj 512 539 list prepend;
#X obj 512 563 list trim;
#X obj 512 586 route 1 0;
#X msg 512 658 whisper-\$1;
#X obj 208 378 del 500;
#X obj 208 403 t b b b;
#X msg 247 425 stop;
#X obj 322 394 sel 0;
#X obj 302 323 t b b b b;
#X msg 396 538 -1;
#X msg 428 538 500;
#X obj 322 424 t b b;
#X msg 302 663 whisper-\$1 \$3 \$2 \$4;
#X obj 302 633 pack f f f f;
#X msg 461 538 0;
#X obj 363 424 t b b;
#X msg 625 450 clear \, bang;
#X obj 639 524 random 2;
#X obj 639 549 / 2;
#X obj 639 573 + 0.5;
#X obj 730 423 + 0.5;
#X obj 730 374 random 5;
#X obj 730 399 / 10;
#X obj 629 394 sel 0;
#X obj 612 323 t b b b b;
#X msg 706 523 -1;
#X msg 738 523 500;
#X obj 629 424 t b b;
#X obj 612 633 pack f f f f;
#X msg 771 523 0;
#X obj 670 424 t b b;
#X obj 446 177 * 500;
#X obj 378 208 +;
#X obj 280 207 +;
#X obj 302 831 *~ 0.2;
#X obj 442 830 *~ 0.2;
#X obj 235 446 del 4000;
#X obj 322 370 random 4;
#X obj 413 374 random 5;
#X obj 629 370 random 4;
#X obj 458 256 r just-recorded-whisper;
#X obj 458 278 moses 0;
#X text 5 495 Play only the most recently;
#X text 5 511 recorded whisper for 4 seconds;
#X text 347 65 Random timing engine. From algorithmiccomposer.com;
#X text 491 178 Gently oscillate sparsity of the samples;
#X msg 280 106 bang;
#X text 632 250 Increase the urn with every whisper recorded \, but
only for the first run;
#X obj 952 593 line;
#X obj 302 472 c_urn 2;
#X obj 497 315 moses 2;
#X obj 612 472 c_urn 2;
#X obj 536 337 + 1;
#X obj 536 357 t f f;
#X obj 520 278 t f f;
#X obj 378 168 + 200;
#X obj 280 167 + 200;
#N canvas 0 67 1200 508 record-samples 0;
#X msg 189 336 clear \, start;
#X obj 123 315 t b b;
#X obj 59 45 inlet~;
#X msg 123 357 normalize;
#X msg 359 336 clear \, start;
#X obj 293 315 t b b;
#X msg 293 357 normalize;
#X obj 59 377 *~ 1;
#X obj 123 113 debounce 500;
#X obj 192 177 f;
#X obj 219 177 + 1;
#X obj 123 230 list prepend;
#X obj 123 255 list trim;
#X obj 123 336 del 500;
#X obj 293 336 del 500;
#X msg 549 336 clear \, start;
#X obj 483 315 t b b;
#X msg 483 357 normalize;
#X obj 483 336 del 500;
#X obj 59 442 u_record whisper-0 500;
#X obj 249 442 u_record whisper-1 500;
#X obj 439 442 u_record whisper-2 500;
#X obj 123 81 a_onset 1024 13;
#X msg 749 337 clear \, start;
#X obj 683 316 t b b;
#X msg 683 358 normalize;
#X msg 919 337 clear \, start;
#X obj 853 316 t b b;
#X msg 853 358 normalize;
#X obj 683 337 del 500;
#X obj 853 337 del 500;
#X msg 1109 337 clear \, start;
#X obj 1043 316 t b b;
#X msg 1043 358 normalize;
#X obj 1043 337 del 500;
#X obj 619 443 u_record whisper-3 500;
#X obj 809 443 u_record whisper-4 500;
#X obj 999 443 u_record whisper-5 500;
#X obj 123 283 route 0 1 2 3 4 5 6;
#X obj 192 201 mod 6;
#X msg 123 141 bang;
#X obj 248 235 s just-recorded-whisper;
#X obj 58 177 lop~ 2500;
#X obj 58 197 lop~ 2500;
#X text 464 136 Alternately record into 6 buffers...;
#X connect 0 0 19 1;
#X connect 1 0 13 0;
#X connect 1 1 0 0;
#X connect 2 0 22 0;
#X connect 2 0 42 0;
#X connect 3 0 19 1;
#X connect 4 0 20 1;
#X connect 5 0 14 0;
#X connect 5 1 4 0;
#X connect 6 0 20 1;
#X connect 7 0 19 0;
#X connect 7 0 20 0;
#X connect 7 0 21 0;
#X connect 7 0 35 0;
#X connect 7 0 36 0;
#X connect 7 0 37 0;
#X connect 8 0 40 0;
#X connect 9 0 10 0;
#X connect 9 0 39 0;
#X connect 10 0 9 1;
#X connect 11 0 12 0;
#X connect 12 0 38 0;
#X connect 13 0 3 0;
#X connect 14 0 6 0;
#X connect 15 0 21 1;
#X connect 16 0 18 0;
#X connect 16 1 15 0;
#X connect 17 0 21 1;
#X connect 18 0 17 0;
#X connect 22 0 8 0;
#X connect 23 0 35 1;
#X connect 24 0 29 0;
#X connect 24 1 23 0;
#X connect 25 0 35 1;
#X connect 26 0 36 1;
#X connect 27 0 30 0;
#X connect 27 1 26 0;
#X connect 28 0 36 1;
#X connect 29 0 25 0;
#X connect 30 0 28 0;
#X connect 31 0 37 1;
#X connect 32 0 34 0;
#X connect 32 1 31 0;
#X connect 33 0 37 1;
#X connect 34 0 33 0;
#X connect 38 0 1 0;
#X connect 38 1 5 0;
#X connect 38 2 16 0;
#X connect 38 3 24 0;
#X connect 38 4 27 0;
#X connect 38 5 32 0;
#X connect 39 0 11 1;
#X connect 39 0 41 0;
#X connect 40 0 9 0;
#X connect 40 0 11 0;
#X connect 42 0 43 0;
#X connect 43 0 7 0;
#X restore 77 266 pd record-samples;
#X obj 952 541 pack f 15000;
#X msg 660 128 on \$1;
#X obj 280 14 r whisper-metro;
#X obj 660 108 r whisper-metro;
#X obj 998 484 s whisper-metro;
#X obj 952 518 moses 1;
#X text 748 449 Random amplitude \, direction;
#X text 741 463 and pitch of sample playback;
#X obj 202 630 f;
#X obj 512 634 f;
#X obj 302 803 e_platereverb;
#X obj 952 423 pipe 2000;
#X obj 952 443 t f f f;
#X obj 998 560 pack f 2000;
#X connect 0 0 112 0;
#X connect 1 0 112 0;
#X connect 3 1 6 0;
#X connect 4 0 3 0;
#X connect 5 0 100 0;
#X connect 6 0 0 0;
#X connect 6 1 1 0;
#X connect 7 0 111 0;
#X connect 8 0 92 0;
#X connect 9 0 111 1;
#X connect 10 0 11 0;
#X connect 11 0 89 0;
#X connect 11 1 14 0;
#X connect 13 0 20 1;
#X connect 14 0 22 0;
#X connect 16 0 12 0;
#X connect 16 0 18 0;
#X connect 17 0 15 0;
#X connect 17 0 19 0;
#X connect 18 0 51 0;
#X connect 19 0 67 0;
#X connect 20 0 10 0;
#X connect 21 0 99 0;
#X connect 22 0 98 0;
#X connect 23 0 74 0;
#X connect 24 0 111 2;
#X connect 25 0 24 0;
#X connect 28 0 29 0;
#X connect 29 0 30 0;
#X connect 30 0 56 1;
#X connect 31 0 56 2;
#X connect 32 0 31 0;
#X connect 33 0 9 0;
#X connect 34 0 39 0;
#X connect 35 0 109 0;
#X connect 35 0 110 0;
#X connect 36 0 37 0;
#X connect 37 0 38 0;
#X connect 38 0 109 0;
#X connect 38 1 56 0;
#X connect 39 0 47 0;
#X connect 39 1 35 0;
#X connect 40 0 36 1;
#X connect 40 0 43 1;
#X connect 41 0 36 1;
#X connect 41 0 43 1;
#X connect 42 0 7 0;
#X connect 43 0 44 0;
#X connect 44 0 45 0;
#X connect 45 0 110 0;
#X connect 45 1 71 0;
#X connect 46 0 9 0;
#X connect 47 0 48 0;
#X connect 48 0 41 0;
#X connect 48 1 79 0;
#X connect 48 2 49 0;
#X connect 49 0 79 0;
#X connect 50 0 54 0;
#X connect 50 1 58 0;
#X connect 51 0 92 0;
#X connect 51 1 80 0;
#X connect 51 2 81 0;
#X connect 52 0 56 1;
#X connect 53 0 56 3;
#X connect 54 0 52 0;
#X connect 54 1 53 0;
#X connect 55 0 7 0;
#X connect 56 0 55 0;
#X connect 57 0 56 3;
#X connect 58 0 28 0;
#X connect 58 1 57 0;
#X connect 59 0 94 0;
#X connect 60 0 61 0;
#X connect 61 0 62 0;
#X connect 62 0 71 1;
#X connect 63 0 71 2;
#X connect 64 0 65 0;
#X connect 65 0 63 0;
#X connect 66 0 70 0;
#X connect 66 1 73 0;
#X connect 67 0 94 0;
#X connect 67 1 82 0;
#X connect 67 2 64 0;
#X connect 68 0 71 1;
#X connect 69 0 71 3;
#X connect 70 0 68 0;
#X connect 70 1 69 0;
#X connect 71 0 33 0;
#X connect 72 0 71 3;
#X connect 73 0 60 0;
#X connect 73 1 72 0;
#X connect 74 0 75 1;
#X connect 74 0 76 1;
#X connect 75 0 17 0;
#X connect 76 0 16 0;
#X connect 77 0 26 0;
#X connect 78 0 27 0;
#X connect 79 0 40 0;
#X connect 80 0 50 0;
#X connect 81 0 32 0;
#X connect 82 0 66 0;
#X connect 83 0 84 0;
#X connect 84 1 97 0;
#X connect 89 0 21 0;
#X connect 91 0 77 1;
#X connect 91 0 78 1;
#X connect 92 0 36 0;
#X connect 92 1 8 0;
#X connect 93 1 95 0;
#X connect 94 0 43 0;
#X connect 94 1 59 0;
#X connect 95 0 96 0;
#X connect 96 0 92 1;
#X connect 96 1 94 1;
#X connect 97 0 84 1;
#X connect 97 1 93 0;
#X connect 98 0 75 0;
#X connect 99 0 76 0;
#X connect 101 0 91 0;
#X connect 102 0 23 1;
#X connect 103 0 20 0;
#X connect 104 0 102 0;
#X connect 106 0 101 0;
#X connect 106 1 114 0;
#X connect 109 0 42 0;
#X connect 110 0 46 0;
#X connect 111 0 77 0;
#X connect 111 1 78 0;
#X connect 112 0 113 0;
#X connect 113 0 106 0;
#X connect 113 1 2 0;
#X connect 113 2 105 0;
#X connect 114 0 91 0;
#X restore 165 151 pd whispers;
