#N canvas 263 74 450 300 10;
#X declare -path .;
#X obj 165 129 _PPC-Sample PPC-O;
#N canvas 122 22 599 707 omen 0;
#X obj 406 206 bang;
#X obj 406 183 metro 2000;
#X obj 62 650 throw~ FX-RETURN-L;
#X obj 333 651 throw~ FX-RETURN-R;
#X msg 172 91 1;
#X msg 207 91 0;
#X obj 172 160 switch~;
#X obj 132 49 list split 1;
#X obj 132 28 r MIC;
#X obj 172 70 sel omen;
#X obj 419 287 catch~ omen;
#X obj 62 220 osc~ 0.1;
#X obj 300 327 snapshot~;
#X obj 300 307 metro 50;
#X obj 62 241 +~ 2;
#X obj 300 431 sig~;
#X obj 300 369 -;
#X obj 182 581 throw~ REVERB;
#X obj 301 613 e_pan;
#X obj 62 613 e_pan;
#X obj 123 441 / 100;
#X msg 243 434 on \$1;
#X obj 122 461 c_lfo MYLFO2 1 50 sine;
#X obj 124 399 loadbang;
#X obj 333 570 swap 1;
#X obj 333 590 -;
#X msg 124 420 7;
#X obj 62 180 * 0.5;
#X obj 62 201 + 0.01;
#X obj 62 262 *~ 0.35;
#X obj 300 390 * 0.35;
#X obj 301 451 phasor~ -1;
#X obj 300 348 swap 4;
#X msg 368 236 0;
#X obj 62 325 *~ 44100;
#X obj 62 304 phasor~ 0.5;
#X obj 62 283 *~ 0.5;
#X obj 301 472 *~ 44100;
#X obj 300 411 * 0.5;
#X obj 62 346 +~ 1;
#X obj 301 493 +~ 1;
#X obj 182 560 *~ 0.45;
#X obj 62 462 *~ 1.5;
#X obj 301 533 *~ 1.5;
#X obj 172 117 pipe 2000;
#X obj 172 138 t f f f f f;
#X obj 391 18 table \$0-omen 44103;
#X obj 301 512 tabread4~ \$0-omen;
#X obj 62 367 tabread4~ \$0-omen;
#X obj 189 222 s \$0-omen;
#X obj 189 182 sel 0;
#X obj 406 319 tabwrite~ \$0-omen;
#X msg 189 201 const 0;
#X connect 0 0 33 0;
#X connect 0 0 51 0;
#X connect 1 0 0 0;
#X connect 4 0 44 0;
#X connect 5 0 44 0;
#X connect 7 1 9 0;
#X connect 8 0 7 0;
#X connect 9 0 4 0;
#X connect 9 1 5 0;
#X connect 10 0 51 0;
#X connect 11 0 14 0;
#X connect 12 0 32 0;
#X connect 13 0 12 0;
#X connect 14 0 12 0;
#X connect 14 0 29 0;
#X connect 15 0 31 0;
#X connect 16 0 30 0;
#X connect 18 0 2 0;
#X connect 18 1 3 0;
#X connect 19 0 2 0;
#X connect 19 1 3 0;
#X connect 20 0 22 0;
#X connect 21 0 22 1;
#X connect 22 0 19 1;
#X connect 22 0 24 0;
#X connect 22 0 27 0;
#X connect 23 0 26 0;
#X connect 24 0 25 0;
#X connect 24 1 25 1;
#X connect 25 0 18 1;
#X connect 26 0 20 0;
#X connect 27 0 28 0;
#X connect 28 0 11 0;
#X connect 29 0 36 0;
#X connect 30 0 38 0;
#X connect 31 0 37 0;
#X connect 32 0 16 0;
#X connect 32 1 16 1;
#X connect 33 0 31 1;
#X connect 33 0 35 1;
#X connect 34 0 39 0;
#X connect 35 0 34 0;
#X connect 36 0 35 0;
#X connect 37 0 40 0;
#X connect 38 0 15 0;
#X connect 39 0 48 0;
#X connect 40 0 47 0;
#X connect 41 0 17 0;
#X connect 42 0 19 0;
#X connect 42 0 41 0;
#X connect 43 0 18 0;
#X connect 43 0 41 0;
#X connect 44 0 45 0;
#X connect 45 0 6 0;
#X connect 45 1 50 0;
#X connect 45 2 21 0;
#X connect 45 3 13 0;
#X connect 45 4 1 0;
#X connect 47 0 43 0;
#X connect 48 0 42 0;
#X connect 50 0 52 0;
#X connect 52 0 49 0;
#X restore 165 151 pd omen;
