#N canvas 100 252 450 300 10;
#X declare -path .;
#X declare -path .;
#X obj 165 129 _PPC-Sample PPC-G;
#X obj 165 151 _PPC-Sample PPC-G-Speech;
#N canvas 48 25 787 720 phasemod 0;
#X obj 457 248 *~;
#X obj 545 219 line~;
#X obj 439 322 cos~;
#X obj 439 295 +~;
#X obj 545 176 / 100;
#X obj 439 341 hip~ 5;
#N canvas 0 22 627 506 delay 0;
#X obj 250 58 inlet~;
#X obj 92 463 outlet~;
#X obj 92 442 *~ 0.5;
#X obj 250 79 *~ 0.5;
#X obj 352 459 outlet~;
#X obj 352 438 *~ 0.5;
#X obj 367 409 vd~ \$0-phase-r;
#X obj 367 389 line~;
#X obj 366 328 random 500;
#X obj 366 349 + 1;
#X obj 366 291 sel 0;
#X obj 93 418 vd~ \$0-phase-l;
#X obj 94 397 line~;
#X obj 93 336 random 500;
#X obj 93 357 + 1;
#X obj 93 314 sel 1;
#X obj 368 208 delwrite~ \$0-phase-r 501;
#X obj 93 207 delwrite~ \$0-phase-l 501;
#X obj 366 270 mod 128;
#X msg 366 368 \$1 500;
#X msg 93 376 \$1 500;
#X obj 368 152 *~ 0.3;
#X obj 93 149 *~ 0.3;
#X obj 93 172 bp~ 5400 3;
#X obj 368 175 bp~ 5400 3;
#X obj 366 228 r tick;
#X obj 366 249 route phasemod;
#X connect 0 0 3 0;
#X connect 2 0 1 0;
#X connect 3 0 2 0;
#X connect 3 0 5 0;
#X connect 3 0 21 0;
#X connect 3 0 22 0;
#X connect 5 0 4 0;
#X connect 6 0 5 0;
#X connect 6 0 22 0;
#X connect 7 0 6 0;
#X connect 8 0 9 0;
#X connect 9 0 19 0;
#X connect 10 0 8 0;
#X connect 11 0 2 0;
#X connect 11 0 21 0;
#X connect 12 0 11 0;
#X connect 13 0 14 0;
#X connect 14 0 20 0;
#X connect 15 0 13 0;
#X connect 18 0 10 0;
#X connect 18 0 15 0;
#X connect 19 0 7 0;
#X connect 20 0 12 0;
#X connect 21 0 24 0;
#X connect 22 0 23 0;
#X connect 23 0 17 0;
#X connect 24 0 16 0;
#X connect 25 0 26 0;
#X connect 26 0 18 0;
#X restore 408 455 pd delay;
#X obj 457 193 + 1;
#X obj 545 132 random 89;
#X obj 545 153 + 10;
#X obj 545 198 pack 0 200;
#X obj 382 272 catch~ phasemod;
#X msg 99 163 1;
#X msg 134 163 0;
#X obj 59 121 list split 1;
#X obj 457 216 osc~ 10;
#X obj 99 142 sel phasemod;
#X obj 408 534 *~ 2.5;
#X obj 382 370 *~ 0.75;
#X obj 439 370 *~ 0.65;
#X obj 457 149 sel 0 1;
#X obj 457 81 a_onset 128 20;
#X obj 457 102 t b;
#X obj 457 123 random 2;
#X obj 408 585 e_pan;
#X obj 440 557 r panvalue;
#X obj 457 172 random 20;
#X obj 359 455 *~ 0.3;
#X obj 416 489 *~ 0.5;
#X obj 59 100 r MIC;
#X obj 408 514 bp~ 8000 4;
#X obj 191 539 s_fplaytable2;
#X msg 191 511 PPC-G-Speech;
#X obj 235 560 *~ 2;
#X obj 191 560 *~ 2;
#X obj 99 286 metro 1000;
#X obj 99 374 f;
#X obj 126 374 + 1;
#X msg 197 339 0;
#X obj 99 399 mod 54;
#X obj 144 315 r inGeofence1;
#X obj 173 374 print inGeofence1Received;
#X obj 99 346 spigot 0;
#X obj 99 424 sel 8;
#X obj 440 665 throw~ FX-RETURN-R;
#X obj 408 690 throw~ FX-RETURN-L;
#X obj 408 433 *~ 1;
#X obj 131 228 switch~;
#X obj 131 208 pipe 2000;
#X obj 99 184 t f f;
#X connect 0 0 3 1;
#X connect 1 0 0 1;
#X connect 2 0 5 0;
#X connect 3 0 2 0;
#X connect 4 0 10 0;
#X connect 5 0 19 0;
#X connect 6 0 30 0;
#X connect 6 1 28 0;
#X connect 7 0 15 0;
#X connect 8 0 9 0;
#X connect 9 0 4 0;
#X connect 10 0 1 0;
#X connect 11 0 3 0;
#X connect 11 0 18 0;
#X connect 11 0 21 0;
#X connect 12 0 38 0;
#X connect 12 0 49 0;
#X connect 13 0 49 0;
#X connect 14 1 16 0;
#X connect 15 0 0 0;
#X connect 16 0 12 0;
#X connect 16 1 13 0;
#X connect 17 0 24 0;
#X connect 18 0 27 0;
#X connect 18 0 46 0;
#X connect 19 0 46 0;
#X connect 20 0 26 0;
#X connect 20 1 8 0;
#X connect 21 0 22 0;
#X connect 22 0 23 0;
#X connect 23 0 20 0;
#X connect 24 0 45 0;
#X connect 24 1 44 0;
#X connect 25 0 24 1;
#X connect 26 0 7 0;
#X connect 27 0 30 0;
#X connect 28 0 30 0;
#X connect 29 0 14 0;
#X connect 30 0 17 0;
#X connect 31 0 34 0;
#X connect 31 1 33 0;
#X connect 32 0 31 0;
#X connect 33 0 44 0;
#X connect 34 0 45 0;
#X connect 35 0 42 0;
#X connect 36 0 37 0;
#X connect 36 0 39 0;
#X connect 37 0 36 1;
#X connect 38 0 36 1;
#X connect 39 0 43 0;
#X connect 40 0 41 0;
#X connect 40 0 42 1;
#X connect 42 0 36 0;
#X connect 43 0 32 0;
#X connect 46 0 6 0;
#X connect 48 0 47 0;
#X connect 49 0 35 0;
#X connect 49 1 48 0;
#X restore 165 180 pd phasemod;
