#N canvas 300 331 450 300 10;
#X declare -path .;
#X obj 165 129 _PPC-Sample PPC-J;
#N canvas 0 22 738 720 granular 0;
#X obj 242 642 delwrite~ b1 5000;
#X obj 48 480 vd~ b1;
#X obj 47 335 phasor~;
#X obj 48 375 *~ -1;
#X obj 48 397 +~ 1;
#X obj 137 430 sig~ 1;
#X obj 155 411 cos~;
#X obj 137 452 -~;
#X obj 137 472 *~ 0.5;
#X obj 48 502 *~;
#X obj 66 439 samphold~;
#X obj 48 459 *~;
#X obj 242 528 vd~ b1;
#X obj 242 421 *~ -1;
#X obj 242 444 +~ 1;
#X obj 334 470 sig~ 1;
#X obj 352 450 cos~;
#X obj 334 491 -~;
#X obj 334 512 *~ 0.5;
#X obj 242 558 *~;
#X obj 260 485 samphold~;
#X obj 242 506 *~;
#X obj 242 374 +~ 0.5;
#X obj 242 396 wrap~;
#X obj 48 591 *~ 1;
#X msg 47 197 2;
#X obj 47 225 pow;
#X obj 47 165 t b f;
#X obj 79 197 / 12;
#X obj 47 246 - 1;
#X obj 47 314 *;
#X obj 80 226 t b f;
#X obj 80 269 /;
#X obj 57 291 t b f;
#X obj 66 420 sig~;
#X obj 260 466 sig~;
#X obj 47 34 a_onset 128 20;
#X obj 47 142 line;
#X msg 47 121 \$1 1500;
#X obj 138 673 throw~ REVERB;
#X obj 137 185 line;
#X msg 137 164 \$1 1500;
#X obj 48 645 e_pan;
#X obj 242 588 *~ 0.85;
#X obj 442 474 *~;
#X obj 137 119 random 29650;
#X obj 137 140 + 350;
#X obj 47 76 random 12;
#X obj 47 97 - 6;
#X obj 47 55 t b b;
#X obj 48 612 lop~ 3000;
#X msg 460 283 1;
#X msg 495 283 0;
#X obj 47 9 r~ granular;
#X obj 442 507 s~ granular;
#X obj 80 558 r panvalue;
#X obj 442 453 catch~ granular;
#X obj 80 248 samplerate~;
#X obj 460 422 line;
#X obj 460 330 t f f;
#X obj 492 353 switch~;
#X obj 420 231 list split 1;
#X obj 460 252 sel granular;
#X obj 138 647 *~ 0.5;
#X obj 48 713 throw~ FX-RETURN-L;
#X obj 138 693 throw~ FX-RETURN-R;
#X obj 242 614 nofeedback;
#X obj 174 26 loadbang;
#X obj 137 321 / 44.1;
#X obj 420 210 r MIC;
#X obj 460 310 pipe 2000;
#X obj 460 401 pack f 2500;
#X connect 1 0 9 0;
#X connect 2 0 3 0;
#X connect 2 0 6 0;
#X connect 2 0 10 1;
#X connect 2 0 22 0;
#X connect 3 0 4 0;
#X connect 4 0 11 0;
#X connect 5 0 7 0;
#X connect 6 0 7 1;
#X connect 7 0 8 0;
#X connect 8 0 9 1;
#X connect 9 0 24 0;
#X connect 9 0 43 0;
#X connect 10 0 11 1;
#X connect 11 0 1 0;
#X connect 12 0 19 0;
#X connect 13 0 14 0;
#X connect 14 0 21 0;
#X connect 15 0 17 0;
#X connect 16 0 17 1;
#X connect 17 0 18 0;
#X connect 18 0 19 1;
#X connect 19 0 24 0;
#X connect 19 0 43 0;
#X connect 20 0 21 1;
#X connect 21 0 12 0;
#X connect 22 0 23 0;
#X connect 23 0 13 0;
#X connect 23 0 20 1;
#X connect 23 0 16 0;
#X connect 24 0 50 0;
#X connect 25 0 26 0;
#X connect 26 0 29 0;
#X connect 27 0 25 0;
#X connect 27 1 28 0;
#X connect 28 0 26 1;
#X connect 29 0 30 0;
#X connect 30 0 2 0;
#X connect 31 0 57 0;
#X connect 31 1 32 1;
#X connect 32 0 33 0;
#X connect 33 0 30 0;
#X connect 33 1 30 1;
#X connect 34 0 10 0;
#X connect 35 0 20 0;
#X connect 36 0 49 0;
#X connect 37 0 27 0;
#X connect 38 0 37 0;
#X connect 40 0 31 0;
#X connect 40 0 68 0;
#X connect 41 0 40 0;
#X connect 42 0 64 0;
#X connect 42 1 65 0;
#X connect 43 0 66 0;
#X connect 44 0 0 0;
#X connect 44 0 54 0;
#X connect 45 0 46 0;
#X connect 46 0 41 0;
#X connect 47 0 48 0;
#X connect 48 0 38 0;
#X connect 49 0 47 0;
#X connect 49 1 45 0;
#X connect 50 0 42 0;
#X connect 50 0 63 0;
#X connect 51 0 70 0;
#X connect 52 0 70 0;
#X connect 53 0 36 0;
#X connect 55 0 42 1;
#X connect 56 0 44 0;
#X connect 57 0 32 0;
#X connect 58 0 44 1;
#X connect 59 0 71 0;
#X connect 59 1 60 0;
#X connect 61 1 62 0;
#X connect 62 0 51 0;
#X connect 62 1 52 0;
#X connect 63 0 39 0;
#X connect 66 0 0 0;
#X connect 67 0 49 0;
#X connect 68 0 34 0;
#X connect 68 0 35 0;
#X connect 69 0 61 0;
#X connect 70 0 59 0;
#X connect 71 0 58 0;
#X restore 165 152 pd granular;
