#N canvas 0 22 438 742 10;
#N canvas 47 22 948 720 d-delay 0;
#X obj 171 451 delwrite~ d-delay1 700;
#X obj 171 471 delread~ d-delay1 700;
#X obj 482 209 s d-delay-time;
#X obj 204 428 r d-delay-time;
#X obj 409 241 +;
#X obj 495 261 +;
#X obj 581 280 +;
#X obj 667 300 +;
#X obj 741 370 delwrite~ straight-delay 700;
#X obj 771 347 r d-delay-time;
#X obj 741 390 delread~ straight-delay;
#X obj 687 378 *~ 0.7;
#X obj 687 399 *~ 0.5;
#X obj 171 562 *~ 1;
#X obj 208 562 *~ 1;
#X obj 226 511 swap 1;
#X obj 226 532 -;
#X obj 226 491 t f f;
#X msg 365 179 1 -0.2;
#X obj 365 200 unpack f f;
#X obj 432 220 f;
#X obj 365 221 t f f;
#X msg 377 159 0 0.2;
#X obj 145 403 *~ 1;
#X obj 182 403 *~ 1;
#X obj 190 352 swap 1;
#X obj 190 373 -;
#X obj 190 332 t f f;
#X obj 754 319 +;
#X obj 687 482 *~ 1;
#X obj 724 482 *~ 1;
#X obj 712 441 swap 1;
#X obj 712 462 -;
#X obj 712 421 t f f;
#X msg 482 174 214;
#X msg 512 174 286;
#X msg 542 174 483;
#X obj 365 -33 r tick;
#X obj 365 8 mod 256;
#X obj 482 60 t b b;
#X obj 514 79 random 2;
#X obj 482 102 spigot 0;
#X obj 482 144 sel 0 1 2 3;
#X obj 482 123 random 3;
#X obj 365 30 sel 0 128;
#X obj 365 53 t b b;
#X obj 397 72 random 2;
#X obj 365 95 spigot 0;
#X obj 365 137 sel 0 1;
#X obj 365 115 random 2;
#X obj 508 664 throw~ REVERB;
#X obj 231 616 *~;
#X obj 145 616 *~;
#X obj 508 642 *~;
#X obj 581 300 d-delay 3 4;
#X obj 409 261 d-delay 1 2;
#X obj 667 320 d-delay 4 5;
#X obj 495 280 d-delay 2 3;
#X obj 482 482 s~ delfade;
#X obj 482 462 lop~ 0.2;
#X obj 526 616 lop~ 0.2;
#X obj 482 442 * 0.85;
#X obj 145 269 catch~ d-delay;
#X obj 145 290 *~;
#X obj 145 310 *~ 0.7;
#X obj 296 78 loadbang;
#X obj 163 251 line;
#X obj 163 230 pack f 5000;
#X obj 186 72 sel 1 0;
#X msg 186 93 1;
#X msg 217 93 0;
#X obj 217 161 pipe 5000;
#X msg 207 138 clear;
#X obj 186 114 t f b;
#X obj 186 186 t f f;
#X obj 186 210 switch~;
#X msg 163 28 1;
#X msg 196 28 0;
#X obj 123 -13 list split 1;
#X obj 163 7 sel d-delay;
#X obj 526 593 * 0.7;
#X obj 145 636 throw~ FX-RETURN-L;
#X obj 231 656 throw~ FX-RETURN-R;
#X obj 123 -34 r MIC;
#X obj 163 51 t f f f;
#X obj 365 -12 route d-delay;
#X obj 14 65 list split 1;
#X obj 14 44 r Sample-FX;
#X obj 54 131 spigot;
#X obj 93 91 swap 1;
#X obj 93 112 -;
#X msg 54 175 1;
#X msg 87 175 0;
#X obj 54 154 sel d-delay;
#X obj 423 -33 r sample-fx-tick;
#X connect 1 0 13 0;
#X connect 1 0 14 0;
#X connect 3 0 1 0;
#X connect 4 0 5 0;
#X connect 4 0 55 0;
#X connect 5 0 6 0;
#X connect 5 0 57 0;
#X connect 6 0 7 0;
#X connect 6 0 54 0;
#X connect 7 0 28 0;
#X connect 7 0 56 0;
#X connect 9 0 10 0;
#X connect 10 0 11 0;
#X connect 11 0 8 0;
#X connect 11 0 12 0;
#X connect 12 0 29 0;
#X connect 12 0 30 0;
#X connect 13 0 52 0;
#X connect 13 0 53 0;
#X connect 14 0 51 0;
#X connect 14 0 53 0;
#X connect 15 0 16 0;
#X connect 15 1 16 1;
#X connect 16 0 13 1;
#X connect 17 0 15 0;
#X connect 17 1 14 1;
#X connect 18 0 19 0;
#X connect 19 0 21 0;
#X connect 19 1 20 0;
#X connect 20 0 4 1;
#X connect 20 0 5 1;
#X connect 20 0 6 1;
#X connect 20 0 7 1;
#X connect 20 0 28 1;
#X connect 21 0 17 0;
#X connect 21 0 27 0;
#X connect 21 1 4 0;
#X connect 22 0 19 0;
#X connect 23 0 0 0;
#X connect 23 0 52 0;
#X connect 24 0 0 0;
#X connect 24 0 51 0;
#X connect 25 0 26 0;
#X connect 25 1 26 1;
#X connect 26 0 23 1;
#X connect 27 0 25 0;
#X connect 27 1 24 1;
#X connect 28 0 33 0;
#X connect 29 0 52 0;
#X connect 29 0 53 0;
#X connect 30 0 51 0;
#X connect 30 0 53 0;
#X connect 31 0 32 0;
#X connect 31 1 32 1;
#X connect 32 0 29 1;
#X connect 33 0 31 0;
#X connect 33 1 30 1;
#X connect 34 0 2 0;
#X connect 35 0 2 0;
#X connect 36 0 2 0;
#X connect 37 0 85 0;
#X connect 38 0 44 0;
#X connect 39 0 41 0;
#X connect 39 1 40 0;
#X connect 40 0 41 1;
#X connect 41 0 43 0;
#X connect 42 0 34 0;
#X connect 42 1 35 0;
#X connect 42 2 36 0;
#X connect 43 0 42 0;
#X connect 44 0 45 0;
#X connect 44 1 39 0;
#X connect 45 0 47 0;
#X connect 45 1 46 0;
#X connect 46 0 47 1;
#X connect 47 0 49 0;
#X connect 48 0 18 0;
#X connect 48 1 22 0;
#X connect 49 0 48 0;
#X connect 51 0 82 0;
#X connect 52 0 81 0;
#X connect 53 0 50 0;
#X connect 56 0 8 0;
#X connect 56 1 8 0;
#X connect 59 0 51 1;
#X connect 59 0 52 1;
#X connect 59 0 58 0;
#X connect 60 0 53 1;
#X connect 61 0 59 0;
#X connect 61 0 80 0;
#X connect 62 0 63 0;
#X connect 63 0 64 0;
#X connect 64 0 23 0;
#X connect 64 0 24 0;
#X connect 65 0 22 0;
#X connect 65 0 34 0;
#X connect 66 0 63 1;
#X connect 67 0 66 0;
#X connect 68 0 69 0;
#X connect 68 1 70 0;
#X connect 69 0 73 0;
#X connect 70 0 71 0;
#X connect 71 0 74 0;
#X connect 72 0 71 0;
#X connect 73 0 74 0;
#X connect 73 1 72 0;
#X connect 74 0 75 0;
#X connect 76 0 84 0;
#X connect 76 0 89 0;
#X connect 77 0 84 0;
#X connect 77 0 89 0;
#X connect 78 1 79 0;
#X connect 79 0 76 0;
#X connect 79 1 77 0;
#X connect 80 0 60 0;
#X connect 83 0 78 0;
#X connect 84 0 67 0;
#X connect 84 1 68 0;
#X connect 84 2 61 0;
#X connect 85 0 38 0;
#X connect 86 1 88 0;
#X connect 87 0 86 0;
#X connect 88 0 93 0;
#X connect 89 0 90 0;
#X connect 89 1 90 1;
#X connect 90 0 88 1;
#X connect 91 0 84 0;
#X connect 92 0 84 0;
#X connect 93 0 91 0;
#X connect 93 1 92 0;
#X connect 94 0 85 0;
#X restore 53 194 pd d-delay;
#N canvas 104 23 525 709 octaver 0;
#X obj 314 478 delread~ \$0-a 200;
#X obj 210 463 e_pitchshift;
#X obj 314 457 delwrite~ \$0-a 200;
#X obj 169 310 catch~ octaver;
#X msg 187 85 1;
#X msg 222 85 0;
#X msg 291 428 pitch \$1;
#X obj 291 350 int;
#X obj 291 329 - 12;
#X obj 291 308 * 15;
#X obj 342 97 r tick;
#X obj 381 384 == 3;
#X obj 342 404 spigot;
#X obj 342 158 mod 256;
#X obj 342 179 sel 0;
#X msg 361 259 -3;
#X msg 342 241 -6;
#X msg 373 241 -1;
#X obj 342 221 sel 0 1 2 3 4 5;
#X obj 342 309 line;
#X obj 342 330 int;
#X obj 342 288 pack f 1500;
#X obj 169 573 e_pan;
#X obj 223 546 r panvalue;
#X obj 187 258 line;
#X obj 187 108 t f f;
#X obj 169 331 *~;
#X obj 187 279 t f f;
#X obj 303 659 throw~ REVERB;
#X obj 147 41 list split 1;
#X obj 187 60 sel octaver;
#X obj 169 603 throw~ FX-RETURN-L;
#X obj 201 622 throw~ FX-RETURN-R;
#X obj 210 502 *~ 0.8;
#X msg 422 259 6;
#X msg 405 241 3;
#X msg 393 259 1;
#X obj 210 483 lop~ 5000;
#X obj 342 200 random 6;
#X obj 169 527 *~ 0.65;
#X obj 303 641 *~ 0.45;
#X obj 147 20 r MIC;
#X obj 342 137 route octaver;
#X msg 228 171 clear;
#X obj 196 151 t f b;
#X obj 219 211 switch~;
#X obj 219 130 moses 1;
#X obj 33 112 list split 1;
#X obj 33 91 r Sample-FX;
#X obj 73 178 spigot;
#X obj 112 138 swap 1;
#X obj 112 159 -;
#X msg 73 224 1;
#X msg 108 224 0;
#X obj 73 199 sel octaver;
#X obj 359 76 r sample-fx-tick;
#X obj 169 552 *~ 1.5;
#X obj 187 237 pack f 1000;
#X obj 219 191 pipe 1000;
#X connect 0 0 1 0;
#X connect 1 0 37 0;
#X connect 3 0 26 0;
#X connect 4 0 25 0;
#X connect 4 0 50 0;
#X connect 5 0 25 0;
#X connect 5 0 50 0;
#X connect 6 0 1 1;
#X connect 7 0 6 0;
#X connect 7 0 11 0;
#X connect 8 0 7 0;
#X connect 9 0 8 0;
#X connect 10 0 42 0;
#X connect 11 0 12 1;
#X connect 12 0 6 0;
#X connect 13 0 14 0;
#X connect 14 0 38 0;
#X connect 15 0 21 0;
#X connect 16 0 21 0;
#X connect 17 0 21 0;
#X connect 18 0 16 0;
#X connect 18 1 15 0;
#X connect 18 2 17 0;
#X connect 18 3 36 0;
#X connect 18 4 35 0;
#X connect 18 5 34 0;
#X connect 19 0 20 0;
#X connect 20 0 12 0;
#X connect 21 0 19 0;
#X connect 22 0 31 0;
#X connect 22 1 32 0;
#X connect 23 0 22 1;
#X connect 24 0 27 0;
#X connect 25 0 57 0;
#X connect 25 1 46 0;
#X connect 26 0 2 0;
#X connect 26 0 39 0;
#X connect 27 0 26 1;
#X connect 27 1 9 0;
#X connect 29 1 30 0;
#X connect 30 0 4 0;
#X connect 30 1 5 0;
#X connect 33 0 2 0;
#X connect 33 0 56 0;
#X connect 34 0 21 0;
#X connect 35 0 21 0;
#X connect 36 0 21 0;
#X connect 37 0 33 0;
#X connect 38 0 18 0;
#X connect 39 0 56 0;
#X connect 40 0 28 0;
#X connect 41 0 29 0;
#X connect 42 0 13 0;
#X connect 43 0 58 0;
#X connect 44 0 45 0;
#X connect 44 1 43 0;
#X connect 46 0 58 0;
#X connect 46 1 44 0;
#X connect 47 1 49 0;
#X connect 48 0 47 0;
#X connect 49 0 54 0;
#X connect 50 0 51 0;
#X connect 50 1 51 1;
#X connect 51 0 49 1;
#X connect 52 0 25 0;
#X connect 53 0 25 0;
#X connect 54 0 52 0;
#X connect 54 1 53 0;
#X connect 55 0 42 0;
#X connect 56 0 22 0;
#X connect 56 0 40 0;
#X connect 57 0 24 0;
#X connect 58 0 45 0;
#X restore 53 215 pd octaver;
#N canvas 0 22 738 720 granular 0;
#X obj 242 642 delwrite~ b1 5000;
#X obj 48 480 vd~ b1;
#X obj 47 335 phasor~;
#X obj 48 375 *~ -1;
#X obj 48 397 +~ 1;
#X obj 137 430 sig~ 1;
#X obj 155 411 cos~;
#X obj 137 452 -~;
#X obj 137 472 *~ 0.5;
#X obj 48 502 *~;
#X obj 66 439 samphold~;
#X obj 48 459 *~;
#X obj 242 528 vd~ b1;
#X obj 242 421 *~ -1;
#X obj 242 444 +~ 1;
#X obj 334 470 sig~ 1;
#X obj 352 450 cos~;
#X obj 334 491 -~;
#X obj 334 512 *~ 0.5;
#X obj 242 558 *~;
#X obj 260 485 samphold~;
#X obj 242 506 *~;
#X obj 242 374 +~ 0.5;
#X obj 242 396 wrap~;
#X obj 48 591 *~ 1;
#X msg 47 197 2;
#X obj 47 225 pow;
#X obj 47 165 t b f;
#X obj 79 197 / 12;
#X obj 47 246 - 1;
#X obj 47 314 *;
#X obj 80 226 t b f;
#X obj 80 269 /;
#X obj 57 291 t b f;
#X obj 66 420 sig~;
#X obj 260 466 sig~;
#X obj 47 34 a_onset 128 20;
#X obj 47 142 line;
#X msg 47 121 \$1 1500;
#X obj 138 673 throw~ REVERB;
#X obj 137 185 line;
#X msg 137 164 \$1 1500;
#X obj 48 645 e_pan;
#X obj 242 588 *~ 0.85;
#X obj 442 474 *~;
#X obj 137 119 random 29650;
#X obj 137 140 + 350;
#X obj 47 76 random 12;
#X obj 47 97 - 6;
#X obj 47 55 t b b;
#X obj 48 612 lop~ 3000;
#X msg 460 192 1;
#X msg 495 192 0;
#X obj 460 219 t f f;
#X obj 47 9 r~ granular;
#X obj 442 507 s~ granular;
#X obj 80 558 r panvalue;
#X obj 442 453 catch~ granular;
#X obj 80 248 samplerate~;
#X obj 460 422 line;
#X obj 492 241 sel 1 0;
#X msg 492 262 1;
#X msg 523 262 0;
#X msg 513 307 clear;
#X obj 492 283 t f b;
#X obj 492 355 t f f;
#X obj 492 379 switch~;
#X obj 420 140 list split 1;
#X obj 460 161 sel granular;
#X obj 138 647 *~ 0.5;
#X obj 48 713 throw~ FX-RETURN-L;
#X obj 138 693 throw~ FX-RETURN-R;
#X obj 242 614 nofeedback;
#X obj 174 26 loadbang;
#X obj 137 321 / 44.1;
#X obj 420 119 r MIC;
#X obj 318 206 list split 1;
#X obj 318 185 r Sample-FX;
#X obj 358 272 spigot;
#X obj 397 232 swap 1;
#X obj 397 253 -;
#X msg 358 320 1;
#X msg 393 320 0;
#X obj 358 295 sel granular;
#X obj 460 401 pack f 1000;
#X obj 523 330 pipe 1000;
#X connect 1 0 9 0;
#X connect 2 0 3 0;
#X connect 2 0 6 0;
#X connect 2 0 10 1;
#X connect 2 0 22 0;
#X connect 3 0 4 0;
#X connect 4 0 11 0;
#X connect 5 0 7 0;
#X connect 6 0 7 1;
#X connect 7 0 8 0;
#X connect 8 0 9 1;
#X connect 9 0 24 0;
#X connect 9 0 43 0;
#X connect 10 0 11 1;
#X connect 11 0 1 0;
#X connect 12 0 19 0;
#X connect 13 0 14 0;
#X connect 14 0 21 0;
#X connect 15 0 17 0;
#X connect 16 0 17 1;
#X connect 17 0 18 0;
#X connect 18 0 19 1;
#X connect 19 0 24 0;
#X connect 19 0 43 0;
#X connect 20 0 21 1;
#X connect 21 0 12 0;
#X connect 22 0 23 0;
#X connect 23 0 13 0;
#X connect 23 0 20 1;
#X connect 23 0 16 0;
#X connect 24 0 50 0;
#X connect 25 0 26 0;
#X connect 26 0 29 0;
#X connect 27 0 25 0;
#X connect 27 1 28 0;
#X connect 28 0 26 1;
#X connect 29 0 30 0;
#X connect 30 0 2 0;
#X connect 31 0 58 0;
#X connect 31 1 32 1;
#X connect 32 0 33 0;
#X connect 33 0 30 0;
#X connect 33 1 30 1;
#X connect 34 0 10 0;
#X connect 35 0 20 0;
#X connect 36 0 49 0;
#X connect 37 0 27 0;
#X connect 38 0 37 0;
#X connect 40 0 31 0;
#X connect 40 0 74 0;
#X connect 41 0 40 0;
#X connect 42 0 70 0;
#X connect 42 1 71 0;
#X connect 43 0 72 0;
#X connect 44 0 0 0;
#X connect 44 0 55 0;
#X connect 45 0 46 0;
#X connect 46 0 41 0;
#X connect 47 0 48 0;
#X connect 48 0 38 0;
#X connect 49 0 47 0;
#X connect 49 1 45 0;
#X connect 50 0 42 0;
#X connect 50 0 69 0;
#X connect 51 0 53 0;
#X connect 51 0 79 0;
#X connect 52 0 53 0;
#X connect 52 0 79 0;
#X connect 53 0 84 0;
#X connect 53 1 60 0;
#X connect 54 0 36 0;
#X connect 56 0 42 1;
#X connect 57 0 44 0;
#X connect 58 0 32 0;
#X connect 59 0 44 1;
#X connect 60 0 61 0;
#X connect 60 1 62 0;
#X connect 61 0 64 0;
#X connect 62 0 85 0;
#X connect 63 0 85 0;
#X connect 64 0 65 0;
#X connect 64 1 63 0;
#X connect 65 0 66 0;
#X connect 67 1 68 0;
#X connect 68 0 51 0;
#X connect 68 1 52 0;
#X connect 69 0 39 0;
#X connect 72 0 0 0;
#X connect 73 0 49 0;
#X connect 74 0 34 0;
#X connect 74 0 35 0;
#X connect 75 0 67 0;
#X connect 76 1 78 0;
#X connect 77 0 76 0;
#X connect 78 0 83 0;
#X connect 79 0 80 0;
#X connect 79 1 80 1;
#X connect 80 0 78 1;
#X connect 81 0 53 0;
#X connect 82 0 53 0;
#X connect 83 0 81 0;
#X connect 83 1 82 0;
#X connect 84 0 59 0;
#X connect 85 0 65 0;
#X restore 54 386 pd granular;
#N canvas 197 83 512 652 helicopter 0;
#X obj 139 373 hip~ 300;
#X obj 236 287 line;
#X msg 213 88 1;
#X msg 248 88 0;
#X obj 259 246 switch~;
#X obj 139 510 *~;
#X obj 139 306 catch~ helicopter;
#X obj 247 475 phasor~ 0.1;
#X obj 213 110 t f f f;
#X obj 213 331 sel 1 0;
#X obj 236 266 pack f 2500;
#X obj 52 219 noise~;
#X obj 259 131 sel 1 0;
#X msg 259 152 1;
#X msg 290 152 0;
#X msg 283 201 clear;
#X obj 259 173 t f b;
#X obj 52 288 *~;
#X obj 212 402 vline~;
#X msg 236 360 0 5000;
#X obj 173 43 list split 1;
#X obj 213 67 sel helicopter;
#X obj 139 570 throw~ FX-RETURN-L;
#X obj 255 570 throw~ FX-RETURN-R;
#X obj 139 539 e_circlepanCheap;
#N canvas 0 22 628 452 delay 0;
#X obj 93 172 bp~ 5400 2;
#X obj 368 175 bp~ 5400 2;
#X obj 93 149 *~ 0.4;
#X obj 368 152 *~ 0.4;
#X obj 452 41 m_bpm2ms;
#X floatatom 452 83 7 0 0 0 - - -;
#X msg 450 8 88;
#X obj 452 62 / 3;
#X obj 250 58 inlet~;
#X obj 93 208 delwrite~ \$0-heli-l 341;
#X obj 93 232 delread~ \$0-heli-l 341;
#X obj 368 208 delwrite~ \$0-heli-r 228;
#X obj 366 239 delread~ \$0-heli-r 227;
#X obj 252 389 outlet~;
#X obj 252 368 *~ 0.6;
#X connect 0 0 9 0;
#X connect 1 0 11 0;
#X connect 2 0 0 0;
#X connect 3 0 1 0;
#X connect 4 0 7 0;
#X connect 6 0 4 0;
#X connect 7 0 5 0;
#X connect 8 0 2 0;
#X connect 8 0 3 0;
#X connect 10 0 3 0;
#X connect 10 0 14 0;
#X connect 12 0 2 0;
#X connect 12 0 14 0;
#X connect 14 0 13 0;
#X restore 158 464 pd delay;
#X msg 212 380 1 50000 \, 0.1 50000 50000;
#X obj 173 22 r MIC;
#X obj 76 97 list split 1;
#X obj 76 76 r Sample-FX;
#X obj 116 163 spigot;
#X obj 155 123 swap 1;
#X obj 155 144 -;
#X msg 116 203 1;
#X msg 151 203 0;
#X obj 116 182 sel helicopter;
#X obj 70 245 *~ 0;
#X obj 70 266 +~ 0;
#N canvas 0 22 450 300 straight-del 0;
#X obj 107 147 *~ 0.7;
#X obj 107 196 outlet~;
#X obj 192 95 inlet~;
#X obj 192 169 hip~ 1000;
#X obj 192 127 delwrite~ helicopter-del 2000;
#X obj 192 147 delread~ helicopter-del 2000;
#X connect 0 0 1 0;
#X connect 0 0 4 0;
#X connect 2 0 4 0;
#X connect 3 0 0 0;
#X connect 5 0 3 0;
#X restore 149 423 pd straight-del;
#X obj 331 297 c_lfo MYLFO2 0.01 50 sine;
#X obj 330 327 * 0.9;
#X obj 328 355 + 0.1;
#X obj 247 455 *~ 10;
#X obj 290 223 pipe 1000;
#X connect 0 0 38 0;
#X connect 0 0 5 0;
#X connect 1 0 5 1;
#X connect 2 0 8 0;
#X connect 2 0 31 0;
#X connect 3 0 8 0;
#X connect 3 0 31 0;
#X connect 5 0 24 0;
#X connect 6 0 0 0;
#X connect 7 0 24 1;
#X connect 8 0 9 0;
#X connect 8 1 10 0;
#X connect 8 2 12 0;
#X connect 9 0 26 0;
#X connect 9 1 19 0;
#X connect 10 0 1 0;
#X connect 12 0 13 0;
#X connect 12 1 14 0;
#X connect 13 0 16 0;
#X connect 14 0 43 0;
#X connect 15 0 43 0;
#X connect 16 0 4 0;
#X connect 16 1 15 0;
#X connect 17 0 5 0;
#X connect 18 0 36 0;
#X connect 19 0 18 0;
#X connect 20 1 21 0;
#X connect 21 0 2 0;
#X connect 21 1 3 0;
#X connect 24 0 22 0;
#X connect 24 1 23 0;
#X connect 25 0 5 0;
#X connect 26 0 18 0;
#X connect 27 0 20 0;
#X connect 28 1 30 0;
#X connect 29 0 28 0;
#X connect 30 0 35 0;
#X connect 31 0 32 0;
#X connect 31 1 32 1;
#X connect 32 0 30 1;
#X connect 33 0 8 0;
#X connect 34 0 8 0;
#X connect 35 0 33 0;
#X connect 35 1 34 0;
#X connect 36 0 37 0;
#X connect 37 0 17 1;
#X connect 38 0 5 0;
#X connect 39 0 40 0;
#X connect 40 0 41 0;
#X connect 41 0 42 0;
#X connect 42 0 7 0;
#X connect 43 0 4 0;
#X restore 53 257 pd helicopter;
#N canvas 0 22 999 810 metallic 0;
#X obj 658 159 *;
#X obj 658 179 *;
#X obj 658 199 *;
#X obj 658 219 *;
#X obj 658 239 *;
#X obj 658 259 *;
#X obj 658 279 *;
#X obj 441 232 hip~ 100;
#X obj 658 299 *;
#X obj 658 322 *;
#X msg 721 98 1.12247;
#X obj 495 316 bp~ 1 640;
#X obj 494 336 bp~ 1 680;
#X obj 495 356 bp~ 1 720;
#X obj 495 377 bp~ 1 760;
#X obj 494 398 bp~ 1 800;
#X obj 414 398 bp~ 1 840;
#X obj 413 375 bp~ 1 880;
#X obj 413 350 bp~ 1 910;
#X obj 413 327 bp~ 1 930;
#X obj 412 304 bp~ 1 1100;
#X obj 721 71 loadbang;
#X obj 449 694 throw~ FX-RETURN-L;
#X obj 549 717 throw~ FX-RETURN-R;
#X obj 449 509 e_reverb;
#X obj 442 43 catch~ metallic;
#X obj 261 365 line;
#X msg 238 166 1;
#X msg 273 166 0;
#X obj 284 324 switch~;
#X obj 238 188 t f f f;
#X obj 261 344 pack f 2500;
#X obj 284 209 sel 1 0;
#X msg 284 230 1;
#X msg 315 230 0;
#X obj 315 301 pipe 5000;
#X msg 308 279 clear;
#X obj 284 251 t f b;
#X obj 198 121 list split 1;
#X obj 449 487 *~;
#X obj 238 145 sel metallic;
#X obj 502 463 loadbang;
#X obj 808 350 line;
#X obj 808 199 t b b;
#X msg 808 329 \$1 3500;
#X obj 808 220 random 6;
#X obj 808 241 sel 0 1 2 3 4 5;
#X msg 808 262 65;
#X msg 825 285 67;
#X msg 842 262 72;
#X msg 859 285 75;
#X msg 876 262 77;
#X msg 893 285 79;
#X obj 808 371 mtof;
#N canvas 500 156 450 300 monsterlop 0;
#X obj 138 260 outlet~;
#X obj 136 16 inlet~;
#X obj 138 47 lop~ \$1;
#X obj 310 17 inlet;
#X obj 138 72 lop~ \$1;
#X obj 139 97 lop~ \$1;
#X obj 138 122 lop~ \$1;
#X connect 1 0 2 0;
#X connect 2 0 4 0;
#X connect 3 0 2 1;
#X connect 3 0 4 1;
#X connect 3 0 5 1;
#X connect 3 0 6 1;
#X connect 4 0 5 0;
#X connect 5 0 6 0;
#X connect 6 0 0 0;
#X restore 449 605 pd monsterlop;
#X obj 637 513 loadbang;
#X obj 449 629 hip~ 80;
#X msg 637 534 6000;
#N canvas 500 156 450 300 monsterlop 0;
#X obj 138 260 outlet~;
#X obj 136 16 inlet~;
#X obj 138 47 lop~ \$1;
#X obj 310 17 inlet;
#X obj 138 72 lop~ \$1;
#X obj 139 97 lop~ \$1;
#X obj 138 122 lop~ \$1;
#X connect 1 0 2 0;
#X connect 2 0 4 0;
#X connect 3 0 2 1;
#X connect 3 0 4 1;
#X connect 3 0 5 1;
#X connect 3 0 6 1;
#X connect 4 0 5 0;
#X connect 5 0 6 0;
#X connect 6 0 0 0;
#X restore 549 604 pd monsterlop;
#X obj 549 628 hip~ 80;
#N canvas 0 22 460 414 nofeedback-analysis 0;
#X obj 48 28 inlet~;
#X obj 48 269 max 80;
#X obj 48 103 env~ 1024;
#X obj 48 220 +;
#X obj 48 195 * 0.05;
#X obj 80 221 * 0.95;
#X obj 48 246 min 6000;
#X obj 48 140 clip 75 83;
#X obj 48 169 m_scale 75 83 6000 80;
#X obj 48 357 outlet;
#X connect 0 0 2 0;
#X connect 1 0 9 0;
#X connect 2 0 7 0;
#X connect 3 0 5 0;
#X connect 3 0 6 0;
#X connect 4 0 3 0;
#X connect 5 0 3 1;
#X connect 6 0 1 0;
#X connect 7 0 8 0;
#X connect 8 0 4 0;
#X restore 606 576 pd nofeedback-analysis;
#X obj 658 139 * 1;
#X obj 549 540 bp~ 2000 3;
#X obj 449 539 bp~ 2000 3;
#N canvas 0 22 628 452 delay 0;
#X obj 93 172 bp~ 5400 2;
#X obj 368 175 bp~ 5400 2;
#X obj 93 149 *~ 0.4;
#X obj 368 152 *~ 0.4;
#X obj 452 41 m_bpm2ms;
#X floatatom 452 83 7 0 0 0 - - -;
#X msg 450 8 88;
#X obj 452 62 / 3;
#X obj 250 58 inlet~;
#X obj 252 389 outlet~;
#X obj 93 208 delwrite~ \$0-metal-l 341;
#X obj 93 232 delread~ \$0-metal-l 341;
#X obj 368 208 delwrite~ \$0-metal-r 228;
#X obj 366 239 delread~ \$0-metal-r 227;
#X obj 252 368 *~ 0.5;
#X obj 250 79 *~ 0.5;
#X connect 0 0 10 0;
#X connect 1 0 12 0;
#X connect 2 0 0 0;
#X connect 3 0 1 0;
#X connect 4 0 7 0;
#X connect 6 0 4 0;
#X connect 7 0 5 0;
#X connect 8 0 15 0;
#X connect 11 0 3 0;
#X connect 11 0 14 0;
#X connect 13 0 2 0;
#X connect 13 0 14 0;
#X connect 14 0 9 0;
#X connect 15 0 2 0;
#X connect 15 0 3 0;
#X connect 15 0 14 0;
#X restore 442 169 pd delay;
#X obj 442 148 hip~ 300;
#X msg 502 483 amp 90 \, hall 90 \, freq 3000 \, damp 2;
#X obj 198 100 r MIC;
#X obj 81 213 list split 1;
#X obj 81 192 r Sample-FX;
#X obj 121 279 spigot;
#X obj 160 239 swap 1;
#X obj 160 260 -;
#X msg 121 327 1;
#X msg 156 327 0;
#X obj 121 302 sel metallic;
#X obj 549 658 *~;
#X obj 449 659 *~;
#X obj 846 463 vline~;
#X obj 449 441 *~ 24;
#X obj 364 430 *~ 0.4;
#X msg 846 436 1 \, 0 6000 2000;
#X obj 808 178 a_onset 128 12;
#X connect 0 0 1 0;
#X connect 0 0 19 1;
#X connect 1 0 2 0;
#X connect 1 0 18 1;
#X connect 2 0 3 0;
#X connect 2 0 17 1;
#X connect 3 0 4 0;
#X connect 3 0 16 1;
#X connect 4 0 5 0;
#X connect 4 0 15 1;
#X connect 5 0 6 0;
#X connect 5 0 14 1;
#X connect 6 0 8 0;
#X connect 6 0 13 1;
#X connect 7 0 11 0;
#X connect 7 0 12 0;
#X connect 7 0 13 0;
#X connect 7 0 14 0;
#X connect 7 0 15 0;
#X connect 7 0 16 0;
#X connect 7 0 17 0;
#X connect 7 0 18 0;
#X connect 7 0 19 0;
#X connect 7 0 20 0;
#X connect 7 0 80 0;
#X connect 8 0 9 0;
#X connect 8 0 12 1;
#X connect 9 0 11 1;
#X connect 10 0 0 1;
#X connect 10 0 1 1;
#X connect 10 0 2 1;
#X connect 10 0 3 1;
#X connect 10 0 4 1;
#X connect 10 0 5 1;
#X connect 10 0 6 1;
#X connect 10 0 8 1;
#X connect 10 0 9 1;
#X connect 11 0 79 0;
#X connect 12 0 79 0;
#X connect 13 0 79 0;
#X connect 14 0 79 0;
#X connect 15 0 79 0;
#X connect 16 0 79 0;
#X connect 17 0 79 0;
#X connect 18 0 79 0;
#X connect 19 0 79 0;
#X connect 20 0 79 0;
#X connect 21 0 10 0;
#X connect 24 0 63 0;
#X connect 24 1 62 0;
#X connect 25 0 65 0;
#X connect 25 0 82 0;
#X connect 26 0 39 1;
#X connect 27 0 30 0;
#X connect 27 0 71 0;
#X connect 28 0 30 0;
#X connect 28 0 71 0;
#X connect 30 1 31 0;
#X connect 30 2 32 0;
#X connect 31 0 26 0;
#X connect 32 0 33 0;
#X connect 32 1 34 0;
#X connect 33 0 37 0;
#X connect 34 0 35 0;
#X connect 35 0 29 0;
#X connect 36 0 35 0;
#X connect 37 0 29 0;
#X connect 37 1 36 0;
#X connect 38 1 40 0;
#X connect 39 0 24 0;
#X connect 40 0 27 0;
#X connect 40 1 28 0;
#X connect 41 0 66 0;
#X connect 42 0 53 0;
#X connect 43 0 45 0;
#X connect 43 1 81 0;
#X connect 44 0 42 0;
#X connect 45 0 46 0;
#X connect 46 0 47 0;
#X connect 46 1 48 0;
#X connect 46 2 49 0;
#X connect 46 3 50 0;
#X connect 46 4 51 0;
#X connect 46 5 52 0;
#X connect 47 0 44 0;
#X connect 48 0 44 0;
#X connect 49 0 44 0;
#X connect 50 0 44 0;
#X connect 51 0 44 0;
#X connect 52 0 44 0;
#X connect 53 0 61 0;
#X connect 54 0 56 0;
#X connect 55 0 57 0;
#X connect 56 0 77 0;
#X connect 57 0 54 1;
#X connect 57 0 58 1;
#X connect 58 0 59 0;
#X connect 59 0 76 0;
#X connect 60 0 54 1;
#X connect 60 0 58 1;
#X connect 61 0 0 0;
#X connect 61 0 20 1;
#X connect 62 0 58 0;
#X connect 63 0 60 0;
#X connect 63 0 54 0;
#X connect 64 0 7 0;
#X connect 65 0 64 0;
#X connect 66 0 24 1;
#X connect 67 0 38 0;
#X connect 68 1 70 0;
#X connect 69 0 68 0;
#X connect 70 0 75 0;
#X connect 71 0 72 0;
#X connect 71 1 72 1;
#X connect 72 0 70 1;
#X connect 73 0 30 0;
#X connect 74 0 30 0;
#X connect 75 0 73 0;
#X connect 75 1 74 0;
#X connect 76 0 23 0;
#X connect 77 0 22 0;
#X connect 78 0 76 1;
#X connect 78 0 77 1;
#X connect 79 0 39 0;
#X connect 80 0 39 0;
#X connect 81 0 78 0;
#X connect 82 0 43 0;
#X restore 53 278 pd metallic;
#N canvas 0 22 769 590 robotvoice 0;
#X obj 157 113 fiddle~ 2048;
#X obj 211 148 unpack;
#X obj 211 172 moses 1;
#X obj 239 307 *~;
#X obj 257 202 mtof;
#X obj 257 225 *;
#X obj 239 328 *~ 2;
#X obj 99 57 catch~ robotvoice;
#X obj 239 495 throw~ FX-RETURN-L;
#X obj 271 515 throw~ FX-RETURN-R;
#X obj 215 557 throw~ DELAY;
#N canvas 300 203 758 306 samp-delay 0;
#X obj 15 222 outlet~;
#X obj 14 21 inlet~;
#X obj 15 102 loadbang;
#X obj 14 49 delwrite~ E03-del 40;
#X obj 15 195 delread~ E03-del;
#X obj 15 152 expr 1000*1024/$f1;
#X obj 15 128 samplerate~;
#X text 208 47 write to delay line which has enough memory to hold
40 msec;
#X text 125 128 get sample rate at load time;
#X text 185 152 divide 1024 by sample rate to give time in seconds
\; multiply by 1000 to convert to milliseconds.;
#X text 168 197 read from the delay line at the calculater delay;
#X text 317 268 1024-sample delay;
#X connect 1 0 3 0;
#X connect 2 0 6 0;
#X connect 4 0 0 0;
#X connect 5 0 4 0;
#X connect 6 0 5 0;
#X restore 99 133 pd samp-delay;
#X obj 257 270 line;
#X msg 257 251 \$1 50;
#X obj 275 97 mod 128;
#X obj 275 118 sel 0;
#X obj 275 53 r tick;
#X obj 275 160 / 10;
#X obj 275 181 + 0.1;
#X obj 275 139 random 60;
#X msg 406 85 1;
#X msg 441 85 0;
#X obj 406 315 line;
#X obj 406 294 pack f 5000;
#X obj 438 134 sel 1 0;
#X msg 438 155 1;
#X msg 469 155 0;
#X obj 469 223 pipe 5000;
#X msg 459 200 clear;
#X obj 438 176 t f b;
#X obj 438 248 t f f;
#X obj 438 272 switch~;
#X obj 366 43 list split 1;
#X obj 406 64 sel robotvoice;
#X obj 239 431 *~;
#X obj 258 412 * 2;
#X obj 257 289 osc~ 2;
#X obj 239 350 bp~ 6000 5;
#X obj 239 470 e_pan;
#X obj 215 536 *~ 0.6;
#X obj 271 449 r panvalue;
#X obj 366 22 r MIC;
#X obj 406 112 t f f;
#X obj 275 75 route robotvoice;
#X obj 521 121 list split 1;
#X obj 521 100 r Sample-FX;
#X obj 561 187 spigot;
#X obj 600 147 swap 1;
#X obj 600 168 -;
#X msg 561 235 1;
#X msg 596 235 0;
#X obj 561 210 sel robotvoice;
#X obj 236 16 r sample-fx-tick;
#X connect 0 2 1 0;
#X connect 1 0 2 0;
#X connect 2 1 4 0;
#X connect 3 0 6 0;
#X connect 4 0 5 0;
#X connect 5 0 13 0;
#X connect 6 0 37 0;
#X connect 7 0 0 0;
#X connect 7 0 11 0;
#X connect 11 0 3 0;
#X connect 12 0 36 0;
#X connect 13 0 12 0;
#X connect 14 0 15 0;
#X connect 15 0 19 0;
#X connect 16 0 43 0;
#X connect 17 0 18 0;
#X connect 18 0 5 1;
#X connect 19 0 17 0;
#X connect 20 0 42 0;
#X connect 20 0 47 0;
#X connect 21 0 42 0;
#X connect 21 0 47 0;
#X connect 22 0 35 0;
#X connect 23 0 22 0;
#X connect 24 0 25 0;
#X connect 24 1 26 0;
#X connect 25 0 29 0;
#X connect 26 0 27 0;
#X connect 27 0 30 0;
#X connect 28 0 27 0;
#X connect 29 0 30 0;
#X connect 29 1 28 0;
#X connect 30 0 31 0;
#X connect 32 1 33 0;
#X connect 33 0 20 0;
#X connect 33 1 21 0;
#X connect 34 0 38 0;
#X connect 34 0 39 0;
#X connect 35 0 34 1;
#X connect 36 0 3 1;
#X connect 37 0 34 0;
#X connect 38 0 8 0;
#X connect 38 1 9 0;
#X connect 39 0 10 0;
#X connect 40 0 38 1;
#X connect 41 0 32 0;
#X connect 42 0 23 0;
#X connect 42 1 24 0;
#X connect 43 0 14 0;
#X connect 44 1 46 0;
#X connect 45 0 44 0;
#X connect 46 0 51 0;
#X connect 47 0 48 0;
#X connect 47 1 48 1;
#X connect 48 0 46 1;
#X connect 49 0 42 0;
#X connect 50 0 42 0;
#X connect 51 0 49 0;
#X connect 51 1 50 0;
#X connect 52 0 43 0;
#X restore 54 431 pd robotvoice;
#N canvas 48 25 787 734 phasemod 0;
#X obj 457 248 *~;
#X obj 545 219 line~;
#X obj 439 322 cos~;
#X obj 439 295 +~;
#X obj 545 176 / 100;
#X obj 439 341 hip~ 5;
#N canvas 0 22 627 506 delay 0;
#X obj 250 58 inlet~;
#X obj 92 463 outlet~;
#X obj 92 442 *~ 0.5;
#X obj 250 79 *~ 0.5;
#X obj 352 459 outlet~;
#X obj 352 438 *~ 0.5;
#X obj 367 409 vd~ \$0-phase-r;
#X obj 367 389 line~;
#X obj 366 328 random 500;
#X obj 366 349 + 1;
#X obj 366 291 sel 0;
#X obj 93 418 vd~ \$0-phase-l;
#X obj 94 397 line~;
#X obj 93 336 random 500;
#X obj 93 357 + 1;
#X obj 93 314 sel 1;
#X obj 368 208 delwrite~ \$0-phase-r 501;
#X obj 93 207 delwrite~ \$0-phase-l 501;
#X obj 366 270 mod 128;
#X msg 366 368 \$1 500;
#X msg 93 376 \$1 500;
#X obj 368 152 *~ 0.3;
#X obj 93 149 *~ 0.3;
#X obj 93 172 bp~ 5400 3;
#X obj 368 175 bp~ 5400 3;
#X obj 366 228 r tick;
#X obj 366 249 route phasemod;
#X connect 0 0 3 0;
#X connect 2 0 1 0;
#X connect 3 0 2 0;
#X connect 3 0 5 0;
#X connect 3 0 21 0;
#X connect 3 0 22 0;
#X connect 5 0 4 0;
#X connect 6 0 5 0;
#X connect 6 0 22 0;
#X connect 7 0 6 0;
#X connect 8 0 9 0;
#X connect 9 0 19 0;
#X connect 10 0 8 0;
#X connect 11 0 2 0;
#X connect 11 0 21 0;
#X connect 12 0 11 0;
#X connect 13 0 14 0;
#X connect 14 0 20 0;
#X connect 15 0 13 0;
#X connect 18 0 10 0;
#X connect 18 0 15 0;
#X connect 19 0 7 0;
#X connect 20 0 12 0;
#X connect 21 0 24 0;
#X connect 22 0 23 0;
#X connect 23 0 17 0;
#X connect 24 0 16 0;
#X connect 25 0 26 0;
#X connect 26 0 18 0;
#X restore 408 455 pd delay;
#X obj 457 129 + 1;
#X obj 545 63 random 89;
#X obj 545 84 + 10;
#X obj 545 198 pack 0 200;
#X obj 382 272 catch~ phasemod;
#X msg 285 92 1;
#X msg 320 92 0;
#X obj 285 322 line;
#X obj 317 141 sel 1 0;
#X msg 317 162 1;
#X msg 348 162 0;
#X msg 338 207 clear;
#X obj 317 183 t f b;
#X obj 317 255 t f f;
#X obj 317 279 switch~;
#X obj 245 50 list split 1;
#X obj 457 216 osc~ 10;
#X obj 545 39 loadbang;
#X obj 285 71 sel phasemod;
#X obj 408 534 *~ 2.5;
#X obj 382 370 *~ 0.75;
#X obj 439 370 *~ 0.65;
#X obj 457 85 sel 0 1;
#X obj 285 118 t f f;
#X obj 457 17 a_onset 128 20;
#X obj 457 38 t b;
#X obj 457 59 random 2;
#X obj 408 585 e_pan;
#X obj 440 557 r panvalue;
#X obj 457 108 random 20;
#X obj 359 455 *~ 0.3;
#X obj 416 489 *~ 0.5;
#X obj 245 29 r MIC;
#X obj 408 514 bp~ 8000 4;
#X obj 110 122 list split 1;
#X obj 110 101 r Sample-FX;
#X obj 150 188 spigot;
#X obj 189 148 swap 1;
#X obj 189 169 -;
#X msg 150 236 1;
#X msg 185 236 0;
#X obj 150 211 sel phasemod;
#X obj 99 537 s_fplaytable2;
#X msg 99 509 PPC-G-Speech;
#X obj 136 568 *~ 2;
#X obj 99 567 *~ 2;
#X obj 49 262 loadbang;
#X obj 49 285 tgl 15 0 empty empty empty 17 7 0 10 -262144 -1 -1 1
1;
#X obj 49 306 metro 1000;
#X obj 49 394 f;
#X obj 76 394 + 1;
#X msg 147 359 0;
#X obj 49 419 mod 54;
#X obj 94 335 r inGeofence1;
#X obj 123 394 print inGeofence1Received;
#X obj 49 366 spigot 0;
#X obj 49 444 sel 8;
#X obj 435 665 throw~ FX-RETURN-R;
#X obj 408 690 throw~ FX-RETURN-L;
#X obj 435 615 *~ 1;
#X obj 408 640 *~ 1;
#X obj 408 433 *~ 1;
#X obj 285 301 pack f 1000;
#X obj 348 230 pipe 1000;
#X connect 0 0 3 1;
#X connect 1 0 0 1;
#X connect 2 0 5 0;
#X connect 3 0 2 0;
#X connect 4 0 10 0;
#X connect 5 0 28 0;
#X connect 6 0 40 0;
#X connect 6 1 38 0;
#X connect 7 0 23 0;
#X connect 8 0 9 0;
#X connect 9 0 4 0;
#X connect 10 0 1 0;
#X connect 11 0 3 0;
#X connect 11 0 27 0;
#X connect 11 0 31 0;
#X connect 12 0 30 0;
#X connect 12 0 44 0;
#X connect 12 0 58 0;
#X connect 13 0 30 0;
#X connect 13 0 44 0;
#X connect 14 0 67 1;
#X connect 14 0 66 1;
#X connect 15 0 16 0;
#X connect 15 1 17 0;
#X connect 16 0 19 0;
#X connect 17 0 70 0;
#X connect 18 0 70 0;
#X connect 19 0 20 0;
#X connect 19 1 18 0;
#X connect 20 0 21 0;
#X connect 22 1 25 0;
#X connect 23 0 0 0;
#X connect 24 0 8 0;
#X connect 25 0 12 0;
#X connect 25 1 13 0;
#X connect 26 0 34 0;
#X connect 27 0 37 0;
#X connect 27 0 68 0;
#X connect 28 0 68 0;
#X connect 29 0 36 0;
#X connect 29 1 8 0;
#X connect 30 0 69 0;
#X connect 30 1 15 0;
#X connect 31 0 32 0;
#X connect 32 0 33 0;
#X connect 33 0 29 0;
#X connect 34 0 67 0;
#X connect 34 1 66 0;
#X connect 35 0 34 1;
#X connect 36 0 7 0;
#X connect 37 0 40 0;
#X connect 38 0 40 0;
#X connect 39 0 22 0;
#X connect 40 0 26 0;
#X connect 41 1 43 0;
#X connect 42 0 41 0;
#X connect 43 0 48 0;
#X connect 44 0 45 0;
#X connect 44 1 45 1;
#X connect 45 0 43 1;
#X connect 46 0 30 0;
#X connect 47 0 30 0;
#X connect 48 0 46 0;
#X connect 48 1 47 0;
#X connect 49 0 52 0;
#X connect 49 1 51 0;
#X connect 50 0 49 0;
#X connect 51 0 66 0;
#X connect 52 0 67 0;
#X connect 53 0 54 0;
#X connect 54 0 55 0;
#X connect 55 0 62 0;
#X connect 56 0 57 0;
#X connect 56 0 59 0;
#X connect 57 0 56 1;
#X connect 58 0 56 1;
#X connect 59 0 63 0;
#X connect 60 0 61 0;
#X connect 60 0 62 1;
#X connect 62 0 56 0;
#X connect 63 0 50 0;
#X connect 66 0 64 0;
#X connect 67 0 65 0;
#X connect 68 0 6 0;
#X connect 69 0 14 0;
#X connect 70 0 20 0;
#X restore 53 320 pd phasemod;
#N canvas 636 81 953 576 radio 0;
#X obj 386 1 r tick;
#X obj 386 549 throw~ LEFT;
#X obj 476 549 throw~ RIGHT;
#X obj 386 163 sel 8;
#X msg 133 228 clear \, start;
#X obj 386 143 mod 48;
#X obj 386 268 t f b;
#X obj 386 78 / 2;
#X obj 386 99 int;
#X obj 386 123 change;
#X obj 535 311 line;
#X msg 535 108 1;
#X msg 570 108 0;
#X obj 558 270 switch~;
#X obj 535 130 t f f f;
#X obj 535 290 pack f 2500;
#X obj 558 155 sel 1 0;
#X msg 558 176 1;
#X msg 589 176 0;
#X obj 589 247 pipe 5000;
#X msg 582 225 clear;
#X obj 558 197 t f b;
#X obj 495 63 list split 1;
#X obj 386 394 s_playtable;
#X obj 535 87 sel radio;
#X obj 386 56 spigot 0;
#X obj 66 95 catch~ radio;
#X obj 386 184 random 3;
#X obj 386 205 sel 0;
#X obj 386 226 random 1500;
#X obj 386 247 + 1500;
#X obj 495 42 r MIC;
#X obj 386 28 route radio;
#X obj 185 320 noise~;
#X obj 185 346 hip~ 1000;
#X obj 241 401 *~;
#X obj 256 376 vline~;
#X obj 241 430 clip~ -0.5 0.5;
#X msg 256 274 bang;
#X obj 256 296 t b b;
#X obj 66 217 lop~ 700;
#X obj 66 147 hip~ 2000;
#X obj 185 366 lop~ 1500;
#X obj 66 167 hip~ 2000;
#X obj 66 187 hip~ 2000;
#X obj 386 427 e_bitcrusher;
#X obj 498 371 loadbang;
#X obj 133 143 a_onset 1024 13;
#X obj 177 403 *~ 0.2;
#X obj 256 318 del 2000;
#X obj 318 317 del 2350;
#X obj 66 237 lop~ 700;
#X obj 133 171 debounce 2000;
#X msg 256 345 0 \, 0.25 3 \, 0 3 300;
#X obj 66 279 u_record liverec1 1500;
#X msg 497 394 depth 3;
#X msg 563 395 dry 0.65;
#X obj 386 487 *~ 0.4;
#X msg 386 360 liverec1 3 0.9 0;
#X connect 3 0 27 0;
#X connect 4 0 54 1;
#X connect 5 0 3 0;
#X connect 7 0 8 0;
#X connect 8 0 9 0;
#X connect 9 0 5 0;
#X connect 11 0 14 0;
#X connect 12 0 14 0;
#X connect 14 0 15 0;
#X connect 14 1 16 0;
#X connect 14 2 25 1;
#X connect 15 0 10 0;
#X connect 16 0 17 0;
#X connect 16 1 18 0;
#X connect 17 0 21 0;
#X connect 18 0 19 0;
#X connect 19 0 13 0;
#X connect 20 0 19 0;
#X connect 21 0 13 0;
#X connect 21 1 20 0;
#X connect 22 1 24 0;
#X connect 23 0 45 0;
#X connect 24 0 11 0;
#X connect 24 1 12 0;
#X connect 25 0 7 0;
#X connect 26 0 41 0;
#X connect 26 0 47 0;
#X connect 26 0 48 0;
#X connect 27 0 28 0;
#X connect 28 0 29 0;
#X connect 29 0 30 0;
#X connect 30 0 6 0;
#X connect 31 0 22 0;
#X connect 32 0 25 0;
#X connect 33 0 34 0;
#X connect 34 0 42 0;
#X connect 35 0 37 0;
#X connect 36 0 35 1;
#X connect 37 0 1 0;
#X connect 37 0 2 0;
#X connect 38 0 39 0;
#X connect 39 0 49 0;
#X connect 39 1 50 0;
#X connect 40 0 51 0;
#X connect 41 0 43 0;
#X connect 42 0 35 0;
#X connect 43 0 44 0;
#X connect 44 0 40 0;
#X connect 45 0 57 0;
#X connect 46 0 55 0;
#X connect 46 0 56 0;
#X connect 47 0 52 0;
#X connect 48 0 37 0;
#X connect 49 0 53 0;
#X connect 50 0 58 0;
#X connect 51 0 54 0;
#X connect 52 0 4 0;
#X connect 52 0 38 0;
#X connect 53 0 36 0;
#X connect 55 0 45 1;
#X connect 56 0 45 1;
#X connect 57 0 1 0;
#X connect 57 0 2 0;
#X connect 58 0 23 0;
#X restore 53 236 pd radio;
#N canvas 75 22 636 527 spacewobble 0;
#N canvas 0 22 1200 644 funkyverb 0;
#X obj 161 497 +~;
#X obj 520 105 inlet;
#X obj 184 407 *~;
#X obj 486 412 *~;
#X obj 285 412 *~;
#X obj 387 412 *~;
#X obj 443 546 -~;
#X obj 364 545 -~;
#X obj 239 537 +~;
#X obj 161 534 +~;
#X obj 162 444 +~;
#X obj 262 440 +~;
#X obj 464 501 -~;
#X obj 387 499 +~;
#X obj 239 500 -~;
#X obj 452 105 inlet;
#X obj 609 429 line~;
#X obj 509 374 line~;
#X obj 530 500 *~;
#X obj 599 501 *~;
#X obj 609 357 dbtorms;
#X obj 609 403 pack 0 30;
#X obj 520 211 pack 0 50;
#X obj 9 390 inlet~;
#X obj 530 525 outlet~;
#X obj 599 525 outlet~;
#X obj 520 187 / 200;
#X obj 520 162 clip 0 100;
#X obj 52 236 lop~;
#X obj 625 143 f \$3;
#X obj 696 143 f \$4;
#X obj 367 106 loadbang;
#X obj 625 167 moses 1;
#X msg 631 193 3000;
#X obj 705 193 clip 0 100;
#X obj 618 216 f;
#X obj 618 105 inlet;
#X obj 696 109 inlet;
#X obj 705 216 f;
#X obj 705 239 * 0.01;
#X obj 705 263 pack 0 50;
#X obj 705 287 line~;
#X obj 29 269 -~;
#X obj 28 300 *~;
#X obj 16 331 +~;
#X obj 132 240 lop~;
#X obj 106 274 -~;
#X obj 105 309 *~;
#X obj 95 333 +~;
#X obj 214 245 lop~;
#X obj 188 273 -~;
#X obj 187 314 *~;
#X obj 176 339 +~;
#X obj 308 249 lop~;
#X obj 281 274 -~;
#X obj 281 318 *~;
#X obj 258 342 +~;
#X obj 609 379 * 0.125;
#X text 403 10 control inlets:;
#X text 400 29 1: output level \, dB \, 0-100;
#X text 399 79 4: high frequency damping \, 0-100;
#X text 400 62 3: crossover frequency in Hz. (3000 default);
#X text 400 45 2: liveness \, 0-100 \, usually between 85 and 100;
#X obj 452 137 f 80;
#X obj 520 138 f 80;
#X obj 16 121 vd~ \$0-del1 58.6435;
#X obj 94 143 vd~ \$0-del2 69.4325;
#X obj 176 165 vd~ \$0-del3 74.5234;
#X obj 258 189 vd~ \$0-del4 86.1244;
#X obj 17 92 +~ 58.6435;
#X obj 97 102 +~ 69.4325;
#X obj 177 122 +~ 74.5234;
#X obj 257 142 +~ 86.1244;
#X obj 161 641 delwrite~ \$0-del1 62.6435;
#X obj 240 617 delwrite~ \$0-del2 73.4325;
#X obj 365 595 delwrite~ \$0-del3 78.5234;
#X obj 444 573 delwrite~ \$0-del4 90.1244;
#X obj 138 75 s~ \$0-ER;
#N canvas 345 88 355 597 early-reflect 0;
#X obj 119 477 delread~ \$0-ref6 13.645;
#X obj 119 453 delwrite~ \$0-ref6 13.645;
#X obj 106 400 delread~ \$0-ref5 16.364;
#X obj 106 376 delwrite~ \$0-ref5 16.364;
#X obj 102 324 delread~ \$0-ref4 19.392;
#X obj 102 300 delwrite~ \$0-ref4 19.392;
#X obj 106 247 delread~ \$0-ref3 25.796;
#X obj 106 223 delwrite~ \$0-ref3 25.796;
#X obj 107 169 delread~ \$0-ref2 43.5337;
#X obj 107 145 delwrite~ \$0-ref2 43.5337;
#X obj 84 119 -~;
#X obj 49 119 +~;
#X obj 50 195 +~;
#X obj 85 196 -~;
#X obj 84 275 -~;
#X obj 49 274 +~;
#X obj 82 349 -~;
#X obj 48 350 +~;
#X obj 83 428 -~;
#X obj 49 428 +~;
#X obj 65 7 inlet~;
#X obj 109 46 delwrite~ \$0-ref1 75.2546;
#X obj 49 508 outlet~;
#X obj 119 507 outlet~;
#X obj 228 22 r~ \$0-ER;
#X obj 110 90 vd~ \$0-ref1 75.2546;
#X obj 110 70 +~ 73.2546;
#X connect 0 0 23 0;
#X connect 2 0 19 1;
#X connect 2 0 18 1;
#X connect 4 0 17 1;
#X connect 4 0 16 1;
#X connect 6 0 15 1;
#X connect 6 0 14 1;
#X connect 8 0 12 1;
#X connect 8 0 13 1;
#X connect 10 0 9 0;
#X connect 11 0 13 0;
#X connect 11 0 12 0;
#X connect 12 0 15 0;
#X connect 12 0 14 0;
#X connect 13 0 7 0;
#X connect 14 0 5 0;
#X connect 15 0 17 0;
#X connect 15 0 16 0;
#X connect 16 0 3 0;
#X connect 17 0 19 0;
#X connect 17 0 18 0;
#X connect 18 0 1 0;
#X connect 19 0 22 0;
#X connect 20 0 11 0;
#X connect 20 0 10 0;
#X connect 20 0 21 0;
#X connect 24 0 26 0;
#X connect 25 0 11 1;
#X connect 25 0 10 1;
#X connect 26 0 25 0;
#X restore 9 416 pd early-reflect;
#X obj 17 51 *~ 8;
#X obj 17 32 osc~ 1;
#X connect 0 0 9 0;
#X connect 0 0 7 0;
#X connect 1 0 64 0;
#X connect 2 0 10 1;
#X connect 3 0 12 1;
#X connect 3 0 13 1;
#X connect 4 0 11 1;
#X connect 5 0 13 0;
#X connect 5 0 12 0;
#X connect 6 0 76 0;
#X connect 7 0 75 0;
#X connect 8 0 74 0;
#X connect 9 0 73 0;
#X connect 10 0 14 0;
#X connect 10 0 0 0;
#X connect 10 0 18 0;
#X connect 11 0 0 1;
#X connect 11 0 14 1;
#X connect 11 0 19 0;
#X connect 12 0 8 1;
#X connect 12 0 6 1;
#X connect 13 0 9 1;
#X connect 13 0 7 1;
#X connect 14 0 8 0;
#X connect 14 0 6 0;
#X connect 15 0 63 0;
#X connect 16 0 18 1;
#X connect 16 0 19 1;
#X connect 17 0 4 1;
#X connect 17 0 2 1;
#X connect 17 0 5 1;
#X connect 17 0 3 1;
#X connect 18 0 24 0;
#X connect 19 0 25 0;
#X connect 20 0 57 0;
#X connect 21 0 16 0;
#X connect 22 0 17 0;
#X connect 23 0 78 0;
#X connect 26 0 22 0;
#X connect 27 0 26 0;
#X connect 28 0 42 0;
#X connect 29 0 32 0;
#X connect 30 0 34 0;
#X connect 31 0 29 0;
#X connect 31 0 30 0;
#X connect 31 0 63 0;
#X connect 31 0 64 0;
#X connect 32 0 33 0;
#X connect 32 1 35 0;
#X connect 33 0 35 0;
#X connect 34 0 38 0;
#X connect 35 0 28 1;
#X connect 35 0 45 1;
#X connect 35 0 49 1;
#X connect 35 0 53 1;
#X connect 36 0 35 0;
#X connect 37 0 30 0;
#X connect 38 0 39 0;
#X connect 39 0 40 0;
#X connect 40 0 41 0;
#X connect 41 0 43 1;
#X connect 41 0 47 1;
#X connect 41 0 51 1;
#X connect 41 0 55 1;
#X connect 42 0 43 0;
#X connect 43 0 44 1;
#X connect 44 0 2 0;
#X connect 45 0 46 0;
#X connect 46 0 47 0;
#X connect 47 0 48 1;
#X connect 48 0 4 0;
#X connect 49 0 50 0;
#X connect 50 0 51 0;
#X connect 51 0 52 1;
#X connect 52 0 5 0;
#X connect 53 0 54 0;
#X connect 54 0 55 0;
#X connect 55 0 56 1;
#X connect 56 0 3 0;
#X connect 57 0 21 0;
#X connect 63 0 20 0;
#X connect 64 0 27 0;
#X connect 65 0 28 0;
#X connect 65 0 42 1;
#X connect 65 0 44 0;
#X connect 66 0 45 0;
#X connect 66 0 46 1;
#X connect 66 0 48 0;
#X connect 67 0 52 0;
#X connect 67 0 49 0;
#X connect 67 0 50 1;
#X connect 68 0 56 0;
#X connect 68 0 54 1;
#X connect 68 0 53 0;
#X connect 69 0 65 0;
#X connect 70 0 66 0;
#X connect 71 0 67 0;
#X connect 72 0 68 0;
#X connect 78 0 10 0;
#X connect 78 1 11 0;
#X connect 79 0 69 0;
#X connect 79 0 77 0;
#X connect 79 0 70 0;
#X connect 79 0 71 0;
#X connect 79 0 72 0;
#X connect 80 0 79 0;
#X restore 125 239 pd funkyverb;
#X msg 145 196 90;
#X msg 175 196 85;
#X msg 242 196 10;
#X obj 145 117 loadbang;
#X obj 125 327 clip~ -1 1;
#X obj 206 327 clip~ -1 1;
#X obj 180 505 throw~ REVERB;
#X obj 125 75 catch~ spacewobble;
#X msg 300 68 1;
#X msg 335 68 0;
#X obj 300 95 t f f;
#X obj 300 298 line;
#X obj 300 277 pack f 5000;
#X obj 332 117 sel 1 0;
#X msg 332 138 1;
#X msg 363 138 0;
#X obj 363 206 pipe 5000;
#X msg 353 183 clear;
#X obj 332 159 t f b;
#X obj 332 231 t f f;
#X obj 332 255 switch~;
#X obj 260 26 list split 1;
#X obj 125 390 *~;
#X obj 206 390 *~;
#X obj 300 47 sel spacewobble;
#X obj 125 473 throw~ FX-RETURN-L;
#X obj 206 453 throw~ FX-RETURN-R;
#X msg 205 196 3000;
#X obj 206 425 hip~ 600;
#X obj 125 426 hip~ 600;
#X obj 260 5 r MIC;
#X obj 426 147 list split 1;
#X obj 426 126 r Sample-FX;
#X obj 466 213 spigot;
#X obj 505 173 swap 1;
#X obj 505 194 -;
#X msg 466 261 1;
#X msg 501 261 0;
#X obj 466 236 sel spacewobble;
#X obj 206 360 *~ 2;
#X obj 125 360 *~ 2;
#X connect 0 0 5 0;
#X connect 0 1 6 0;
#X connect 1 0 0 1;
#X connect 2 0 0 2;
#X connect 3 0 0 4;
#X connect 4 0 1 0;
#X connect 4 0 2 0;
#X connect 4 0 28 0;
#X connect 4 0 3 0;
#X connect 5 0 41 0;
#X connect 6 0 40 0;
#X connect 8 0 0 0;
#X connect 9 0 11 0;
#X connect 9 0 35 0;
#X connect 10 0 11 0;
#X connect 10 0 35 0;
#X connect 11 0 13 0;
#X connect 11 1 14 0;
#X connect 12 0 23 1;
#X connect 12 0 24 1;
#X connect 13 0 12 0;
#X connect 14 0 15 0;
#X connect 14 1 16 0;
#X connect 15 0 19 0;
#X connect 16 0 17 0;
#X connect 17 0 20 0;
#X connect 18 0 17 0;
#X connect 19 0 20 0;
#X connect 19 1 18 0;
#X connect 20 0 21 0;
#X connect 22 1 25 0;
#X connect 23 0 30 0;
#X connect 23 0 7 0;
#X connect 24 0 29 0;
#X connect 24 0 7 0;
#X connect 25 0 9 0;
#X connect 25 1 10 0;
#X connect 28 0 0 3;
#X connect 29 0 27 0;
#X connect 30 0 26 0;
#X connect 31 0 22 0;
#X connect 32 1 34 0;
#X connect 33 0 32 0;
#X connect 34 0 39 0;
#X connect 35 0 36 0;
#X connect 35 1 36 1;
#X connect 36 0 34 1;
#X connect 37 0 11 0;
#X connect 38 0 11 0;
#X connect 39 0 37 0;
#X connect 39 1 38 0;
#X connect 40 0 24 0;
#X connect 41 0 23 0;
#X restore 53 299 pd spacewobble;
#N canvas 132 39 1075 765 contact 0;
#X obj 456 274 mtof;
#X obj 456 296 / 8.1758;
#X obj 456 370 line~;
#X obj 65 208 tabwrite~ box;
#X obj 456 484 tabread4~ box;
#X obj 22 82 bang;
#X obj 456 461 +~ 1;
#X obj 456 399 phasor~ 1;
#X obj 456 339 pack 0 100;
#X msg 363 179 0;
#X msg 403 179 4;
#X msg 440 178 5;
#X msg 477 178 7;
#X msg 517 178 11;
#X msg 556 178 12;
#X obj 405 128 select 0 1 2 3 4 5;
#X obj 405 90 random 6;
#X obj 405 67 metro 1000;
#X obj 613 447 tabread4~ box;
#X obj 613 424 +~ 1;
#X obj 613 374 phasor~ 1;
#X obj 613 352 line~;
#X obj 275 320 mtof;
#X obj 275 342 / 8.1758;
#X obj 275 394 line~;
#X obj 275 508 tabread4~ box;
#X obj 275 481 +~ 1;
#X obj 275 430 phasor~ 1;
#X obj 275 363 pack 0 100;
#X msg 182 253 0;
#X msg 222 253 4;
#X msg 259 252 5;
#X msg 296 252 7;
#X msg 336 252 11;
#X msg 370 252 12;
#X obj 224 202 select 0 1 2 3 4 5;
#X obj 224 163 random 6;
#X obj 613 285 mtof;
#X obj 613 307 / 8.1758;
#X obj 613 329 pack 0 100;
#X msg 613 162 -12;
#X msg 631 183 -12;
#X msg 649 162 -12;
#X msg 668 183 -5;
#X msg 686 162 -5;
#X msg 704 183 -15;
#X msg 723 162 -7;
#X msg 741 183 -7;
#X msg 759 162 -3;
#X obj 613 142 select 0 1 2 3 4 5 6 7 8;
#X obj 613 116 random 9;
#X obj 613 96 metro 4000;
#X obj 405 16 loadbang;
#X obj 613 42 loadbang;
#X obj 495 678 throw~ DELAY;
#X obj 22 59 metro 2000;
#X obj 456 701 throw~ FX-RETURN-L;
#X obj 505 721 throw~ FX-RETURN-R;
#X obj 275 454 *~ 22050;
#X obj 456 434 *~ 22050;
#X obj 613 397 *~ 22050;
#X obj 22 12 loadbang;
#X obj 65 82 catch~ contact;
#X obj 495 657 *~ 0.5;
#X msg 764 301 1;
#X msg 799 301 0;
#X obj 764 531 line;
#X obj 764 510 pack f 5000;
#X obj 773 352 sel 1 0;
#X msg 773 373 1;
#X msg 804 373 0;
#X obj 804 444 pipe 5000;
#X msg 794 421 clear;
#X obj 773 394 t f b;
#X obj 773 466 t f f;
#X obj 773 490 switch~;
#X obj 724 259 list split 1;
#X obj 456 603 *~;
#X obj 764 280 sel contact;
#X obj 764 328 t f f f;
#X obj 840 353 s metro;
#X obj 625 70 r metro;
#X obj 415 42 r metro;
#X obj 38 34 r metro;
#X obj 878 -1 table box 44103;
#X obj 724 238 r MIC;
#X obj 874 411 list split 1;
#X obj 874 390 r Sample-FX;
#X obj 914 477 spigot;
#X obj 953 437 swap 1;
#X obj 953 458 -;
#X msg 914 525 1;
#X msg 949 525 0;
#X obj 914 500 sel contact;
#X obj 456 623 *~ 1.6;
#X obj 85 119 *~ 0.9;
#X obj 117 375 *~ 0.3;
#X obj 131 108 delwrite~ contact-del 2500;
#X obj 131 128 delread~ contact-del 2500;
#X connect 0 0 1 0;
#X connect 1 0 8 0;
#X connect 2 0 7 0;
#X connect 4 0 77 0;
#X connect 5 0 3 0;
#X connect 6 0 4 0;
#X connect 7 0 59 0;
#X connect 8 0 2 0;
#X connect 9 0 0 0;
#X connect 10 0 0 0;
#X connect 11 0 0 0;
#X connect 12 0 0 0;
#X connect 13 0 0 0;
#X connect 14 0 0 0;
#X connect 15 0 9 0;
#X connect 15 1 10 0;
#X connect 15 2 11 0;
#X connect 15 3 12 0;
#X connect 15 4 13 0;
#X connect 15 5 14 0;
#X connect 16 0 15 0;
#X connect 17 0 16 0;
#X connect 17 0 36 0;
#X connect 18 0 77 0;
#X connect 19 0 18 0;
#X connect 20 0 60 0;
#X connect 21 0 20 0;
#X connect 22 0 23 0;
#X connect 23 0 28 0;
#X connect 24 0 27 0;
#X connect 25 0 77 0;
#X connect 26 0 25 0;
#X connect 27 0 58 0;
#X connect 28 0 24 0;
#X connect 29 0 22 0;
#X connect 30 0 22 0;
#X connect 31 0 22 0;
#X connect 32 0 22 0;
#X connect 33 0 22 0;
#X connect 34 0 22 0;
#X connect 35 0 29 0;
#X connect 35 1 30 0;
#X connect 35 2 31 0;
#X connect 35 3 32 0;
#X connect 35 4 33 0;
#X connect 35 5 34 0;
#X connect 36 0 35 0;
#X connect 37 0 38 0;
#X connect 38 0 39 0;
#X connect 39 0 21 0;
#X connect 40 0 37 0;
#X connect 41 0 37 0;
#X connect 42 0 37 0;
#X connect 43 0 37 0;
#X connect 44 0 37 0;
#X connect 45 0 37 0;
#X connect 46 0 37 0;
#X connect 47 0 37 0;
#X connect 48 0 37 0;
#X connect 49 0 40 0;
#X connect 49 1 41 0;
#X connect 49 2 42 0;
#X connect 49 3 43 0;
#X connect 49 4 44 0;
#X connect 49 5 45 0;
#X connect 49 6 46 0;
#X connect 49 7 47 0;
#X connect 49 8 48 0;
#X connect 50 0 49 0;
#X connect 51 0 50 0;
#X connect 52 0 17 0;
#X connect 53 0 51 0;
#X connect 55 0 5 0;
#X connect 58 0 26 0;
#X connect 59 0 6 0;
#X connect 60 0 19 0;
#X connect 61 0 55 0;
#X connect 62 0 3 0;
#X connect 62 0 96 0;
#X connect 62 0 97 0;
#X connect 63 0 54 0;
#X connect 64 0 79 0;
#X connect 64 0 89 0;
#X connect 65 0 79 0;
#X connect 65 0 89 0;
#X connect 66 0 77 1;
#X connect 67 0 66 0;
#X connect 68 0 69 0;
#X connect 68 1 70 0;
#X connect 69 0 73 0;
#X connect 70 0 71 0;
#X connect 71 0 74 0;
#X connect 72 0 71 0;
#X connect 73 0 74 0;
#X connect 73 1 72 0;
#X connect 74 0 75 0;
#X connect 76 1 78 0;
#X connect 77 0 94 0;
#X connect 78 0 64 0;
#X connect 78 1 65 0;
#X connect 79 0 67 0;
#X connect 79 1 68 0;
#X connect 79 2 80 0;
#X connect 81 0 51 0;
#X connect 82 0 17 0;
#X connect 83 0 55 0;
#X connect 85 0 76 0;
#X connect 86 1 88 0;
#X connect 87 0 86 0;
#X connect 88 0 93 0;
#X connect 89 0 90 0;
#X connect 89 1 90 1;
#X connect 90 0 88 1;
#X connect 91 0 79 0;
#X connect 92 0 79 0;
#X connect 93 0 91 0;
#X connect 93 1 92 0;
#X connect 94 0 56 0;
#X connect 94 0 57 0;
#X connect 94 0 63 0;
#X connect 95 0 3 0;
#X connect 95 0 97 0;
#X connect 96 0 94 0;
#X connect 98 0 95 0;
#X restore 54 453 pd contact;
#N canvas 603 206 984 591 doppler 0;
#N canvas 2 445 302 160 recordsamples 0;
#X obj 46 65 e_agc;
#X obj 46 42 inlet~;
#X obj 46 95 recordsample \$0 1 357.142;
#X connect 0 0 2 0;
#X connect 1 0 0 0;
#X restore 77 255 pd recordsamples;
#X obj 193 386 *~ 8;
#X obj 310 386 *~ 8;
#X obj 193 253 dopplereffect \$0 1 1;
#X obj 193 127 r tick;
#X obj 193 156 route doppler;
#X obj 77 233 catch~ doppler;
#X obj 441 286 mod 392;
#X obj 441 311 sel 0 128 256;
#X msg 745 377 \; MaxLength 0.3 \; MinLength 0.6 \; Doppler 0.4 \;
Direction 0.3 \; Slowpitch -12 10000 \;;
#X msg 444 377 \; MaxLength 0.3 \; MinLength 0.1 \; Doppler 0.5 \;
Direction 0.3 \; Slowpitch 0 10000 \; doppler-delaytime 80 \;;
#X msg 589 377 \; MaxLength 0.02 \; MinLength 0.2 \; Doppler 0.8 \;
Direction 0.3 \; Slowpitch 0 10000 \; doppler-delaytime 480 \;;
#X msg 617 93 1;
#X msg 652 93 0;
#X obj 617 323 line;
#X obj 649 142 sel 1 0;
#X msg 649 163 1;
#X msg 680 163 0;
#X msg 670 208 clear;
#X obj 649 184 t f b;
#X obj 649 256 t f f;
#X obj 649 280 switch~;
#X obj 577 51 list split 1;
#X obj 617 119 t f f;
#X obj 577 30 r MIC;
#X obj 193 450 throw~ FX-RETURN-L;
#X obj 310 449 throw~ FX-RETURN-R;
#X obj 193 420 *~ 1;
#X obj 310 419 *~ 1;
#X obj 617 72 sel doppler;
#X obj 617 302 pack f 1000;
#X obj 680 231 pipe 1000;
#X connect 1 0 27 0;
#X connect 2 0 28 0;
#X connect 3 0 1 0;
#X connect 3 1 2 0;
#X connect 4 0 5 0;
#X connect 5 0 3 0;
#X connect 5 0 7 0;
#X connect 6 0 0 0;
#X connect 7 0 8 0;
#X connect 8 0 10 0;
#X connect 8 1 11 0;
#X connect 8 2 9 0;
#X connect 12 0 23 0;
#X connect 13 0 23 0;
#X connect 14 0 28 1;
#X connect 14 0 27 1;
#X connect 15 0 16 0;
#X connect 15 1 17 0;
#X connect 16 0 19 0;
#X connect 17 0 31 0;
#X connect 18 0 31 0;
#X connect 19 0 20 0;
#X connect 19 1 18 0;
#X connect 20 0 21 0;
#X connect 22 1 29 0;
#X connect 23 0 30 0;
#X connect 23 1 15 0;
#X connect 24 0 22 0;
#X connect 27 0 25 0;
#X connect 28 0 26 0;
#X connect 29 0 12 0;
#X connect 29 1 13 0;
#X connect 30 0 14 0;
#X connect 31 0 20 0;
#X restore 54 364 pd doppler;
#N canvas 278 23 1256 993 whispers 0;
#X msg 1111 463 1;
#X msg 1146 463 0;
#X obj 1143 517 sel 1 0;
#X msg 1143 538 1;
#X msg 1174 538 0;
#X obj 1174 606 pipe 5000;
#X msg 1164 583 clear;
#X obj 1143 559 t f b;
#X obj 1142 651 switch~;
#X obj 1071 414 list split 1;
#X obj 1071 393 r MIC;
#X obj 1111 489 t f f;
#X obj 77 260 catch~ whispers;
#X obj 1111 440 sel whispers;
#X obj 302 792 s_playtable;
#X msg 318 511 clear \, bang;
#X obj 612 792 s_playtable;
#X obj 280 17 tgl 15 0 empty empty empty 17 7 0 10 -262144 -1 -1 0
1;
#X obj 280 59 random 2;
#X obj 280 80 select 0;
#X obj 280 314 s timing;
#X obj 337 17 r timing;
#X msg 378 105 bang;
#X obj 378 316 s timing;
#X obj 280 291 * 1;
#X obj 378 295 * 0.6;
#X msg 302 354 bang;
#X msg 612 360 bang;
#X obj 280 38 metro 1500;
#X obj 280 132 random 300;
#X obj 378 130 random 400;
#X obj 446 177 c_lfo whispers-lfo 0.01 50 sine;
#X obj 302 863 e_platereverb;
#X msg 801 787 dry 0.6 \, decay_diffusion2 0.74 \, decay_diffusion1
0.889 \, input_diffusion2 0.779 \, excursion 0 \, input_diffusion1
0.685 \, decay 0.89 \, damping 4637 \, bandwidth 10000 \, predelay
10 \,;
#X obj 801 760 loadbang;
#X obj 302 921 throw~ FX-RETURN-L;
#X obj 422 920 throw~ FX-RETURN-R;
#X obj 328 584 random 2;
#X obj 328 609 / 2;
#X obj 328 633 + 0.5;
#X obj 420 483 + 0.5;
#X obj 420 459 / 10;
#X msg 612 723 whisper-\$1 \$3 \$2;
#X obj 121 388 r just-recorded-whisper;
#X msg 148 509 set \$1;
#X msg 202 670 1;
#X obj 202 599 list prepend;
#X obj 202 623 list trim;
#X obj 202 646 route 1 0;
#X obj 121 417 t b f;
#X msg 236 530 0;
#X msg 208 528 1;
#X msg 202 718 whisper-\$1;
#X msg 512 670 1;
#X obj 512 599 list prepend;
#X obj 512 623 list trim;
#X obj 512 646 route 1 0;
#X msg 512 718 whisper-\$1;
#X obj 208 438 del 500;
#X obj 208 463 t b b b;
#X msg 247 485 stop;
#X obj 319 454 sel 0;
#X obj 302 383 t b b b b;
#X msg 395 583 -1;
#X msg 427 583 500;
#X obj 319 484 t b b;
#X msg 302 723 whisper-\$1 \$3 \$2 \$4;
#X obj 302 693 pack f f f f;
#X msg 460 583 0;
#X obj 360 484 t b b;
#X msg 625 510 clear \, bang;
#X obj 638 584 random 2;
#X obj 638 609 / 2;
#X obj 638 633 + 0.5;
#X obj 730 483 + 0.5;
#X obj 730 434 random 5;
#X obj 730 459 / 10;
#X obj 629 454 sel 0;
#X obj 612 383 t b b b b;
#X msg 705 583 -1;
#X msg 737 583 500;
#X obj 629 484 t b b;
#X obj 612 693 pack f f f f;
#X msg 770 583 0;
#X obj 670 484 t b b;
#X obj 446 207 * 500;
#X obj 378 238 +;
#X obj 280 237 +;
#X obj 302 891 *~ 0.2;
#X obj 422 889 *~ 0.2;
#X obj 235 506 del 4000;
#X obj 319 430 random 4;
#X obj 420 434 random 5;
#X obj 629 430 random 4;
#X obj 458 316 r just-recorded-whisper;
#X obj 458 338 moses 0;
#X text 9 605 Play only the most recently;
#X text 9 621 recorded whisper for 4 seconds;
#X text 347 65 Random timing engine. From algorithmiccomposer.com;
#X text 491 208 Gently oscillate sparsity of the samples;
#X msg 280 106 bang;
#X text 738 520 Random amplitude \, direction and pitch of sample playback
;
#X text 603 310 Increase the urn with every whisper recorded \, but
only for the first run;
#X obj 1077 714 line;
#X obj 1111 678 pack f 5000;
#X obj 302 532 c_urn 2;
#X obj 497 375 moses 2;
#X obj 612 532 c_urn 2;
#X obj 536 397 + 1;
#X obj 536 417 t f f;
#X obj 511 338 t f f;
#X obj 378 198 + 200;
#X obj 280 197 + 200;
#N canvas 167 108 1226 481 record-samples 0;
#X msg 189 336 clear \, start;
#X obj 123 315 t b b;
#X obj 59 45 inlet~;
#X msg 123 357 normalize;
#X msg 359 336 clear \, start;
#X obj 293 315 t b b;
#X msg 293 357 normalize;
#X obj 59 377 *~ 1;
#X obj 123 113 debounce 500;
#X obj 192 177 f;
#X obj 219 177 + 1;
#X obj 123 230 list prepend;
#X obj 123 255 list trim;
#X obj 123 336 del 500;
#X obj 293 336 del 500;
#X msg 549 336 clear \, start;
#X obj 483 315 t b b;
#X msg 483 357 normalize;
#X obj 483 336 del 500;
#X obj 59 442 u_record whisper-0 500;
#X obj 249 442 u_record whisper-1 500;
#X obj 439 442 u_record whisper-2 500;
#X obj 123 81 a_onset 1024 13;
#X msg 749 337 clear \, start;
#X obj 683 316 t b b;
#X msg 683 358 normalize;
#X msg 919 337 clear \, start;
#X obj 853 316 t b b;
#X msg 853 358 normalize;
#X obj 683 337 del 500;
#X obj 853 337 del 500;
#X msg 1109 337 clear \, start;
#X obj 1043 316 t b b;
#X msg 1043 358 normalize;
#X obj 1043 337 del 500;
#X obj 619 443 u_record whisper-3 500;
#X obj 809 443 u_record whisper-4 500;
#X obj 999 443 u_record whisper-5 500;
#X obj 123 283 route 0 1 2 3 4 5 6;
#X obj 192 201 mod 6;
#X obj 290 280 print recording;
#X msg 123 141 bang;
#X obj 248 235 s just-recorded-whisper;
#X obj 58 177 lop~ 2500;
#X obj 58 197 lop~ 2500;
#X text 464 136 Alternately record into 6 buffers...;
#X connect 0 0 19 1;
#X connect 1 0 13 0;
#X connect 1 1 0 0;
#X connect 2 0 22 0;
#X connect 2 0 43 0;
#X connect 3 0 19 1;
#X connect 4 0 20 1;
#X connect 5 0 14 0;
#X connect 5 1 4 0;
#X connect 6 0 20 1;
#X connect 7 0 19 0;
#X connect 7 0 20 0;
#X connect 7 0 21 0;
#X connect 7 0 35 0;
#X connect 7 0 36 0;
#X connect 7 0 37 0;
#X connect 8 0 41 0;
#X connect 9 0 10 0;
#X connect 9 0 39 0;
#X connect 10 0 9 1;
#X connect 11 0 12 0;
#X connect 12 0 38 0;
#X connect 12 0 40 0;
#X connect 13 0 3 0;
#X connect 14 0 6 0;
#X connect 15 0 21 1;
#X connect 16 0 18 0;
#X connect 16 1 15 0;
#X connect 17 0 21 1;
#X connect 18 0 17 0;
#X connect 22 0 8 0;
#X connect 23 0 35 1;
#X connect 24 0 29 0;
#X connect 24 1 23 0;
#X connect 25 0 35 1;
#X connect 26 0 36 1;
#X connect 27 0 30 0;
#X connect 27 1 26 0;
#X connect 28 0 36 1;
#X connect 29 0 25 0;
#X connect 30 0 28 0;
#X connect 31 0 37 1;
#X connect 32 0 34 0;
#X connect 32 1 31 0;
#X connect 33 0 37 1;
#X connect 34 0 33 0;
#X connect 38 0 1 0;
#X connect 38 1 5 0;
#X connect 38 2 16 0;
#X connect 38 3 24 0;
#X connect 38 4 27 0;
#X connect 38 5 32 0;
#X connect 39 0 11 1;
#X connect 39 0 42 0;
#X connect 41 0 9 0;
#X connect 41 0 11 0;
#X connect 43 0 44 0;
#X connect 44 0 7 0;
#X restore 77 296 pd record-samples;
#X obj 1025 678 pack f 15000;
#X obj 1051 631 sel 1 0;
#X msg 626 148 on \$1;
#X obj 1143 631 t f f f;
#X connect 0 0 11 0;
#X connect 1 0 11 0;
#X connect 2 0 3 0;
#X connect 2 1 4 0;
#X connect 3 0 7 0;
#X connect 4 0 5 0;
#X connect 5 0 117 0;
#X connect 6 0 5 0;
#X connect 7 0 117 0;
#X connect 7 1 6 0;
#X connect 9 1 13 0;
#X connect 10 0 9 0;
#X connect 11 0 115 0;
#X connect 11 1 2 0;
#X connect 12 0 113 0;
#X connect 13 0 0 0;
#X connect 13 1 1 0;
#X connect 14 0 32 0;
#X connect 15 0 105 0;
#X connect 16 0 32 1;
#X connect 17 0 28 0;
#X connect 18 0 19 0;
#X connect 19 0 100 0;
#X connect 19 1 22 0;
#X connect 21 0 28 1;
#X connect 22 0 30 0;
#X connect 24 0 20 0;
#X connect 24 0 26 0;
#X connect 25 0 23 0;
#X connect 25 0 27 0;
#X connect 26 0 62 0;
#X connect 27 0 78 0;
#X connect 28 0 18 0;
#X connect 29 0 112 0;
#X connect 30 0 111 0;
#X connect 31 0 85 0;
#X connect 32 0 88 0;
#X connect 32 1 89 0;
#X connect 33 0 32 2;
#X connect 34 0 33 0;
#X connect 37 0 38 0;
#X connect 38 0 39 0;
#X connect 39 0 67 1;
#X connect 40 0 67 2;
#X connect 41 0 40 0;
#X connect 42 0 16 0;
#X connect 43 0 49 0;
#X connect 44 0 45 0;
#X connect 44 0 53 0;
#X connect 45 0 52 0;
#X connect 46 0 47 0;
#X connect 47 0 48 0;
#X connect 48 0 45 0;
#X connect 48 1 67 0;
#X connect 49 0 58 0;
#X connect 49 1 44 0;
#X connect 50 0 46 1;
#X connect 50 0 54 1;
#X connect 51 0 46 1;
#X connect 51 0 54 1;
#X connect 52 0 14 0;
#X connect 53 0 57 0;
#X connect 54 0 55 0;
#X connect 55 0 56 0;
#X connect 56 0 53 0;
#X connect 56 1 82 0;
#X connect 57 0 16 0;
#X connect 58 0 59 0;
#X connect 59 0 51 0;
#X connect 59 1 90 0;
#X connect 59 2 60 0;
#X connect 60 0 90 0;
#X connect 61 0 65 0;
#X connect 61 1 69 0;
#X connect 62 0 105 0;
#X connect 62 1 91 0;
#X connect 62 2 92 0;
#X connect 63 0 67 1;
#X connect 64 0 67 3;
#X connect 65 0 63 0;
#X connect 65 1 64 0;
#X connect 66 0 14 0;
#X connect 67 0 66 0;
#X connect 68 0 67 3;
#X connect 69 0 37 0;
#X connect 69 1 68 0;
#X connect 70 0 107 0;
#X connect 71 0 72 0;
#X connect 72 0 73 0;
#X connect 73 0 82 1;
#X connect 74 0 82 2;
#X connect 75 0 76 0;
#X connect 76 0 74 0;
#X connect 77 0 81 0;
#X connect 77 1 84 0;
#X connect 78 0 107 0;
#X connect 78 1 93 0;
#X connect 78 2 75 0;
#X connect 79 0 82 1;
#X connect 80 0 82 3;
#X connect 81 0 79 0;
#X connect 81 1 80 0;
#X connect 82 0 42 0;
#X connect 83 0 82 3;
#X connect 84 0 71 0;
#X connect 84 1 83 0;
#X connect 85 0 86 1;
#X connect 85 0 87 1;
#X connect 86 0 25 0;
#X connect 87 0 24 0;
#X connect 88 0 35 0;
#X connect 89 0 36 0;
#X connect 90 0 50 0;
#X connect 91 0 61 0;
#X connect 92 0 41 0;
#X connect 93 0 77 0;
#X connect 94 0 95 0;
#X connect 95 1 110 0;
#X connect 100 0 29 0;
#X connect 103 0 88 1;
#X connect 103 0 89 1;
#X connect 104 0 103 0;
#X connect 105 0 46 0;
#X connect 105 1 15 0;
#X connect 106 1 108 0;
#X connect 107 0 54 0;
#X connect 107 1 70 0;
#X connect 108 0 109 0;
#X connect 109 0 105 1;
#X connect 109 1 107 1;
#X connect 110 0 95 1;
#X connect 110 1 106 0;
#X connect 111 0 86 0;
#X connect 112 0 87 0;
#X connect 114 0 103 0;
#X connect 115 0 114 0;
#X connect 115 1 104 0;
#X connect 116 0 31 1;
#X connect 117 0 8 0;
#X connect 117 1 116 0;
#X connect 117 2 17 0;
#X restore 54 408 pd whispers;
#N canvas 76 28 760 725 platereverb 0;
#X msg 536 205 1;
#X msg 571 205 0;
#X obj 536 435 line;
#X obj 568 256 sel 1 0;
#X msg 568 277 1;
#X msg 599 277 0;
#X obj 599 348 pipe 5000;
#X msg 589 325 clear;
#X obj 568 298 t f b;
#X obj 568 370 t f f;
#X obj 568 394 switch~;
#X obj 496 163 list split 1;
#X obj 496 142 r MIC;
#X obj 536 232 t f f;
#X obj 599 85 list split 1;
#X obj 599 64 r Sample-FX;
#X obj 639 151 spigot;
#X obj 678 111 swap 1;
#X obj 678 132 -;
#X msg 639 199 1;
#X msg 674 199 0;
#X obj 86 559 throw~ FX-RETURN-R;
#X obj 49 590 throw~ FX-RETURN-L;
#X obj 86 529 *~ 1;
#X obj 49 560 *~ 1;
#X obj 536 414 pack f 3000;
#X obj 49 464 e_platereverb;
#X obj 124 373 loadbang;
#X obj 536 184 sel platereverb;
#X obj 639 174 sel platereverb;
#X obj 49 281 catch~ platereverb;
#X msg 124 400 dry 0.2 \, decay_diffusion2 0.74 \, decay_diffusion1
0.889 \, input_diffusion2 0.779 \, excursion 0 \, input_diffusion1
0.685 \, decay 0.96 \, damping 4637 \, bandwidth 10000 \, predelay
10 \,;
#X connect 0 0 13 0;
#X connect 0 0 17 0;
#X connect 1 0 13 0;
#X connect 1 0 17 0;
#X connect 2 0 24 1;
#X connect 2 0 23 1;
#X connect 3 0 4 0;
#X connect 3 1 5 0;
#X connect 4 0 8 0;
#X connect 5 0 6 0;
#X connect 6 0 9 0;
#X connect 7 0 6 0;
#X connect 8 0 9 0;
#X connect 8 1 7 0;
#X connect 9 0 10 0;
#X connect 11 1 28 0;
#X connect 12 0 11 0;
#X connect 13 0 25 0;
#X connect 13 1 3 0;
#X connect 14 1 16 0;
#X connect 15 0 14 0;
#X connect 16 0 29 0;
#X connect 17 0 18 0;
#X connect 17 1 18 1;
#X connect 18 0 16 1;
#X connect 19 0 13 0;
#X connect 20 0 13 0;
#X connect 23 0 21 0;
#X connect 24 0 22 0;
#X connect 25 0 2 0;
#X connect 26 0 24 0;
#X connect 26 1 23 0;
#X connect 27 0 31 0;
#X connect 28 0 0 0;
#X connect 28 1 1 0;
#X connect 29 0 19 0;
#X connect 29 1 20 0;
#X connect 30 0 26 0;
#X connect 30 0 26 1;
#X connect 31 0 26 2;
#X restore 53 342 pd platereverb;
#N canvas 39 93 999 707 omen 0;
#X obj 22 82 bang;
#X obj 212 376 +~ 1;
#X obj 212 334 phasor~ 1;
#X obj 22 59 metro 2000;
#X obj 22 12 loadbang;
#X obj 22 195 tabwrite~ omen;
#X obj 678 35 table omen 44103;
#X obj 212 620 throw~ FX-RETURN-L;
#X obj 458 621 throw~ FX-RETURN-R;
#X msg 302 91 1;
#X msg 337 91 0;
#X obj 302 321 line;
#X obj 311 142 sel 1 0;
#X msg 311 163 1;
#X msg 342 163 0;
#X obj 342 234 pipe 5000;
#X msg 332 211 clear;
#X obj 311 184 t f b;
#X obj 311 256 t f f;
#X obj 311 280 switch~;
#X obj 262 49 list split 1;
#X obj 262 28 r MIC;
#X obj 212 462 *~;
#X obj 302 70 sel omen;
#X obj 47 118 catch~ omen;
#X obj 212 397 tabread4~ omen;
#X obj 212 246 osc~ 0.1;
#X obj 430 296 snapshot~;
#X obj 430 276 metro 50;
#X obj 212 355 *~ 22050;
#X obj 431 440 +~ 1;
#X obj 431 459 tabread4~ omen;
#X obj 431 419 *~ 22050;
#X obj 212 267 +~ 2;
#X obj 430 378 sig~;
#X obj 430 338 -;
#X obj 312 581 throw~ REVERB;
#X obj 431 583 e_pan;
#X obj 212 583 e_pan;
#X obj 253 471 / 100;
#X msg 373 464 on \$1;
#X obj 373 443 tgl 15 0 empty empty empty 17 7 0 10 -262144 -1 -1 0
1;
#X obj 252 491 c_lfo MYLFO2 1 50 sine;
#X obj 254 429 loadbang;
#X obj 463 540 swap 1;
#X obj 463 560 -;
#X msg 254 450 7;
#X obj 212 196 * 0.5;
#X obj 212 217 + 0.01;
#X obj 312 560 *~ 0.45;
#X obj 212 288 *~ 0.35;
#X obj 430 359 * 0.35;
#X obj 431 398 phasor~ -1;
#X obj 430 317 swap 4;
#X obj 302 118 t f f f f f;
#X obj 498 192 sel 1;
#X msg 498 213 0;
#X obj 65 146 delwrite~ omen 100;
#X obj 65 165 delread~ omen 100;
#X obj 12 154 *~ 0.4;
#X obj 431 480 *~;
#X obj 302 300 pack f 3000;
#X connect 0 0 5 0;
#X connect 1 0 25 0;
#X connect 2 0 29 0;
#X connect 3 0 0 0;
#X connect 4 0 3 0;
#X connect 9 0 3 0;
#X connect 9 0 54 0;
#X connect 10 0 3 0;
#X connect 10 0 54 0;
#X connect 11 0 22 1;
#X connect 11 0 60 1;
#X connect 12 0 13 0;
#X connect 12 1 14 0;
#X connect 13 0 17 0;
#X connect 14 0 15 0;
#X connect 15 0 18 0;
#X connect 16 0 15 0;
#X connect 17 0 18 0;
#X connect 17 1 16 0;
#X connect 18 0 19 0;
#X connect 20 1 23 0;
#X connect 21 0 20 0;
#X connect 22 0 38 0;
#X connect 22 0 49 0;
#X connect 23 0 9 0;
#X connect 23 1 10 0;
#X connect 24 0 5 0;
#X connect 24 0 57 0;
#X connect 25 0 22 0;
#X connect 26 0 33 0;
#X connect 27 0 53 0;
#X connect 28 0 27 0;
#X connect 29 0 1 0;
#X connect 30 0 31 0;
#X connect 31 0 60 0;
#X connect 32 0 30 0;
#X connect 33 0 27 0;
#X connect 33 0 50 0;
#X connect 34 0 52 0;
#X connect 35 0 51 0;
#X connect 37 0 7 0;
#X connect 37 1 8 0;
#X connect 38 0 7 0;
#X connect 38 1 8 0;
#X connect 39 0 42 0;
#X connect 40 0 42 1;
#X connect 41 0 40 0;
#X connect 42 0 38 1;
#X connect 42 0 44 0;
#X connect 42 0 47 0;
#X connect 43 0 46 0;
#X connect 44 0 45 0;
#X connect 44 1 45 1;
#X connect 45 0 37 1;
#X connect 46 0 39 0;
#X connect 47 0 48 0;
#X connect 48 0 26 0;
#X connect 49 0 36 0;
#X connect 50 0 2 0;
#X connect 51 0 34 0;
#X connect 52 0 32 0;
#X connect 53 0 35 0;
#X connect 53 1 35 1;
#X connect 54 0 61 0;
#X connect 54 1 12 0;
#X connect 54 2 41 0;
#X connect 54 3 28 0;
#X connect 54 4 55 0;
#X connect 55 0 56 0;
#X connect 56 0 2 1;
#X connect 56 0 52 1;
#X connect 58 0 59 0;
#X connect 59 0 57 0;
#X connect 59 0 5 0;
#X connect 60 0 49 0;
#X connect 60 0 37 0;
#X connect 61 0 11 0;
#X restore 54 490 pd omen;
#N canvas 86 24 852 672 panned-and-pitched 0;
#X msg 528 175 1;
#X msg 563 175 0;
#X obj 528 405 line;
#X obj 560 226 sel 1 0;
#X msg 560 247 1;
#X msg 591 247 0;
#X obj 591 318 pipe 5000;
#X msg 581 295 clear;
#X obj 560 268 t f b;
#X obj 560 340 t f f;
#X obj 560 364 switch~;
#X obj 488 133 list split 1;
#X obj 488 112 r MIC;
#X obj 528 202 t f f;
#X obj 641 45 list split 1;
#X obj 641 24 r Sample-FX;
#X obj 681 111 spigot;
#X obj 720 71 swap 1;
#X obj 720 92 -;
#X msg 681 159 1;
#X msg 716 159 0;
#X obj 78 529 throw~ FX-RETURN-R;
#X obj 41 560 throw~ FX-RETURN-L;
#X obj 78 499 *~ 1;
#X obj 41 530 *~ 1;
#X obj 528 384 pack f 3000;
#X obj 41 41 catch~ panned-and-pitched;
#X obj 528 154 sel panned-and-pitched;
#X obj 681 134 sel panned-and-pitched;
#X obj 41 429 e_pan;
#X obj 41 390 e_pitchshift;
#X msg 110 367 pitch \$1;
#X obj 110 321 * 12;
#X obj 110 344 - 6;
#X obj 146 225 delwrite~ pap-del 300;
#X obj 284 192 * 250;
#X obj 284 216 + 50;
#X obj 132 185 + 0.6;
#X obj 96 236 *~ 0.4;
#X obj 146 246 e_noclickdel pap-del;
#X msg 341 208 48;
#X obj 341 184 loadbang;
#X obj 247 133 c_lfo pap-pan 0.2 50 tri;
#X obj 41 100 *~;
#X obj 118 139 lop~ 10;
#X obj 118 95 c_lfo pap-vol 0.02 50 sine;
#X obj 118 117 * 0.9;
#X msg 388 64 on \$1;
#X connect 0 0 13 0;
#X connect 0 0 17 0;
#X connect 1 0 13 0;
#X connect 1 0 17 0;
#X connect 2 0 24 1;
#X connect 2 0 23 1;
#X connect 3 0 4 0;
#X connect 3 1 5 0;
#X connect 4 0 8 0;
#X connect 5 0 6 0;
#X connect 6 0 9 0;
#X connect 7 0 6 0;
#X connect 8 0 9 0;
#X connect 8 1 7 0;
#X connect 9 0 10 0;
#X connect 9 1 47 0;
#X connect 11 1 27 0;
#X connect 12 0 11 0;
#X connect 13 0 25 0;
#X connect 13 1 3 0;
#X connect 14 1 16 0;
#X connect 15 0 14 0;
#X connect 16 0 28 0;
#X connect 17 0 18 0;
#X connect 17 1 18 1;
#X connect 18 0 16 1;
#X connect 19 0 13 0;
#X connect 20 0 13 0;
#X connect 23 0 21 0;
#X connect 24 0 22 0;
#X connect 25 0 2 0;
#X connect 26 0 43 0;
#X connect 27 0 0 0;
#X connect 27 1 1 0;
#X connect 28 0 19 0;
#X connect 28 1 20 0;
#X connect 29 0 24 0;
#X connect 29 1 23 0;
#X connect 30 0 29 0;
#X connect 31 0 30 1;
#X connect 32 0 33 0;
#X connect 33 0 31 0;
#X connect 35 0 36 0;
#X connect 36 0 39 0;
#X connect 37 0 38 1;
#X connect 38 0 30 0;
#X connect 38 0 34 0;
#X connect 39 0 38 0;
#X connect 40 0 39 1;
#X connect 41 0 40 0;
#X connect 42 0 29 1;
#X connect 42 0 32 0;
#X connect 42 0 37 0;
#X connect 42 0 35 0;
#X connect 43 0 34 0;
#X connect 43 0 30 0;
#X connect 44 0 43 1;
#X connect 45 0 46 0;
#X connect 46 0 44 0;
#X connect 47 0 45 1;
#X connect 47 0 42 1;
#X restore 54 513 pd panned-and-pitched;
