#N canvas 54 22 1200 720 10;
#X declare -path .;
#X declare -path rj;
#X declare -path utils;
#X declare -path sounds;
#X declare -path abs;
#X declare -path pd;
#X declare -path audio;
#N canvas 515 156 477 236 init 0;
#N canvas 0 22 588 274 LICENSE 0;
#X text 79 84 (c) 2008 Reality Jockey;
#X text 57 36 Released under the GNU General Public License ver. 3
or later. See the file LICENSE.txt for the full text.;
#X restore -15 44 pd LICENSE;
#X obj 89 19 declare -path .;
#X obj 89 46 declare -path rj;
#X obj 89 73 declare -path utils;
#X obj 89 99 declare -path sounds;
#X obj -15 115 loadbang;
#X msg -15 139 \; pd dsp 1;
#X obj 89 129 declare -path abs;
#X obj 89 159 declare -path pd;
#X obj 89 190 declare -path audio;
#X restore 42 7 pd init;
#N canvas 0 22 628 452 delay 0;
#X obj 250 58 catch~ DELAY;
#X obj 232 373 throw~ REVERB;
#X obj 93 172 bp~ 5400 2;
#X obj 368 175 bp~ 5400 2;
#X obj 93 149 *~ 0.4;
#X obj 368 152 *~ 0.4;
#X obj 452 41 m_bpm2ms;
#X floatatom 452 83 7 0 0 0 - - -;
#X msg 450 8 88;
#X obj 93 208 delwrite~ \$0-dubby-l 341;
#X obj 93 232 delread~ \$0-dubby-l 341;
#X obj 368 208 delwrite~ \$0-dubby-r 228;
#X obj 366 239 delread~ \$0-dubby-r 227;
#X obj 452 62 / 3;
#X obj 366 325 throw~ FX-RETURN-R;
#X obj 93 324 throw~ FX-RETURN-L;
#X obj 232 354 *~ 0.5;
#X connect 0 0 4 0;
#X connect 0 0 5 0;
#X connect 2 0 9 0;
#X connect 3 0 11 0;
#X connect 4 0 2 0;
#X connect 5 0 3 0;
#X connect 6 0 13 0;
#X connect 8 0 6 0;
#X connect 10 0 5 0;
#X connect 10 0 15 0;
#X connect 10 0 16 0;
#X connect 12 0 4 0;
#X connect 12 0 14 0;
#X connect 12 0 16 0;
#X connect 13 0 7 0;
#X connect 16 0 1 0;
#X restore 41 622 pd delay;
#N canvas 0 22 588 336 reverb 0;
#X obj 206 124 loadbang;
#X obj 118 49 catch~ REVERB;
#X obj 118 70 hip~ 500;
#X msg 206 144 amp 95 \, hall 93 \, freq 3000 \, damp 60 \, dry 0;
#X obj 118 174 e_reverb main;
#X obj 206 256 throw~ FX-RETURN-R;
#X obj 118 236 throw~ FX-RETURN-L;
#X connect 0 0 3 0;
#X connect 1 0 2 0;
#X connect 2 0 4 0;
#X connect 3 0 4 1;
#X connect 4 0 6 0;
#X connect 4 1 5 0;
#X restore 41 601 pd reverb;
#X text 41 580 Main FX;
#N canvas 310 212 941 588 panvalue 0;
#X obj 68 126 metro;
#X obj 68 74 tgl 15 0 empty empty empty 17 7 0 10 -262144 -1 -1 1 1
;
#X obj 225 321 line;
#X obj 21 242 * 1;
#X obj 71 241 * 0.4;
#X obj 121 241 * 0.6;
#X obj 171 241 * 0.8;
#X obj 68 4 loadbang;
#X obj 21 219 t b f;
#X obj 71 219 t b f;
#X obj 121 219 t b f;
#X obj 171 219 t b f;
#X obj 222 219 t b f;
#X obj 272 219 t b f;
#X obj 322 219 t b f;
#X obj 372 219 t b f;
#X obj 222 242 * 0.2;
#X obj 272 241 * 0.1;
#X obj 322 241 * 0.3;
#X obj 372 241 * 0.5;
#X obj 68 170 select 0 1 2 3 4 5 6 7;
#X obj 68 148 random 6;
#X msg 21 268 \$1 200;
#X msg 71 268 \$1 200;
#X msg 121 268 \$1 200;
#X msg 171 268 \$1 200;
#X msg 222 268 \$1 200;
#X msg 272 267 \$1 200;
#X msg 322 267 \$1 200;
#X msg 372 267 \$1 200;
#X obj 100 98 t b f;
#X obj 225 407 m_scale 0 1 0 1;
#X obj 306 380 m_scale 0 1 1 0;
#X obj 286 355 m_scale 0 1 0.5 0;
#X obj 100 70 m_scale 0 1 500 5;
#X msg 231 170 1;
#X obj 231 146 loadbang;
#X obj 286 313 loadbang;
#X msg 286 334 0.5;
#X text 318 335 Width;
#X obj 100 24 loadbang;
#X msg 100 45 0.65;
#X text 138 46 Pan;
#X obj 225 436 s panvalue;
#X connect 0 0 21 0;
#X connect 1 0 0 0;
#X connect 2 0 31 0;
#X connect 3 0 22 0;
#X connect 4 0 23 0;
#X connect 5 0 24 0;
#X connect 6 0 25 0;
#X connect 7 0 1 0;
#X connect 8 0 3 0;
#X connect 8 1 22 0;
#X connect 9 0 4 0;
#X connect 9 1 23 0;
#X connect 10 0 5 0;
#X connect 10 1 24 0;
#X connect 11 0 6 0;
#X connect 11 1 25 0;
#X connect 12 0 16 0;
#X connect 12 1 26 0;
#X connect 13 0 17 0;
#X connect 13 1 27 0;
#X connect 14 0 18 0;
#X connect 14 1 28 0;
#X connect 15 0 19 0;
#X connect 15 1 29 0;
#X connect 16 0 26 0;
#X connect 17 0 27 0;
#X connect 18 0 28 0;
#X connect 19 0 29 0;
#X connect 20 0 8 0;
#X connect 20 1 9 0;
#X connect 20 2 10 0;
#X connect 20 3 11 0;
#X connect 20 4 12 0;
#X connect 20 5 13 0;
#X connect 20 6 14 0;
#X connect 20 7 15 0;
#X connect 21 0 20 0;
#X connect 22 0 2 0;
#X connect 23 0 2 0;
#X connect 24 0 2 0;
#X connect 25 0 2 0;
#X connect 26 0 2 0;
#X connect 27 0 2 0;
#X connect 28 0 2 0;
#X connect 29 0 2 0;
#X connect 30 0 0 0;
#X connect 30 1 0 1;
#X connect 31 0 43 0;
#X connect 32 0 31 4;
#X connect 33 0 32 0;
#X connect 33 0 31 3;
#X connect 34 0 30 0;
#X connect 35 0 3 0;
#X connect 35 0 4 0;
#X connect 35 0 5 0;
#X connect 35 0 6 0;
#X connect 35 0 16 0;
#X connect 35 0 17 0;
#X connect 35 0 18 0;
#X connect 35 0 19 0;
#X connect 36 0 35 0;
#X connect 37 0 38 0;
#X connect 38 0 33 0;
#X connect 40 0 41 0;
#X connect 41 0 34 0;
#X restore 41 676 pd panvalue;
#X text 42 655 Utilities;
#X obj 841 589 print sampleAndEffectInfo;
#X obj 250 105 r sampleToSwitch;
#X obj 250 129 int;
#X obj 842 652 catch~ FX;
#X text 651 3 ON;
#X text 914 27 OFF;
#X msg 907 69 bang;
#X obj 250 495 print sampleToSwitchReceived;
#X text 839 630 Dummy receives to avoid errors;
#X obj 956 23 loadbang;
#X obj 842 464 pack s s s;
#X msg 842 487 \; PPC 1 PPC-\$1 PPC-\$3 \; MIC 1 \$2 \;;
#X msg 648 26 A d-delay off;
#X msg 648 85 D helicopter off;
#X msg 906 248 \; PPC 0 PPC-A PPC-off \; MIC 0 FX \;;
#X msg 649 205 J granular off;
#X msg 649 245 L robotvoice off;
#X msg 649 265 M contact off;
#X msg 648 305 P cutter off;
#X obj 524 578 s mic-on/off;
#X obj 524 536 tgl 35 0 empty empty MIC_ON/OFF -20 -12 0 15 -262144
-1 -1 1 1;
#X obj 267 430 sel 0 1 2 3 4 5 6 7 8 9 10 11 12 13 14 15 16 17 18 19
;
#X obj 267 189 hradio 15 1 0 20 empty empty empty 0 -8 0 10 -262144
-1 -1 0;
#X floatatom 279 214 5 0 0 0 - - -;
#X msg 649 185 I doppler I-Drums;
#X obj 524 485 loadbang;
#X msg 648 66 C radio off;
#X msg 648 225 K whispers off;
#X obj 289 548 r currentTime;
#X obj 289 579 print currentTimeReceived;
#X msg 648 327 Z q-drums off;
#X msg 648 391 T panned-and-pitched off;
#X msg 649 285 O omen off;
#X text 40 76 Loops;
#N canvas 47 22 948 720 d-delay 0;
#X obj 182 447 delwrite~ d-delay1 700;
#X obj 182 467 delread~ d-delay1 700;
#X obj 432 209 s d-delay-time;
#X obj 215 424 r d-delay-time;
#X obj 359 241 +;
#X obj 445 261 +;
#X obj 531 280 +;
#X obj 617 300 +;
#X obj 691 370 delwrite~ straight-delay 700;
#X obj 721 347 r d-delay-time;
#X obj 691 390 delread~ straight-delay;
#X obj 637 378 *~ 0.7;
#X obj 637 399 *~ 0.5;
#X obj 205 513 swap 1;
#X obj 205 534 -;
#X obj 205 493 t f f;
#X msg 315 179 1 -0.2;
#X obj 315 200 unpack f f;
#X obj 382 220 f;
#X obj 315 221 t f f;
#X msg 327 159 0 0.2;
#X obj 168 355 swap 1;
#X obj 168 376 -;
#X obj 168 335 t f f;
#X obj 704 319 +;
#X obj 637 482 *~ 1;
#X obj 674 482 *~ 1;
#X obj 662 441 swap 1;
#X obj 662 462 -;
#X obj 662 421 t f f;
#X msg 432 174 214;
#X msg 462 174 286;
#X msg 492 174 483;
#X obj 315 -33 r tick;
#X obj 315 8 mod 256;
#X obj 432 60 t b b;
#X obj 464 79 random 2;
#X obj 432 102 spigot 0;
#X obj 432 144 sel 0 1 2 3;
#X obj 432 123 random 3;
#X obj 315 30 sel 0 128;
#X obj 315 53 t b b;
#X obj 347 72 random 2;
#X obj 315 95 spigot 0;
#X obj 315 137 sel 0 1;
#X obj 315 115 random 2;
#X obj 403 655 throw~ REVERB;
#X obj 230 617 *~;
#X obj 145 616 *~;
#X obj 403 633 *~;
#X obj 531 300 d-delay 3 4;
#X obj 359 261 d-delay 1 2;
#X obj 617 320 d-delay 4 5;
#X obj 445 280 d-delay 2 3;
#X obj 369 518 s~ delfade;
#X obj 369 498 lop~ 0.2;
#X obj 421 607 lop~ 0.2;
#X obj 369 478 * 0.85;
#X obj 145 269 catch~ d-delay;
#X obj 145 301 *~ 0.7;
#X obj 246 78 loadbang;
#X obj 163 95 switch~;
#X msg 163 28 1;
#X msg 196 28 0;
#X obj 123 -13 list split 1;
#X obj 163 7 sel d-delay;
#X obj 421 584 * 0.7;
#X obj 145 636 throw~ FX-RETURN-L;
#X obj 230 656 throw~ FX-RETURN-R;
#X obj 123 -34 r MIC;
#X obj 315 -12 route d-delay;
#X obj 163 51 t f f;
#X obj 182 558 *~;
#X obj 230 558 *~;
#X obj 145 403 *~;
#X obj 182 403 *~;
#X obj 163 74 pipe 2000;
#X connect 1 0 72 0;
#X connect 1 0 73 0;
#X connect 3 0 1 0;
#X connect 4 0 5 0;
#X connect 4 0 51 0;
#X connect 5 0 6 0;
#X connect 5 0 53 0;
#X connect 6 0 7 0;
#X connect 6 0 50 0;
#X connect 7 0 24 0;
#X connect 7 0 52 0;
#X connect 9 0 10 0;
#X connect 10 0 11 0;
#X connect 11 0 8 0;
#X connect 11 0 12 0;
#X connect 12 0 25 0;
#X connect 12 0 26 0;
#X connect 13 0 14 0;
#X connect 13 1 14 1;
#X connect 14 0 72 1;
#X connect 15 0 13 0;
#X connect 15 1 73 1;
#X connect 16 0 17 0;
#X connect 17 0 19 0;
#X connect 17 1 18 0;
#X connect 18 0 4 1;
#X connect 18 0 5 1;
#X connect 18 0 6 1;
#X connect 18 0 7 1;
#X connect 18 0 24 1;
#X connect 19 0 15 0;
#X connect 19 0 23 0;
#X connect 19 1 4 0;
#X connect 20 0 17 0;
#X connect 21 0 22 0;
#X connect 21 1 22 1;
#X connect 22 0 74 1;
#X connect 23 0 21 0;
#X connect 23 1 75 1;
#X connect 24 0 29 0;
#X connect 25 0 48 0;
#X connect 25 0 49 0;
#X connect 26 0 47 0;
#X connect 26 0 49 0;
#X connect 27 0 28 0;
#X connect 27 1 28 1;
#X connect 28 0 25 1;
#X connect 29 0 27 0;
#X connect 29 1 26 1;
#X connect 30 0 2 0;
#X connect 31 0 2 0;
#X connect 32 0 2 0;
#X connect 33 0 70 0;
#X connect 34 0 40 0;
#X connect 35 0 37 0;
#X connect 35 1 36 0;
#X connect 36 0 37 1;
#X connect 37 0 39 0;
#X connect 38 0 30 0;
#X connect 38 1 31 0;
#X connect 38 2 32 0;
#X connect 39 0 38 0;
#X connect 40 0 41 0;
#X connect 40 1 35 0;
#X connect 41 0 43 0;
#X connect 41 1 42 0;
#X connect 42 0 43 1;
#X connect 43 0 45 0;
#X connect 44 0 16 0;
#X connect 44 1 20 0;
#X connect 45 0 44 0;
#X connect 47 0 68 0;
#X connect 48 0 67 0;
#X connect 49 0 46 0;
#X connect 52 0 8 0;
#X connect 52 1 8 0;
#X connect 55 0 47 1;
#X connect 55 0 48 1;
#X connect 55 0 54 0;
#X connect 56 0 49 1;
#X connect 57 0 55 0;
#X connect 57 0 66 0;
#X connect 58 0 59 0;
#X connect 59 0 74 0;
#X connect 59 0 75 0;
#X connect 60 0 20 0;
#X connect 60 0 30 0;
#X connect 62 0 71 0;
#X connect 63 0 71 0;
#X connect 64 1 65 0;
#X connect 65 0 62 0;
#X connect 65 1 63 0;
#X connect 66 0 56 0;
#X connect 69 0 64 0;
#X connect 70 0 34 0;
#X connect 71 0 76 0;
#X connect 71 1 57 0;
#X connect 72 0 48 0;
#X connect 72 0 49 0;
#X connect 73 0 47 0;
#X connect 73 0 49 0;
#X connect 74 0 0 0;
#X connect 74 0 48 0;
#X connect 75 0 0 0;
#X connect 75 0 47 0;
#X connect 76 0 61 0;
#X restore 43 145 pd d-delay;
#X text 42 126 Mic FX;
#N canvas 104 23 525 709 octaver 0;
#X obj 254 478 delread~ \$0-a 200;
#X obj 150 463 e_pitchshift;
#X obj 254 457 delwrite~ \$0-a 200;
#X obj 109 310 catch~ octaver;
#X msg 127 85 1;
#X msg 162 85 0;
#X msg 231 428 pitch \$1;
#X obj 231 350 int;
#X obj 231 329 - 12;
#X obj 231 308 * 15;
#X obj 282 97 r tick;
#X obj 321 384 == 3;
#X obj 282 404 spigot;
#X obj 282 158 mod 256;
#X obj 282 179 sel 0;
#X msg 301 259 -3;
#X msg 282 241 -6;
#X msg 313 241 -1;
#X obj 282 221 sel 0 1 2 3 4 5;
#X obj 282 309 line;
#X obj 282 330 int;
#X obj 282 288 pack f 1500;
#X obj 109 573 e_pan;
#X obj 163 546 r panvalue;
#X obj 127 258 line;
#X obj 127 108 t f f;
#X obj 109 331 *~;
#X obj 127 279 t f f;
#X obj 243 659 throw~ REVERB;
#X obj 87 41 list split 1;
#X obj 127 60 sel octaver;
#X obj 109 603 throw~ FX-RETURN-L;
#X obj 141 622 throw~ FX-RETURN-R;
#X obj 150 502 *~ 0.8;
#X msg 362 259 6;
#X msg 345 241 3;
#X msg 333 259 1;
#X obj 150 483 lop~ 5000;
#X obj 282 200 random 6;
#X obj 109 527 *~ 0.65;
#X obj 243 641 *~ 0.45;
#X obj 87 20 r MIC;
#X obj 282 137 route octaver;
#X msg 168 171 clear;
#X obj 136 151 t f b;
#X obj 159 211 switch~;
#X obj 159 130 moses 1;
#X obj 109 552 *~ 1.5;
#X obj 159 191 pipe 3500;
#X obj 127 237 pack f 2500;
#X connect 0 0 1 0;
#X connect 1 0 37 0;
#X connect 3 0 26 0;
#X connect 4 0 25 0;
#X connect 5 0 25 0;
#X connect 6 0 1 1;
#X connect 7 0 6 0;
#X connect 7 0 11 0;
#X connect 8 0 7 0;
#X connect 9 0 8 0;
#X connect 10 0 42 0;
#X connect 11 0 12 1;
#X connect 12 0 6 0;
#X connect 13 0 14 0;
#X connect 14 0 38 0;
#X connect 15 0 21 0;
#X connect 16 0 21 0;
#X connect 17 0 21 0;
#X connect 18 0 16 0;
#X connect 18 1 15 0;
#X connect 18 2 17 0;
#X connect 18 3 36 0;
#X connect 18 4 35 0;
#X connect 18 5 34 0;
#X connect 19 0 20 0;
#X connect 20 0 12 0;
#X connect 21 0 19 0;
#X connect 22 0 31 0;
#X connect 22 1 32 0;
#X connect 23 0 22 1;
#X connect 24 0 27 0;
#X connect 25 0 49 0;
#X connect 25 1 46 0;
#X connect 26 0 2 0;
#X connect 26 0 39 0;
#X connect 27 0 26 1;
#X connect 27 1 9 0;
#X connect 29 1 30 0;
#X connect 30 0 4 0;
#X connect 30 1 5 0;
#X connect 33 0 2 0;
#X connect 33 0 47 0;
#X connect 34 0 21 0;
#X connect 35 0 21 0;
#X connect 36 0 21 0;
#X connect 37 0 33 0;
#X connect 38 0 18 0;
#X connect 39 0 47 0;
#X connect 40 0 28 0;
#X connect 41 0 29 0;
#X connect 42 0 13 0;
#X connect 43 0 48 0;
#X connect 44 0 45 0;
#X connect 44 1 43 0;
#X connect 46 0 48 0;
#X connect 46 1 44 0;
#X connect 47 0 22 0;
#X connect 47 0 40 0;
#X connect 48 0 45 0;
#X connect 49 0 24 0;
#X restore 43 165 pd octaver;
#N canvas 0 22 738 720 granular 0;
#X obj 242 642 delwrite~ b1 5000;
#X obj 48 480 vd~ b1;
#X obj 47 335 phasor~;
#X obj 48 375 *~ -1;
#X obj 48 397 +~ 1;
#X obj 137 430 sig~ 1;
#X obj 155 411 cos~;
#X obj 137 452 -~;
#X obj 137 472 *~ 0.5;
#X obj 48 502 *~;
#X obj 66 439 samphold~;
#X obj 48 459 *~;
#X obj 242 528 vd~ b1;
#X obj 242 421 *~ -1;
#X obj 242 444 +~ 1;
#X obj 334 470 sig~ 1;
#X obj 352 450 cos~;
#X obj 334 491 -~;
#X obj 334 512 *~ 0.5;
#X obj 242 558 *~;
#X obj 260 485 samphold~;
#X obj 242 506 *~;
#X obj 242 374 +~ 0.5;
#X obj 242 396 wrap~;
#X obj 48 591 *~ 1;
#X msg 47 197 2;
#X obj 47 225 pow;
#X obj 47 165 t b f;
#X obj 79 197 / 12;
#X obj 47 246 - 1;
#X obj 47 314 *;
#X obj 80 226 t b f;
#X obj 80 269 /;
#X obj 57 291 t b f;
#X obj 66 420 sig~;
#X obj 260 466 sig~;
#X obj 47 34 a_onset 128 20;
#X obj 47 142 line;
#X msg 47 121 \$1 1500;
#X obj 138 673 throw~ REVERB;
#X obj 137 185 line;
#X msg 137 164 \$1 1500;
#X obj 48 645 e_pan;
#X obj 242 588 *~ 0.85;
#X obj 442 474 *~;
#X obj 137 119 random 29650;
#X obj 137 140 + 350;
#X obj 47 76 random 12;
#X obj 47 97 - 6;
#X obj 47 55 t b b;
#X obj 48 612 lop~ 3000;
#X msg 460 283 1;
#X msg 495 283 0;
#X obj 47 9 r~ granular;
#X obj 442 507 s~ granular;
#X obj 80 558 r panvalue;
#X obj 442 453 catch~ granular;
#X obj 80 248 samplerate~;
#X obj 460 422 line;
#X obj 460 330 t f f;
#X obj 492 353 switch~;
#X obj 420 231 list split 1;
#X obj 460 252 sel granular;
#X obj 138 647 *~ 0.5;
#X obj 48 713 throw~ FX-RETURN-L;
#X obj 138 693 throw~ FX-RETURN-R;
#X obj 242 614 nofeedback;
#X obj 174 26 loadbang;
#X obj 137 321 / 44.1;
#X obj 420 210 r MIC;
#X obj 460 310 pipe 2000;
#X obj 460 401 pack f 2500;
#X connect 1 0 9 0;
#X connect 2 0 3 0;
#X connect 2 0 6 0;
#X connect 2 0 10 1;
#X connect 2 0 22 0;
#X connect 3 0 4 0;
#X connect 4 0 11 0;
#X connect 5 0 7 0;
#X connect 6 0 7 1;
#X connect 7 0 8 0;
#X connect 8 0 9 1;
#X connect 9 0 24 0;
#X connect 9 0 43 0;
#X connect 10 0 11 1;
#X connect 11 0 1 0;
#X connect 12 0 19 0;
#X connect 13 0 14 0;
#X connect 14 0 21 0;
#X connect 15 0 17 0;
#X connect 16 0 17 1;
#X connect 17 0 18 0;
#X connect 18 0 19 1;
#X connect 19 0 24 0;
#X connect 19 0 43 0;
#X connect 20 0 21 1;
#X connect 21 0 12 0;
#X connect 22 0 23 0;
#X connect 23 0 13 0;
#X connect 23 0 20 1;
#X connect 23 0 16 0;
#X connect 24 0 50 0;
#X connect 25 0 26 0;
#X connect 26 0 29 0;
#X connect 27 0 25 0;
#X connect 27 1 28 0;
#X connect 28 0 26 1;
#X connect 29 0 30 0;
#X connect 30 0 2 0;
#X connect 31 0 57 0;
#X connect 31 1 32 1;
#X connect 32 0 33 0;
#X connect 33 0 30 0;
#X connect 33 1 30 1;
#X connect 34 0 10 0;
#X connect 35 0 20 0;
#X connect 36 0 49 0;
#X connect 37 0 27 0;
#X connect 38 0 37 0;
#X connect 40 0 31 0;
#X connect 40 0 68 0;
#X connect 41 0 40 0;
#X connect 42 0 64 0;
#X connect 42 1 65 0;
#X connect 43 0 66 0;
#X connect 44 0 0 0;
#X connect 44 0 54 0;
#X connect 45 0 46 0;
#X connect 46 0 41 0;
#X connect 47 0 48 0;
#X connect 48 0 38 0;
#X connect 49 0 47 0;
#X connect 49 1 45 0;
#X connect 50 0 42 0;
#X connect 50 0 63 0;
#X connect 51 0 70 0;
#X connect 52 0 70 0;
#X connect 53 0 36 0;
#X connect 55 0 42 1;
#X connect 56 0 44 0;
#X connect 57 0 32 0;
#X connect 58 0 44 1;
#X connect 59 0 71 0;
#X connect 59 1 60 0;
#X connect 61 1 62 0;
#X connect 62 0 51 0;
#X connect 62 1 52 0;
#X connect 63 0 39 0;
#X connect 66 0 0 0;
#X connect 67 0 49 0;
#X connect 68 0 34 0;
#X connect 68 0 35 0;
#X connect 69 0 61 0;
#X connect 70 0 59 0;
#X connect 71 0 58 0;
#X restore 43 327 pd granular;
#N canvas 12 22 857 720 metallic 0;
#X obj 478 139 *;
#X obj 478 159 *;
#X obj 478 179 *;
#X obj 478 199 *;
#X obj 478 219 *;
#X obj 478 239 *;
#X obj 478 259 *;
#X obj 261 212 hip~ 100;
#X obj 478 279 *;
#X obj 478 302 *;
#X msg 541 78 1.12247;
#X obj 315 296 bp~ 1 640;
#X obj 314 316 bp~ 1 680;
#X obj 315 336 bp~ 1 720;
#X obj 315 357 bp~ 1 760;
#X obj 314 378 bp~ 1 800;
#X obj 234 378 bp~ 1 840;
#X obj 233 355 bp~ 1 880;
#X obj 233 330 bp~ 1 910;
#X obj 233 307 bp~ 1 930;
#X obj 232 284 bp~ 1 1100;
#X obj 541 51 loadbang;
#X obj 269 674 throw~ FX-RETURN-L;
#X obj 409 697 throw~ FX-RETURN-R;
#X obj 269 489 e_reverb;
#X obj 262 23 catch~ metallic;
#X msg 97 144 1;
#X msg 132 144 0;
#X obj 57 99 list split 1;
#X obj 97 123 sel metallic;
#X obj 322 443 loadbang;
#X obj 628 330 line;
#X obj 628 179 t b b;
#X msg 628 309 \$1 3500;
#X obj 628 200 random 6;
#X obj 628 221 sel 0 1 2 3 4 5;
#X msg 628 242 65;
#X msg 645 265 67;
#X msg 662 242 72;
#X msg 679 265 75;
#X msg 696 242 77;
#X msg 713 265 79;
#X obj 628 351 mtof;
#N canvas 500 156 450 300 monsterlop 0;
#X obj 138 260 outlet~;
#X obj 136 16 inlet~;
#X obj 138 47 lop~ \$1;
#X obj 310 17 inlet;
#X obj 138 72 lop~ \$1;
#X obj 139 97 lop~ \$1;
#X obj 138 122 lop~ \$1;
#X connect 1 0 2 0;
#X connect 2 0 4 0;
#X connect 3 0 2 1;
#X connect 3 0 4 1;
#X connect 3 0 5 1;
#X connect 3 0 6 1;
#X connect 4 0 5 0;
#X connect 5 0 6 0;
#X connect 6 0 0 0;
#X restore 269 585 pd monsterlop;
#X obj 497 493 loadbang;
#X obj 269 609 hip~ 80;
#X msg 497 514 6000;
#N canvas 500 156 450 300 monsterlop 0;
#X obj 138 260 outlet~;
#X obj 136 16 inlet~;
#X obj 138 47 lop~ \$1;
#X obj 310 17 inlet;
#X obj 138 72 lop~ \$1;
#X obj 139 97 lop~ \$1;
#X obj 138 122 lop~ \$1;
#X connect 1 0 2 0;
#X connect 2 0 4 0;
#X connect 3 0 2 1;
#X connect 3 0 4 1;
#X connect 3 0 5 1;
#X connect 3 0 6 1;
#X connect 4 0 5 0;
#X connect 5 0 6 0;
#X connect 6 0 0 0;
#X restore 409 584 pd monsterlop;
#X obj 409 608 hip~ 80;
#N canvas 0 22 460 414 nofeedback-analysis 0;
#X obj 48 28 inlet~;
#X obj 48 269 max 80;
#X obj 48 103 env~ 1024;
#X obj 48 220 +;
#X obj 48 195 * 0.05;
#X obj 80 221 * 0.95;
#X obj 48 246 min 6000;
#X obj 48 357 outlet;
#X obj 48 140 clip 80 90;
#X obj 48 169 m_scale 80 90 6000 80;
#X connect 0 0 2 0;
#X connect 1 0 7 0;
#X connect 2 0 8 0;
#X connect 3 0 5 0;
#X connect 3 0 6 0;
#X connect 4 0 3 0;
#X connect 5 0 3 1;
#X connect 6 0 1 0;
#X connect 8 0 9 0;
#X connect 9 0 4 0;
#X restore 357 552 pd nofeedback-analysis;
#X obj 478 119 * 1;
#X obj 409 520 bp~ 2000 3;
#X obj 269 519 bp~ 2000 3;
#N canvas 0 22 628 452 delay 0;
#X obj 93 172 bp~ 5400 2;
#X obj 368 175 bp~ 5400 2;
#X obj 93 149 *~ 0.4;
#X obj 368 152 *~ 0.4;
#X obj 452 41 m_bpm2ms;
#X floatatom 452 83 7 0 0 0 - - -;
#X msg 450 8 88;
#X obj 452 62 / 3;
#X obj 250 58 inlet~;
#X obj 252 389 outlet~;
#X obj 93 208 delwrite~ \$0-metal-l 341;
#X obj 93 232 delread~ \$0-metal-l 341;
#X obj 368 208 delwrite~ \$0-metal-r 228;
#X obj 366 239 delread~ \$0-metal-r 227;
#X obj 252 368 *~ 0.5;
#X obj 250 79 *~ 0.5;
#X connect 0 0 10 0;
#X connect 1 0 12 0;
#X connect 2 0 0 0;
#X connect 3 0 1 0;
#X connect 4 0 7 0;
#X connect 6 0 4 0;
#X connect 7 0 5 0;
#X connect 8 0 15 0;
#X connect 11 0 3 0;
#X connect 11 0 14 0;
#X connect 13 0 2 0;
#X connect 13 0 14 0;
#X connect 14 0 9 0;
#X connect 15 0 2 0;
#X connect 15 0 3 0;
#X connect 15 0 14 0;
#X restore 262 149 pd delay;
#X obj 262 128 hip~ 300;
#X msg 322 463 amp 90 \, hall 90 \, freq 3000 \, damp 2;
#X obj 57 78 r MIC;
#X obj 409 638 *~;
#X obj 269 639 *~;
#X obj 661 444 vline~;
#X obj 269 421 *~ 24;
#X obj 184 421 *~ 0.4;
#X obj 628 158 a_onset 128 13;
#X obj 97 188 switch~;
#X obj 97 167 pipe 2000;
#X msg 661 417 2 \, 0 6000 2000;
#X connect 0 0 1 0;
#X connect 0 0 19 1;
#X connect 1 0 2 0;
#X connect 1 0 18 1;
#X connect 2 0 3 0;
#X connect 2 0 17 1;
#X connect 3 0 4 0;
#X connect 3 0 16 1;
#X connect 4 0 5 0;
#X connect 4 0 15 1;
#X connect 5 0 6 0;
#X connect 5 0 14 1;
#X connect 6 0 8 0;
#X connect 6 0 13 1;
#X connect 7 0 11 0;
#X connect 7 0 12 0;
#X connect 7 0 13 0;
#X connect 7 0 14 0;
#X connect 7 0 15 0;
#X connect 7 0 16 0;
#X connect 7 0 17 0;
#X connect 7 0 18 0;
#X connect 7 0 19 0;
#X connect 7 0 20 0;
#X connect 7 0 61 0;
#X connect 8 0 9 0;
#X connect 8 0 12 1;
#X connect 9 0 11 1;
#X connect 10 0 0 1;
#X connect 10 0 1 1;
#X connect 10 0 2 1;
#X connect 10 0 3 1;
#X connect 10 0 4 1;
#X connect 10 0 5 1;
#X connect 10 0 6 1;
#X connect 10 0 8 1;
#X connect 10 0 9 1;
#X connect 11 0 60 0;
#X connect 12 0 60 0;
#X connect 13 0 60 0;
#X connect 14 0 60 0;
#X connect 15 0 60 0;
#X connect 16 0 60 0;
#X connect 17 0 60 0;
#X connect 18 0 60 0;
#X connect 19 0 60 0;
#X connect 20 0 60 0;
#X connect 21 0 10 0;
#X connect 24 0 52 0;
#X connect 24 1 51 0;
#X connect 25 0 54 0;
#X connect 25 0 62 0;
#X connect 26 0 64 0;
#X connect 27 0 64 0;
#X connect 28 1 29 0;
#X connect 29 0 26 0;
#X connect 29 1 27 0;
#X connect 30 0 55 0;
#X connect 31 0 42 0;
#X connect 32 0 34 0;
#X connect 32 1 65 0;
#X connect 33 0 31 0;
#X connect 34 0 35 0;
#X connect 35 0 36 0;
#X connect 35 1 37 0;
#X connect 35 2 38 0;
#X connect 35 3 39 0;
#X connect 35 4 40 0;
#X connect 35 5 41 0;
#X connect 36 0 33 0;
#X connect 37 0 33 0;
#X connect 38 0 33 0;
#X connect 39 0 33 0;
#X connect 40 0 33 0;
#X connect 41 0 33 0;
#X connect 42 0 50 0;
#X connect 43 0 45 0;
#X connect 44 0 46 0;
#X connect 45 0 58 0;
#X connect 46 0 43 1;
#X connect 46 0 47 1;
#X connect 47 0 48 0;
#X connect 48 0 57 0;
#X connect 49 0 43 1;
#X connect 49 0 47 1;
#X connect 50 0 0 0;
#X connect 50 0 20 1;
#X connect 51 0 47 0;
#X connect 52 0 49 0;
#X connect 52 0 43 0;
#X connect 53 0 7 0;
#X connect 54 0 53 0;
#X connect 55 0 24 1;
#X connect 56 0 28 0;
#X connect 57 0 23 0;
#X connect 58 0 22 0;
#X connect 59 0 57 1;
#X connect 59 0 58 1;
#X connect 60 0 24 0;
#X connect 61 0 24 0;
#X connect 62 0 32 0;
#X connect 64 0 63 0;
#X connect 65 0 59 0;
#X restore 43 225 pd metallic;
#N canvas 0 22 769 590 robotvoice 0;
#X obj 157 113 fiddle~ 2048;
#X obj 211 148 unpack;
#X obj 211 172 moses 1;
#X obj 239 307 *~;
#X obj 257 202 mtof;
#X obj 257 225 *;
#X obj 239 328 *~ 2;
#X obj 99 57 catch~ robotvoice;
#X obj 239 437 throw~ FX-RETURN-L;
#X obj 271 457 throw~ FX-RETURN-R;
#X obj 215 499 throw~ DELAY;
#N canvas 300 203 758 306 samp-delay 0;
#X obj 15 222 outlet~;
#X obj 14 21 inlet~;
#X obj 15 102 loadbang;
#X obj 14 49 delwrite~ E03-del 40;
#X obj 15 195 delread~ E03-del;
#X obj 15 152 expr 1000*1024/$f1;
#X obj 15 128 samplerate~;
#X text 208 47 write to delay line which has enough memory to hold
40 msec;
#X text 125 128 get sample rate at load time;
#X text 185 152 divide 1024 by sample rate to give time in seconds
\; multiply by 1000 to convert to milliseconds.;
#X text 168 197 read from the delay line at the calculater delay;
#X text 317 268 1024-sample delay;
#X connect 1 0 3 0;
#X connect 2 0 6 0;
#X connect 4 0 0 0;
#X connect 5 0 4 0;
#X connect 6 0 5 0;
#X restore 99 133 pd samp-delay;
#X obj 257 270 line;
#X msg 257 251 \$1 50;
#X obj 275 97 mod 128;
#X obj 275 118 sel 0;
#X obj 275 53 r tick;
#X obj 275 160 / 10;
#X obj 275 181 + 0.1;
#X obj 275 139 random 60;
#X msg 577 107 1;
#X msg 612 107 0;
#X obj 577 148 switch~;
#X obj 537 65 list split 1;
#X obj 577 86 sel robotvoice;
#X obj 257 289 osc~ 2;
#X obj 239 350 bp~ 6000 5;
#X obj 239 412 e_pan;
#X obj 271 391 r panvalue;
#X obj 537 44 r MIC;
#X obj 275 75 route robotvoice;
#X obj 215 477 *~ 0.2;
#X obj 239 373 *~ 2;
#X obj 577 128 pipe 2000;
#X connect 0 2 1 0;
#X connect 1 0 2 0;
#X connect 2 1 4 0;
#X connect 3 0 6 0;
#X connect 4 0 5 0;
#X connect 5 0 13 0;
#X connect 6 0 26 0;
#X connect 7 0 0 0;
#X connect 7 0 11 0;
#X connect 11 0 3 0;
#X connect 12 0 25 0;
#X connect 13 0 12 0;
#X connect 14 0 15 0;
#X connect 15 0 19 0;
#X connect 16 0 30 0;
#X connect 17 0 18 0;
#X connect 18 0 5 1;
#X connect 19 0 17 0;
#X connect 20 0 33 0;
#X connect 23 1 24 0;
#X connect 24 0 20 0;
#X connect 24 1 21 0;
#X connect 25 0 3 1;
#X connect 26 0 32 0;
#X connect 27 0 8 0;
#X connect 27 1 9 0;
#X connect 28 0 27 1;
#X connect 29 0 23 0;
#X connect 30 0 14 0;
#X connect 31 0 10 0;
#X connect 32 0 27 0;
#X connect 32 0 31 0;
#X connect 33 0 22 0;
#X restore 42 367 pd robotvoice;
#N canvas 48 25 787 720 phasemod 0;
#X obj 457 248 *~;
#X obj 545 219 line~;
#X obj 439 322 cos~;
#X obj 439 295 +~;
#X obj 545 176 / 100;
#X obj 439 341 hip~ 5;
#N canvas 0 22 627 506 delay 0;
#X obj 250 58 inlet~;
#X obj 92 463 outlet~;
#X obj 92 442 *~ 0.5;
#X obj 250 79 *~ 0.5;
#X obj 352 459 outlet~;
#X obj 352 438 *~ 0.5;
#X obj 367 409 vd~ \$0-phase-r;
#X obj 367 389 line~;
#X obj 366 328 random 500;
#X obj 366 349 + 1;
#X obj 366 291 sel 0;
#X obj 93 418 vd~ \$0-phase-l;
#X obj 94 397 line~;
#X obj 93 336 random 500;
#X obj 93 357 + 1;
#X obj 93 314 sel 1;
#X obj 368 208 delwrite~ \$0-phase-r 501;
#X obj 93 207 delwrite~ \$0-phase-l 501;
#X obj 366 270 mod 128;
#X msg 366 368 \$1 500;
#X msg 93 376 \$1 500;
#X obj 368 152 *~ 0.3;
#X obj 93 149 *~ 0.3;
#X obj 93 172 bp~ 5400 3;
#X obj 368 175 bp~ 5400 3;
#X obj 366 228 r tick;
#X obj 366 249 route phasemod;
#X connect 0 0 3 0;
#X connect 2 0 1 0;
#X connect 3 0 2 0;
#X connect 3 0 5 0;
#X connect 3 0 21 0;
#X connect 3 0 22 0;
#X connect 5 0 4 0;
#X connect 6 0 5 0;
#X connect 6 0 22 0;
#X connect 7 0 6 0;
#X connect 8 0 9 0;
#X connect 9 0 19 0;
#X connect 10 0 8 0;
#X connect 11 0 2 0;
#X connect 11 0 21 0;
#X connect 12 0 11 0;
#X connect 13 0 14 0;
#X connect 14 0 20 0;
#X connect 15 0 13 0;
#X connect 18 0 10 0;
#X connect 18 0 15 0;
#X connect 19 0 7 0;
#X connect 20 0 12 0;
#X connect 21 0 24 0;
#X connect 22 0 23 0;
#X connect 23 0 17 0;
#X connect 24 0 16 0;
#X connect 25 0 26 0;
#X connect 26 0 18 0;
#X restore 408 455 pd delay;
#X obj 457 193 + 1;
#X obj 545 132 random 89;
#X obj 545 153 + 10;
#X obj 545 198 pack 0 200;
#X obj 382 272 catch~ phasemod;
#X msg 99 163 1;
#X msg 134 163 0;
#X obj 59 121 list split 1;
#X obj 457 216 osc~ 10;
#X obj 99 142 sel phasemod;
#X obj 408 534 *~ 2.5;
#X obj 382 370 *~ 0.75;
#X obj 439 370 *~ 0.65;
#X obj 457 149 sel 0 1;
#X obj 457 81 a_onset 128 20;
#X obj 457 102 t b;
#X obj 457 123 random 2;
#X obj 408 585 e_pan;
#X obj 440 557 r panvalue;
#X obj 457 172 random 20;
#X obj 359 455 *~ 0.3;
#X obj 416 489 *~ 0.5;
#X obj 59 100 r MIC;
#X obj 408 514 bp~ 8000 4;
#X obj 191 539 s_fplaytable2;
#X msg 191 511 PPC-G-Speech;
#X obj 235 560 *~ 2;
#X obj 191 560 *~ 2;
#X obj 99 286 metro 1000;
#X obj 99 374 f;
#X obj 126 374 + 1;
#X msg 197 339 0;
#X obj 99 399 mod 54;
#X obj 144 315 r inGeofence1;
#X obj 173 374 print inGeofence1Received;
#X obj 99 346 spigot 0;
#X obj 99 424 sel 8;
#X obj 440 665 throw~ FX-RETURN-R;
#X obj 408 690 throw~ FX-RETURN-L;
#X obj 408 433 *~ 1;
#X obj 131 228 switch~;
#X obj 131 208 pipe 2000;
#X obj 99 184 t f f;
#X connect 0 0 3 1;
#X connect 1 0 0 1;
#X connect 2 0 5 0;
#X connect 3 0 2 0;
#X connect 4 0 10 0;
#X connect 5 0 19 0;
#X connect 6 0 30 0;
#X connect 6 1 28 0;
#X connect 7 0 15 0;
#X connect 8 0 9 0;
#X connect 9 0 4 0;
#X connect 10 0 1 0;
#X connect 11 0 3 0;
#X connect 11 0 18 0;
#X connect 11 0 21 0;
#X connect 12 0 38 0;
#X connect 12 0 49 0;
#X connect 13 0 49 0;
#X connect 14 1 16 0;
#X connect 15 0 0 0;
#X connect 16 0 12 0;
#X connect 16 1 13 0;
#X connect 17 0 24 0;
#X connect 18 0 27 0;
#X connect 18 0 46 0;
#X connect 19 0 46 0;
#X connect 20 0 26 0;
#X connect 20 1 8 0;
#X connect 21 0 22 0;
#X connect 22 0 23 0;
#X connect 23 0 20 0;
#X connect 24 0 45 0;
#X connect 24 1 44 0;
#X connect 25 0 24 1;
#X connect 26 0 7 0;
#X connect 27 0 30 0;
#X connect 28 0 30 0;
#X connect 29 0 14 0;
#X connect 30 0 17 0;
#X connect 31 0 34 0;
#X connect 31 1 33 0;
#X connect 32 0 31 0;
#X connect 33 0 44 0;
#X connect 34 0 45 0;
#X connect 35 0 42 0;
#X connect 36 0 37 0;
#X connect 36 0 39 0;
#X connect 37 0 36 1;
#X connect 38 0 36 1;
#X connect 39 0 43 0;
#X connect 40 0 41 0;
#X connect 40 0 42 1;
#X connect 42 0 36 0;
#X connect 43 0 32 0;
#X connect 46 0 6 0;
#X connect 48 0 47 0;
#X connect 49 0 35 0;
#X connect 49 1 48 0;
#X restore 43 266 pd phasemod;
#N canvas 132 149 953 576 radio 0;
#X msg 141 228 clear \, start;
#X msg 397 78 1;
#X msg 432 78 0;
#X obj 357 33 list split 1;
#X obj 386 394 s_playtable;
#X obj 397 57 sel radio;
#X obj 66 95 catch~ radio;
#X obj 357 12 r MIC;
#X obj 175 330 noise~;
#X obj 175 356 hip~ 1000;
#X obj 231 411 *~;
#X obj 249 386 vline~;
#X obj 231 440 clip~ -0.5 0.5;
#X msg 249 274 bang;
#X obj 249 296 t b b;
#X obj 66 217 lop~ 700;
#X obj 66 147 hip~ 2000;
#X obj 175 376 lop~ 1500;
#X obj 66 167 hip~ 2000;
#X obj 66 187 hip~ 2000;
#X obj 386 419 e_bitcrusher;
#X obj 517 371 loadbang;
#X obj 141 143 a_onset 1024 13;
#X obj 167 413 *~ 0.2;
#X obj 249 328 del 2000;
#X obj 386 334 del 2350;
#X obj 66 237 lop~ 700;
#X obj 141 171 debounce 2000;
#X msg 249 355 0 \, 0.25 3 \, 0 3 300;
#X obj 66 279 u_record liverec1 1500;
#X msg 517 394 depth 3;
#X msg 577 394 dry 0.65;
#X obj 386 439 *~ 0.4;
#X msg 386 355 liverec1 3 0.9 0;
#X obj 397 123 switch~;
#X obj 231 539 throw~ FX-RETURN-L;
#X obj 386 539 throw~ FX-RETURN-R;
#X obj 397 102 pipe 2000;
#X connect 0 0 29 1;
#X connect 1 0 37 0;
#X connect 2 0 37 0;
#X connect 3 1 5 0;
#X connect 4 0 20 0;
#X connect 5 0 1 0;
#X connect 5 1 2 0;
#X connect 6 0 16 0;
#X connect 6 0 22 0;
#X connect 6 0 23 0;
#X connect 7 0 3 0;
#X connect 8 0 9 0;
#X connect 9 0 17 0;
#X connect 10 0 12 0;
#X connect 11 0 10 1;
#X connect 12 0 35 0;
#X connect 12 0 36 0;
#X connect 13 0 14 0;
#X connect 14 0 24 0;
#X connect 14 1 25 0;
#X connect 15 0 26 0;
#X connect 16 0 18 0;
#X connect 17 0 10 0;
#X connect 18 0 19 0;
#X connect 19 0 15 0;
#X connect 20 0 32 0;
#X connect 21 0 30 0;
#X connect 21 0 31 0;
#X connect 22 0 27 0;
#X connect 23 0 12 0;
#X connect 24 0 28 0;
#X connect 25 0 33 0;
#X connect 26 0 29 0;
#X connect 27 0 0 0;
#X connect 27 0 13 0;
#X connect 28 0 11 0;
#X connect 30 0 20 1;
#X connect 31 0 20 1;
#X connect 32 0 35 0;
#X connect 32 0 36 0;
#X connect 33 0 4 0;
#X connect 37 0 34 0;
#X restore 43 185 pd radio;
#N canvas 75 22 636 527 spacewobble 0;
#N canvas 0 22 1200 644 funkyverb 0;
#X obj 161 497 +~;
#X obj 520 105 inlet;
#X obj 184 407 *~;
#X obj 486 412 *~;
#X obj 285 412 *~;
#X obj 387 412 *~;
#X obj 443 546 -~;
#X obj 364 545 -~;
#X obj 239 537 +~;
#X obj 161 534 +~;
#X obj 162 444 +~;
#X obj 262 440 +~;
#X obj 464 501 -~;
#X obj 387 499 +~;
#X obj 239 500 -~;
#X obj 452 105 inlet;
#X obj 609 429 line~;
#X obj 509 374 line~;
#X obj 530 500 *~;
#X obj 599 501 *~;
#X obj 609 357 dbtorms;
#X obj 609 403 pack 0 30;
#X obj 520 211 pack 0 50;
#X obj 9 390 inlet~;
#X obj 530 525 outlet~;
#X obj 599 525 outlet~;
#X obj 520 187 / 200;
#X obj 520 162 clip 0 100;
#X obj 52 236 lop~;
#X obj 625 143 f \$3;
#X obj 696 143 f \$4;
#X obj 367 106 loadbang;
#X obj 625 167 moses 1;
#X msg 631 193 3000;
#X obj 705 193 clip 0 100;
#X obj 618 216 f;
#X obj 618 105 inlet;
#X obj 696 109 inlet;
#X obj 705 216 f;
#X obj 705 239 * 0.01;
#X obj 705 263 pack 0 50;
#X obj 705 287 line~;
#X obj 29 269 -~;
#X obj 28 300 *~;
#X obj 16 331 +~;
#X obj 132 240 lop~;
#X obj 106 274 -~;
#X obj 105 309 *~;
#X obj 95 333 +~;
#X obj 214 245 lop~;
#X obj 188 273 -~;
#X obj 187 314 *~;
#X obj 176 339 +~;
#X obj 308 249 lop~;
#X obj 281 274 -~;
#X obj 281 318 *~;
#X obj 258 342 +~;
#X obj 609 379 * 0.125;
#X text 403 10 control inlets:;
#X text 400 29 1: output level \, dB \, 0-100;
#X text 399 79 4: high frequency damping \, 0-100;
#X text 400 62 3: crossover frequency in Hz. (3000 default);
#X text 400 45 2: liveness \, 0-100 \, usually between 85 and 100;
#X obj 452 137 f 80;
#X obj 520 138 f 80;
#X obj 16 121 vd~ \$0-del1 58.6435;
#X obj 94 143 vd~ \$0-del2 69.4325;
#X obj 176 165 vd~ \$0-del3 74.5234;
#X obj 258 189 vd~ \$0-del4 86.1244;
#X obj 17 92 +~ 58.6435;
#X obj 97 102 +~ 69.4325;
#X obj 177 122 +~ 74.5234;
#X obj 257 142 +~ 86.1244;
#X obj 161 641 delwrite~ \$0-del1 62.6435;
#X obj 240 617 delwrite~ \$0-del2 73.4325;
#X obj 365 595 delwrite~ \$0-del3 78.5234;
#X obj 444 573 delwrite~ \$0-del4 90.1244;
#X obj 138 75 s~ \$0-ER;
#N canvas 345 88 355 597 early-reflect 0;
#X obj 119 477 delread~ \$0-ref6 13.645;
#X obj 119 453 delwrite~ \$0-ref6 13.645;
#X obj 106 400 delread~ \$0-ref5 16.364;
#X obj 106 376 delwrite~ \$0-ref5 16.364;
#X obj 102 324 delread~ \$0-ref4 19.392;
#X obj 102 300 delwrite~ \$0-ref4 19.392;
#X obj 106 247 delread~ \$0-ref3 25.796;
#X obj 106 223 delwrite~ \$0-ref3 25.796;
#X obj 107 169 delread~ \$0-ref2 43.5337;
#X obj 107 145 delwrite~ \$0-ref2 43.5337;
#X obj 84 119 -~;
#X obj 49 119 +~;
#X obj 50 195 +~;
#X obj 85 196 -~;
#X obj 84 275 -~;
#X obj 49 274 +~;
#X obj 82 349 -~;
#X obj 48 350 +~;
#X obj 83 428 -~;
#X obj 49 428 +~;
#X obj 65 7 inlet~;
#X obj 109 46 delwrite~ \$0-ref1 75.2546;
#X obj 49 508 outlet~;
#X obj 119 507 outlet~;
#X obj 228 22 r~ \$0-ER;
#X obj 110 90 vd~ \$0-ref1 75.2546;
#X obj 110 70 +~ 73.2546;
#X connect 0 0 23 0;
#X connect 2 0 19 1;
#X connect 2 0 18 1;
#X connect 4 0 17 1;
#X connect 4 0 16 1;
#X connect 6 0 15 1;
#X connect 6 0 14 1;
#X connect 8 0 12 1;
#X connect 8 0 13 1;
#X connect 10 0 9 0;
#X connect 11 0 13 0;
#X connect 11 0 12 0;
#X connect 12 0 15 0;
#X connect 12 0 14 0;
#X connect 13 0 7 0;
#X connect 14 0 5 0;
#X connect 15 0 17 0;
#X connect 15 0 16 0;
#X connect 16 0 3 0;
#X connect 17 0 19 0;
#X connect 17 0 18 0;
#X connect 18 0 1 0;
#X connect 19 0 22 0;
#X connect 20 0 11 0;
#X connect 20 0 10 0;
#X connect 20 0 21 0;
#X connect 24 0 26 0;
#X connect 25 0 11 1;
#X connect 25 0 10 1;
#X connect 26 0 25 0;
#X restore 9 416 pd early-reflect;
#X obj 17 51 *~ 8;
#X obj 17 32 osc~ 1;
#X connect 0 0 9 0;
#X connect 0 0 7 0;
#X connect 1 0 64 0;
#X connect 2 0 10 1;
#X connect 3 0 12 1;
#X connect 3 0 13 1;
#X connect 4 0 11 1;
#X connect 5 0 13 0;
#X connect 5 0 12 0;
#X connect 6 0 76 0;
#X connect 7 0 75 0;
#X connect 8 0 74 0;
#X connect 9 0 73 0;
#X connect 10 0 14 0;
#X connect 10 0 0 0;
#X connect 10 0 18 0;
#X connect 11 0 0 1;
#X connect 11 0 14 1;
#X connect 11 0 19 0;
#X connect 12 0 8 1;
#X connect 12 0 6 1;
#X connect 13 0 9 1;
#X connect 13 0 7 1;
#X connect 14 0 8 0;
#X connect 14 0 6 0;
#X connect 15 0 63 0;
#X connect 16 0 18 1;
#X connect 16 0 19 1;
#X connect 17 0 4 1;
#X connect 17 0 2 1;
#X connect 17 0 5 1;
#X connect 17 0 3 1;
#X connect 18 0 24 0;
#X connect 19 0 25 0;
#X connect 20 0 57 0;
#X connect 21 0 16 0;
#X connect 22 0 17 0;
#X connect 23 0 78 0;
#X connect 26 0 22 0;
#X connect 27 0 26 0;
#X connect 28 0 42 0;
#X connect 29 0 32 0;
#X connect 30 0 34 0;
#X connect 31 0 29 0;
#X connect 31 0 30 0;
#X connect 31 0 63 0;
#X connect 31 0 64 0;
#X connect 32 0 33 0;
#X connect 32 1 35 0;
#X connect 33 0 35 0;
#X connect 34 0 38 0;
#X connect 35 0 28 1;
#X connect 35 0 45 1;
#X connect 35 0 49 1;
#X connect 35 0 53 1;
#X connect 36 0 35 0;
#X connect 37 0 30 0;
#X connect 38 0 39 0;
#X connect 39 0 40 0;
#X connect 40 0 41 0;
#X connect 41 0 43 1;
#X connect 41 0 47 1;
#X connect 41 0 51 1;
#X connect 41 0 55 1;
#X connect 42 0 43 0;
#X connect 43 0 44 1;
#X connect 44 0 2 0;
#X connect 45 0 46 0;
#X connect 46 0 47 0;
#X connect 47 0 48 1;
#X connect 48 0 4 0;
#X connect 49 0 50 0;
#X connect 50 0 51 0;
#X connect 51 0 52 1;
#X connect 52 0 5 0;
#X connect 53 0 54 0;
#X connect 54 0 55 0;
#X connect 55 0 56 1;
#X connect 56 0 3 0;
#X connect 57 0 21 0;
#X connect 63 0 20 0;
#X connect 64 0 27 0;
#X connect 65 0 28 0;
#X connect 65 0 42 1;
#X connect 65 0 44 0;
#X connect 66 0 45 0;
#X connect 66 0 46 1;
#X connect 66 0 48 0;
#X connect 67 0 52 0;
#X connect 67 0 49 0;
#X connect 67 0 50 1;
#X connect 68 0 56 0;
#X connect 68 0 54 1;
#X connect 68 0 53 0;
#X connect 69 0 65 0;
#X connect 70 0 66 0;
#X connect 71 0 67 0;
#X connect 72 0 68 0;
#X connect 78 0 10 0;
#X connect 78 1 11 0;
#X connect 79 0 69 0;
#X connect 79 0 77 0;
#X connect 79 0 70 0;
#X connect 79 0 71 0;
#X connect 79 0 72 0;
#X connect 80 0 79 0;
#X restore 125 239 pd funkyverb;
#X msg 145 196 90;
#X msg 175 196 85;
#X msg 242 196 10;
#X obj 145 117 loadbang;
#X obj 125 277 clip~ -1 1;
#X obj 206 277 clip~ -1 1;
#X obj 180 435 throw~ REVERB;
#X obj 125 75 catch~ spacewobble;
#X msg 407 80 1;
#X msg 442 80 0;
#X obj 367 38 list split 1;
#X obj 407 59 sel spacewobble;
#X obj 125 403 throw~ FX-RETURN-L;
#X obj 206 383 throw~ FX-RETURN-R;
#X msg 205 196 3000;
#X obj 206 355 hip~ 600;
#X obj 125 356 hip~ 600;
#X obj 367 17 r MIC;
#X obj 206 310 *~ 2;
#X obj 125 310 *~ 2;
#X obj 407 123 switch~;
#X obj 407 103 pipe 2000;
#X connect 0 0 5 0;
#X connect 0 1 6 0;
#X connect 1 0 0 1;
#X connect 2 0 0 2;
#X connect 3 0 0 4;
#X connect 4 0 1 0;
#X connect 4 0 2 0;
#X connect 4 0 15 0;
#X connect 4 0 3 0;
#X connect 5 0 20 0;
#X connect 6 0 19 0;
#X connect 8 0 0 0;
#X connect 9 0 22 0;
#X connect 10 0 22 0;
#X connect 11 1 12 0;
#X connect 12 0 9 0;
#X connect 12 1 10 0;
#X connect 15 0 0 3;
#X connect 16 0 14 0;
#X connect 17 0 13 0;
#X connect 18 0 11 0;
#X connect 19 0 16 0;
#X connect 19 0 7 0;
#X connect 20 0 17 0;
#X connect 20 0 7 0;
#X connect 22 0 21 0;
#X restore 43 246 pd spacewobble;
#N canvas 132 39 801 714 contact 0;
#X obj 336 344 mtof;
#X obj 336 366 / 8.1758;
#X obj 336 440 line~;
#X obj 336 531 +~ 1;
#X obj 336 469 phasor~ 1;
#X obj 336 409 pack 0 100;
#X msg 243 249 0;
#X msg 283 249 4;
#X msg 320 248 5;
#X msg 357 248 7;
#X msg 397 248 11;
#X msg 436 248 12;
#X obj 285 198 select 0 1 2 3 4 5;
#X obj 285 178 random 6;
#X obj 285 45 metro 1000;
#X obj 473 494 +~ 1;
#X obj 473 444 phasor~ 1;
#X obj 473 422 line~;
#X obj 155 390 mtof;
#X obj 155 412 / 8.1758;
#X obj 155 464 line~;
#X obj 155 551 +~ 1;
#X obj 155 500 phasor~ 1;
#X obj 155 433 pack 0 100;
#X msg 62 323 0;
#X msg 102 323 4;
#X msg 139 322 5;
#X msg 176 322 7;
#X msg 216 322 11;
#X msg 250 322 12;
#X obj 104 272 select 0 1 2 3 4 5;
#X obj 104 233 random 6;
#X obj 473 355 mtof;
#X obj 473 377 / 8.1758;
#X obj 473 399 pack 0 100;
#X msg 473 262 -12;
#X msg 491 283 -12;
#X msg 509 262 -12;
#X msg 528 283 -5;
#X msg 546 262 -5;
#X msg 564 283 -15;
#X msg 583 262 -7;
#X msg 601 283 -7;
#X msg 619 262 -3;
#X obj 473 242 select 0 1 2 3 4 5 6 7 8;
#X obj 473 220 random 9;
#X obj 285 0 loadbang;
#X obj 336 647 throw~ FX-RETURN-L;
#X obj 385 667 throw~ FX-RETURN-R;
#X obj 155 524 *~ 22050;
#X obj 336 504 *~ 22050;
#X obj 473 467 *~ 22050;
#X obj 105 22 catch~ contact;
#X msg 585 95 1;
#X msg 620 95 0;
#X obj 585 180 switch~;
#X obj 545 53 list split 1;
#X obj 585 74 sel contact;
#X obj 545 32 r MIC;
#X obj 292 24 r contact-metro;
#X obj 120 133 f;
#X obj 150 133 + 1;
#X obj 120 154 mod 2;
#X obj 120 175 sel 0;
#X obj 473 159 f;
#X obj 503 159 + 1;
#X obj 473 201 sel 0;
#X obj 473 180 mod 4;
#X obj 265 677 throw~ REVERB;
#X obj 265 658 *~ 0.75;
#X obj 336 622 *~ 1.6;
#X obj 585 118 pipe 2000;
#X obj 652 162 s contact-metro;
#X obj 105 198 tabwrite~ \$0-contact;
#X obj 155 578 tabread4~ \$0-contact;
#X obj 336 554 tabread4~ \$0-contact;
#X obj 473 517 tabread4~ \$0-contact;
#X obj 544 4 table \$0-contact 44103;
#X obj 585 139 t f f f;
#X obj 608 162 sel 0;
#X msg 608 199 const 0;
#X obj 608 220 s \$0-contact;
#X connect 0 0 1 0;
#X connect 1 0 5 0;
#X connect 2 0 4 0;
#X connect 3 0 75 0;
#X connect 4 0 50 0;
#X connect 5 0 2 0;
#X connect 6 0 0 0;
#X connect 7 0 0 0;
#X connect 8 0 0 0;
#X connect 9 0 0 0;
#X connect 10 0 0 0;
#X connect 11 0 0 0;
#X connect 12 0 6 0;
#X connect 12 1 7 0;
#X connect 12 2 8 0;
#X connect 12 3 9 0;
#X connect 12 4 10 0;
#X connect 12 5 11 0;
#X connect 13 0 12 0;
#X connect 14 0 13 0;
#X connect 14 0 31 0;
#X connect 14 0 60 0;
#X connect 14 0 64 0;
#X connect 15 0 76 0;
#X connect 16 0 51 0;
#X connect 17 0 16 0;
#X connect 18 0 19 0;
#X connect 19 0 23 0;
#X connect 20 0 22 0;
#X connect 21 0 74 0;
#X connect 22 0 49 0;
#X connect 23 0 20 0;
#X connect 24 0 18 0;
#X connect 25 0 18 0;
#X connect 26 0 18 0;
#X connect 27 0 18 0;
#X connect 28 0 18 0;
#X connect 29 0 18 0;
#X connect 30 0 24 0;
#X connect 30 1 25 0;
#X connect 30 2 26 0;
#X connect 30 3 27 0;
#X connect 30 4 28 0;
#X connect 30 5 29 0;
#X connect 31 0 30 0;
#X connect 32 0 33 0;
#X connect 33 0 34 0;
#X connect 34 0 17 0;
#X connect 35 0 32 0;
#X connect 36 0 32 0;
#X connect 37 0 32 0;
#X connect 38 0 32 0;
#X connect 39 0 32 0;
#X connect 40 0 32 0;
#X connect 41 0 32 0;
#X connect 42 0 32 0;
#X connect 43 0 32 0;
#X connect 44 0 35 0;
#X connect 44 1 36 0;
#X connect 44 2 37 0;
#X connect 44 3 38 0;
#X connect 44 4 39 0;
#X connect 44 5 40 0;
#X connect 44 6 41 0;
#X connect 44 7 42 0;
#X connect 44 8 43 0;
#X connect 45 0 44 0;
#X connect 46 0 14 0;
#X connect 49 0 21 0;
#X connect 50 0 3 0;
#X connect 51 0 15 0;
#X connect 52 0 73 0;
#X connect 53 0 71 0;
#X connect 54 0 71 0;
#X connect 56 1 57 0;
#X connect 57 0 53 0;
#X connect 57 1 54 0;
#X connect 58 0 56 0;
#X connect 59 0 14 0;
#X connect 60 0 61 0;
#X connect 60 0 62 0;
#X connect 61 0 60 1;
#X connect 62 0 63 0;
#X connect 63 0 73 0;
#X connect 64 0 65 0;
#X connect 64 0 67 0;
#X connect 65 0 64 1;
#X connect 66 0 45 0;
#X connect 67 0 66 0;
#X connect 69 0 68 0;
#X connect 70 0 47 0;
#X connect 70 0 48 0;
#X connect 70 0 69 0;
#X connect 71 0 78 0;
#X connect 74 0 70 0;
#X connect 75 0 70 0;
#X connect 76 0 70 0;
#X connect 78 0 55 0;
#X connect 78 1 79 0;
#X connect 78 2 72 0;
#X connect 79 0 80 0;
#X connect 80 0 81 0;
#X restore 42 387 pd contact;
#N canvas 80 22 1200 720 whispers 0;
#X msg 952 395 1;
#X msg 987 395 0;
#X obj 975 463 switch~;
#X obj 912 346 list split 1;
#X obj 912 322 r MIC;
#X obj 77 230 catch~ whispers;
#X obj 952 372 sel whispers;
#X obj 302 732 s_playtable;
#X msg 318 451 clear \, bang;
#X obj 512 731 s_playtable;
#X obj 280 59 random 2;
#X obj 280 80 select 0;
#X obj 280 254 s timing;
#X obj 391 14 r timing;
#X msg 378 105 bang;
#X obj 378 256 s timing;
#X obj 280 231 * 1;
#X obj 378 235 * 0.6;
#X msg 302 294 bang;
#X msg 612 300 bang;
#X obj 280 38 metro 1500;
#X obj 280 132 random 300;
#X obj 378 130 random 400;
#X obj 446 147 c_lfo whispers-lfo 0.01 50 sine;
#X msg 645 724 dry 0.6 \, decay_diffusion2 0.74 \, decay_diffusion1
0.889 \, input_diffusion2 0.779 \, excursion 0 \, input_diffusion1
0.685 \, decay 0.89 \, damping 4637 \, bandwidth 10000 \, predelay
10 \,;
#X obj 645 697 loadbang;
#X obj 302 861 throw~ FX-RETURN-L;
#X obj 442 861 throw~ FX-RETURN-R;
#X obj 329 538 random 2;
#X obj 329 563 / 2;
#X obj 329 587 + 0.5;
#X obj 413 423 + 0.5;
#X obj 413 399 / 10;
#X msg 612 663 whisper-\$1 \$3 \$2;
#X obj 121 328 r just-recorded-whisper;
#X msg 153 448 set \$1;
#X obj 202 539 list prepend;
#X obj 202 563 list trim;
#X obj 202 586 route 1 0;
#X obj 121 357 t b f;
#X msg 239 468 0;
#X msg 208 468 1;
#X msg 202 658 whisper-\$1;
#X obj 512 539 list prepend;
#X obj 512 563 list trim;
#X obj 512 586 route 1 0;
#X msg 512 658 whisper-\$1;
#X obj 208 378 del 500;
#X obj 208 403 t b b b;
#X msg 247 425 stop;
#X obj 322 394 sel 0;
#X obj 302 323 t b b b b;
#X msg 396 538 -1;
#X msg 428 538 500;
#X obj 322 424 t b b;
#X msg 302 663 whisper-\$1 \$3 \$2 \$4;
#X obj 302 633 pack f f f f;
#X msg 461 538 0;
#X obj 363 424 t b b;
#X msg 625 450 clear \, bang;
#X obj 639 524 random 2;
#X obj 639 549 / 2;
#X obj 639 573 + 0.5;
#X obj 730 423 + 0.5;
#X obj 730 374 random 5;
#X obj 730 399 / 10;
#X obj 629 394 sel 0;
#X obj 612 323 t b b b b;
#X msg 706 523 -1;
#X msg 738 523 500;
#X obj 629 424 t b b;
#X obj 612 633 pack f f f f;
#X msg 771 523 0;
#X obj 670 424 t b b;
#X obj 446 177 * 500;
#X obj 378 208 +;
#X obj 280 207 +;
#X obj 302 831 *~ 0.2;
#X obj 442 830 *~ 0.2;
#X obj 235 446 del 4000;
#X obj 322 370 random 4;
#X obj 413 374 random 5;
#X obj 629 370 random 4;
#X obj 458 256 r just-recorded-whisper;
#X obj 458 278 moses 0;
#X text 5 495 Play only the most recently;
#X text 5 511 recorded whisper for 4 seconds;
#X text 347 65 Random timing engine. From algorithmiccomposer.com;
#X text 491 178 Gently oscillate sparsity of the samples;
#X msg 280 106 bang;
#X text 632 250 Increase the urn with every whisper recorded \, but
only for the first run;
#X obj 952 593 line;
#X obj 302 472 c_urn 2;
#X obj 497 315 moses 2;
#X obj 612 472 c_urn 2;
#X obj 536 337 + 1;
#X obj 536 357 t f f;
#X obj 520 278 t f f;
#X obj 378 168 + 200;
#X obj 280 167 + 200;
#N canvas 0 67 1200 508 record-samples 0;
#X msg 189 336 clear \, start;
#X obj 123 315 t b b;
#X obj 59 45 inlet~;
#X msg 123 357 normalize;
#X msg 359 336 clear \, start;
#X obj 293 315 t b b;
#X msg 293 357 normalize;
#X obj 59 377 *~ 1;
#X obj 123 113 debounce 500;
#X obj 192 177 f;
#X obj 219 177 + 1;
#X obj 123 230 list prepend;
#X obj 123 255 list trim;
#X obj 123 336 del 500;
#X obj 293 336 del 500;
#X msg 549 336 clear \, start;
#X obj 483 315 t b b;
#X msg 483 357 normalize;
#X obj 483 336 del 500;
#X obj 59 442 u_record whisper-0 500;
#X obj 249 442 u_record whisper-1 500;
#X obj 439 442 u_record whisper-2 500;
#X obj 123 81 a_onset 1024 13;
#X msg 749 337 clear \, start;
#X obj 683 316 t b b;
#X msg 683 358 normalize;
#X msg 919 337 clear \, start;
#X obj 853 316 t b b;
#X msg 853 358 normalize;
#X obj 683 337 del 500;
#X obj 853 337 del 500;
#X msg 1109 337 clear \, start;
#X obj 1043 316 t b b;
#X msg 1043 358 normalize;
#X obj 1043 337 del 500;
#X obj 619 443 u_record whisper-3 500;
#X obj 809 443 u_record whisper-4 500;
#X obj 999 443 u_record whisper-5 500;
#X obj 123 283 route 0 1 2 3 4 5 6;
#X obj 192 201 mod 6;
#X msg 123 141 bang;
#X obj 248 235 s just-recorded-whisper;
#X obj 58 177 lop~ 2500;
#X obj 58 197 lop~ 2500;
#X text 464 136 Alternately record into 6 buffers...;
#X connect 0 0 19 1;
#X connect 1 0 13 0;
#X connect 1 1 0 0;
#X connect 2 0 22 0;
#X connect 2 0 42 0;
#X connect 3 0 19 1;
#X connect 4 0 20 1;
#X connect 5 0 14 0;
#X connect 5 1 4 0;
#X connect 6 0 20 1;
#X connect 7 0 19 0;
#X connect 7 0 20 0;
#X connect 7 0 21 0;
#X connect 7 0 35 0;
#X connect 7 0 36 0;
#X connect 7 0 37 0;
#X connect 8 0 40 0;
#X connect 9 0 10 0;
#X connect 9 0 39 0;
#X connect 10 0 9 1;
#X connect 11 0 12 0;
#X connect 12 0 38 0;
#X connect 13 0 3 0;
#X connect 14 0 6 0;
#X connect 15 0 21 1;
#X connect 16 0 18 0;
#X connect 16 1 15 0;
#X connect 17 0 21 1;
#X connect 18 0 17 0;
#X connect 22 0 8 0;
#X connect 23 0 35 1;
#X connect 24 0 29 0;
#X connect 24 1 23 0;
#X connect 25 0 35 1;
#X connect 26 0 36 1;
#X connect 27 0 30 0;
#X connect 27 1 26 0;
#X connect 28 0 36 1;
#X connect 29 0 25 0;
#X connect 30 0 28 0;
#X connect 31 0 37 1;
#X connect 32 0 34 0;
#X connect 32 1 31 0;
#X connect 33 0 37 1;
#X connect 34 0 33 0;
#X connect 38 0 1 0;
#X connect 38 1 5 0;
#X connect 38 2 16 0;
#X connect 38 3 24 0;
#X connect 38 4 27 0;
#X connect 38 5 32 0;
#X connect 39 0 11 1;
#X connect 39 0 41 0;
#X connect 40 0 9 0;
#X connect 40 0 11 0;
#X connect 42 0 43 0;
#X connect 43 0 7 0;
#X restore 77 266 pd record-samples;
#X obj 952 541 pack f 15000;
#X msg 660 128 on \$1;
#X obj 280 14 r whisper-metro;
#X obj 660 108 r whisper-metro;
#X obj 998 484 s whisper-metro;
#X obj 952 518 moses 1;
#X text 748 449 Random amplitude \, direction;
#X text 741 463 and pitch of sample playback;
#X obj 202 630 f;
#X obj 512 634 f;
#X obj 302 803 e_platereverb;
#X obj 952 423 pipe 2000;
#X obj 952 443 t f f f;
#X obj 998 560 pack f 2000;
#X connect 0 0 112 0;
#X connect 1 0 112 0;
#X connect 3 1 6 0;
#X connect 4 0 3 0;
#X connect 5 0 100 0;
#X connect 6 0 0 0;
#X connect 6 1 1 0;
#X connect 7 0 111 0;
#X connect 8 0 92 0;
#X connect 9 0 111 1;
#X connect 10 0 11 0;
#X connect 11 0 89 0;
#X connect 11 1 14 0;
#X connect 13 0 20 1;
#X connect 14 0 22 0;
#X connect 16 0 12 0;
#X connect 16 0 18 0;
#X connect 17 0 15 0;
#X connect 17 0 19 0;
#X connect 18 0 51 0;
#X connect 19 0 67 0;
#X connect 20 0 10 0;
#X connect 21 0 99 0;
#X connect 22 0 98 0;
#X connect 23 0 74 0;
#X connect 24 0 111 2;
#X connect 25 0 24 0;
#X connect 28 0 29 0;
#X connect 29 0 30 0;
#X connect 30 0 56 1;
#X connect 31 0 56 2;
#X connect 32 0 31 0;
#X connect 33 0 9 0;
#X connect 34 0 39 0;
#X connect 35 0 109 0;
#X connect 35 0 110 0;
#X connect 36 0 37 0;
#X connect 37 0 38 0;
#X connect 38 0 109 0;
#X connect 38 1 56 0;
#X connect 39 0 47 0;
#X connect 39 1 35 0;
#X connect 40 0 36 1;
#X connect 40 0 43 1;
#X connect 41 0 36 1;
#X connect 41 0 43 1;
#X connect 42 0 7 0;
#X connect 43 0 44 0;
#X connect 44 0 45 0;
#X connect 45 0 110 0;
#X connect 45 1 71 0;
#X connect 46 0 9 0;
#X connect 47 0 48 0;
#X connect 48 0 41 0;
#X connect 48 1 79 0;
#X connect 48 2 49 0;
#X connect 49 0 79 0;
#X connect 50 0 54 0;
#X connect 50 1 58 0;
#X connect 51 0 92 0;
#X connect 51 1 80 0;
#X connect 51 2 81 0;
#X connect 52 0 56 1;
#X connect 53 0 56 3;
#X connect 54 0 52 0;
#X connect 54 1 53 0;
#X connect 55 0 7 0;
#X connect 56 0 55 0;
#X connect 57 0 56 3;
#X connect 58 0 28 0;
#X connect 58 1 57 0;
#X connect 59 0 94 0;
#X connect 60 0 61 0;
#X connect 61 0 62 0;
#X connect 62 0 71 1;
#X connect 63 0 71 2;
#X connect 64 0 65 0;
#X connect 65 0 63 0;
#X connect 66 0 70 0;
#X connect 66 1 73 0;
#X connect 67 0 94 0;
#X connect 67 1 82 0;
#X connect 67 2 64 0;
#X connect 68 0 71 1;
#X connect 69 0 71 3;
#X connect 70 0 68 0;
#X connect 70 1 69 0;
#X connect 71 0 33 0;
#X connect 72 0 71 3;
#X connect 73 0 60 0;
#X connect 73 1 72 0;
#X connect 74 0 75 1;
#X connect 74 0 76 1;
#X connect 75 0 17 0;
#X connect 76 0 16 0;
#X connect 77 0 26 0;
#X connect 78 0 27 0;
#X connect 79 0 40 0;
#X connect 80 0 50 0;
#X connect 81 0 32 0;
#X connect 82 0 66 0;
#X connect 83 0 84 0;
#X connect 84 1 97 0;
#X connect 89 0 21 0;
#X connect 91 0 77 1;
#X connect 91 0 78 1;
#X connect 92 0 36 0;
#X connect 92 1 8 0;
#X connect 93 1 95 0;
#X connect 94 0 43 0;
#X connect 94 1 59 0;
#X connect 95 0 96 0;
#X connect 96 0 92 1;
#X connect 96 1 94 1;
#X connect 97 0 84 1;
#X connect 97 1 93 0;
#X connect 98 0 75 0;
#X connect 99 0 76 0;
#X connect 101 0 91 0;
#X connect 102 0 23 1;
#X connect 103 0 20 0;
#X connect 104 0 102 0;
#X connect 106 0 101 0;
#X connect 106 1 114 0;
#X connect 109 0 42 0;
#X connect 110 0 46 0;
#X connect 111 0 77 0;
#X connect 111 1 78 0;
#X connect 112 0 113 0;
#X connect 113 0 106 0;
#X connect 113 1 2 0;
#X connect 113 2 105 0;
#X connect 114 0 91 0;
#X restore 43 347 pd whispers;
#N canvas 76 28 568 464 platereverb 0;
#X msg 261 93 1;
#X msg 296 93 0;
#X obj 221 51 list split 1;
#X obj 221 30 r MIC;
#X obj 93 349 throw~ FX-RETURN-R;
#X obj 49 380 throw~ FX-RETURN-L;
#X obj 49 304 e_platereverb;
#X obj 114 213 loadbang;
#X obj 261 72 sel platereverb;
#X obj 49 121 catch~ platereverb;
#X msg 114 240 dry 0.2 \, decay_diffusion2 0.74 \, decay_diffusion1
0.889 \, input_diffusion2 0.779 \, excursion 0 \, input_diffusion1
0.685 \, decay 0.96 \, damping 4637 \, bandwidth 10000 \, predelay
10 \,;
#X obj 261 140 switch~;
#X obj 261 120 pipe 2000;
#X connect 0 0 12 0;
#X connect 1 0 12 0;
#X connect 2 1 8 0;
#X connect 3 0 2 0;
#X connect 6 0 5 0;
#X connect 6 1 4 0;
#X connect 7 0 10 0;
#X connect 8 0 0 0;
#X connect 8 1 1 0;
#X connect 9 0 6 0;
#X connect 9 0 6 1;
#X connect 10 0 6 2;
#X connect 12 0 11 0;
#X restore 43 286 pd platereverb;
#N canvas 86 24 852 672 panned-and-pitched 0;
#X msg 379 112 1;
#X msg 414 112 0;
#X obj 379 158 t f f;
#X obj 379 182 switch~;
#X obj 339 70 list split 1;
#X obj 339 49 r MIC;
#X obj 73 623 throw~ FX-RETURN-R;
#X obj 41 644 throw~ FX-RETURN-L;
#X obj 41 161 catch~ panned-and-pitched;
#X obj 379 91 sel panned-and-pitched;
#X obj 41 589 e_pan;
#X obj 41 550 e_pitchshift;
#X msg 110 527 pitch \$1;
#X obj 110 481 * 12;
#X obj 110 504 - 6;
#X obj 146 385 delwrite~ pap-del 300;
#X obj 284 322 * 250;
#X obj 284 346 + 50;
#X obj 135 344 + 0.6;
#X obj 96 396 *~ 0.4;
#X obj 146 406 e_noclickdel pap-del;
#X msg 341 338 48;
#X obj 341 314 loadbang;
#X obj 247 293 c_lfo pap-pan 0.2 50 tri;
#X obj 41 260 *~;
#X obj 118 307 lop~ 10;
#X obj 118 263 c_lfo pap-vol 0.02 50 sine;
#X obj 118 284 * 0.9;
#X msg 412 223 on \$1;
#X obj 379 138 pipe 2000;
#X connect 0 0 29 0;
#X connect 1 0 29 0;
#X connect 2 0 3 0;
#X connect 2 1 28 0;
#X connect 4 1 9 0;
#X connect 5 0 4 0;
#X connect 8 0 24 0;
#X connect 9 0 0 0;
#X connect 9 1 1 0;
#X connect 10 0 7 0;
#X connect 10 1 6 0;
#X connect 11 0 10 0;
#X connect 12 0 11 1;
#X connect 13 0 14 0;
#X connect 14 0 12 0;
#X connect 16 0 17 0;
#X connect 17 0 20 0;
#X connect 18 0 19 1;
#X connect 19 0 11 0;
#X connect 19 0 15 0;
#X connect 20 0 19 0;
#X connect 21 0 20 1;
#X connect 22 0 21 0;
#X connect 23 0 10 1;
#X connect 23 0 13 0;
#X connect 23 0 18 0;
#X connect 23 0 16 0;
#X connect 24 0 15 0;
#X connect 24 0 11 0;
#X connect 25 0 24 1;
#X connect 26 0 27 0;
#X connect 27 0 25 0;
#X connect 28 0 26 1;
#X connect 28 0 23 1;
#X connect 29 0 2 0;
#X restore 42 508 pd panned-and-pitched;
#N canvas 122 22 599 707 omen 0;
#X obj 406 206 bang;
#X obj 406 183 metro 2000;
#X obj 62 650 throw~ FX-RETURN-L;
#X obj 333 651 throw~ FX-RETURN-R;
#X msg 172 91 1;
#X msg 207 91 0;
#X obj 172 160 switch~;
#X obj 132 49 list split 1;
#X obj 132 28 r MIC;
#X obj 172 70 sel omen;
#X obj 419 287 catch~ omen;
#X obj 62 220 osc~ 0.1;
#X obj 300 327 snapshot~;
#X obj 300 307 metro 50;
#X obj 62 241 +~ 2;
#X obj 300 431 sig~;
#X obj 300 369 -;
#X obj 182 581 throw~ REVERB;
#X obj 301 613 e_pan;
#X obj 62 613 e_pan;
#X obj 123 441 / 100;
#X msg 243 434 on \$1;
#X obj 122 461 c_lfo MYLFO2 1 50 sine;
#X obj 124 399 loadbang;
#X obj 333 570 swap 1;
#X obj 333 590 -;
#X msg 124 420 7;
#X obj 62 180 * 0.5;
#X obj 62 201 + 0.01;
#X obj 62 262 *~ 0.35;
#X obj 300 390 * 0.35;
#X obj 301 451 phasor~ -1;
#X obj 300 348 swap 4;
#X msg 368 236 0;
#X obj 62 325 *~ 44100;
#X obj 62 304 phasor~ 0.5;
#X obj 62 283 *~ 0.5;
#X obj 301 472 *~ 44100;
#X obj 300 411 * 0.5;
#X obj 62 346 +~ 1;
#X obj 301 493 +~ 1;
#X obj 182 560 *~ 0.45;
#X obj 62 462 *~ 1.5;
#X obj 301 533 *~ 1.5;
#X obj 172 117 pipe 2000;
#X obj 172 138 t f f f f f;
#X obj 391 18 table \$0-omen 44103;
#X obj 301 512 tabread4~ \$0-omen;
#X obj 62 367 tabread4~ \$0-omen;
#X obj 189 222 s \$0-omen;
#X obj 189 182 sel 0;
#X obj 406 319 tabwrite~ \$0-omen;
#X msg 189 201 const 0;
#X connect 0 0 33 0;
#X connect 0 0 51 0;
#X connect 1 0 0 0;
#X connect 4 0 44 0;
#X connect 5 0 44 0;
#X connect 7 1 9 0;
#X connect 8 0 7 0;
#X connect 9 0 4 0;
#X connect 9 1 5 0;
#X connect 10 0 51 0;
#X connect 11 0 14 0;
#X connect 12 0 32 0;
#X connect 13 0 12 0;
#X connect 14 0 12 0;
#X connect 14 0 29 0;
#X connect 15 0 31 0;
#X connect 16 0 30 0;
#X connect 18 0 2 0;
#X connect 18 1 3 0;
#X connect 19 0 2 0;
#X connect 19 1 3 0;
#X connect 20 0 22 0;
#X connect 21 0 22 1;
#X connect 22 0 19 1;
#X connect 22 0 24 0;
#X connect 22 0 27 0;
#X connect 23 0 26 0;
#X connect 24 0 25 0;
#X connect 24 1 25 1;
#X connect 25 0 18 1;
#X connect 26 0 20 0;
#X connect 27 0 28 0;
#X connect 28 0 11 0;
#X connect 29 0 36 0;
#X connect 30 0 38 0;
#X connect 31 0 37 0;
#X connect 32 0 16 0;
#X connect 32 1 16 1;
#X connect 33 0 31 1;
#X connect 33 0 35 1;
#X connect 34 0 39 0;
#X connect 35 0 34 0;
#X connect 36 0 35 0;
#X connect 37 0 40 0;
#X connect 38 0 15 0;
#X connect 39 0 48 0;
#X connect 40 0 47 0;
#X connect 41 0 17 0;
#X connect 42 0 19 0;
#X connect 42 0 41 0;
#X connect 43 0 18 0;
#X connect 43 0 41 0;
#X connect 44 0 45 0;
#X connect 45 0 6 0;
#X connect 45 1 50 0;
#X connect 45 2 21 0;
#X connect 45 3 13 0;
#X connect 45 4 1 0;
#X connect 47 0 43 0;
#X connect 48 0 42 0;
#X connect 50 0 52 0;
#X connect 52 0 49 0;
#X restore 42 407 pd omen;
#X obj 906 184 r stopInterfaceMusic;
#X obj 907 48 r startInterfaceMusic;
#X obj 919 216 print stoppingInterfaceMusic;
#X obj 954 93 print startingInterfaceMusic;
#N canvas 187 22 715 718 cutter 0;
#X obj 279 208 e_repeater;
#X msg 292 175 num 0;
#X obj 489 97 sel 1 2 3 4 5 6 7;
#X msg 405 152 dry \$1;
#X obj 405 132 line;
#X obj 292 156 loadbang;
#X obj 406 67 swap 1;
#X obj 406 89 -;
#X msg 588 265 566.038;
#X msg 555 220 283.019;
#X msg 522 175 141.509;
#X msg 489 130 70.7547;
#X msg 572 243 424.528;
#X msg 538 198 212.264;
#X msg 505 153 106.132;
#X obj 279 646 e_pan;
#X obj 345 444 metro;
#X obj 345 485 f;
#X obj 376 485 + 1;
#X obj 345 507 mod 2;
#X msg 345 420 1;
#X msg 391 420 0;
#X obj 345 528 - 0.5;
#X obj 345 570 + 0.5;
#X obj 345 549 *;
#X obj 345 399 t b f b;
#X obj 489 299 s repeat-time;
#X obj 345 379 r repeat-time;
#X obj 346 183 r repeat-time;
#X obj 323 260 line;
#X obj 279 281 e_lop2 1000 2;
#X obj 406 112 pack f 500;
#X obj 323 133 sel 1;
#X obj 291 354 delread~ \$0-cutterdelay 566.038;
#X obj 291 311 *~ 1;
#X obj 396 259 swap 1;
#X obj 396 280 -;
#X obj 326 311 r repeat-time;
#X msg 355 215 100 1000;
#X obj 489 75 + 1;
#X obj 489 54 random 7;
#X obj 182 521 e_pitchshift;
#X msg 263 502 pitch \$1;
#X obj 263 482 f;
#X obj 181 542 lop~ 3000;
#X obj 279 626 lop~ 10000;
#X obj 291 333 delwrite~ \$0-cutterdelay 567;
#X obj 211 353 *~ 0.5;
#X obj 211 334 lop~ 800;
#N canvas 465 22 387 365 lfo 0;
#X obj 114 157 moses 100;
#X obj 124 184 swap 200;
#X obj 124 205 -;
#X obj 114 116 f;
#X obj 146 116 + 1;
#X obj 114 137 mod 200;
#X obj 114 234 / 100;
#X obj 114 255 outlet;
#X obj 114 93 inlet;
#X connect 0 0 6 0;
#X connect 0 1 1 0;
#X connect 1 0 2 0;
#X connect 1 1 2 1;
#X connect 2 0 6 0;
#X connect 3 0 4 0;
#X connect 3 0 5 0;
#X connect 4 0 3 1;
#X connect 5 0 0 0;
#X connect 6 0 7 0;
#X connect 8 0 3 0;
#X restore 391 506 pd lfo;
#X obj 345 465 t b b;
#X obj 311 666 throw~ FX-RETURN-R;
#X obj 279 684 throw~ FX-RETURN-L;
#X obj 279 77 catch~ cutter;
#X obj 176 164 change;
#X obj 176 122 env~ 128;
#X obj 176 188 moses 1;
#X obj 176 251 pipe 10000;
#X msg 220 230 clear;
#X obj 188 209 t f b;
#X obj 389 -14 r drumbutton;
#X obj 489 34 sel 1;
#X obj 389 7 t f f b f f f;
#X obj 176 292 s drumbutton;
#X obj 98 267 swap 0;
#X obj 98 288 -;
#X obj 98 393 line;
#X obj 98 414 int;
#X obj 98 309 max 0;
#X obj 98 350 - 13;
#X obj 98 329 * 41;
#X obj 98 184 sel 1;
#X obj 98 205 random 100;
#X obj 98 226 - 50;
#X obj 98 247 / 100;
#X msg 98 372 \$1 10000;
#X obj 176 143 > 96;
#X obj 279 399 hip~ 550;
#X msg 54 55 1;
#X msg 85 55 0;
#X obj 54 101 switch~;
#X obj 14 11 list split 1;
#X obj 14 -10 r MIC;
#X obj 54 32 sel cutter;
#X obj 279 421 *~ 1.5;
#X obj 231 208 *~ 0.5;
#X msg 323 235 300 \, 7000 10000;
#X obj 54 80 pipe 2000;
#X connect 0 0 30 0;
#X connect 1 0 0 1;
#X connect 2 0 11 0;
#X connect 2 1 14 0;
#X connect 2 2 10 0;
#X connect 2 3 13 0;
#X connect 2 4 9 0;
#X connect 2 5 12 0;
#X connect 2 6 8 0;
#X connect 3 0 0 1;
#X connect 4 0 3 0;
#X connect 5 0 1 0;
#X connect 6 0 7 0;
#X connect 6 1 7 1;
#X connect 7 0 31 0;
#X connect 8 0 26 0;
#X connect 9 0 26 0;
#X connect 10 0 26 0;
#X connect 11 0 26 0;
#X connect 12 0 26 0;
#X connect 13 0 26 0;
#X connect 14 0 26 0;
#X connect 15 0 52 0;
#X connect 15 1 51 0;
#X connect 16 0 43 0;
#X connect 16 0 50 0;
#X connect 17 0 18 0;
#X connect 17 0 19 0;
#X connect 18 0 17 1;
#X connect 19 0 22 0;
#X connect 20 0 16 0;
#X connect 21 0 16 0;
#X connect 21 0 17 1;
#X connect 22 0 24 0;
#X connect 23 0 15 1;
#X connect 24 0 23 0;
#X connect 25 0 20 0;
#X connect 25 1 16 1;
#X connect 25 2 21 0;
#X connect 27 0 25 0;
#X connect 28 0 0 1;
#X connect 29 0 30 1;
#X connect 30 0 34 0;
#X connect 30 0 77 0;
#X connect 31 0 4 0;
#X connect 32 0 86 0;
#X connect 32 1 38 0;
#X connect 33 0 48 0;
#X connect 34 0 46 0;
#X connect 35 0 36 0;
#X connect 35 1 36 1;
#X connect 36 0 34 1;
#X connect 37 0 33 0;
#X connect 38 0 29 0;
#X connect 39 0 2 0;
#X connect 40 0 39 0;
#X connect 41 0 44 0;
#X connect 42 0 41 1;
#X connect 43 0 42 0;
#X connect 44 0 45 0;
#X connect 45 0 15 0;
#X connect 47 0 46 0;
#X connect 47 0 77 0;
#X connect 48 0 47 0;
#X connect 49 0 24 1;
#X connect 50 0 17 0;
#X connect 50 1 49 0;
#X connect 53 0 55 0;
#X connect 53 0 0 0;
#X connect 53 0 85 0;
#X connect 54 0 56 0;
#X connect 55 0 76 0;
#X connect 56 0 57 0;
#X connect 56 1 59 0;
#X connect 57 0 63 0;
#X connect 58 0 57 0;
#X connect 59 0 63 0;
#X connect 59 1 58 0;
#X connect 60 0 62 0;
#X connect 61 0 40 0;
#X connect 62 1 6 0;
#X connect 62 3 61 0;
#X connect 62 4 32 0;
#X connect 62 5 35 0;
#X connect 64 0 65 0;
#X connect 64 1 65 1;
#X connect 65 0 68 0;
#X connect 66 0 67 0;
#X connect 67 0 43 1;
#X connect 68 0 70 0;
#X connect 69 0 75 0;
#X connect 70 0 69 0;
#X connect 71 0 72 0;
#X connect 72 0 73 0;
#X connect 73 0 74 0;
#X connect 74 0 64 0;
#X connect 75 0 66 0;
#X connect 76 0 54 0;
#X connect 76 0 71 0;
#X connect 77 0 84 0;
#X connect 78 0 87 0;
#X connect 79 0 87 0;
#X connect 81 1 83 0;
#X connect 82 0 81 0;
#X connect 83 0 78 0;
#X connect 83 1 79 0;
#X connect 84 0 41 0;
#X connect 84 0 45 0;
#X connect 85 0 30 0;
#X connect 86 0 29 0;
#X connect 87 0 80 0;
#X restore 42 427 pd cutter;
#N canvas 69 53 1002 671 q-drums 0;
#X msg 320 67 1;
#X msg 355 67 0;
#X obj 320 117 switch~;
#X obj 280 25 list split 1;
#X obj 280 4 r MIC;
#X obj 320 46 sel q-drums;
#X obj 151 280 sel 0;
#X obj 151 251 mod 256;
#X obj 251 466 e_repeater;
#X msg 449 380 num 0;
#X msg 532 350 dry \$1;
#X obj 532 330 line;
#X obj 449 241 loadbang;
#X obj 533 265 swap 1;
#X obj 533 287 -;
#X obj 612 299 + 1;
#X obj 612 258 sel 1;
#X obj 288 493 e_repeater;
#X msg 612 354 64.1026;
#X msg 628 377 128.205;
#X msg 645 399 256.41;
#X obj 533 310 pack f 100;
#X obj 533 86 catch~ q-drums;
#X obj 533 112 env~;
#X obj 533 179 change;
#X obj 533 149 > 85;
#X msg 152 343 PPC-Q;
#X obj 612 278 random 3;
#N canvas 275 111 552 488 record-samples 0;
#X msg 189 336 clear \, start;
#X obj 123 315 t b b;
#X obj 59 45 inlet~;
#X msg 123 357 normalize;
#X msg 359 336 clear \, start;
#X obj 293 315 t b b;
#X msg 293 357 normalize;
#X obj 59 377 *~ 1;
#X obj 123 113 debounce 500;
#X obj 192 177 f;
#X obj 219 177 + 1;
#X obj 123 230 list prepend;
#X obj 123 255 list trim;
#X obj 123 336 del 500;
#X obj 293 336 del 500;
#X msg 123 141 bang;
#X obj 58 177 lop~ 2500;
#X obj 58 197 lop~ 2500;
#X obj 59 442 u_record q-drum-0 100;
#X obj 249 442 u_record q-drum-1 100;
#X obj 248 235 s just-recorded-q-drum;
#X obj 192 201 mod 2;
#X text 282 146 Alternately record into 2 buffers...;
#X obj 123 283 route 0 1;
#X obj 123 81 a_onset 1024 11;
#X connect 0 0 18 1;
#X connect 1 0 13 0;
#X connect 1 1 0 0;
#X connect 2 0 16 0;
#X connect 2 0 24 0;
#X connect 3 0 18 1;
#X connect 4 0 19 1;
#X connect 5 0 14 0;
#X connect 5 1 4 0;
#X connect 6 0 19 1;
#X connect 7 0 18 0;
#X connect 7 0 19 0;
#X connect 8 0 15 0;
#X connect 9 0 10 0;
#X connect 9 0 21 0;
#X connect 10 0 9 1;
#X connect 11 0 12 0;
#X connect 12 0 23 0;
#X connect 13 0 3 0;
#X connect 14 0 6 0;
#X connect 15 0 9 0;
#X connect 15 0 11 0;
#X connect 16 0 17 0;
#X connect 17 0 7 0;
#X connect 21 0 11 1;
#X connect 21 0 20 0;
#X connect 23 0 1 0;
#X connect 23 1 5 0;
#X connect 24 0 8 0;
#X restore 588 158 pd record-samples;
#N canvas 1 22 637 660 user-drums 0;
#X obj 94 96 inlet;
#X obj 94 536 outlet~;
#X obj 151 536 outlet~;
#X obj 94 129 mod 64;
#X obj 94 232 s_playtable;
#X msg 94 200 q-drum-0;
#X obj 94 162 sel 8 16 28 40 52;
#X obj 169 347 loadbang;
#X obj 229 262 s_playtable;
#X msg 229 230 q-drum-1;
#X obj 94 262 *~;
#X obj 229 292 *~;
#X obj 335 130 r just-recorded-q-drum;
#X obj 335 180 line~;
#X obj 229 162 sel 0 32;
#X msg 335 154 1.5 \, 0 20000 10000;
#X msg 169 374 dry 0.8 \, decay_diffusion2 0.74 \, decay_diffusion1
0.889 \, input_diffusion2 0.779 \, excursion 0 \, input_diffusion1
0.685 \, decay 0.89 \, damping 4637 \, bandwidth 10000 \, predelay
10 \,;
#X obj 94 438 e_platereverb;
#X connect 0 0 3 0;
#X connect 3 0 6 0;
#X connect 3 0 14 0;
#X connect 4 0 10 0;
#X connect 5 0 4 0;
#X connect 6 0 5 0;
#X connect 6 1 5 0;
#X connect 6 2 5 0;
#X connect 6 3 5 0;
#X connect 6 4 5 0;
#X connect 7 0 16 0;
#X connect 8 0 11 0;
#X connect 9 0 8 0;
#X connect 10 0 17 0;
#X connect 10 0 17 1;
#X connect 11 0 17 1;
#X connect 11 0 17 0;
#X connect 12 0 15 0;
#X connect 13 0 10 1;
#X connect 13 0 11 1;
#X connect 14 0 9 0;
#X connect 14 1 9 0;
#X connect 15 0 13 0;
#X connect 16 0 17 2;
#X connect 17 0 1 0;
#X connect 17 1 2 0;
#X restore 354 354 pd user-drums;
#X obj 533 211 t f f;
#X obj 612 321 sel 1 2 3;
#X text 567 113 Repeater triggered by audio level;
#X obj 612 433 f;
#X text 680 376 Repeat-time;
#X msg 458 267 1;
#X msg 251 344 PPC-Q-Drums;
#X obj 152 367 s_playtable2;
#X obj 251 368 s_playtable2;
#X obj 213 538 *~ 1;
#X obj 151 566 *~ 1;
#X obj 213 568 throw~ RIGHT;
#X obj 151 596 throw~ LEFT;
#X obj 151 155 r tick;
#X obj 151 176 route q-drums;
#X obj 151 197 t b;
#X obj 151 218 f;
#X obj 184 218 + 1;
#X obj 242 125 sel 1;
#X msg 242 146 0;
#X obj 320 93 pipe 2000;
#X connect 0 0 50 0;
#X connect 1 0 50 0;
#X connect 3 1 5 0;
#X connect 4 0 3 0;
#X connect 5 0 0 0;
#X connect 5 1 1 0;
#X connect 6 0 36 0;
#X connect 6 0 26 0;
#X connect 7 0 6 0;
#X connect 7 0 29 0;
#X connect 8 0 40 0;
#X connect 9 0 8 1;
#X connect 9 0 17 1;
#X connect 10 0 8 1;
#X connect 10 0 17 1;
#X connect 11 0 10 0;
#X connect 12 0 9 0;
#X connect 12 0 35 0;
#X connect 13 0 14 0;
#X connect 13 1 14 1;
#X connect 14 0 21 0;
#X connect 15 0 31 0;
#X connect 16 0 27 0;
#X connect 17 0 39 0;
#X connect 18 0 33 0;
#X connect 19 0 33 0;
#X connect 20 0 33 0;
#X connect 21 0 11 0;
#X connect 22 0 23 0;
#X connect 22 0 28 0;
#X connect 23 0 25 0;
#X connect 24 0 30 0;
#X connect 25 0 24 0;
#X connect 26 0 37 0;
#X connect 27 0 15 0;
#X connect 29 0 8 0;
#X connect 29 1 17 0;
#X connect 30 0 13 0;
#X connect 30 1 16 0;
#X connect 31 0 18 0;
#X connect 31 1 19 0;
#X connect 31 2 20 0;
#X connect 33 0 17 1;
#X connect 33 0 8 1;
#X connect 35 0 21 0;
#X connect 36 0 38 0;
#X connect 37 0 40 0;
#X connect 37 1 39 0;
#X connect 38 0 8 0;
#X connect 38 1 17 0;
#X connect 39 0 41 0;
#X connect 40 0 42 0;
#X connect 43 0 44 0;
#X connect 44 0 45 0;
#X connect 45 0 46 0;
#X connect 46 0 47 0;
#X connect 46 0 7 0;
#X connect 47 0 46 1;
#X connect 48 0 49 0;
#X connect 49 0 46 1;
#X connect 50 0 2 0;
#X connect 50 0 48 0;
#X restore 42 448 pd q-drums;
#N canvas 103 22 731 714 uplifts 0;
#X obj 161 32 hip~ 100;
#X obj 161 53 lop~ 5000;
#X obj 161 10 catch~ uplifts;
#X obj 161 643 e_pan;
#X obj 178 457 hip~ 400;
#N canvas 0 22 599 480 wql-tanh 0;
#X obj 140 70 inlet~;
#X text 392 94 __;
#X text 474 94 __;
#X text 426 94 __;
#X text 525 94 __;
#X text 392 111 1 +;
#X text 428 111 3 +;
#X text 476 111 5 +;
#X text 526 111 7 +;
#X text 342 37 As a continued fraction;
#X obj 139 153 *~;
#X obj 64 270 /~;
#X obj 64 355 /~;
#X obj 64 293 /~;
#X obj 64 326 /~;
#X text 326 83 tanh(z) = z z^2 4z^2 9z^2 ...;
#X obj 191 180 *~ 4;
#X obj 190 211 +~ 3;
#X obj 234 179 *~ 9;
#X obj 233 210 +~ 5;
#X obj 274 180 *~ 16;
#X obj 273 210 +~ 7;
#X obj 139 211 +~ 1;
#X obj 64 406 outlet~;
#X obj 64 377 *~ 576;
#X obj 140 94 *~ 0.308319;
#X text 175 119 1/pi;
#X connect 0 0 25 0;
#X connect 10 0 16 0;
#X connect 10 0 18 0;
#X connect 10 0 20 0;
#X connect 10 0 22 0;
#X connect 11 0 13 0;
#X connect 12 0 24 0;
#X connect 13 0 14 0;
#X connect 14 0 12 0;
#X connect 16 0 17 0;
#X connect 17 0 13 1;
#X connect 18 0 19 0;
#X connect 19 0 14 1;
#X connect 20 0 21 0;
#X connect 21 0 12 1;
#X connect 22 0 11 1;
#X connect 24 0 23 0;
#X connect 25 0 10 1;
#X connect 25 0 10 0;
#X connect 25 0 11 0;
#X restore 161 304 pd wql-tanh;
#X obj 161 531 clip~ -1 1;
#X msg 335 453 1;
#X msg 370 453 0;
#X obj 335 523 switch~;
#X obj 295 411 list split 1;
#X obj 335 432 sel uplifts;
#X obj 161 691 throw~ FX-RETURN-L;
#X obj 193 672 throw~ FX-RETURN-R;
#X obj 161 480 lop~ 3000;
#X obj 178 433 lop~ 3500;
#X obj 50 664 *~ 0.15;
#X obj 295 390 r MIC;
#X obj 247 597 / 100;
#X msg 367 590 on \$1;
#X obj 248 555 loadbang;
#X obj 246 617 c_lfo MYLFO2 1 50 tri;
#X msg 248 576 10;
#X msg 421 543 symbol saw;
#X msg 501 543 symbol tri;
#X msg 581 543 symbol sine;
#X msg 421 589 waveform \$1;
#X obj 421 484 random 3;
#X obj 421 505 sel 0 1 2;
#X obj 308 222 +~ 1;
#X obj 308 243 *~ 0.5;
#X obj 308 285 vd~ d1;
#X obj 182 182 *~ 1;
#X obj 308 264 *~ 0.1;
#X obj 308 201 osc~ 1;
#X obj 309 94 random 50;
#X obj 309 114 + 1;
#X msg 309 138 \$1 1000;
#X obj 308 179 int;
#X obj 382 145 random 50;
#X obj 382 166 + 1;
#X msg 382 187 \$1 1000;
#X obj 382 229 int;
#X obj 382 97 a_onset 128 15;
#X obj 309 159 line;
#X obj 382 208 line;
#X obj 318 309 delread~ d1 1;
#X obj 382 118 t b;
#X obj 308 355 *~ 1;
#X obj 318 330 *~ 0.75;
#X obj 178 412 *~ 0.75;
#X obj 50 684 throw~ REVERB;
#X obj 183 503 delwrite~ \$0-abc 500;
#X obj 182 75 delread~ \$0-abc 300;
#X obj 182 98 *~ 0.75;
#X obj 182 217 delwrite~ d1 300;
#X obj 335 479 pipe 2000;
#X obj 335 500 t f f;
#X connect 0 0 1 0;
#X connect 1 0 32 0;
#X connect 1 0 5 0;
#X connect 2 0 0 0;
#X connect 3 0 12 0;
#X connect 3 1 13 0;
#X connect 4 0 14 0;
#X connect 5 0 14 0;
#X connect 6 0 3 0;
#X connect 6 0 16 0;
#X connect 7 0 56 0;
#X connect 8 0 56 0;
#X connect 10 1 11 0;
#X connect 11 0 7 0;
#X connect 11 1 8 0;
#X connect 14 0 6 0;
#X connect 14 0 52 0;
#X connect 15 0 4 0;
#X connect 16 0 51 0;
#X connect 17 0 10 0;
#X connect 18 0 21 0;
#X connect 19 0 21 1;
#X connect 20 0 22 0;
#X connect 21 0 3 1;
#X connect 22 0 18 0;
#X connect 23 0 26 0;
#X connect 24 0 26 0;
#X connect 25 0 26 0;
#X connect 26 0 21 1;
#X connect 27 0 28 0;
#X connect 28 0 23 0;
#X connect 28 1 24 0;
#X connect 28 2 25 0;
#X connect 29 0 30 0;
#X connect 30 0 33 0;
#X connect 31 0 48 0;
#X connect 32 0 43 0;
#X connect 32 0 55 0;
#X connect 33 0 31 0;
#X connect 34 0 29 0;
#X connect 35 0 36 0;
#X connect 36 0 37 0;
#X connect 37 0 44 0;
#X connect 38 0 34 0;
#X connect 39 0 40 0;
#X connect 40 0 41 0;
#X connect 41 0 45 0;
#X connect 42 0 33 1;
#X connect 43 0 47 0;
#X connect 44 0 38 0;
#X connect 45 0 42 0;
#X connect 46 0 49 0;
#X connect 47 0 39 0;
#X connect 47 0 35 0;
#X connect 47 0 27 0;
#X connect 48 0 50 0;
#X connect 49 0 48 0;
#X connect 50 0 15 0;
#X connect 53 0 54 0;
#X connect 54 0 32 0;
#X connect 56 0 57 0;
#X connect 57 0 9 0;
#X connect 57 1 19 0;
#X restore 42 468 pd uplifts;
#N canvas 0 22 850 698 soslooper 0;
#X obj 381 436 *~;
#X obj 466 437 *~;
#X obj 554 270 *~;
#X obj 368 267 *~;
#X obj 27 254 hsl 128 25 0 1 0 1 \$0-feedback empty feedback 20 12
0 10 -228856 -260097 -1 12700 0;
#X obj 27 295 hsl 128 25 0 1 0 1 \$0-outlevel empty outlevel 20 12
0 10 -228856 -260097 -1 12700 0;
#N canvas 199 302 187 173 feedbacklevel 0;
#X obj 27 81 line~;
#X obj 27 139 outlet~;
#X msg 27 57 \$1 500;
#X text 25 161 feedback level;
#X obj 95 139 outlet;
#X obj 29 26 r \$0-feedback;
#X obj 27 102 *~ 0.9;
#X connect 0 0 6 0;
#X connect 2 0 0 0;
#X connect 5 0 2 0;
#X connect 5 0 4 0;
#X connect 6 0 1 0;
#X restore 386 229 pd feedbacklevel;
#N canvas 199 302 187 173 outlevel 0;
#X obj 27 81 line~;
#X obj 27 109 outlet~;
#X msg 27 57 \$1 500;
#X obj 95 109 outlet;
#X obj 27 24 r \$0-outlevel;
#X text 25 131 output level;
#X connect 0 0 1 0;
#X connect 2 0 0 0;
#X connect 4 0 2 0;
#X connect 4 0 3 0;
#X restore 399 391 pd outlevel;
#X obj 378 334 hip~ 5;
#X obj 568 336 hip~ 5;
#X text 23 23 stereo sound-on-sound looping delay;
#X text 23 47 Katja Vetter dec 2010;
#N canvas 583 172 466 252 more-info 0;
#X text 14 204 This patch uses [count~] and [poke~] from cyclone \,
[limiter~] from zexy.;
#X text 16 72 With feedback setting at max \, it is a looper. With
lower feedback settings \, the loop content will fade away.;
#X text 15 115 The read index is one sample ahead of the write index
\, and wrapped within the loop size.;
#X text 14 17 Elementary looping delay with sound on sound. A similar
thing can be done with [delwrite~] and [delread~] or [vd~] \, but [delwrite~]
lacks the option to clear the delay buffer.;
#X text 16 153 Loop size could be up to 2^23-1 samples theoretically.
Beyond that size \, indexing will loose the required precision.;
#X restore 24 75 pd more-info;
#N canvas 605 242 387 274 limiter-for-two-channels 0;
#X obj 24 22 inlet~;
#X obj 131 21 inlet~;
#X obj 24 230 outlet~;
#X obj 131 230 outlet~;
#X obj 24 97 limiter~ 85 10;
#X obj 131 97 limiter~ 85 10;
#X connect 0 0 4 0;
#X connect 1 0 5 0;
#X connect 4 0 2 0;
#X connect 5 0 3 0;
#X restore 368 365 pd limiter-for-two-channels;
#X obj 378 290 catch~ soslooper;
#X obj 497 585 throw~ FX-RETURN-R;
#X obj 382 563 throw~ FX-RETURN-L;
#X obj 554 629 delwrite~ \$0-looperright 10000;
#X obj 368 609 delwrite~ \$0-looperleft 10000;
#X obj 554 149 line~;
#X obj 554 45 a_onset 128 20;
#X obj 554 66 t b;
#X msg 554 127 \$1 5000;
#X obj 415 653 throw~ REVERB;
#X msg 212 140 1;
#X msg 247 140 0;
#X obj 253 278 line;
#X obj 212 211 switch~;
#X obj 172 98 list split 1;
#X obj 172 77 r MIC;
#X obj 212 119 sel soslooper;
#X obj 253 299 s \$0-outlevel;
#X obj 465 534 e_pan;
#X obj 382 534 e_pan;
#X obj 497 508 r panvalue;
#X obj 554 203 vd~ \$0-looperright 4000;
#X obj 554 107 + 2000;
#X obj 368 183 vd~ \$0-looperleft 4000;
#X obj 554 86 random 8000;
#X obj 415 632 *~ 0.15;
#X obj 554 238 lop~ 3000;
#X obj 368 209 lop~ 3000;
#X obj 465 462 lop~ 1500;
#X obj 381 464 lop~ 1500;
#X obj 381 486 hip~ 400;
#X obj 465 485 hip~ 400;
#X obj 253 257 pack f 2000;
#X obj 212 167 pipe 2000;
#X obj 236 233 moses 1;
#X obj 212 187 t f f f;
#X obj 554 22 sel 1;
#X connect 0 0 43 0;
#X connect 1 0 42 0;
#X connect 2 0 13 1;
#X connect 3 0 13 0;
#X connect 6 0 3 1;
#X connect 6 0 2 1;
#X connect 7 0 0 1;
#X connect 7 0 1 0;
#X connect 8 0 13 0;
#X connect 9 0 13 1;
#X connect 13 0 0 0;
#X connect 13 0 18 0;
#X connect 13 1 1 1;
#X connect 13 1 17 0;
#X connect 14 0 8 0;
#X connect 14 0 9 0;
#X connect 14 0 20 0;
#X connect 19 0 35 0;
#X connect 19 0 37 0;
#X connect 20 0 21 0;
#X connect 21 0 38 0;
#X connect 22 0 19 0;
#X connect 24 0 47 0;
#X connect 25 0 47 0;
#X connect 26 0 31 0;
#X connect 28 1 30 0;
#X connect 29 0 28 0;
#X connect 30 0 24 0;
#X connect 30 1 25 0;
#X connect 32 0 16 0;
#X connect 32 1 15 0;
#X connect 33 0 16 0;
#X connect 33 1 15 0;
#X connect 34 0 32 1;
#X connect 34 0 33 1;
#X connect 35 0 40 0;
#X connect 36 0 22 0;
#X connect 37 0 41 0;
#X connect 38 0 36 0;
#X connect 39 0 23 0;
#X connect 40 0 2 0;
#X connect 41 0 3 0;
#X connect 42 0 45 0;
#X connect 43 0 44 0;
#X connect 44 0 33 0;
#X connect 44 0 39 0;
#X connect 45 0 32 0;
#X connect 45 0 39 0;
#X connect 46 0 26 0;
#X connect 47 0 49 0;
#X connect 48 0 26 0;
#X connect 48 1 46 0;
#X connect 49 0 27 0;
#X connect 49 1 48 0;
#X connect 49 2 50 0;
#X connect 50 0 20 0;
#X restore 42 488 pd soslooper;
#X msg 649 369 S soslooper off;
#N canvas 84 22 559 695 confusion 0;
#X msg 136 305 0;
#X obj 223 357 *~ 44100;
#X obj 136 220 metro 2000;
#X obj 62 379 -~ 1;
#X obj 62 339 phasor~ 0.4;
#X msg 304 304 0;
#X obj 62 358 *~ 44100;
#X obj 62 634 throw~ FX-RETURN-L;
#X obj 182 614 throw~ FX-RETURN-R;
#X obj 270 595 throw~ REVERB;
#X msg 265 75 1;
#X msg 300 75 0;
#X obj 311 140 switch~;
#X obj 225 33 list split 1;
#X obj 225 12 r MIC;
#X obj 265 54 sel confusion;
#X obj 62 529 e_pan;
#X obj 150 529 e_pan;
#X obj 94 439 r panvalue;
#X obj 183 488 swap 1;
#X obj 183 509 - 1;
#X obj 270 574 *~ 0.25;
#X obj 223 337 phasor~ -0.5;
#X obj 223 428 *~ 1.5;
#X obj 38 235 hip~ 200;
#X obj 265 97 pipe 2000;
#X obj 265 119 t f f f;
#X msg 288 183 const 0;
#X obj 288 162 sel 0;
#X obj 38 89 catch~ confusion;
#X obj 38 13 table \$0-confusion 44103;
#X obj 38 257 tabwrite~ \$0-confusion;
#X obj 62 407 tabread4~ \$0-confusion;
#X obj 223 407 tabread4~ \$0-confusion;
#X obj 288 206 s \$0-confusion;
#X connect 0 0 4 1;
#X connect 1 0 33 0;
#X connect 2 0 5 0;
#X connect 2 0 0 0;
#X connect 2 0 31 0;
#X connect 3 0 32 0;
#X connect 4 0 6 0;
#X connect 5 0 22 1;
#X connect 6 0 3 0;
#X connect 10 0 25 0;
#X connect 11 0 25 0;
#X connect 13 1 15 0;
#X connect 14 0 13 0;
#X connect 15 0 10 0;
#X connect 15 1 11 0;
#X connect 16 0 7 0;
#X connect 16 1 8 0;
#X connect 17 0 7 0;
#X connect 17 1 8 0;
#X connect 18 0 16 1;
#X connect 18 0 19 0;
#X connect 19 0 20 0;
#X connect 19 1 20 1;
#X connect 20 0 17 1;
#X connect 21 0 9 0;
#X connect 22 0 1 0;
#X connect 23 0 17 0;
#X connect 23 0 21 0;
#X connect 24 0 31 0;
#X connect 25 0 26 0;
#X connect 26 0 2 0;
#X connect 26 1 28 0;
#X connect 26 2 12 0;
#X connect 27 0 34 0;
#X connect 28 0 27 0;
#X connect 29 0 24 0;
#X connect 32 0 16 0;
#X connect 33 0 23 0;
#X restore 42 528 pd confusion;
#X msg 649 348 R confusion off;
#X msg 648 46 B uplifts off;
#N canvas 197 83 581 565 helicopter 0;
#X obj 109 273 hip~ 300;
#X obj 109 176 catch~ helicopter;
#X obj 218 385 phasor~ 0.1;
#X obj 34 203 noise~;
#X obj 327 34 list split 1;
#X obj 367 58 sel helicopter;
#X obj 109 440 throw~ FX-RETURN-L;
#X obj 218 461 throw~ FX-RETURN-R;
#X obj 109 409 e_circlepanCheap;
#X obj 327 13 r MIC;
#N canvas 0 22 450 300 straight-del 0;
#X obj 107 196 outlet~;
#X obj 192 95 inlet~;
#X obj 192 169 hip~ 1000;
#X obj 192 127 delwrite~ helicopter-del 2000;
#X obj 192 147 delread~ helicopter-del 2000;
#X obj 107 147 *~ 0.4;
#X connect 1 0 3 0;
#X connect 2 0 5 0;
#X connect 4 0 2 0;
#X connect 5 0 0 0;
#X connect 5 0 3 0;
#X restore 139 334 pd straight-del;
#X obj 218 287 * 0.9;
#X obj 218 306 + 0.1;
#X obj 218 365 *~ 10;
#X obj 218 267 c_lfo MYLFO2 0.01 50 sine;
#X obj 34 224 hip~ 1000;
#X obj 34 272 *~ 0.04;
#X obj 367 147 switch~;
#X msg 404 79 0;
#X msg 367 79 1;
#X obj 367 126 pipe 2000;
#X msg 390 247 on \$1;
#X obj 413 201 sel 1;
#X msg 413 221 phase 0.75;
#X obj 367 100 t f f f;
#X connect 0 0 10 0;
#X connect 0 0 8 0;
#X connect 1 0 0 0;
#X connect 2 0 8 1;
#X connect 3 0 15 0;
#X connect 4 1 5 0;
#X connect 5 0 19 0;
#X connect 5 1 18 0;
#X connect 8 0 6 0;
#X connect 8 1 7 0;
#X connect 9 0 4 0;
#X connect 10 0 8 0;
#X connect 11 0 12 0;
#X connect 12 0 13 0;
#X connect 13 0 2 0;
#X connect 14 0 11 0;
#X connect 15 0 16 0;
#X connect 16 0 8 0;
#X connect 18 0 24 0;
#X connect 19 0 24 0;
#X connect 20 0 17 0;
#X connect 21 0 14 1;
#X connect 22 0 23 0;
#X connect 23 0 14 1;
#X connect 24 0 20 0;
#X connect 24 1 21 0;
#X connect 24 2 22 0;
#X restore 42 205 pd helicopter;
#N canvas 126 115 604 472 doppler 0;
#N canvas 2 445 302 160 recordsamples 0;
#X obj 46 65 e_agc;
#X obj 46 42 inlet~;
#X obj 46 95 recordsample \$0 1 357.142;
#X connect 0 0 2 0;
#X connect 1 0 0 0;
#X restore 34 21 pd recordsamples;
#X obj 33 333 dopplereffect \$0 1 1;
#X obj 33 67 r tick;
#X obj 33 96 route doppler;
#X obj 34 -1 catch~ doppler;
#X obj 33 390 throw~ FX-RETURN-L;
#X obj 170 390 throw~ FX-RETURN-R;
#X obj 70 141 mod 392;
#X obj 70 166 sel 0 128 256;
#X msg 417 232 \; MaxLength 0.3 \; MinLength 0.6 \; Doppler 0.4 \;
Direction 0.3 \; Slowpitch -12 10000 \;;
#X msg 70 232 \; MaxLength 0.3 \; MinLength 0.1 \; Doppler 0.5 \; Direction
0.3 \; Slowpitch 0 10000 \; doppler-delaytime 1000 \;;
#X msg 244 232 \; MaxLength 0.02 \; MinLength 0.2 \; Doppler 0.8 \;
Direction 0.3 \; Slowpitch 0 10000 \; doppler-delaytime 2000 \;;
#X msg 248 48 1;
#X msg 283 48 0;
#X obj 208 6 list split 1;
#X obj 208 -15 r MIC;
#X obj 248 27 sel doppler;
#X obj 248 92 switch~;
#X obj 248 72 pipe 2000;
#X connect 1 0 5 0;
#X connect 1 1 6 0;
#X connect 2 0 3 0;
#X connect 3 0 1 0;
#X connect 3 0 7 0;
#X connect 4 0 0 0;
#X connect 7 0 8 0;
#X connect 8 0 10 0;
#X connect 8 1 11 0;
#X connect 8 2 9 0;
#X connect 12 0 18 0;
#X connect 13 0 18 0;
#X connect 14 1 16 0;
#X connect 15 0 14 0;
#X connect 16 0 12 0;
#X connect 16 1 13 0;
#X connect 18 0 17 0;
#X restore 43 306 pd doppler;
#X msg 649 145 G phasemod off;
#X msg 648 106 E metallic off;
#X msg 649 125 F spacewobble off;
#X msg 649 166 H platereverb off;
#N canvas 145 60 873 595 io 0;
#X obj 49 59 catch~ LEFT;
#X obj 144 59 catch~ RIGHT;
#X obj 555 131 e_agc;
#X obj 104 153 catch~ C;
#X obj 555 173 lop~ 4000;
#X obj 555 152 *~ 0.9;
#X obj 518 529 throw~ REVERB;
#X obj 555 69 adc~;
#X obj 67 92 catch~ FX-RETURN-L;
#X obj 153 113 catch~ FX-RETURN-R;
#X obj 67 246 *~ 1.5;
#X obj 153 246 *~ 1.5;
#X obj 67 211 e_mcompressor-stereo 65 2;
#X obj 49 417 dac~ 1;
#X obj 144 417 dac~ 2;
#X obj 573 203 r MIC;
#X obj 555 426 *~;
#X msg 621 431 set \$1;
#X obj 555 474 throw~ FX;
#X obj 573 228 unpack f s;
#X obj 555 106 *~;
#X obj 599 73 r mic-on/off;
#X obj 263 206 sel 0;
#X obj 295 228 t b b;
#X msg 315 249 stop;
#X text 363 244 Fades between samples;
#X msg 263 270 0 1000;
#X msg 315 290 1 1000;
#X obj 263 146 r PPC;
#X obj 263 177 unpack f s s;
#X obj 518 506 *~ 0.05;
#X obj 144 396 *~;
#X obj 49 396 *~;
#X obj 263 337 line~;
#X obj 315 270 del 2000;
#X obj 573 396 line~;
#X obj 621 411 symbol;
#X obj 573 255 moses 1;
#X obj 619 320 pipe 2000;
#X obj 573 276 t f b;
#X msg 630 299 clear;
#X obj 573 369 pack f 1000;
#X obj 589 346 t f b;
#X connect 0 0 32 0;
#X connect 1 0 31 0;
#X connect 2 0 5 0;
#X connect 3 0 12 1;
#X connect 3 0 12 0;
#X connect 4 0 16 0;
#X connect 5 0 4 0;
#X connect 7 0 20 0;
#X connect 7 1 20 0;
#X connect 8 0 12 0;
#X connect 9 0 12 1;
#X connect 10 0 32 0;
#X connect 11 0 31 0;
#X connect 12 0 10 0;
#X connect 12 1 11 0;
#X connect 15 0 19 0;
#X connect 16 0 18 0;
#X connect 16 0 30 0;
#X connect 17 0 18 0;
#X connect 19 0 37 0;
#X connect 19 1 36 1;
#X connect 20 0 2 0;
#X connect 21 0 20 1;
#X connect 22 0 26 0;
#X connect 22 0 24 0;
#X connect 22 1 23 0;
#X connect 23 0 26 0;
#X connect 23 1 34 0;
#X connect 24 0 34 0;
#X connect 26 0 33 0;
#X connect 27 0 33 0;
#X connect 28 0 29 0;
#X connect 29 0 22 0;
#X connect 30 0 6 0;
#X connect 31 0 14 0;
#X connect 32 0 13 0;
#X connect 33 0 31 1;
#X connect 33 0 32 1;
#X connect 34 0 27 0;
#X connect 35 0 16 1;
#X connect 36 0 17 0;
#X connect 37 0 39 0;
#X connect 37 1 38 0;
#X connect 38 0 42 0;
#X connect 39 0 41 0;
#X connect 39 1 40 0;
#X connect 40 0 38 0;
#X connect 41 0 35 0;
#X connect 42 0 41 0;
#X connect 42 1 36 0;
#X restore 42 28 pd io sys;
#N canvas 263 22 800 720 loop-playback 0;
#X obj 672 273 moses 1;
#X obj 672 382 switch~;
#X obj 140 528 throw~ RIGHT;
#X obj 96 61 r PPC;
#X obj 672 232 r PPC;
#X msg 700 323 clear;
#X obj 684 303 t f b;
#X obj 96 234 sel 1;
#X msg 109 257 stop;
#X obj 672 253 unpack f;
#X obj 96 92 unpack f s s;
#N canvas 545 91 522 450 loop-player-main 0;
#X obj 96 158 symbol s;
#X obj 96 206 s_fplaytable2;
#X msg 96 180 \$1;
#X obj 184 226 spigot 0;
#X obj 96 285 outlet~;
#X obj 140 306 outlet~;
#X obj 260 112 inlet symbol;
#X obj 177 112 inlet loop;
#X obj 96 112 inlet play;
#X obj 184 247 s loop-bang;
#X connect 0 0 2 0;
#X connect 1 0 4 0;
#X connect 1 1 5 0;
#X connect 1 2 3 0;
#X connect 2 0 1 0;
#X connect 3 0 9 0;
#X connect 6 0 0 1;
#X connect 7 0 3 1;
#X connect 8 0 0 0;
#X restore 54 337 pd loop-player-main;
#N canvas 202 46 698 549 loop-player-other 0;
#X obj 186 200 s_fplaytable2;
#X obj 186 429 outlet~;
#X obj 230 450 outlet~;
#X obj 193 75 inlet symbol;
#X obj 98 74 inlet play;
#X obj 186 299 *~;
#X obj 230 299 *~;
#X msg 107 362 clear;
#X obj 76 342 t f b;
#X obj 98 402 switch~;
#X obj 98 315 moses 1;
#X obj 98 292 unpack f;
#X obj 186 174 t a b;
#X obj 98 100 symbol PPC-off;
#X obj 248 274 line~;
#X msg 248 232 1 1000;
#X msg 98 194 0 1000;
#X obj 98 150 sel PPC-off;
#X obj 98 382 pipe 1200;
#X connect 0 0 5 0;
#X connect 0 1 6 0;
#X connect 3 0 13 1;
#X connect 4 0 13 0;
#X connect 5 0 1 0;
#X connect 6 0 2 0;
#X connect 7 0 18 0;
#X connect 8 0 9 0;
#X connect 8 1 7 0;
#X connect 10 0 18 0;
#X connect 10 1 8 0;
#X connect 11 0 10 0;
#X connect 12 0 0 0;
#X connect 12 1 15 0;
#X connect 13 0 17 0;
#X connect 14 0 6 1;
#X connect 14 0 5 1;
#X connect 15 0 11 0;
#X connect 15 0 14 0;
#X connect 16 0 11 0;
#X connect 16 0 14 0;
#X connect 17 0 16 0;
#X connect 17 1 12 0;
#X connect 18 0 9 0;
#X restore 96 367 pd loop-player-other;
#X obj 96 424 *~ 1;
#X obj 140 424 *~ 1;
#X obj 54 305 r loop-bang;
#X obj 96 508 throw~ LEFT;
#X obj 304 161 r sampleToSwitch;
#X obj 286 206 sel 8;
#X obj 438 7 r currentTime;
#X obj 477 89 <= 24;
#X obj 438 65 t f f;
#X obj 438 116 +;
#X obj 438 140 == 2;
#X obj 286 230 f;
#X obj 286 183 f;
#X obj 286 253 sel 1;
#X obj 186 112 t b s;
#X obj 438 89 >= 17;
#X obj 527 65 t f f;
#X obj 527 116 +;
#X obj 527 140 == 2;
#X obj 438 162 +;
#X obj 438 35 t f f;
#X obj 527 89 >= 0;
#X obj 438 186 > 0;
#X obj 566 89 <= 4;
#X text 478 34 Is the current hour between 5pm and 5am?;
#X text 325 205 Only for sample 8 (I);
#X obj 96 280 del 1000;
#X obj 96 209 t f f;
#X obj 492 474 !table PPC-Z-1;
#X obj 492 494 !table PPC-Z-2;
#X obj 493 527 u_samplebank2 PPC-Interface Interface.wav;
#X obj 672 359 pipe 2500;
#X obj 218 315 sel PPC-I-Drums;
#X obj 218 336 symbol;
#X msg 318 273 symbol PPC-off;
#X msg 258 294 symbol PPC-I-Drums;
#X connect 0 0 44 0;
#X connect 0 1 6 0;
#X connect 3 0 10 0;
#X connect 4 0 9 0;
#X connect 5 0 44 0;
#X connect 6 0 1 0;
#X connect 6 1 5 0;
#X connect 7 0 39 0;
#X connect 7 1 8 0;
#X connect 8 0 39 0;
#X connect 9 0 0 0;
#X connect 10 0 40 0;
#X connect 10 1 11 2;
#X connect 10 2 27 0;
#X connect 11 0 13 0;
#X connect 11 1 14 0;
#X connect 12 0 13 0;
#X connect 12 1 14 0;
#X connect 13 0 16 0;
#X connect 14 0 2 0;
#X connect 15 0 11 0;
#X connect 15 0 12 0;
#X connect 17 0 25 1;
#X connect 18 0 24 0;
#X connect 19 0 33 0;
#X connect 20 0 22 1;
#X connect 21 0 28 0;
#X connect 21 1 20 0;
#X connect 22 0 23 0;
#X connect 23 0 32 0;
#X connect 24 0 26 0;
#X connect 25 0 18 0;
#X connect 26 0 48 0;
#X connect 26 1 47 0;
#X connect 27 0 25 0;
#X connect 27 1 45 0;
#X connect 28 0 22 0;
#X connect 29 0 34 0;
#X connect 29 1 36 0;
#X connect 30 0 31 0;
#X connect 31 0 32 1;
#X connect 32 0 35 0;
#X connect 33 0 21 0;
#X connect 33 1 29 0;
#X connect 34 0 30 0;
#X connect 35 0 24 1;
#X connect 36 0 30 1;
#X connect 39 0 11 0;
#X connect 39 0 12 0;
#X connect 40 0 7 0;
#X connect 40 1 11 1;
#X connect 44 0 1 0;
#X connect 45 0 46 0;
#X connect 45 1 12 1;
#X connect 46 0 12 1;
#X connect 47 0 46 1;
#X connect 48 0 46 1;
#X restore 41 95 pd loop-playback;
#N canvas 331 38 373 374 timebase 0;
#X obj 18 36 tgl 15 0 empty empty empty 17 7 0 10 -262144 -1 -1 1 1
;
#X obj 18 15 loadbang;
#X obj 18 118 f;
#X obj 46 118 + 1;
#X obj 18 311 s tick;
#X obj 18 268 list prepend;
#X obj 59 248 list split 1;
#X obj 59 227 r MIC;
#X obj 18 289 list trim;
#X obj 248 120 m_bpm2ms;
#X floatatom 250 146 9 0 0 0 - - -;
#X obj 258 168 / 8;
#X floatatom 262 188 9 0 0 0 - - -;
#X msg 237 87 104;
#X obj 18 57 metro 64.1026;
#X connect 0 0 14 0;
#X connect 1 0 0 0;
#X connect 2 0 3 0;
#X connect 2 0 5 0;
#X connect 3 0 2 1;
#X connect 5 0 8 0;
#X connect 6 1 5 1;
#X connect 7 0 6 0;
#X connect 8 0 4 0;
#X connect 9 0 10 0;
#X connect 10 0 11 0;
#X connect 11 0 12 0;
#X connect 13 0 9 0;
#X connect 14 0 2 0;
#X restore 42 49 pd timebase;
#X msg 907 124 \; PPC 1 PPC-Interface PPC-off \; MIC 1 FX \;;
#X connect 7 0 8 0;
#X connect 8 0 13 0;
#X connect 8 0 27 0;
#X connect 12 0 75 0;
#X connect 12 0 57 0;
#X connect 15 0 12 0;
#X connect 16 0 17 0;
#X connect 18 0 16 0;
#X connect 19 0 16 0;
#X connect 21 0 16 0;
#X connect 22 0 16 0;
#X connect 23 0 16 0;
#X connect 24 0 16 0;
#X connect 26 0 25 0;
#X connect 27 0 18 0;
#X connect 27 1 65 0;
#X connect 27 2 32 0;
#X connect 27 3 19 0;
#X connect 27 4 69 0;
#X connect 27 5 70 0;
#X connect 27 6 68 0;
#X connect 27 7 71 0;
#X connect 27 8 30 0;
#X connect 27 9 21 0;
#X connect 27 10 33 0;
#X connect 27 11 22 0;
#X connect 27 12 23 0;
#X connect 27 13 38 0;
#X connect 27 14 24 0;
#X connect 27 15 36 0;
#X connect 27 16 64 0;
#X connect 27 17 62 0;
#X connect 27 18 37 0;
#X connect 28 0 27 0;
#X connect 28 0 29 0;
#X connect 30 0 16 0;
#X connect 31 0 26 0;
#X connect 32 0 16 0;
#X connect 33 0 16 0;
#X connect 34 0 35 0;
#X connect 36 0 16 0;
#X connect 37 0 16 0;
#X connect 38 0 16 0;
#X connect 54 0 20 0;
#X connect 54 0 56 0;
#X connect 55 0 12 0;
#X connect 62 0 16 0;
#X connect 64 0 16 0;
#X connect 65 0 16 0;
#X connect 68 0 16 0;
#X connect 69 0 16 0;
#X connect 70 0 16 0;
#X connect 71 0 16 0;
