#N canvas 50 106 1200 714 10;
#X declare -path .;
#X declare -path rj;
#X declare -path utils;
#X declare -path sounds;
#X declare -path abs;
#X declare -path pd;
#X declare -path audio;
#X declare -path ../;
#N canvas 515 156 472 337 init 0;
#N canvas 0 22 588 274 LICENSE 0;
#X text 79 84 (c) 2008 Reality Jockey;
#X text 57 36 Released under the GNU General Public License ver. 3
or later. See the file LICENSE.txt for the full text.;
#X restore -15 44 pd LICENSE;
#X obj 89 19 declare -path .;
#X obj 89 46 declare -path rj;
#X obj 89 73 declare -path utils;
#X obj 89 99 declare -path sounds;
#X obj -15 115 loadbang;
#X msg -15 139 \; pd dsp 1;
#X obj 89 129 declare -path abs;
#X obj 89 159 declare -path pd;
#X obj 89 190 declare -path audio;
#X obj 89 220 declare -path ../;
#X restore 42 7 pd init;
#N canvas 0 22 628 452 delay 0;
#X obj 250 58 catch~ DELAY;
#X obj 232 373 throw~ REVERB;
#X obj 93 172 bp~ 5400 2;
#X obj 368 175 bp~ 5400 2;
#X obj 93 149 *~ 0.4;
#X obj 368 152 *~ 0.4;
#X obj 452 41 m_bpm2ms;
#X floatatom 452 83 7 0 0 0 - - -;
#X msg 450 8 88;
#X obj 93 208 delwrite~ \$0-dubby-l 341;
#X obj 93 232 delread~ \$0-dubby-l 341;
#X obj 368 208 delwrite~ \$0-dubby-r 228;
#X obj 366 239 delread~ \$0-dubby-r 227;
#X obj 452 62 / 3;
#X obj 366 325 throw~ FX-RETURN-R;
#X obj 93 324 throw~ FX-RETURN-L;
#X obj 232 354 *~ 0.5;
#X connect 0 0 4 0;
#X connect 0 0 5 0;
#X connect 2 0 9 0;
#X connect 3 0 11 0;
#X connect 4 0 2 0;
#X connect 5 0 3 0;
#X connect 6 0 13 0;
#X connect 8 0 6 0;
#X connect 10 0 5 0;
#X connect 10 0 15 0;
#X connect 10 0 16 0;
#X connect 12 0 4 0;
#X connect 12 0 14 0;
#X connect 12 0 16 0;
#X connect 13 0 7 0;
#X connect 16 0 1 0;
#X restore 37 244 pd delay;
#N canvas 0 22 588 336 reverb 0;
#X obj 206 124 loadbang;
#X obj 118 49 catch~ REVERB;
#X obj 118 70 hip~ 500;
#X msg 206 144 amp 95 \, hall 93 \, freq 3000 \, damp 60 \, dry 0;
#X obj 118 174 e_reverb main;
#X obj 206 256 throw~ FX-RETURN-R;
#X obj 118 236 throw~ FX-RETURN-L;
#X connect 0 0 3 0;
#X connect 1 0 2 0;
#X connect 2 0 4 0;
#X connect 3 0 4 1;
#X connect 4 0 6 0;
#X connect 4 1 5 0;
#X restore 37 223 pd reverb;
#X text 37 202 Main FX;
#N canvas 310 212 469 503 panvalue 0;
#X obj 68 126 metro;
#X obj 68 74 tgl 15 0 empty empty empty 17 7 0 10 -262144 -1 -1 1 1
;
#X obj 225 321 line;
#X obj 21 242 * 1;
#X obj 71 241 * 0.4;
#X obj 121 241 * 0.6;
#X obj 171 241 * 0.8;
#X obj 68 4 loadbang;
#X obj 21 219 t b f;
#X obj 71 219 t b f;
#X obj 121 219 t b f;
#X obj 171 219 t b f;
#X obj 222 219 t b f;
#X obj 272 219 t b f;
#X obj 322 219 t b f;
#X obj 372 219 t b f;
#X obj 222 242 * 0.2;
#X obj 272 241 * 0.1;
#X obj 322 241 * 0.3;
#X obj 372 241 * 0.5;
#X obj 68 170 select 0 1 2 3 4 5 6 7;
#X obj 68 148 random 6;
#X msg 21 268 \$1 200;
#X msg 71 268 \$1 200;
#X msg 121 268 \$1 200;
#X msg 171 268 \$1 200;
#X msg 222 268 \$1 200;
#X msg 272 267 \$1 200;
#X msg 322 267 \$1 200;
#X msg 372 267 \$1 200;
#X obj 100 98 t b f;
#X obj 225 407 m_scale 0 1 0 1;
#X obj 306 380 m_scale 0 1 1 0;
#X obj 286 355 m_scale 0 1 0.5 0;
#X obj 100 70 m_scale 0 1 500 5;
#X msg 231 170 1;
#X obj 231 146 loadbang;
#X obj 286 313 loadbang;
#X msg 286 334 0.5;
#X text 318 335 Width;
#X obj 100 24 loadbang;
#X msg 100 45 0.65;
#X text 138 46 Pan;
#X obj 225 436 s panvalue;
#X connect 0 0 21 0;
#X connect 1 0 0 0;
#X connect 2 0 31 0;
#X connect 3 0 22 0;
#X connect 4 0 23 0;
#X connect 5 0 24 0;
#X connect 6 0 25 0;
#X connect 7 0 1 0;
#X connect 8 0 3 0;
#X connect 8 1 22 0;
#X connect 9 0 4 0;
#X connect 9 1 23 0;
#X connect 10 0 5 0;
#X connect 10 1 24 0;
#X connect 11 0 6 0;
#X connect 11 1 25 0;
#X connect 12 0 16 0;
#X connect 12 1 26 0;
#X connect 13 0 17 0;
#X connect 13 1 27 0;
#X connect 14 0 18 0;
#X connect 14 1 28 0;
#X connect 15 0 19 0;
#X connect 15 1 29 0;
#X connect 16 0 26 0;
#X connect 17 0 27 0;
#X connect 18 0 28 0;
#X connect 19 0 29 0;
#X connect 20 0 8 0;
#X connect 20 1 9 0;
#X connect 20 2 10 0;
#X connect 20 3 11 0;
#X connect 20 4 12 0;
#X connect 20 5 13 0;
#X connect 20 6 14 0;
#X connect 20 7 15 0;
#X connect 21 0 20 0;
#X connect 22 0 2 0;
#X connect 23 0 2 0;
#X connect 24 0 2 0;
#X connect 25 0 2 0;
#X connect 26 0 2 0;
#X connect 27 0 2 0;
#X connect 28 0 2 0;
#X connect 29 0 2 0;
#X connect 30 0 0 0;
#X connect 30 1 0 1;
#X connect 31 0 43 0;
#X connect 32 0 31 4;
#X connect 33 0 32 0;
#X connect 33 0 31 3;
#X connect 34 0 30 0;
#X connect 35 0 3 0;
#X connect 35 0 4 0;
#X connect 35 0 5 0;
#X connect 35 0 6 0;
#X connect 35 0 16 0;
#X connect 35 0 17 0;
#X connect 35 0 18 0;
#X connect 35 0 19 0;
#X connect 36 0 35 0;
#X connect 37 0 38 0;
#X connect 38 0 33 0;
#X connect 40 0 41 0;
#X connect 41 0 34 0;
#X restore 36 308 pd panvalue;
#X text 37 287 Utilities;
#X obj 252 130 r sampleToSwitch;
#X obj 252 152 int;
#X obj 935 674 catch~ FX;
#X text 886 20 OFF;
#X msg 879 72 bang;
#X obj 262 177 print sampleToSwitchReceived;
#X text 932 652 Dummy receives to avoid errors;
#X obj 928 16 loadbang;
#X msg 880 249 \; PPC 0 PPC-A PPC-off \; MIC 0 FX \;;
#X obj 39 443 s mic-on/off;
#X obj 39 401 tgl 35 0 empty empty MIC_ON/OFF -20 -12 0 15 -262144
-1 -1 1 1;
#X obj 247 105 hradio 15 1 0 20 empty empty empty 0 -8 0 10 -262144
-1 -1 0;
#X floatatom 214 149 5 0 0 0 - - -;
#X obj 47 360 loadbang;
#X msg 879 127 \; PPC 1 PPC-Interface PPC-off \; MIC 0 FX \;;
#X obj 470 33 r currentTime;
#X obj 470 64 print currentTimeReceived;
#X text 40 76 Loops;
#N canvas 173 101 1107 720 loop-playback 0;
#X obj 672 273 moses 1;
#X obj 672 382 switch~;
#X obj 140 628 throw~ RIGHT;
#X obj 96 61 r PPC;
#X obj 672 232 r PPC;
#X msg 700 323 clear;
#X obj 684 303 t f b;
#X obj 96 234 sel 1;
#X msg 109 257 stop;
#X obj 672 253 unpack f;
#X obj 96 92 unpack f s s;
#N canvas 545 91 522 450 loop-player-main 0;
#X obj 96 158 symbol s;
#X obj 96 206 s_fplaytable2;
#X msg 96 180 \$1;
#X obj 184 226 spigot 0;
#X obj 96 285 outlet~;
#X obj 140 306 outlet~;
#X obj 260 112 inlet symbol;
#X obj 177 112 inlet loop;
#X obj 96 112 inlet play;
#X obj 184 247 s loop-bang;
#X connect 0 0 2 0;
#X connect 1 0 4 0;
#X connect 1 1 5 0;
#X connect 1 2 3 0;
#X connect 2 0 1 0;
#X connect 3 0 9 0;
#X connect 6 0 0 1;
#X connect 7 0 3 1;
#X connect 8 0 0 0;
#X restore 54 337 pd loop-player-main;
#N canvas 167 359 698 549 loop-player-other 0;
#X obj 186 200 s_fplaytable2;
#X obj 186 429 outlet~;
#X obj 230 450 outlet~;
#X obj 193 75 inlet symbol;
#X obj 98 74 inlet play;
#X obj 186 299 *~;
#X obj 230 299 *~;
#X msg 107 362 clear;
#X obj 76 342 t f b;
#X obj 98 402 switch~;
#X obj 98 315 moses 1;
#X obj 98 292 unpack f;
#X obj 186 174 t a b;
#X obj 98 100 symbol PPC-off;
#X obj 248 274 line~;
#X msg 248 232 1 1000;
#X msg 98 194 0 1000;
#X obj 98 150 sel PPC-off;
#X obj 98 382 pipe 1200;
#X obj 197 131 print sample;
#X connect 0 0 5 0;
#X connect 0 1 6 0;
#X connect 3 0 13 1;
#X connect 4 0 13 0;
#X connect 5 0 1 0;
#X connect 6 0 2 0;
#X connect 7 0 18 0;
#X connect 8 0 9 0;
#X connect 8 1 7 0;
#X connect 10 0 18 0;
#X connect 10 1 8 0;
#X connect 11 0 10 0;
#X connect 12 0 0 0;
#X connect 12 1 15 0;
#X connect 13 0 17 0;
#X connect 13 0 19 0;
#X connect 14 0 6 1;
#X connect 14 0 5 1;
#X connect 15 0 11 0;
#X connect 15 0 14 0;
#X connect 16 0 11 0;
#X connect 16 0 14 0;
#X connect 17 0 16 0;
#X connect 17 1 12 0;
#X connect 18 0 9 0;
#X restore 96 467 pd loop-player-other;
#X obj 96 524 *~ 1;
#X obj 140 524 *~ 1;
#X obj 54 305 r loop-bang;
#X obj 96 608 throw~ LEFT;
#X obj 304 161 r sampleToSwitch;
#X obj 286 206 sel 8;
#X obj 438 7 r currentTime;
#X obj 477 89 <= 24;
#X obj 438 65 t f f;
#X obj 438 116 +;
#X obj 438 140 == 2;
#X obj 286 260 f;
#X obj 286 183 f;
#X obj 186 112 t b s;
#X obj 527 65 t f f;
#X obj 527 116 +;
#X obj 527 140 == 2;
#X obj 438 162 +;
#X obj 438 35 t f f;
#X obj 527 89 >= 0;
#X obj 438 186 > 0;
#X obj 566 89 <= 4;
#X text 478 34 Is the current hour between 5pm and 5am?;
#X text 325 205 Only for sample 8 (I);
#X obj 96 280 del 1000;
#X obj 96 209 t f f;
#X obj 492 474 !table PPC-Z-1;
#X obj 492 494 !table PPC-Z-2;
#X obj 493 527 u_samplebank2 PPC-Interface Interface.wav;
#X obj 672 359 pipe 2500;
#X obj 218 285 sel PPC-I-Drums;
#X obj 218 369 f;
#X obj 218 402 sel 1 0;
#X msg 218 424 symbol PPC-I-Drums;
#X msg 237 444 symbol PPC-off;
#X msg 218 312 bang;
#X msg 286 232 bang;
#X obj 218 341 del 100;
#X obj 470 229 print currentTimeReceived;
#X obj 234 496 print playingDrumSample;
#X obj 330 324 print currentTimeReceived2;
#X obj 301 383 print currentTimeReceived3;
#X obj 438 89 >= 17;
#X connect 0 0 42 0;
#X connect 0 1 6 0;
#X connect 3 0 10 0;
#X connect 4 0 9 0;
#X connect 5 0 42 0;
#X connect 6 0 1 0;
#X connect 6 1 5 0;
#X connect 7 0 37 0;
#X connect 7 1 8 0;
#X connect 8 0 37 0;
#X connect 9 0 0 0;
#X connect 10 0 38 0;
#X connect 10 1 11 2;
#X connect 10 2 26 0;
#X connect 11 0 13 0;
#X connect 11 1 14 0;
#X connect 12 0 13 0;
#X connect 12 1 14 0;
#X connect 13 0 16 0;
#X connect 14 0 2 0;
#X connect 15 0 11 0;
#X connect 15 0 12 0;
#X connect 17 0 25 1;
#X connect 18 0 49 0;
#X connect 19 0 31 0;
#X connect 20 0 22 1;
#X connect 21 0 55 0;
#X connect 21 1 20 0;
#X connect 22 0 23 0;
#X connect 23 0 30 0;
#X connect 24 0 44 1;
#X connect 24 0 53 0;
#X connect 25 0 18 0;
#X connect 26 0 25 0;
#X connect 26 1 43 0;
#X connect 27 0 32 0;
#X connect 27 1 34 0;
#X connect 28 0 29 0;
#X connect 29 0 30 1;
#X connect 30 0 33 0;
#X connect 31 0 21 0;
#X connect 31 1 27 0;
#X connect 32 0 28 0;
#X connect 33 0 24 1;
#X connect 33 0 51 0;
#X connect 34 0 28 1;
#X connect 37 0 11 0;
#X connect 37 0 12 0;
#X connect 38 0 7 0;
#X connect 38 1 11 1;
#X connect 42 0 1 0;
#X connect 43 0 48 0;
#X connect 43 1 12 1;
#X connect 44 0 45 0;
#X connect 44 0 54 0;
#X connect 45 0 46 0;
#X connect 45 1 47 0;
#X connect 46 0 12 1;
#X connect 46 0 52 0;
#X connect 47 0 12 1;
#X connect 47 0 52 0;
#X connect 48 0 50 0;
#X connect 49 0 24 0;
#X connect 50 0 44 0;
#X connect 55 0 22 0;
#X restore 41 95 pd loop-playback;
#X text 42 146 Mic FX;
#X obj 880 185 r stopInterfaceMusic;
#X obj 879 41 r startInterfaceMusic;
#X obj 893 217 print stoppingInterfaceMusic;
#X obj 926 96 print startingInterfaceMusic;
#X text 566 226 ON;
#X obj 723 584 pack s s s;
#X msg 723 607 \; PPC 1 PPC-\$1 PPC-\$3 \; MIC 1 \$2 \;;
#X msg 563 249 A d-delay off;
#X msg 563 308 D helicopter off;
#X msg 564 428 J granular off;
#X msg 564 468 L robotvoice off;
#X msg 564 488 M contact off;
#X msg 563 548 P cutter off;
#X msg 564 408 I doppler I-Drums;
#X msg 563 289 C radio off;
#X msg 563 448 K whispers off;
#X msg 563 570 Z q-drums off;
#X msg 563 634 T panned-and-pitched off;
#X msg 564 528 O omen off;
#X msg 743 436 S soslooper off;
#X msg 564 591 R confusion off;
#X msg 563 269 B uplifts off;
#N canvas 331 38 373 374 timebase 0;
#X obj 18 36 tgl 15 0 empty empty empty 17 7 0 10 -262144 -1 -1 1 1
;
#X obj 18 15 loadbang;
#X obj 18 118 f;
#X obj 46 118 + 1;
#X obj 18 311 s tick;
#X obj 18 268 list prepend;
#X obj 59 248 list split 1;
#X obj 59 227 r MIC;
#X obj 18 289 list trim;
#X obj 248 120 m_bpm2ms;
#X floatatom 250 146 9 0 0 0 - - -;
#X obj 258 168 / 8;
#X floatatom 262 188 9 0 0 0 - - -;
#X msg 237 87 104;
#X obj 18 57 metro 64.1026;
#X connect 0 0 14 0;
#X connect 1 0 0 0;
#X connect 2 0 3 0;
#X connect 2 0 5 0;
#X connect 3 0 2 1;
#X connect 5 0 8 0;
#X connect 6 1 5 1;
#X connect 7 0 6 0;
#X connect 8 0 4 0;
#X connect 9 0 10 0;
#X connect 10 0 11 0;
#X connect 11 0 12 0;
#X connect 13 0 9 0;
#X connect 14 0 2 0;
#X restore 42 49 pd timebase;
#X text 18 167 Now in individual samplepatches...;
#X msg 564 348 F spacewobble off;
#X msg 563 329 E metallic off;
#X msg 564 368 G phasemod off;
#X msg 564 389 H platereverb off;
#N canvas 145 60 873 595 io 0;
#X obj 49 59 catch~ LEFT;
#X obj 144 59 catch~ RIGHT;
#X obj 555 131 e_agc;
#X obj 104 153 catch~ C;
#X obj 555 173 lop~ 4000;
#X obj 555 152 *~ 0.9;
#X obj 518 529 throw~ REVERB;
#X obj 555 69 adc~;
#X obj 67 92 catch~ FX-RETURN-L;
#X obj 153 113 catch~ FX-RETURN-R;
#X obj 67 246 *~ 1.5;
#X obj 153 246 *~ 1.5;
#X obj 67 211 e_mcompressor-stereo 65 2;
#X obj 49 417 dac~ 1;
#X obj 144 417 dac~ 2;
#X obj 573 203 r MIC;
#X obj 555 426 *~;
#X msg 621 431 set \$1;
#X obj 555 474 throw~ FX;
#X obj 573 228 unpack f s;
#X obj 555 106 *~;
#X obj 599 73 r mic-on/off;
#X obj 263 206 sel 0;
#X obj 295 228 t b b;
#X msg 315 249 stop;
#X text 363 244 Fades between samples;
#X msg 263 270 0 1000;
#X msg 315 290 1 1000;
#X obj 263 146 r PPC;
#X obj 263 177 unpack f s s;
#X obj 518 506 *~ 0.05;
#X obj 144 396 *~;
#X obj 49 396 *~;
#X obj 263 337 line~;
#X obj 315 270 del 2000;
#X obj 573 396 line~;
#X obj 621 411 symbol;
#X obj 573 255 moses 1;
#X obj 619 320 pipe 2000;
#X obj 573 276 t f b;
#X msg 630 299 clear;
#X obj 573 369 pack f 1000;
#X obj 589 346 t f b;
#X text 619 453 Routes Mic input to effects;
#X connect 0 0 32 0;
#X connect 1 0 31 0;
#X connect 2 0 5 0;
#X connect 3 0 12 1;
#X connect 3 0 12 0;
#X connect 4 0 16 0;
#X connect 5 0 4 0;
#X connect 7 0 20 0;
#X connect 7 1 20 0;
#X connect 8 0 12 0;
#X connect 9 0 12 1;
#X connect 10 0 32 0;
#X connect 11 0 31 0;
#X connect 12 0 10 0;
#X connect 12 1 11 0;
#X connect 15 0 19 0;
#X connect 16 0 18 0;
#X connect 17 0 18 0;
#X connect 19 0 37 0;
#X connect 19 1 36 1;
#X connect 20 0 2 0;
#X connect 21 0 20 1;
#X connect 22 0 26 0;
#X connect 22 0 24 0;
#X connect 22 1 23 0;
#X connect 23 0 26 0;
#X connect 23 1 34 0;
#X connect 24 0 34 0;
#X connect 26 0 33 0;
#X connect 27 0 33 0;
#X connect 28 0 29 0;
#X connect 29 0 22 0;
#X connect 30 0 6 0;
#X connect 31 0 14 0;
#X connect 32 0 13 0;
#X connect 33 0 31 1;
#X connect 33 0 32 1;
#X connect 34 0 27 0;
#X connect 35 0 16 1;
#X connect 36 0 17 0;
#X connect 37 0 39 0;
#X connect 37 1 38 0;
#X connect 38 0 42 0;
#X connect 39 0 41 0;
#X connect 39 1 40 0;
#X connect 40 0 38 0;
#X connect 41 0 35 0;
#X connect 42 0 41 0;
#X connect 42 1 36 0;
#X restore 42 28 pd io sys;
#X obj 252 203 sel 0 1 2 3 4 5 6 7 8 9 10 11 12 13 14 15 16 17 18 19
20;
#X connect 6 0 7 0;
#X connect 7 0 11 0;
#X connect 7 0 55 0;
#X connect 10 0 20 0;
#X connect 10 0 29 0;
#X connect 13 0 10 0;
#X connect 16 0 15 0;
#X connect 17 0 18 0;
#X connect 17 0 7 0;
#X connect 19 0 16 0;
#X connect 21 0 22 0;
#X connect 26 0 14 0;
#X connect 26 0 28 0;
#X connect 27 0 10 0;
#X connect 31 0 32 0;
#X connect 33 0 31 0;
#X connect 34 0 31 0;
#X connect 35 0 31 0;
#X connect 36 0 31 0;
#X connect 37 0 31 0;
#X connect 38 0 31 0;
#X connect 39 0 31 0;
#X connect 40 0 31 0;
#X connect 41 0 31 0;
#X connect 42 0 31 0;
#X connect 43 0 31 0;
#X connect 44 0 31 0;
#X connect 45 0 31 0;
#X connect 46 0 31 0;
#X connect 47 0 31 0;
#X connect 50 0 31 0;
#X connect 51 0 31 0;
#X connect 52 0 31 0;
#X connect 53 0 31 0;
#X connect 55 0 33 0;
#X connect 55 1 47 0;
#X connect 55 2 40 0;
#X connect 55 3 34 0;
#X connect 55 4 51 0;
#X connect 55 5 50 0;
#X connect 55 6 52 0;
#X connect 55 7 53 0;
#X connect 55 8 39 0;
#X connect 55 9 35 0;
#X connect 55 10 41 0;
#X connect 55 11 36 0;
#X connect 55 12 37 0;
#X connect 55 14 44 0;
#X connect 55 15 38 0;
#X connect 55 16 42 0;
#X connect 55 17 46 0;
#X connect 55 19 43 0;
#X connect 55 20 45 0;
