#N canvas 0 22 450 300 10;
#N canvas 44 109 1002 671 q-drums 0;
#X msg 742 193 1;
#X msg 777 193 0;
#X obj 774 244 sel 1 0;
#X msg 774 265 1;
#X msg 805 265 0;
#X msg 814 312 clear;
#X obj 774 286 t f b;
#X obj 774 358 t f f;
#X obj 774 382 switch~;
#X obj 702 151 list split 1;
#X obj 702 130 r MIC;
#X obj 742 220 t f f;
#X obj 805 73 list split 1;
#X obj 805 52 r Sample-FX;
#X obj 845 139 spigot;
#X obj 884 99 swap 1;
#X obj 884 120 -;
#X msg 845 187 1;
#X msg 880 187 0;
#X obj 742 172 sel q-drums;
#X obj 845 162 sel q-drums;
#X obj 31 188 metro 64.1026;
#X obj 31 168 tgl 15 0 empty empty empty 17 7 0 10 -262144 -1 -1 0
1;
#X obj 31 215 f;
#X obj 57 215 + 1;
#X obj 31 280 sel 0;
#X obj 31 251 mod 256;
#X obj 131 466 e_repeater;
#X msg 329 380 num 0;
#X msg 412 350 dry \$1;
#X obj 412 330 line;
#X obj 329 241 loadbang;
#X obj 413 265 swap 1;
#X obj 413 287 -;
#X obj 482 299 + 1;
#X obj 482 258 sel 1;
#X obj 168 493 e_repeater;
#X msg 482 354 64.1026;
#X msg 498 377 128.205;
#X msg 515 399 256.41;
#X obj 413 310 pack f 100;
#X obj 413 86 catch~ q-drums;
#X obj 413 112 env~;
#X obj 413 179 change;
#X obj 413 149 > 85;
#X msg 32 343 PPC-Q;
#X msg 661 212 0;
#X obj 482 278 random 3;
#X obj 413 211 t f f;
#X obj 482 321 sel 1 2 3;
#X text 447 113 Repeater triggered by audio level;
#X obj 482 433 f;
#X text 550 376 Repeat-time;
#X msg 338 267 1;
#X msg 131 344 PPC-Q-Drums;
#X obj 805 336 pipe 1200;
#X obj 177 624 print playing-sample-Q;
#X obj 32 367 s_playtable2;
#X obj 131 368 s_playtable2;
#X obj 93 538 *~ 1;
#X obj 31 566 *~ 1;
#X obj 818 392 print q-drums-switch;
#X obj 93 568 throw~ RIGHT;
#X obj 31 596 throw~ LEFT;
#N canvas 275 111 552 488 record-samples 0;
#X msg 189 336 clear \, start;
#X obj 123 315 t b b;
#X obj 59 45 inlet~;
#X msg 123 357 normalize;
#X msg 359 336 clear \, start;
#X obj 293 315 t b b;
#X msg 293 357 normalize;
#X obj 59 377 *~ 1;
#X obj 123 113 debounce 500;
#X obj 192 177 f;
#X obj 219 177 + 1;
#X obj 123 230 list prepend;
#X obj 123 255 list trim;
#X obj 123 336 del 500;
#X obj 293 336 del 500;
#X msg 123 141 bang;
#X obj 58 177 lop~ 2500;
#X obj 58 197 lop~ 2500;
#X obj 59 442 u_record q-drum-0 100;
#X obj 249 442 u_record q-drum-1 100;
#X obj 248 235 s just-recorded-q-drum;
#X obj 290 280 print recording-q-drum;
#X obj 192 201 mod 2;
#X text 282 146 Alternately record into 2 buffers...;
#X obj 123 283 route 0 1;
#X obj 123 81 a_onset 1024 11;
#X connect 0 0 18 1;
#X connect 1 0 13 0;
#X connect 1 1 0 0;
#X connect 2 0 16 0;
#X connect 2 0 25 0;
#X connect 3 0 18 1;
#X connect 4 0 19 1;
#X connect 5 0 14 0;
#X connect 5 1 4 0;
#X connect 6 0 19 1;
#X connect 7 0 18 0;
#X connect 7 0 19 0;
#X connect 8 0 15 0;
#X connect 9 0 10 0;
#X connect 9 0 22 0;
#X connect 10 0 9 1;
#X connect 11 0 12 0;
#X connect 12 0 21 0;
#X connect 12 0 24 0;
#X connect 13 0 3 0;
#X connect 14 0 6 0;
#X connect 15 0 9 0;
#X connect 15 0 11 0;
#X connect 16 0 17 0;
#X connect 17 0 7 0;
#X connect 22 0 11 1;
#X connect 22 0 20 0;
#X connect 24 0 1 0;
#X connect 24 1 5 0;
#X connect 25 0 8 0;
#X restore 468 158 pd record-samples;
#N canvas 1 22 583 653 user-drums 0;
#X obj 94 96 inlet;
#X obj 94 536 outlet~;
#X obj 151 536 outlet~;
#X obj 94 129 mod 64;
#X obj 94 232 s_playtable;
#X msg 94 200 q-drum-0;
#X obj 94 162 sel 8 16 28 40 52;
#X obj 94 438 e_platereverb;
#X obj 169 347 loadbang;
#X msg 169 374 dry 0.6 \, decay_diffusion2 0.74 \, decay_diffusion1
0.889 \, input_diffusion2 0.779 \, excursion 0 \, input_diffusion1
0.685 \, decay 0.89 \, damping 4637 \, bandwidth 10000 \, predelay
10 \,;
#X obj 229 262 s_playtable;
#X msg 229 230 q-drum-1;
#X obj 94 262 *~;
#X obj 229 292 *~;
#X obj 335 130 r just-recorded-q-drum;
#X obj 335 180 line~;
#X obj 229 162 sel 0 32;
#X msg 335 154 1.5 \, 0 20000 10000;
#X connect 0 0 3 0;
#X connect 3 0 6 0;
#X connect 3 0 16 0;
#X connect 4 0 12 0;
#X connect 5 0 4 0;
#X connect 6 0 5 0;
#X connect 6 1 5 0;
#X connect 6 2 5 0;
#X connect 6 3 5 0;
#X connect 6 4 5 0;
#X connect 7 0 1 0;
#X connect 7 1 2 0;
#X connect 8 0 9 0;
#X connect 9 0 7 2;
#X connect 10 0 13 0;
#X connect 11 0 10 0;
#X connect 12 0 7 0;
#X connect 12 0 7 1;
#X connect 13 0 7 1;
#X connect 13 0 7 0;
#X connect 14 0 17 0;
#X connect 15 0 12 1;
#X connect 15 0 13 1;
#X connect 16 0 11 0;
#X connect 16 1 11 0;
#X connect 17 0 15 0;
#X restore 234 354 pd user-drums;
#X connect 0 0 11 0;
#X connect 0 0 15 0;
#X connect 0 0 46 0;
#X connect 1 0 11 0;
#X connect 1 0 15 0;
#X connect 2 0 3 0;
#X connect 2 1 4 0;
#X connect 3 0 6 0;
#X connect 4 0 55 0;
#X connect 5 0 55 0;
#X connect 6 0 7 0;
#X connect 6 1 5 0;
#X connect 7 0 8 0;
#X connect 7 1 22 0;
#X connect 7 1 61 0;
#X connect 9 1 19 0;
#X connect 10 0 9 0;
#X connect 11 1 2 0;
#X connect 12 1 14 0;
#X connect 13 0 12 0;
#X connect 14 0 20 0;
#X connect 15 0 16 0;
#X connect 15 1 16 1;
#X connect 16 0 14 1;
#X connect 17 0 11 0;
#X connect 18 0 11 0;
#X connect 19 0 0 0;
#X connect 19 1 1 0;
#X connect 20 0 17 0;
#X connect 20 1 18 0;
#X connect 21 0 23 0;
#X connect 22 0 21 0;
#X connect 23 0 24 0;
#X connect 23 0 26 0;
#X connect 24 0 23 1;
#X connect 25 0 54 0;
#X connect 25 0 45 0;
#X connect 26 0 25 0;
#X connect 26 0 65 0;
#X connect 27 0 60 0;
#X connect 28 0 27 1;
#X connect 28 0 36 1;
#X connect 29 0 27 1;
#X connect 29 0 36 1;
#X connect 30 0 29 0;
#X connect 31 0 28 0;
#X connect 31 0 53 0;
#X connect 32 0 33 0;
#X connect 32 1 33 1;
#X connect 33 0 40 0;
#X connect 34 0 49 0;
#X connect 35 0 47 0;
#X connect 36 0 59 0;
#X connect 37 0 51 0;
#X connect 38 0 51 0;
#X connect 39 0 51 0;
#X connect 40 0 30 0;
#X connect 41 0 42 0;
#X connect 41 0 64 0;
#X connect 42 0 44 0;
#X connect 43 0 48 0;
#X connect 44 0 43 0;
#X connect 45 0 56 0;
#X connect 45 0 57 0;
#X connect 46 0 23 0;
#X connect 47 0 34 0;
#X connect 48 0 32 0;
#X connect 48 1 35 0;
#X connect 49 0 37 0;
#X connect 49 1 38 0;
#X connect 49 2 39 0;
#X connect 51 0 36 1;
#X connect 51 0 27 1;
#X connect 53 0 40 0;
#X connect 54 0 58 0;
#X connect 55 0 7 0;
#X connect 57 0 60 0;
#X connect 57 1 59 0;
#X connect 58 0 27 0;
#X connect 58 1 36 0;
#X connect 59 0 62 0;
#X connect 60 0 63 0;
#X connect 65 0 27 0;
#X connect 65 1 36 0;
#X restore 164 189 pd q-drums;
