#N canvas 205 51 467 778 10;
#N canvas 107 83 463 774 samplebanks 0;
#X obj 17 37 loadbang;
#X obj 17 58 samplerate~;
#X msg 17 82 sr \$1;
#X obj 86 140 u_samplebank2 PPC-B PPC-B.wav;
#X obj 86 180 u_samplebank2 PPC-D PPC-D.wav;
#X obj 86 200 u_samplebank2 PPC-E PPC-E.wav;
#X obj 86 240 u_samplebank2 PPC-G PPC-G.wav;
#X obj 86 300 u_samplebank2 PPC-I PPC-I.wav;
#X obj 86 320 u_samplebank2 PPC-J PPC-J.wav;
#X obj 86 340 u_samplebank2 PPC-K PPC-K.wav;
#X obj 86 360 u_samplebank2 PPC-L PPC-L.wav;
#X obj 86 380 u_samplebank2 PPC-M PPC-M.wav;
#X obj 86 540 u_samplebank2 PPC-I-Drums PPC-I-Drums.wav;
#X obj 86 420 u_samplebank2 PPC-P PPC-P.wav;
#X obj 86 160 u_samplebank2 PPC-C PPC-C.wav;
#X obj 86 220 u_samplebank2 PPC-F PPC-F.wav;
#X obj 86 560 u_samplebank2 PPC-E-Piano PPC-E-Piano.wav;
#X obj 86 580 u_samplebank2 PPC-Breathing PPC-Breathing.wav;
#X obj 86 440 u_samplebank2 PPC-Q PPC-Q.wav;
#X obj 86 460 u_samplebank2 PPC-Q-DRUMS PPC-Q-Drums.wav;
#X obj 86 280 u_samplebank2 PPC-H PPC-H.wav;
#X obj 86 480 u_samplebank2 PPC-T PPC-T.wav;
#X obj 86 400 u_samplebank2 PPC-O PPC-O.wav;
#X obj 86 260 u_samplebank2 PPC-G-Speech PPC-G-Speech.wav;
#X connect 0 0 1 0;
#X connect 1 0 2 0;
#X connect 2 0 3 0;
#X connect 2 0 4 0;
#X connect 2 0 5 0;
#X connect 2 0 6 0;
#X connect 2 0 7 0;
#X connect 2 0 8 0;
#X connect 2 0 9 0;
#X connect 2 0 10 0;
#X connect 2 0 11 0;
#X connect 2 0 12 0;
#X connect 2 0 13 0;
#X connect 2 0 14 0;
#X connect 2 0 15 0;
#X connect 2 0 16 0;
#X connect 2 0 17 0;
#X connect 2 0 18 0;
#X connect 2 0 20 0;
#X connect 2 0 19 0;
#X connect 2 0 21 0;
#X connect 2 0 22 0;
#X connect 2 0 23 0;
#X restore 96 69 pd samplebanks;
