#N canvas 565 33 693 553 10;
#X obj 135 201 t f f;
#X obj 135 243 +;
#X obj 135 264 == 2;
#X obj 215 201 t f f;
#X obj 215 244 +;
#X obj 215 265 == 2;
#X obj 135 295 +;
#X obj 135 316 == 2;
#X obj 135 339 sel 1;
#X obj 95 84 inlet;
#X obj 135 420 outlet;
#X obj 135 222 > \$1;
#X obj 167 223 < \$2;
#X obj 215 223 > \$3;
#X obj 247 223 < \$4;
#X obj 295 420 outlet;
#X obj 135 180 unpack 0 0;
#X obj 95 154 list split 1;
#X obj 95 117 route down xy up;
#X obj 295 201 t f f;
#X obj 295 243 +;
#X obj 295 264 == 2;
#X obj 375 201 t f f;
#X obj 375 244 +;
#X obj 375 265 == 2;
#X obj 295 295 +;
#X obj 295 316 == 2;
#X obj 295 222 > \$1;
#X obj 327 223 < \$2;
#X obj 375 223 > \$3;
#X obj 407 223 < \$4;
#X obj 295 180 unpack 0 0;
#X obj 255 154 list split 1;
#X obj 295 337 sel 1;
#X text 163 34 Identifies bounds of a button on the screen;
#X text 163 54 Corner points are passed as arguements;
#X text 8 444 Bangs if screen is pressed within bounds;
#X text 283 444 Bangs if screen is released within bounds;
#X text 150 377 If user has exited the button area while still touching
\, this will bang to say the button has been released;
#X connect 0 0 11 0;
#X connect 0 1 12 0;
#X connect 1 0 2 0;
#X connect 2 0 6 0;
#X connect 3 0 13 0;
#X connect 3 1 14 0;
#X connect 4 0 5 0;
#X connect 5 0 6 1;
#X connect 6 0 7 0;
#X connect 7 0 8 0;
#X connect 8 0 10 0;
#X connect 8 1 15 0;
#X connect 9 0 18 0;
#X connect 11 0 1 0;
#X connect 12 0 1 1;
#X connect 13 0 4 0;
#X connect 14 0 4 1;
#X connect 16 0 0 0;
#X connect 16 1 3 0;
#X connect 17 1 16 0;
#X connect 18 0 17 0;
#X connect 18 1 17 0;
#X connect 18 2 32 0;
#X connect 19 0 27 0;
#X connect 19 1 28 0;
#X connect 20 0 21 0;
#X connect 21 0 25 0;
#X connect 22 0 29 0;
#X connect 22 1 30 0;
#X connect 23 0 24 0;
#X connect 24 0 25 1;
#X connect 25 0 26 0;
#X connect 26 0 33 0;
#X connect 27 0 20 0;
#X connect 28 0 20 1;
#X connect 29 0 23 0;
#X connect 30 0 23 1;
#X connect 31 0 19 0;
#X connect 31 1 22 0;
#X connect 32 1 31 0;
#X connect 33 0 15 0;
