#N canvas 15 22 788 720 10;
#X obj 177 395 t f f;
#X obj 398 458 t b f;
#X obj 318 508 f;
#X obj 318 538 /;
#X obj 318 478 -;
#X obj 138 327 f;
#X obj 272 285 t b f f;
#X obj 318 388 t f f f f;
#X obj 318 568 +;
#X obj 71 40 inlet~;
#X obj 573 86 inlet;
#X obj 138 357 t f f;
#X obj 279 419 max 70;
#X obj 138 417 min 70;
#X obj 138 447 sel 70;
#X obj 279 449 sel 70;
#X obj 500 747 outlet;
#X obj 71 793 outlet~;
#X obj 500 717 list trim;
#X obj 500 617 r \$0-to-gui;
#X obj 573 106 u_dispatch \$0 load;
#X obj 356 184 r \$0-load;
#X obj 272 191 \$1;
#X obj 445 190 \$2;
#X obj 272 213 t f f;
#X msg 328 276 threshold \$1;
#X obj 328 298 s \$0-to-gui;
#X obj 272 89 loadbang;
#X obj 272 111 t b b;
#X obj 445 212 t f f;
#X msg 457 274 ratio \$1;
#X obj 457 296 s \$0-to-gui;
#X obj 573 126 u_dispatch \$0 gui-state;
#X obj 500 687 list prepend gui;
#X obj 328 253 f;
#X obj 356 206 t b b;
#X obj 457 254 f;
#X obj 573 146 u_dispatch \$0 threshold;
#X obj 573 166 u_dispatch \$0 ratio;
#X obj 445 160 r \$0-ratio;
#X obj 280 160 r \$0-threshold;
#X obj 138 138 env~ 256;
#X obj 138 230 s \$0-inputlevel;
#X obj 138 260 r \$0-inputlevel;
#X obj 138 290 t f f;
#X obj 318 598 s \$0-outputlevel;
#N canvas 639 436 295 281 gainreduc 0;
#X obj 42 108 -;
#X obj 42 128 / 20;
#X obj 42 148 t b f;
#X msg 42 168 10;
#X obj 42 188 pow;
#X obj 42 48 inlet output;
#X obj 60 78 inlet input;
#X obj 42 220 outlet gain-reduction;
#X text 80 186 gr = 20*log10(output - input);
#X connect 0 0 1 0;
#X connect 1 0 2 0;
#X connect 2 0 3 0;
#X connect 2 1 4 1;
#X connect 3 0 4 0;
#X connect 4 0 7 0;
#X connect 5 0 0 0;
#X connect 6 0 0 1;
#X restore 89 653 pd gainreduc;
#X obj 71 763 *~;
#X obj 89 703 pack f 40;
#X obj 89 733 line~;
#X text 350 538 Gain reduction;
#X obj 573 186 u_dispatch \$0 graph-input;
#X obj 573 206 u_dispatch \$0 switch;
#X obj 148 200 r \$0-graph-input;
#X obj 183 158 r \$0-switch;
#X obj 138 178 spigot 1;
#X text 158 703 40 ms attack/release;
#N canvas 0 22 688 449 GUI 0;
#X msg 55 237 input \$1;
#X obj 55 197 spigot 0;
#X obj 100 117 r \$0-gui-state;
#X obj 55 86 r \$0-inputlevel;
#X obj 248 179 spigot 0;
#X msg 248 219 output \$1;
#X obj 248 128 r \$0-outputlevel;
#X obj 55 217 m_speedlimit 50;
#X obj 248 199 m_speedlimit 50;
#X obj 293 159 r \$0-gui-state;
#X obj 474 128 r \$0-outputlevel;
#X obj 474 203 spigot 0;
#X obj 519 153 r \$0-switch;
#X obj 519 175 == 0;
#X text 490 103 Redraws graph;
#X text 256 103 Output level meter;
#X text 57 63 Input level meter;
#X obj 248 379 outlet \$0-to-gui;
#X msg 474 225 graph-output \$1;
#X connect 0 0 17 0;
#X connect 1 0 7 0;
#X connect 2 0 1 1;
#X connect 3 0 1 0;
#X connect 4 0 8 0;
#X connect 5 0 17 0;
#X connect 6 0 4 0;
#X connect 7 0 0 0;
#X connect 8 0 5 0;
#X connect 9 0 4 1;
#X connect 10 0 11 0;
#X connect 11 0 18 0;
#X connect 12 0 13 0;
#X connect 13 0 11 1;
#X connect 18 0 17 0;
#X restore 522 651 pd GUI INTERFACE;
#X obj 89 678 min 1;
#X obj 649 608 loadbang;
#X msg 649 650 gui-state 0;
#X obj 649 630 del 10;
#X obj 9 40 inlet~;
#X obj 9 793 outlet~;
#X obj 9 763 *~;
#X obj 89 623 r \$0-outputlevel;
#X obj 138 96 +~;
#X obj 138 116 *~ 0.5;
#X connect 0 0 13 1;
#X connect 0 1 14 1;
#X connect 1 0 2 0;
#X connect 1 1 3 1;
#X connect 2 0 3 0;
#X connect 3 0 8 0;
#X connect 4 0 2 0;
#X connect 5 0 11 0;
#X connect 6 0 5 0;
#X connect 6 1 0 0;
#X connect 6 2 7 0;
#X connect 7 0 12 1;
#X connect 7 1 15 1;
#X connect 7 2 4 1;
#X connect 7 3 8 1;
#X connect 8 0 45 0;
#X connect 9 0 47 0;
#X connect 9 0 66 1;
#X connect 10 0 20 0;
#X connect 11 0 13 0;
#X connect 11 1 12 0;
#X connect 12 0 15 0;
#X connect 13 0 14 0;
#X connect 14 1 45 0;
#X connect 15 1 4 0;
#X connect 18 0 16 0;
#X connect 19 0 33 0;
#X connect 20 0 32 0;
#X connect 21 0 35 0;
#X connect 22 0 24 0;
#X connect 23 0 29 0;
#X connect 24 0 6 0;
#X connect 24 1 34 1;
#X connect 25 0 26 0;
#X connect 27 0 28 0;
#X connect 28 0 22 0;
#X connect 28 1 23 0;
#X connect 29 0 1 0;
#X connect 29 1 36 1;
#X connect 30 0 31 0;
#X connect 32 0 37 0;
#X connect 33 0 18 0;
#X connect 34 0 25 0;
#X connect 35 0 34 0;
#X connect 35 1 36 0;
#X connect 36 0 30 0;
#X connect 37 0 38 0;
#X connect 38 0 51 0;
#X connect 39 0 23 0;
#X connect 40 0 22 0;
#X connect 41 0 55 0;
#X connect 43 0 44 0;
#X connect 44 0 5 0;
#X connect 44 1 46 1;
#X connect 46 0 58 0;
#X connect 47 0 17 0;
#X connect 48 0 49 0;
#X connect 49 0 47 1;
#X connect 49 0 64 1;
#X connect 51 0 52 0;
#X connect 53 0 42 0;
#X connect 54 0 55 1;
#X connect 55 0 42 0;
#X connect 57 0 33 0;
#X connect 58 0 48 0;
#X connect 59 0 61 0;
#X connect 60 0 33 0;
#X connect 61 0 60 0;
#X connect 62 0 64 0;
#X connect 62 0 66 0;
#X connect 64 0 63 0;
#X connect 65 0 46 0;
#X connect 66 0 67 0;
#X connect 67 0 41 0;
