#N canvas 316 79 566 590 10;
#X obj 192 138 env~ 1024;
#X obj 27 518 *~;
#X obj 45 497 line~;
#X floatatom 27 189 5 0 0 0 - - -;
#X msg 192 361 1;
#X text 74 189 forward control;
#X text 327 94 THRESHOLD;
#X text 441 94 FACTOR;
#X obj 245 287 -;
#X obj 245 373 +;
#X msg 245 352 100;
#X obj 245 330 t b f;
#X obj 245 394 dbtorms;
#X obj 245 210 t f f;
#X msg 45 477 \$1 20;
#X obj 319 52 loadbang;
#X obj 27 81 inlet~;
#X obj 27 545 outlet~;
#X obj 27 214 delread~ \$0-comp 20;
#X obj 27 142 delwrite~ \$0-comp 20;
#X obj 319 110 \$1;
#X obj 431 110 \$2;
#X obj 319 131 change 0;
#X obj 431 131 change 0;
#X obj 245 232 - 60;
#X obj 245 308 + 60;
#X obj 245 264 / 10;
#X obj 192 189 moses 60;
#X obj 249 78 inlet;
#X obj 431 76 inlet;
#X connect 0 0 27 0;
#X connect 1 0 17 0;
#X connect 2 0 1 1;
#X connect 3 0 18 0;
#X connect 4 0 14 0;
#X connect 8 0 25 0;
#X connect 9 0 12 0;
#X connect 10 0 9 0;
#X connect 11 0 10 0;
#X connect 11 1 9 1;
#X connect 12 0 14 0;
#X connect 13 0 24 0;
#X connect 13 1 8 1;
#X connect 14 0 2 0;
#X connect 15 0 20 0;
#X connect 15 0 21 0;
#X connect 16 0 0 0;
#X connect 16 0 19 0;
#X connect 18 0 1 0;
#X connect 20 0 22 0;
#X connect 21 0 23 0;
#X connect 22 0 24 1;
#X connect 22 0 25 1;
#X connect 22 0 27 1;
#X connect 23 0 26 1;
#X connect 24 0 26 0;
#X connect 25 0 11 0;
#X connect 26 0 8 0;
#X connect 27 0 4 0;
#X connect 27 1 13 0;
#X connect 28 0 20 0;
#X connect 29 0 21 0;
