#N canvas 166 170 389 424 10;
#X obj 48 28 inlet~;
#X obj 52 346 outlet~;
#N canvas 500 156 450 300 monsterlop 0;
#X obj 138 260 outlet~;
#X obj 136 16 inlet~;
#X obj 138 47 lop~ \$1;
#X obj 310 17 inlet;
#X obj 138 72 lop~ \$1;
#X obj 139 97 lop~ \$1;
#X obj 138 122 lop~ \$1;
#X obj 138 148 lop~ \$1;
#X obj 138 173 lop~ \$1;
#X obj 139 198 lop~ \$1;
#X obj 138 223 lop~ \$1;
#X connect 1 0 2 0;
#X connect 2 0 4 0;
#X connect 3 0 2 1;
#X connect 3 0 4 1;
#X connect 3 0 5 1;
#X connect 3 0 6 1;
#X connect 3 0 7 1;
#X connect 3 0 8 1;
#X connect 3 0 9 1;
#X connect 3 0 10 1;
#X connect 4 0 5 0;
#X connect 5 0 6 0;
#X connect 6 0 7 0;
#X connect 7 0 8 0;
#X connect 8 0 9 0;
#X connect 9 0 10 0;
#X connect 10 0 0 0;
#X restore 54 273 pd monsterlop;
#X obj 140 224 loadbang;
#X obj 77 217 max 80;
#X obj 75 50 env~ 1024;
#X obj 77 168 +;
#X obj 77 143 * 0.05;
#X obj 109 169 * 0.95;
#X obj 52 300 hip~ 80;
#X obj 52 323 hip~ 80;
#X obj 78 194 min 6000;
#X msg 140 245 6000;
#X obj 76 88 clip 75 83;
#X obj 76 117 m_scale 75 83 6000 80;
#X connect 0 0 5 0;
#X connect 0 0 2 0;
#X connect 2 0 9 0;
#X connect 3 0 12 0;
#X connect 4 0 2 1;
#X connect 5 0 13 0;
#X connect 6 0 8 0;
#X connect 6 0 11 0;
#X connect 7 0 6 0;
#X connect 8 0 6 1;
#X connect 9 0 10 0;
#X connect 10 0 1 0;
#X connect 11 0 4 0;
#X connect 12 0 2 1;
#X connect 13 0 14 0;
#X connect 14 0 7 0;
