#N canvas 283 52 527 314 10;
#X msg 186 194 clear \, start;
#X obj 120 173 t b b;
#X obj 120 194 del \$3;
#X obj 98 23 inlet~;
#X msg 120 215 normalize;
#X obj 120 148 debounce 3000;
#X obj 237 113 r doppler-debounce;
#X obj 263 143 r doppler-delaytime;
#X obj 98 240 u_record \$1-sample\$2 200;
#X obj 120 109 a_onset 128 12;
#X connect 0 0 8 1;
#X connect 1 0 2 0;
#X connect 1 1 0 0;
#X connect 2 0 4 0;
#X connect 3 0 8 0;
#X connect 3 0 9 0;
#X connect 4 0 8 1;
#X connect 5 0 1 0;
#X connect 6 0 5 1;
#X connect 7 0 2 1;
#X connect 9 0 5 0;
