#N canvas 0 22 440 678 10;
#N canvas 0 22 753 720 butterflies 0;
#N canvas 536 22 640 580 seeding 0;
#X obj 83 260 snapshot~;
#X obj 83 144 inlet~;
#X msg 83 356 seed \$1;
#X obj 262 230 + 1;
#X obj 196 183 pipe;
#X obj 196 160 unpack 0 0;
#X obj 83 310 abs;
#X obj 83 334 int;
#X obj 83 286 * 1e+07;
#X obj 228 230 f 0;
#X obj 196 97 sel 1;
#X obj 196 76 == 64;
#X msg 164 319 symbol SEED-\$1;
#X obj 197 204 t b b b;
#X obj 83 385 list prepend;
#X obj 83 419 list prepend;
#X msg 83 448 \; \$1-\$2 \$3 \$4 \;;
#X obj 243 385 \$0;
#X obj 228 256 mod 1;
#X msg 196 124 0 100;
#X obj 196 54 r tick;
#X connect 0 0 8 0;
#X connect 1 0 0 0;
#X connect 2 0 14 0;
#X connect 3 0 9 1;
#X connect 4 0 13 0;
#X connect 5 0 4 0;
#X connect 5 1 4 1;
#X connect 6 0 7 0;
#X connect 7 0 2 0;
#X connect 8 0 6 0;
#X connect 9 0 18 0;
#X connect 10 0 19 0;
#X connect 11 0 10 0;
#X connect 12 0 14 1;
#X connect 13 0 0 0;
#X connect 13 1 9 0;
#X connect 13 2 17 0;
#X connect 14 0 15 0;
#X connect 15 0 16 0;
#X connect 17 0 15 1;
#X connect 18 0 3 0;
#X connect 18 0 12 0;
#X connect 19 0 5 0;
#X restore 264 120 pd seeding;
#X obj 350 82 catch~ butterflies;
#X obj 349 268 e_repeater repea;
#N canvas 38 22 368 560 panner4 0;
#X obj 97 -115 e_pan;
#X obj 97 -303 inlet~;
#X obj 2077 -450;
#X obj 2077 -429;
#X obj 2077 -429;
#X obj 97 -72 outlet~;
#X obj 153 -72 outlet~;
#X obj 129 -260 sel 0;
#X obj 129 -239 random 4;
#X obj 129 -218 sel 0 1 2 3;
#X msg 129 -194 0;
#X msg 166 -194 0.25;
#X msg 212 -194 0.5;
#X msg 249 -194 1;
#X obj 129 -141 line;
#X msg 129 -165 \$1 250;
#X obj 129 -282 inlet;
#X connect 0 0 5 0;
#X connect 0 1 6 0;
#X connect 1 0 0 0;
#X connect 2 0 3 0;
#X connect 2 0 4 0;
#X connect 7 0 8 0;
#X connect 8 0 9 0;
#X connect 9 0 10 0;
#X connect 9 1 11 0;
#X connect 9 2 12 0;
#X connect 9 3 13 0;
#X connect 10 0 15 0;
#X connect 11 0 15 0;
#X connect 12 0 15 0;
#X connect 13 0 15 0;
#X connect 14 0 0 1;
#X connect 15 0 14 0;
#X connect 16 0 7 0;
#X restore 348 591 pd panner4;
#X text 255 93 rmt;
#X obj 349 373 e_pitchshift;
#X obj 549 76 sel 0;
#X msg 600 186 0;
#X obj 549 140 sel 0 1 2 3 4 5;
#X msg 579 324 pitch \$1;
#X msg 617 163 1;
#X msg 634 186 2;
#X msg 583 163 -1;
#X msg 566 186 -2;
#X msg 549 163 -3;
#X obj 549 55 mod 2;
#X obj 349 238 *~;
#X obj 367 212 lop~ 80;
#X msg 407 188 0;
#X obj 365 416 vline~;
#X obj 348 436 *~;
#X obj 367 130 t b b b b;
#X msg 366 396 1 10 \, 1 0 1000 \, 0 3000 3000;
#X obj 349 295 hip~ 10000;
#X obj 348 459 lop~ 1800;
#X obj 415 567 mod 8;
#X obj 549 119 random 6;
#X obj 641 275 int;
#X obj 468 246 int;
#X obj 554 542 int;
#X obj 600 83 r \$0-SEED-0;
#X obj 384 684 throw~ REVERB;
#X obj 415 464 r tick;
#X obj 549 6 r tick;
#X obj 415 621 hip~ 1000;
#X obj 348 621 hip~ 1000;
#X obj 579 295 - 12;
#X obj 616 296 + 12;
#X obj 206 447 line;
#X msg 206 211 1;
#X msg 241 211 0;
#X obj 206 426 pack f 5000;
#X obj 238 265 sel 1 0;
#X msg 238 286 1;
#X msg 269 286 0;
#X obj 269 354 pipe 5000;
#X msg 259 331 clear;
#X obj 238 307 t f b;
#X obj 238 379 t f f;
#X obj 237 399 switch~;
#X obj 166 162 list split 1;
#X obj 206 188 sel butterflies;
#X obj 348 566 *~;
#X msg 367 189 2;
#X obj 468 206 * 400;
#X obj 468 164 random 100;
#X obj 468 185 / 100;
#X obj 468 227 + 1;
#X obj 641 215 random 100;
#X obj 641 234 / 100;
#X obj 549 97 t b b;
#X obj 555 481 / 100;
#X obj 555 460 random 100;
#X obj 555 418 mod 128;
#X obj 555 439 sel 0;
#X obj 407 167 del 600;
#X obj 348 646 throw~ FX-RETURN-L;
#X obj 415 665 throw~ FX-RETURN-R;
#X obj 367 110 onset_energylevel 128 15;
#X obj 349 316 *~ 0.7;
#X obj 398 316 *~ 0.3;
#X obj 554 501 * 7.99;
#X obj 554 522 + 1;
#X obj 475 572 * 19050;
#X obj 475 593 + 50;
#X obj 641 254 * 24.99;
#X obj 166 141 r MIC;
#X obj 206 237 t f f;
#X obj 415 485 route butterflies;
#X obj 549 32 route butterflies;
#X obj 56 210 list split 1;
#X obj 56 189 r Sample-FX;
#X obj 96 276 spigot;
#X obj 135 236 swap 1;
#X obj 135 257 -;
#X msg 96 324 1;
#X msg 131 324 0;
#X obj 96 299 sel butterflies;
#X obj 600 6 r sample-fx-tick;
#X connect 1 0 16 0;
#X connect 1 0 0 0;
#X connect 1 0 68 0;
#X connect 2 0 23 0;
#X connect 3 0 31 0;
#X connect 3 0 35 0;
#X connect 3 1 31 0;
#X connect 3 1 34 0;
#X connect 5 0 20 0;
#X connect 6 0 60 0;
#X connect 7 0 37 0;
#X connect 8 0 14 0;
#X connect 8 1 13 0;
#X connect 8 2 12 0;
#X connect 8 3 7 0;
#X connect 8 4 10 0;
#X connect 8 5 11 0;
#X connect 9 0 5 1;
#X connect 10 0 37 0;
#X connect 11 0 37 0;
#X connect 12 0 36 0;
#X connect 13 0 36 0;
#X connect 14 0 36 0;
#X connect 15 0 6 0;
#X connect 16 0 2 0;
#X connect 17 0 16 1;
#X connect 18 0 17 0;
#X connect 19 0 20 1;
#X connect 20 0 24 0;
#X connect 21 0 55 0;
#X connect 21 1 53 0;
#X connect 21 2 65 0;
#X connect 21 3 22 0;
#X connect 22 0 19 0;
#X connect 23 0 69 0;
#X connect 23 0 70 0;
#X connect 24 0 52 0;
#X connect 25 0 3 1;
#X connect 26 0 8 0;
#X connect 27 0 36 1;
#X connect 27 0 37 1;
#X connect 28 0 2 1;
#X connect 29 0 25 1;
#X connect 30 0 26 0;
#X connect 32 0 78 0;
#X connect 33 0 79 0;
#X connect 34 0 67 0;
#X connect 35 0 66 0;
#X connect 36 0 9 0;
#X connect 37 0 9 0;
#X connect 38 0 52 1;
#X connect 39 0 77 0;
#X connect 39 0 83 0;
#X connect 40 0 77 0;
#X connect 40 0 83 0;
#X connect 41 0 38 0;
#X connect 42 0 43 0;
#X connect 42 1 44 0;
#X connect 43 0 47 0;
#X connect 44 0 45 0;
#X connect 45 0 48 0;
#X connect 46 0 45 0;
#X connect 47 0 48 0;
#X connect 47 1 46 0;
#X connect 48 0 49 0;
#X connect 50 1 51 0;
#X connect 51 0 39 0;
#X connect 51 1 40 0;
#X connect 52 0 3 0;
#X connect 53 0 17 0;
#X connect 54 0 57 0;
#X connect 55 0 56 0;
#X connect 56 0 54 0;
#X connect 57 0 28 0;
#X connect 58 0 59 0;
#X connect 59 0 75 0;
#X connect 60 0 26 0;
#X connect 60 1 58 0;
#X connect 61 0 71 0;
#X connect 61 0 73 0;
#X connect 62 0 61 0;
#X connect 63 0 64 0;
#X connect 64 0 62 0;
#X connect 65 0 18 0;
#X connect 68 0 21 0;
#X connect 69 0 5 0;
#X connect 70 0 20 0;
#X connect 71 0 72 0;
#X connect 72 0 29 0;
#X connect 73 0 74 0;
#X connect 74 0 34 1;
#X connect 74 0 35 1;
#X connect 75 0 27 0;
#X connect 76 0 50 0;
#X connect 77 0 41 0;
#X connect 77 1 42 0;
#X connect 78 0 63 0;
#X connect 78 0 25 0;
#X connect 79 0 15 0;
#X connect 80 1 82 0;
#X connect 81 0 80 0;
#X connect 82 0 87 0;
#X connect 83 0 84 0;
#X connect 83 1 84 1;
#X connect 84 0 82 1;
#X connect 85 0 77 0;
#X connect 86 0 77 0;
#X connect 87 0 85 0;
#X connect 87 1 86 0;
#X connect 88 0 79 0;
#X restore 43 292 pd butterflies;
#N canvas 103 22 799 720 uplifts 0;
#X obj 401 42 hip~ 100;
#X obj 401 63 lop~ 5000;
#X obj 401 20 catch~ uplifts;
#X obj 418 332 e_freqshift;
#X msg 492 311 freq \$1;
#X obj 401 643 e_pan;
#N canvas 708 109 139 319 clfo 0;
#X obj 24 181 * 6.2824;
#X obj 24 201 cos;
#X obj 24 281 outlet;
#X obj 24 141 mod 512;
#X obj 24 161 / 512;
#X obj 70 116 inlet;
#X obj 24 241 * 0.4;
#X obj 24 221 + 1;
#X obj 24 262 + 0.1;
#X obj 24 56 r tick;
#X obj 24 77 route uplifts;
#X connect 0 0 1 0;
#X connect 1 0 7 0;
#X connect 3 0 4 0;
#X connect 4 0 0 0;
#X connect 5 0 3 1;
#X connect 5 0 4 1;
#X connect 6 0 8 0;
#X connect 7 0 6 0;
#X connect 8 0 2 0;
#X connect 9 0 10 0;
#X connect 10 0 3 0;
#X restore 433 620 pd clfo;
#X obj 418 377 hip~ 400;
#N canvas 0 22 599 480 wql-tanh 0;
#X obj 140 70 inlet~;
#X text 392 94 __;
#X text 474 94 __;
#X text 426 94 __;
#X text 525 94 __;
#X text 392 111 1 +;
#X text 428 111 3 +;
#X text 476 111 5 +;
#X text 526 111 7 +;
#X text 342 37 As a continued fraction;
#X obj 139 153 *~;
#X obj 64 270 /~;
#X obj 64 355 /~;
#X obj 64 293 /~;
#X obj 64 326 /~;
#X text 326 83 tanh(z) = z z^2 4z^2 9z^2 ...;
#X obj 191 180 *~ 4;
#X obj 190 211 +~ 3;
#X obj 234 179 *~ 9;
#X obj 233 210 +~ 5;
#X obj 274 180 *~ 16;
#X obj 273 210 +~ 7;
#X obj 139 211 +~ 1;
#X obj 64 406 outlet~;
#X obj 64 377 *~ 576;
#X obj 140 94 *~ 0.308319;
#X text 175 119 1/pi;
#X connect 0 0 25 0;
#X connect 10 0 16 0;
#X connect 10 0 18 0;
#X connect 10 0 20 0;
#X connect 10 0 22 0;
#X connect 11 0 13 0;
#X connect 12 0 24 0;
#X connect 13 0 14 0;
#X connect 14 0 12 0;
#X connect 16 0 17 0;
#X connect 17 0 13 1;
#X connect 18 0 19 0;
#X connect 19 0 14 1;
#X connect 20 0 21 0;
#X connect 21 0 12 1;
#X connect 22 0 11 1;
#X connect 24 0 23 0;
#X connect 25 0 10 1;
#X connect 25 0 10 0;
#X connect 25 0 11 0;
#X restore 401 289 pd wql-tanh;
#X obj 401 531 clip~ -1 1;
#X obj 418 229 delread~ \$0-abc 585.5;
#X msg 260 311 1;
#X msg 295 311 0;
#X obj 260 541 line;
#X obj 260 520 pack f 5000;
#X obj 292 360 sel 1 0;
#X msg 292 381 1;
#X msg 323 381 0;
#X obj 323 449 pipe 5000;
#X msg 313 426 clear;
#X obj 292 402 t f b;
#X obj 292 474 t f f;
#X obj 292 498 switch~;
#X obj 220 269 list split 1;
#X obj 260 290 sel uplifts;
#X obj 401 610 *~;
#X obj 517 33 r tick;
#X obj 517 96 sel 0;
#X obj 517 75 mod 128;
#X obj 401 691 throw~ FX-RETURN-L;
#X obj 433 672 throw~ FX-RETURN-R;
#X obj 401 480 lop~ 3000;
#X obj 290 685 throw~ REVERB;
#X obj 418 197 + 1;
#X obj 517 118 random 100;
#X obj 517 139 / 100;
#X obj 517 160 * 400;
#X obj 418 178 * 699;
#X obj 423 503 delwrite~ \$0-abc 700;
#X obj 433 578 * 500;
#X obj 433 599 + 10;
#X obj 418 353 lop~ 3500;
#X obj 290 664 *~ 0.15;
#X obj 220 248 r MIC;
#X obj 260 338 t f f;
#X obj 517 53 route uplifts;
#X obj 88 328 list split 1;
#X obj 88 307 r Sample-FX;
#X obj 128 394 spigot;
#X obj 167 354 swap 1;
#X obj 167 375 -;
#X msg 128 442 1;
#X msg 163 442 0;
#X obj 128 417 sel uplifts;
#X obj 567 32 r sample-fx-tick;
#X connect 0 0 1 0;
#X connect 1 0 8 0;
#X connect 2 0 0 0;
#X connect 3 0 41 0;
#X connect 4 0 3 1;
#X connect 5 0 29 0;
#X connect 5 1 30 0;
#X connect 6 0 5 1;
#X connect 7 0 31 0;
#X connect 8 0 31 0;
#X connect 9 0 25 0;
#X connect 10 0 3 0;
#X connect 11 0 44 0;
#X connect 11 0 49 0;
#X connect 12 0 44 0;
#X connect 12 0 49 0;
#X connect 13 0 25 1;
#X connect 14 0 13 0;
#X connect 15 0 16 0;
#X connect 15 1 17 0;
#X connect 16 0 20 0;
#X connect 17 0 18 0;
#X connect 18 0 21 0;
#X connect 19 0 18 0;
#X connect 20 0 21 0;
#X connect 20 1 19 0;
#X connect 21 0 22 0;
#X connect 23 1 24 0;
#X connect 24 0 11 0;
#X connect 24 1 12 0;
#X connect 25 0 5 0;
#X connect 25 0 42 0;
#X connect 26 0 45 0;
#X connect 27 0 34 0;
#X connect 28 0 27 0;
#X connect 31 0 9 0;
#X connect 31 0 38 0;
#X connect 33 0 10 0;
#X connect 34 0 35 0;
#X connect 35 0 36 0;
#X connect 35 0 37 0;
#X connect 35 0 39 0;
#X connect 36 0 4 0;
#X connect 37 0 33 0;
#X connect 39 0 40 0;
#X connect 40 0 6 0;
#X connect 41 0 7 0;
#X connect 42 0 32 0;
#X connect 43 0 23 0;
#X connect 44 0 14 0;
#X connect 44 1 15 0;
#X connect 45 0 28 0;
#X connect 46 1 48 0;
#X connect 47 0 46 0;
#X connect 48 0 53 0;
#X connect 49 0 50 0;
#X connect 49 1 50 1;
#X connect 50 0 48 1;
#X connect 51 0 44 0;
#X connect 52 0 44 0;
#X connect 53 0 51 0;
#X connect 53 1 52 0;
#X connect 54 0 45 0;
#X restore 43 313 pd uplifts;
#N canvas 240 24 811 640 cave 0;
#X obj 26 70 catch~ cave;
#X obj 114 115 loadbang;
#X obj 26 170 e_reverb cave;
#X obj 246 553 throw~ FX-RETURN-L;
#X obj 312 573 throw~ FX-RETURN-R;
#X msg 170 344 freq \$1;
#X obj 60 338 noise~;
#X obj 26 413 e_reslop cave 2000;
#X obj 112 434 e_reslop cave2 2000;
#X obj 354 322 loadbang;
#X obj 346 196 / 100;
#X msg 499 181 on \$1;
#X obj 499 160 tgl 15 0 empty empty empty 17 7 0 10 -262144 -1 -1 0
1;
#X msg 346 172 3;
#X obj 261 606 throw~ REVERB;
#X obj 522 304 line;
#X msg 499 105 1;
#X msg 534 105 0;
#X obj 545 263 switch~;
#X obj 499 127 t f f f;
#X obj 522 283 pack f 2500;
#X obj 545 148 sel 1 0;
#X msg 545 169 1;
#X msg 576 169 0;
#X obj 576 240 pipe 5000;
#X msg 569 218 clear;
#X obj 545 190 t f b;
#X obj 459 60 list split 1;
#X obj 499 84 sel cave;
#X obj 246 524 *~;
#X obj 312 524 *~;
#X obj 261 588 *~ 0.2;
#X obj 348 277 + 50;
#X obj 348 256 * 7900;
#X msg 354 345 dry 0.07 \, q 6;
#X msg 114 135 amp 92 \, hall 97 \, freq 3000 \, damp 25 \, dry 10
;
#X obj 348 216 c_lfo MYLFO2 1 50 sine;
#X obj 60 359 *~ 0.125;
#X obj 459 39 r MIC;
#X connect 0 0 2 0;
#X connect 1 0 35 0;
#X connect 1 0 13 0;
#X connect 2 0 7 0;
#X connect 2 1 8 0;
#X connect 5 0 7 1;
#X connect 5 0 8 1;
#X connect 6 0 37 0;
#X connect 7 0 29 0;
#X connect 8 0 30 0;
#X connect 9 0 34 0;
#X connect 10 0 36 0;
#X connect 11 0 36 1;
#X connect 12 0 11 0;
#X connect 13 0 10 0;
#X connect 15 0 30 1;
#X connect 15 0 29 1;
#X connect 16 0 19 0;
#X connect 17 0 19 0;
#X connect 19 0 12 0;
#X connect 19 1 20 0;
#X connect 19 2 21 0;
#X connect 20 0 15 0;
#X connect 21 0 22 0;
#X connect 21 1 23 0;
#X connect 22 0 26 0;
#X connect 23 0 24 0;
#X connect 24 0 18 0;
#X connect 25 0 24 0;
#X connect 26 0 18 0;
#X connect 26 1 25 0;
#X connect 27 1 28 0;
#X connect 28 0 16 0;
#X connect 28 1 17 0;
#X connect 29 0 3 0;
#X connect 29 0 31 0;
#X connect 30 0 4 0;
#X connect 30 0 31 0;
#X connect 31 0 14 0;
#X connect 32 0 5 0;
#X connect 33 0 32 0;
#X connect 34 0 7 1;
#X connect 34 0 8 1;
#X connect 35 0 2 1;
#X connect 36 0 33 0;
#X connect 37 0 7 0;
#X connect 37 0 8 0;
#X connect 38 0 27 0;
#X restore 43 227 pd cave;
#N canvas 55 22 808 714 spacecho 0;
#X obj 236 452 +~;
#X msg 352 364 freq \$1;
#X obj 254 395 e_freqshift \$0-diff;
#X obj 352 261 / 100;
#X msg 443 223 on \$1;
#X obj 443 142 tgl 15 0 empty empty empty 17 7 0 10 -262144 -1 -1 0
1;
#X msg 352 241 3;
#X obj 254 511 line;
#X msg 443 87 1;
#X msg 478 87 0;
#X obj 443 109 t f f f;
#X obj 254 490 pack f 2500;
#X obj 489 130 sel 1 0;
#X msg 489 151 1;
#X msg 520 151 0;
#X obj 520 222 pipe 5000;
#X msg 513 200 clear;
#X obj 489 172 t f b;
#X obj 352 282 c_lfo MYLFO2 1 50 sine;
#X obj 352 303 * 24.99;
#X obj 352 324 - 12.49;
#X obj 352 344 int;
#N canvas 0 22 628 452 delay 0;
#X obj 93 172 bp~ 5400 2;
#X obj 368 175 bp~ 5400 2;
#X obj 93 149 *~ 0.4;
#X obj 368 152 *~ 0.4;
#X obj 452 41 m_bpm2ms;
#X floatatom 452 83 7 0 0 0 - - -;
#X msg 450 8 88;
#X obj 452 62 / 3;
#X obj 250 58 inlet~;
#X obj 252 389 outlet~;
#X obj 252 368 *~ 0.6;
#X obj 93 208 delwrite~ \$0-diff-l 341;
#X obj 93 232 delread~ \$0-diff-l 341;
#X obj 368 208 delwrite~ \$0-diff-r 228;
#X obj 366 239 delread~ \$0-diff-r 227;
#X obj 250 79 *~ 0.5;
#X connect 0 0 11 0;
#X connect 1 0 13 0;
#X connect 2 0 0 0;
#X connect 3 0 1 0;
#X connect 4 0 7 0;
#X connect 6 0 4 0;
#X connect 7 0 5 0;
#X connect 8 0 15 0;
#X connect 10 0 9 0;
#X connect 12 0 3 0;
#X connect 12 0 10 0;
#X connect 14 0 2 0;
#X connect 14 0 10 0;
#X connect 15 0 2 0;
#X connect 15 0 3 0;
#X connect 15 0 10 0;
#X restore 276 351 pd delay;
#X obj 403 42 list split 1;
#X obj 443 66 sel spacecho;
#X obj 352 220 loadbang;
#X obj 236 282 catch~ spacecho;
#X obj 237 613 throw~ FX-RETURN-L;
#X obj 263 633 throw~ FX-RETURN-R;
#X obj 236 559 *~;
#X obj 490 254 switch~;
#X obj 258 673 throw~ DELAY;
#X obj 258 653 *~ 0.55;
#X obj 187 452 *~ 0.3;
#X obj 236 585 bp~ 7000 4;
#X obj 254 539 * 1;
#X obj 403 21 r MIC;
#X obj 289 85 list split 1;
#X obj 289 64 r Sample-FX;
#X obj 329 151 spigot;
#X obj 368 111 swap 1;
#X obj 368 132 -;
#X msg 329 199 1;
#X msg 364 199 0;
#X obj 329 174 sel spacecho;
#X connect 0 0 29 0;
#X connect 1 0 2 1;
#X connect 2 0 0 1;
#X connect 3 0 18 0;
#X connect 4 0 18 1;
#X connect 5 0 4 0;
#X connect 6 0 3 0;
#X connect 7 0 35 0;
#X connect 8 0 10 0;
#X connect 8 0 40 0;
#X connect 9 0 10 0;
#X connect 9 0 40 0;
#X connect 10 0 5 0;
#X connect 10 1 11 0;
#X connect 10 2 12 0;
#X connect 11 0 7 0;
#X connect 12 0 13 0;
#X connect 12 1 14 0;
#X connect 13 0 17 0;
#X connect 14 0 15 0;
#X connect 15 0 30 0;
#X connect 16 0 15 0;
#X connect 17 0 30 0;
#X connect 17 1 16 0;
#X connect 18 0 19 0;
#X connect 19 0 20 0;
#X connect 20 0 21 0;
#X connect 21 0 1 0;
#X connect 22 0 0 0;
#X connect 22 0 2 0;
#X connect 22 0 33 0;
#X connect 23 1 24 0;
#X connect 24 0 8 0;
#X connect 24 1 9 0;
#X connect 25 0 6 0;
#X connect 29 0 34 0;
#X connect 32 0 31 0;
#X connect 33 0 29 0;
#X connect 34 0 27 0;
#X connect 34 0 28 0;
#X connect 35 0 29 1;
#X connect 36 0 23 0;
#X connect 37 1 39 0;
#X connect 38 0 37 0;
#X connect 39 0 44 0;
#X connect 40 0 41 0;
#X connect 40 1 41 1;
#X connect 41 0 39 1;
#X connect 42 0 10 0;
#X connect 43 0 10 0;
#X connect 44 0 42 0;
#X connect 44 1 43 0;
#X restore 43 355 pd spacecho;
#N canvas 137 84 936 630 noise-synth 0;
#X obj 155 138 mtof;
#X obj 244 141 mtof;
#X obj 335 141 mtof;
#X obj 218 70 r notes;
#X obj 218 92 unpack f f f;
#X obj 137 236 sig~;
#N canvas 0 22 817 452 notes 0;
#X msg 195 183 59 63 66;
#X msg 265 183 59 64 68;
#X obj 195 19 r tick;
#X obj 195 70 mod 128;
#X obj 195 153 sel 0 64 96 112;
#X obj 195 330 s notes;
#X msg 428 226 63 68 70;
#X obj 195 114 route 0 1;
#X obj 290 71 tgl 15 0 empty empty empty 17 7 0 10 -262144 -1 -1 0
1;
#X obj 356 206 sel 0 32 64 96;
#X msg 356 227 59 63 66;
#X msg 451 247 61 65 68;
#X msg 385 247 63 60 68;
#X obj 195 92 list prepend 0;
#X msg 336 183 62 67 71;
#X obj 195 46 spigot 0;
#X obj 107 129 loadbang;
#X obj 248 20 inlet;
#X connect 0 0 5 0;
#X connect 1 0 5 0;
#X connect 2 0 15 0;
#X connect 3 0 13 0;
#X connect 4 0 0 0;
#X connect 4 1 1 0;
#X connect 4 2 14 0;
#X connect 4 3 1 0;
#X connect 6 0 5 0;
#X connect 7 0 4 0;
#X connect 7 1 9 0;
#X connect 8 0 13 1;
#X connect 9 0 10 0;
#X connect 9 1 12 0;
#X connect 9 2 6 0;
#X connect 9 3 11 0;
#X connect 10 0 5 0;
#X connect 11 0 5 0;
#X connect 12 0 5 0;
#X connect 13 0 7 0;
#X connect 14 0 5 0;
#X connect 15 0 3 0;
#X connect 16 0 0 0;
#X connect 17 0 15 1;
#X restore 562 141 pd notes;
#N canvas 0 22 628 452 delay 0;
#X obj 93 172 bp~ 5400 2;
#X obj 368 175 bp~ 5400 2;
#X obj 452 41 m_bpm2ms;
#X floatatom 452 83 7 0 0 0 - - -;
#X msg 450 8 88;
#X obj 452 62 / 3;
#X obj 250 58 inlet~;
#X obj 252 389 outlet~;
#X obj 252 368 *~ 0.5;
#X obj 250 79 *~ 0.5;
#X obj 93 208 delwrite~ \$0-noise-l 341;
#X obj 368 208 delwrite~ \$0-noise-r 228;
#X obj 93 232 delread~ \$0-noise-l 10;
#X obj 367 239 delread~ \$0-noise-r 5;
#X obj 368 152 *~ 0.5;
#X obj 93 149 *~ 0.5;
#X connect 0 0 10 0;
#X connect 1 0 11 0;
#X connect 2 0 5 0;
#X connect 4 0 2 0;
#X connect 5 0 3 0;
#X connect 6 0 9 0;
#X connect 8 0 7 0;
#X connect 9 0 8 0;
#X connect 9 0 14 0;
#X connect 9 0 15 0;
#X connect 12 0 8 0;
#X connect 12 0 14 0;
#X connect 13 0 8 0;
#X connect 13 0 15 0;
#X connect 14 0 1 0;
#X connect 15 0 0 0;
#X restore 118 41 pd delay;
#X obj 118 63 *~ 1;
#X obj 118 499 throw~ FX-RETURN-L;
#X obj 249 480 throw~ FX-RETURN-R;
#X obj 19 447 throw~ REVERB;
#X obj 41 185 *~ 0.003;
#X obj 118 299 vcf~ 3;
#X obj 137 216 * 20;
#X obj 249 439 delwrite~ noise 15;
#X obj 249 459 delread~ noise 15;
#X obj 432 281 line;
#X msg 432 78 1;
#X msg 467 78 0;
#X obj 455 240 switch~;
#X obj 432 100 t f f f;
#X obj 432 260 pack f 2500;
#X obj 455 125 sel 1 0;
#X msg 455 146 1;
#X msg 486 146 0;
#X obj 486 217 pipe 5000;
#X msg 479 195 clear;
#X obj 455 167 t f b;
#X obj 392 33 list split 1;
#X obj 118 411 *~;
#X obj 136 391 * 20;
#X obj 432 57 sel noise-synth;
#X text 117 541 Tune to track;
#N canvas 0 22 628 452 delay 0;
#X obj 93 172 bp~ 5400 2;
#X obj 368 175 bp~ 5400 2;
#X obj 452 41 m_bpm2ms;
#X floatatom 452 83 7 0 0 0 - - -;
#X msg 450 8 88;
#X obj 452 62 / 3;
#X obj 250 58 inlet~;
#X obj 252 389 outlet~;
#X obj 252 368 *~ 0.5;
#X obj 250 79 *~ 0.5;
#X obj 93 206 delwrite~ \$0-noise2-l 341;
#X obj 93 232 delread~ \$0-noise2-l 341;
#X obj 368 208 delwrite~ \$0-noise2-r 228;
#X obj 367 240 delread~ \$0-noise2-r 227;
#X obj 371 153 *~ 0.5;
#X obj 93 149 *~ 0.5;
#X connect 0 0 10 0;
#X connect 1 0 12 0;
#X connect 2 0 5 0;
#X connect 4 0 2 0;
#X connect 5 0 3 0;
#X connect 6 0 9 0;
#X connect 8 0 7 0;
#X connect 9 0 8 0;
#X connect 9 0 14 0;
#X connect 9 0 15 0;
#X connect 11 0 8 0;
#X connect 11 0 14 0;
#X connect 13 0 8 0;
#X connect 13 0 15 0;
#X connect 14 0 1 0;
#X connect 15 0 0 0;
#X restore 118 328 pd delay;
#X obj 118 184 bp~ 100 80;
#X obj 207 184 bp~ 100 80;
#X obj 298 183 bp~ 100 80;
#X obj 118 349 limiter~;
#X obj 392 14 r MIC;
#X obj 118 15 catch~ noise-synth;
#X connect 0 0 14 0;
#X connect 0 0 35 1;
#X connect 1 0 36 1;
#X connect 2 0 37 1;
#X connect 3 0 4 0;
#X connect 4 0 0 0;
#X connect 4 1 1 0;
#X connect 4 2 2 0;
#X connect 5 0 13 1;
#X connect 7 0 8 0;
#X connect 8 0 12 0;
#X connect 8 0 35 0;
#X connect 8 0 36 0;
#X connect 8 0 37 0;
#X connect 12 0 13 0;
#X connect 14 0 5 0;
#X connect 16 0 10 0;
#X connect 17 0 31 0;
#X connect 18 0 21 0;
#X connect 19 0 21 0;
#X connect 21 0 22 0;
#X connect 21 1 23 0;
#X connect 21 2 6 0;
#X connect 22 0 17 0;
#X connect 23 0 24 0;
#X connect 23 1 25 0;
#X connect 24 0 28 0;
#X connect 25 0 26 0;
#X connect 26 0 20 0;
#X connect 27 0 26 0;
#X connect 28 0 20 0;
#X connect 28 1 27 0;
#X connect 29 1 32 0;
#X connect 30 0 9 0;
#X connect 30 0 15 0;
#X connect 30 0 11 0;
#X connect 31 0 30 1;
#X connect 32 0 18 0;
#X connect 32 1 19 0;
#X connect 34 0 38 0;
#X connect 35 0 13 0;
#X connect 36 0 13 0;
#X connect 37 0 13 0;
#X connect 38 0 30 0;
#X connect 39 0 29 0;
#X connect 40 0 7 0;
#X restore 43 334 pd noise-synth;
#N canvas 0 22 775 609 motor 0;
#X obj 388 182 vd~ stringtest 10;
#X obj 388 203 lop~ 3000;
#X obj 388 322 delwrite~ stringtest 40;
#X obj 388 98 random 39;
#X obj 388 119 + 1;
#X obj 388 161 line~;
#X msg 388 140 \$1 400;
#X obj 388 28 a_onset 128 20;
#X obj 388 78 t b;
#X obj 311 227 catch~ motor;
#X obj 311 536 throw~ FX-RETURN-L;
#X obj 420 557 throw~ FX-RETURN-R;
#X obj 311 405 *~;
#X msg 156 71 1;
#X msg 191 71 0;
#X obj 156 98 t f f;
#X obj 156 301 line;
#X obj 156 280 pack f 5000;
#X obj 188 120 sel 1 0;
#X msg 188 141 1;
#X msg 219 141 0;
#X obj 219 209 pipe 5000;
#X msg 209 186 clear;
#X obj 188 162 t f b;
#X obj 188 234 t f f;
#X obj 188 258 switch~;
#X obj 116 29 list split 1;
#X obj 156 50 sel motor;
#X obj 304 26 loadbang;
#X obj 417 508 throw~ DELAY;
#X obj 388 282 *~ 0.98;
#N canvas 500 156 450 300 monsterlop 0;
#X obj 138 260 outlet~;
#X obj 136 16 inlet~;
#X obj 138 47 lop~ \$1;
#X obj 310 17 inlet;
#X obj 138 72 lop~ \$1;
#X obj 139 97 lop~ \$1;
#X obj 138 122 lop~ \$1;
#X connect 1 0 2 0;
#X connect 2 0 4 0;
#X connect 3 0 2 1;
#X connect 3 0 4 1;
#X connect 3 0 5 1;
#X connect 3 0 6 1;
#X connect 4 0 5 0;
#X connect 5 0 6 0;
#X connect 6 0 0 0;
#X restore 388 301 pd monsterlop;
#N canvas 0 22 460 414 nofeedback-analysis 0;
#X obj 48 28 inlet~;
#X obj 48 269 max 80;
#X obj 48 103 env~ 1024;
#X obj 48 220 +;
#X obj 48 195 * 0.05;
#X obj 80 221 * 0.95;
#X obj 48 246 min 6000;
#X obj 48 357 outlet;
#X obj 48 139 clip 84 94;
#X obj 48 169 m_scale 84 94 6000 80;
#X connect 0 0 2 0;
#X connect 1 0 7 0;
#X connect 2 0 8 0;
#X connect 3 0 5 0;
#X connect 3 0 6 0;
#X connect 4 0 3 0;
#X connect 5 0 3 1;
#X connect 6 0 1 0;
#X connect 8 0 9 0;
#X connect 9 0 4 0;
#X restore 476 281 pd nofeedback-analysis;
#X obj 397 53 bng 15 250 50 0 empty empty empty 17 7 0 10 -262144 -1
-1;
#X obj 329 387 * 2;
#X obj 417 487 *~ 0.35;
#X obj 311 343 bp~ 4000 2;
#X obj 388 260 limiter~ 70 10;
#X obj 116 8 r MIC;
#X connect 0 0 1 0;
#X connect 1 0 32 0;
#X connect 1 0 36 0;
#X connect 1 0 37 0;
#X connect 3 0 4 0;
#X connect 4 0 6 0;
#X connect 5 0 0 0;
#X connect 6 0 5 0;
#X connect 7 0 8 0;
#X connect 8 0 3 0;
#X connect 9 0 2 0;
#X connect 9 0 7 0;
#X connect 12 0 10 0;
#X connect 12 0 11 0;
#X connect 13 0 15 0;
#X connect 14 0 15 0;
#X connect 15 0 17 0;
#X connect 15 1 18 0;
#X connect 16 0 34 0;
#X connect 17 0 16 0;
#X connect 18 0 19 0;
#X connect 18 1 20 0;
#X connect 19 0 23 0;
#X connect 20 0 21 0;
#X connect 21 0 24 0;
#X connect 22 0 21 0;
#X connect 23 0 24 0;
#X connect 23 1 22 0;
#X connect 24 0 25 0;
#X connect 26 1 27 0;
#X connect 27 0 13 0;
#X connect 27 1 14 0;
#X connect 28 0 8 0;
#X connect 30 0 31 0;
#X connect 31 0 2 0;
#X connect 32 0 31 1;
#X connect 33 0 8 0;
#X connect 34 0 12 1;
#X connect 35 0 29 0;
#X connect 36 0 12 0;
#X connect 37 0 30 0;
#X connect 38 0 26 0;
#X restore 43 481 pd motor;
#N canvas 187 22 903 758 cutter 0;
#X obj 279 208 e_repeater;
#X msg 292 175 num 0;
#X obj 489 97 sel 1 2 3 4 5 6 7;
#X msg 405 152 dry \$1;
#X obj 405 132 line;
#X obj 292 156 loadbang;
#X obj 406 67 swap 1;
#X obj 406 89 -;
#X msg 588 265 566.038;
#X msg 555 220 283.019;
#X msg 522 175 141.509;
#X msg 489 130 70.7547;
#X msg 572 243 424.528;
#X msg 538 198 212.264;
#X msg 505 153 106.132;
#X obj 279 646 e_pan;
#X obj 345 444 metro;
#X obj 345 485 f;
#X obj 376 485 + 1;
#X obj 345 507 mod 2;
#X msg 345 420 1;
#X msg 391 420 0;
#X obj 345 528 - 0.5;
#X obj 345 570 + 0.5;
#X obj 345 549 *;
#X obj 345 399 t b f b;
#X obj 489 299 s repeat-time;
#X obj 345 379 r repeat-time;
#X obj 346 183 r repeat-time;
#X obj 323 260 line;
#X obj 279 281 e_lop2 1000 2;
#X obj 406 112 pack f 500;
#X obj 323 133 sel 1;
#X obj 291 354 delread~ \$0-cutterdelay 566.038;
#X obj 291 311 *~ 1;
#X obj 396 259 swap 1;
#X obj 396 280 -;
#X obj 326 311 r repeat-time;
#X msg 355 215 100 1000;
#X obj 489 75 + 1;
#X obj 489 54 random 7;
#X obj 182 521 e_pitchshift;
#X msg 263 502 pitch \$1;
#X obj 263 482 f;
#X obj 181 542 lop~ 3000;
#X obj 279 626 lop~ 10000;
#X obj 291 333 delwrite~ \$0-cutterdelay 567;
#X obj 211 353 *~ 0.5;
#X obj 211 334 lop~ 800;
#N canvas 465 22 387 365 lfo 0;
#X obj 114 157 moses 100;
#X obj 124 184 swap 200;
#X obj 124 205 -;
#X obj 114 116 f;
#X obj 146 116 + 1;
#X obj 114 137 mod 200;
#X obj 114 234 / 100;
#X obj 114 255 outlet;
#X obj 114 93 inlet;
#X connect 0 0 6 0;
#X connect 0 1 1 0;
#X connect 1 0 2 0;
#X connect 1 1 2 1;
#X connect 2 0 6 0;
#X connect 3 0 4 0;
#X connect 3 0 5 0;
#X connect 4 0 3 1;
#X connect 5 0 0 0;
#X connect 6 0 7 0;
#X connect 8 0 3 0;
#X restore 391 506 pd lfo;
#X obj 345 465 t b b;
#X msg 323 235 100 \, 7000 10000;
#X obj 311 666 throw~ FX-RETURN-R;
#X obj 279 684 throw~ FX-RETURN-L;
#X obj 279 77 catch~ cutter;
#X obj 176 164 change;
#X obj 176 122 env~ 128;
#X obj 176 188 moses 1;
#X obj 176 251 pipe 10000;
#X msg 220 230 clear;
#X obj 188 209 t f b;
#X obj 389 -14 r drumbutton;
#X obj 489 34 sel 1;
#X obj 389 7 t f f b f f f;
#X obj 176 292 s drumbutton;
#X obj 98 267 swap 0;
#X obj 98 288 -;
#X obj 98 393 line;
#X obj 98 414 int;
#X obj 98 309 max 0;
#X obj 98 350 - 13;
#X obj 98 329 * 41;
#X obj 98 184 sel 1;
#X obj 98 205 random 100;
#X obj 98 226 - 50;
#X obj 98 247 / 100;
#X msg 98 372 \$1 10000;
#X obj 176 143 > 96;
#X obj 279 399 hip~ 550;
#X msg 500 441 1;
#X msg 535 441 0;
#X obj 500 671 line;
#X obj 500 650 pack f 5000;
#X obj 532 492 sel 1 0;
#X msg 532 513 1;
#X msg 563 513 0;
#X obj 563 584 pipe 5000;
#X msg 553 561 clear;
#X obj 532 534 t f b;
#X obj 532 606 t f f;
#X obj 532 630 switch~;
#X obj 460 399 list split 1;
#X obj 279 606 *~;
#X obj 460 378 r MIC;
#X obj 500 468 t f f;
#X obj 580 535 s drumbutton;
#X obj 500 420 sel cutter;
#X obj 279 421 *~ 1.5;
#X obj 232 208 *~ 0.5;
#X obj 671 511 list split 1;
#X obj 671 490 r Sample-FX;
#X obj 711 577 spigot;
#X obj 750 537 swap 1;
#X obj 750 558 -;
#X msg 711 625 1;
#X msg 746 625 0;
#X obj 711 600 sel cutter;
#X connect 0 0 30 0;
#X connect 1 0 0 1;
#X connect 2 0 11 0;
#X connect 2 1 14 0;
#X connect 2 2 10 0;
#X connect 2 3 13 0;
#X connect 2 4 9 0;
#X connect 2 5 12 0;
#X connect 2 6 8 0;
#X connect 3 0 0 1;
#X connect 4 0 3 0;
#X connect 5 0 1 0;
#X connect 6 0 7 0;
#X connect 6 1 7 1;
#X connect 7 0 31 0;
#X connect 8 0 26 0;
#X connect 9 0 26 0;
#X connect 10 0 26 0;
#X connect 11 0 26 0;
#X connect 12 0 26 0;
#X connect 13 0 26 0;
#X connect 14 0 26 0;
#X connect 15 0 53 0;
#X connect 15 1 52 0;
#X connect 16 0 43 0;
#X connect 16 0 50 0;
#X connect 17 0 18 0;
#X connect 17 0 19 0;
#X connect 18 0 17 1;
#X connect 19 0 22 0;
#X connect 20 0 16 0;
#X connect 21 0 16 0;
#X connect 21 0 17 1;
#X connect 22 0 24 0;
#X connect 23 0 15 1;
#X connect 24 0 23 0;
#X connect 25 0 20 0;
#X connect 25 1 16 1;
#X connect 25 2 21 0;
#X connect 27 0 25 0;
#X connect 28 0 0 1;
#X connect 29 0 30 1;
#X connect 30 0 34 0;
#X connect 30 0 78 0;
#X connect 31 0 4 0;
#X connect 32 0 51 0;
#X connect 32 1 38 0;
#X connect 33 0 48 0;
#X connect 34 0 46 0;
#X connect 35 0 36 0;
#X connect 35 1 36 1;
#X connect 36 0 34 1;
#X connect 37 0 33 0;
#X connect 38 0 29 0;
#X connect 39 0 2 0;
#X connect 40 0 39 0;
#X connect 41 0 44 0;
#X connect 42 0 41 1;
#X connect 43 0 42 0;
#X connect 44 0 92 0;
#X connect 45 0 15 0;
#X connect 47 0 46 0;
#X connect 47 0 78 0;
#X connect 48 0 47 0;
#X connect 49 0 24 1;
#X connect 50 0 17 0;
#X connect 50 1 49 0;
#X connect 51 0 29 0;
#X connect 54 0 56 0;
#X connect 54 0 0 0;
#X connect 54 0 98 0;
#X connect 55 0 57 0;
#X connect 56 0 77 0;
#X connect 57 0 58 0;
#X connect 57 1 60 0;
#X connect 58 0 64 0;
#X connect 59 0 58 0;
#X connect 60 0 64 0;
#X connect 60 1 59 0;
#X connect 61 0 63 0;
#X connect 62 0 40 0;
#X connect 63 1 6 0;
#X connect 63 3 62 0;
#X connect 63 4 32 0;
#X connect 63 5 35 0;
#X connect 65 0 66 0;
#X connect 65 1 66 1;
#X connect 66 0 69 0;
#X connect 67 0 68 0;
#X connect 68 0 43 1;
#X connect 69 0 71 0;
#X connect 70 0 76 0;
#X connect 71 0 70 0;
#X connect 72 0 73 0;
#X connect 73 0 74 0;
#X connect 74 0 75 0;
#X connect 75 0 65 0;
#X connect 76 0 67 0;
#X connect 77 0 55 0;
#X connect 77 0 72 0;
#X connect 78 0 97 0;
#X connect 79 0 94 0;
#X connect 79 0 102 0;
#X connect 80 0 94 0;
#X connect 80 0 102 0;
#X connect 81 0 92 1;
#X connect 82 0 81 0;
#X connect 83 0 84 0;
#X connect 83 1 85 0;
#X connect 84 0 88 0;
#X connect 85 0 86 0;
#X connect 85 0 95 0;
#X connect 86 0 89 0;
#X connect 87 0 86 0;
#X connect 88 0 89 0;
#X connect 88 1 87 0;
#X connect 89 0 90 0;
#X connect 91 1 96 0;
#X connect 92 0 45 0;
#X connect 93 0 91 0;
#X connect 94 0 82 0;
#X connect 94 1 83 0;
#X connect 96 0 79 0;
#X connect 96 1 80 0;
#X connect 97 0 41 0;
#X connect 97 0 92 0;
#X connect 98 0 30 0;
#X connect 99 1 101 0;
#X connect 100 0 99 0;
#X connect 101 0 106 0;
#X connect 102 0 103 0;
#X connect 102 1 103 1;
#X connect 103 0 101 1;
#X connect 104 0 94 0;
#X connect 105 0 94 0;
#X connect 106 0 104 0;
#X connect 106 1 105 0;
#X restore 44 523 pd cutter;
#N canvas 323 22 850 738 rhythmic 0;
#X obj 281 113 r tick;
#X obj 146 649 throw~ REVERB;
#X obj 403 340 route 0 1;
#X obj 438 232 sel 0;
#X obj 403 319 list prepend;
#X obj 140 296 hip~ 300;
#X obj 128 669 throw~ CHORUS;
#X obj 159 233 line;
#X msg 159 57 1;
#X msg 194 57 0;
#X obj 140 317 *~;
#X obj 159 212 pack f 5000;
#X obj 191 164 pipe 5000;
#X msg 200 144 clear;
#X obj 168 124 t f b;
#X obj 159 83 t f f;
#X obj 191 184 switch~;
#X obj 119 8 list split 1;
#X obj 179 355 *~ 0.3;
#X obj 202 613 throw~ FX-RETURN-L;
#X obj 288 633 throw~ FX-RETURN-R;
#X obj 146 627 *~ 0.3;
#X obj 159 34 sel rhythmic;
#X obj 140 275 catch~ rhythmic;
#X obj 119 -13 r MIC;
#X obj 281 153 route rhythmic;
#X obj 438 252 random 3;
#X obj 438 273 moses 2;
#X msg 438 294 0;
#X msg 484 294 1;
#X obj 191 103 moses 1;
#X obj 14 65 list split 1;
#X obj 14 44 r Sample-FX;
#X obj 54 131 spigot;
#X obj 93 91 swap 1;
#X obj 93 112 -;
#X msg 54 175 1;
#X msg 89 175 0;
#X obj 54 152 sel rhythmic;
#X obj 337 113 r sample-fx-tick;
#X msg 689 400 stop \, normalize;
#X msg 680 374 clear \, start;
#X obj 202 503 s_playtable;
#X msg 202 478 rhythmic-sample;
#X obj 202 578 *~ 1;
#X obj 620 338 t b b;
#X obj 623 368 del 500;
#X msg 202 454 bang;
#X obj 598 307 a_onset 1024 15;
#X obj 511 186 mod 64;
#X obj 513 215 sel 0;
#X obj 281 187 + 0;
#X obj 281 390 random 2;
#X obj 281 414 sel 0;
#X obj 281 365 sel 0;
#X obj 281 213 mod 2;
#X obj 202 548 e_pitchshift;
#X obj 307 477 - 0.5;
#X obj 307 500 * 3;
#X msg 307 522 pitch \$1;
#X obj 307 455 c_lfo MYLFO2 0.0225 50 tri;
#X obj 508 432 print new-sample-recorded;
#X obj 511 477 u_record rhythmic-sample 500;
#X connect 0 0 25 0;
#X connect 3 0 26 0;
#X connect 4 0 2 0;
#X connect 5 0 10 0;
#X connect 7 0 10 1;
#X connect 8 0 15 0;
#X connect 8 0 34 0;
#X connect 9 0 15 0;
#X connect 9 0 34 0;
#X connect 10 0 18 0;
#X connect 10 0 48 0;
#X connect 10 0 62 0;
#X connect 11 0 7 0;
#X connect 12 0 16 0;
#X connect 13 0 12 0;
#X connect 14 0 16 0;
#X connect 14 1 13 0;
#X connect 15 0 11 0;
#X connect 15 1 30 0;
#X connect 17 1 22 0;
#X connect 21 0 1 0;
#X connect 21 0 6 0;
#X connect 22 0 8 0;
#X connect 22 1 9 0;
#X connect 23 0 5 0;
#X connect 24 0 17 0;
#X connect 25 0 49 0;
#X connect 25 0 51 0;
#X connect 26 0 27 0;
#X connect 27 0 28 0;
#X connect 27 1 29 0;
#X connect 28 0 4 1;
#X connect 29 0 4 1;
#X connect 30 0 12 0;
#X connect 30 1 14 0;
#X connect 31 1 33 0;
#X connect 32 0 31 0;
#X connect 33 0 38 0;
#X connect 34 0 35 0;
#X connect 34 1 35 1;
#X connect 35 0 33 1;
#X connect 36 0 15 0;
#X connect 37 0 15 0;
#X connect 38 0 36 0;
#X connect 38 1 37 0;
#X connect 39 0 25 0;
#X connect 40 0 62 1;
#X connect 41 0 62 1;
#X connect 42 0 56 0;
#X connect 43 0 42 0;
#X connect 44 0 19 0;
#X connect 44 0 20 0;
#X connect 44 0 21 0;
#X connect 45 0 46 0;
#X connect 45 1 41 0;
#X connect 46 0 40 0;
#X connect 47 0 43 0;
#X connect 48 0 45 0;
#X connect 49 0 50 0;
#X connect 51 0 55 0;
#X connect 52 0 53 0;
#X connect 53 0 47 0;
#X connect 54 0 52 0;
#X connect 55 0 4 0;
#X connect 55 0 54 0;
#X connect 56 0 44 0;
#X connect 57 0 58 0;
#X connect 58 0 59 0;
#X connect 59 0 56 1;
#X connect 60 0 57 0;
#X restore 43 164 pd rhythmic;
#N canvas 0 22 448 713 freqmod 0;
#X obj 82 88 delwrite~ d1 100;
#X obj 108 303 +~ 1;
#X obj 108 324 *~ 0.5;
#X obj 108 366 vd~ d1;
#X obj 82 53 *~ 1;
#X obj 108 345 *~ 0.1;
#X obj 108 282 osc~ 1;
#X obj 109 175 random 50;
#X obj 109 195 + 1;
#X msg 109 219 \$1 1000;
#X obj 108 260 int;
#X obj 212 166 random 50;
#X obj 212 187 + 1;
#X msg 212 208 \$1 1000;
#X obj 212 250 int;
#X obj 212 118 a_onset 128 15;
#X obj 109 240 line;
#X obj 212 229 line;
#X obj 52 476 throw~ DELAY;
#X obj 158 397 delread~ d1 1;
#X obj 212 139 t b;
#X obj 108 544 throw~ FX-RETURN-L;
#X obj 158 565 throw~ FX-RETURN-R;
#X obj 108 506 *~ 1;
#X obj 52 455 *~ 0.35;
#X obj 158 418 *~ 0.75;
#X obj 82 17 catch~ freqmod;
#X connect 1 0 2 0;
#X connect 2 0 5 0;
#X connect 3 0 23 0;
#X connect 3 0 24 0;
#X connect 4 0 0 0;
#X connect 4 0 15 0;
#X connect 5 0 3 0;
#X connect 6 0 1 0;
#X connect 7 0 8 0;
#X connect 8 0 9 0;
#X connect 9 0 16 0;
#X connect 10 0 6 0;
#X connect 11 0 12 0;
#X connect 12 0 13 0;
#X connect 13 0 17 0;
#X connect 14 0 5 1;
#X connect 15 0 20 0;
#X connect 16 0 10 0;
#X connect 17 0 14 0;
#X connect 19 0 25 0;
#X connect 20 0 11 0;
#X connect 20 0 7 0;
#X connect 23 0 21 0;
#X connect 23 0 22 0;
#X connect 24 0 18 0;
#X connect 25 0 23 0;
#X connect 25 0 24 0;
#X connect 26 0 4 0;
#X restore 44 544 pd freqmod;
