#N canvas 0 22 450 300 10;
#X declare -path .;
#X declare -path rj;
#X declare -path utils;
#X declare -path sounds;
#X declare -path abs;
#X declare -path pd;
#N canvas 0 22 628 452 delay 0;
#X obj 93 312 throw~ LEFT;
#X obj 366 311 throw~ RIGHT;
#X obj 250 58 catch~ DELAY;
#X obj 232 373 throw~ REVERB;
#X obj 232 354 *~ 0.7;
#X obj 93 172 bp~ 5400 2;
#X obj 368 175 bp~ 5400 2;
#X obj 93 149 *~ 0.4;
#X obj 368 152 *~ 0.4;
#X obj 452 41 m_bpm2ms;
#X floatatom 452 83 7 0 0 0 - - -;
#X msg 450 8 88;
#X obj 93 208 delwrite~ \$0-dubby-l 341;
#X obj 93 232 delread~ \$0-dubby-l 341;
#X obj 368 208 delwrite~ \$0-dubby-r 228;
#X obj 366 239 delread~ \$0-dubby-r 227;
#X obj 452 62 / 3;
#X connect 2 0 7 0;
#X connect 2 0 8 0;
#X connect 4 0 3 0;
#X connect 5 0 12 0;
#X connect 6 0 14 0;
#X connect 7 0 5 0;
#X connect 8 0 6 0;
#X connect 9 0 16 0;
#X connect 11 0 9 0;
#X connect 13 0 8 0;
#X connect 13 0 0 0;
#X connect 13 0 4 0;
#X connect 15 0 7 0;
#X connect 15 0 1 0;
#X connect 15 0 4 0;
#X connect 16 0 10 0;
#X restore 74 137 pd delay;
#N canvas 0 22 588 336 reverb 0;
#X obj 118 236 throw~ LEFT;
#X obj 202 236 throw~ RIGHT;
#X obj 118 174 e_reverb;
#X obj 171 124 loadbang;
#X obj 118 49 catch~ REVERB;
#X msg 171 144 amp 95 \, hall 89 \, freq 3000 \, damp 60 \, dry 0;
#X obj 118 70 hip~ 500;
#X connect 2 0 0 0;
#X connect 2 1 1 0;
#X connect 3 0 5 0;
#X connect 4 0 6 0;
#X connect 5 0 2 1;
#X connect 6 0 2 0;
#X restore 74 116 pd reverb;
#N canvas 161 47 831 662 peow 0;
#X obj 209 27 r peow;
#X obj 209 380 line;
#X obj 177 587 throw~ LEFT;
#X obj 269 587 throw~ RIGHT;
#X obj 209 302 del 200;
#X obj 175 546 *~;
#X obj 215 633 throw~ REVERB;
#X text 61 85 rmt;
#X obj 276 259 random 10;
#X obj 209 349 list \$1 \$2;
#X msg 209 323 400;
#X msg 280 157 1;
#X obj 232 224 switch~;
#X msg 232 199 0;
#X obj 232 180 del 6500;
#X obj 209 117 t b b b;
#X msg 330 337 \$1 300;
#X obj 209 245 t b b;
#X obj 323 634 throw~ DELAY;
#X obj 255 135 t b b;
#X msg 244 158 stop;
#X obj 107 443 noise~;
#X obj 270 506 line~;
#X msg 270 484 0.05 \, 0 5000;
#X obj 330 318 + 4000;
#X obj 330 298 * 667;
#X obj 276 300 + 1800;
#X obj 276 280 * 467;
#X obj 176 484 bp~ 400 10;
#X connect 0 0 15 0;
#X connect 1 0 28 1;
#X connect 4 0 10 0;
#X connect 5 0 2 0;
#X connect 5 0 3 0;
#X connect 5 0 6 0;
#X connect 5 0 18 0;
#X connect 8 0 27 0;
#X connect 8 0 25 0;
#X connect 9 0 1 0;
#X connect 10 0 9 0;
#X connect 11 0 12 0;
#X connect 13 0 12 0;
#X connect 14 0 13 0;
#X connect 15 0 8 0;
#X connect 15 0 17 0;
#X connect 15 1 14 0;
#X connect 15 2 19 0;
#X connect 16 0 1 0;
#X connect 17 0 4 0;
#X connect 17 1 23 0;
#X connect 19 0 11 0;
#X connect 19 1 20 0;
#X connect 20 0 14 0;
#X connect 21 0 28 0;
#X connect 22 0 5 1;
#X connect 23 0 22 0;
#X connect 24 0 16 0;
#X connect 25 0 24 0;
#X connect 26 0 9 1;
#X connect 27 0 26 0;
#X connect 28 0 5 0;
#X restore 74 64 pd peow;
#N canvas 174 63 528 557 cutting 0;
#X obj 81 359 throw~ LEFT;
#X obj 167 359 throw~ RIGHT;
#X obj 82 89 r~ INPUT;
#X obj 203 27 mod 8;
#X obj 203 7 r tick;
#X obj 81 324 *~;
#X obj 203 217 0;
#X obj 99 302 lop~ 40;
#X obj 203 191 sel 0 2 4 6;
#X obj 25 395 throw~ REVERB;
#X obj 277 216 0.2;
#X obj 393 93 r cutting;
#X obj 25 373 *~ 0.2;
#X obj 203 155 route 0 1;
#X obj 306 216 0;
#X obj 380 215 0.2;
#X obj 284 81 u_wrandom;
#X obj 284 59 sel 0;
#X msg 344 60 2 1;
#X obj 344 24 loadbang;
#X obj 203 127 list prepend;
#X obj 306 190 sel 0 3 5 6;
#X obj 82 110 hip~ 300;
#X obj 81 275 *~ 0.1;
#X obj 195 444 throw~ CHORUS;
#X obj 52 444 throw~ DELAY;
#X connect 2 0 22 0;
#X connect 3 0 17 0;
#X connect 3 0 20 0;
#X connect 4 0 3 0;
#X connect 5 0 0 0;
#X connect 5 0 1 0;
#X connect 5 0 12 0;
#X connect 5 0 24 0;
#X connect 5 0 25 0;
#X connect 6 0 7 0;
#X connect 7 0 5 1;
#X connect 8 0 6 0;
#X connect 8 1 6 0;
#X connect 8 2 6 0;
#X connect 8 3 6 0;
#X connect 8 4 10 0;
#X connect 10 0 7 0;
#X connect 12 0 9 0;
#X connect 13 0 8 0;
#X connect 13 1 21 0;
#X connect 14 0 7 0;
#X connect 15 0 7 0;
#X connect 16 0 20 1;
#X connect 17 0 16 0;
#X connect 18 0 16 1;
#X connect 19 0 18 0;
#X connect 20 0 13 0;
#X connect 21 0 14 0;
#X connect 21 1 14 0;
#X connect 21 2 14 0;
#X connect 21 3 14 0;
#X connect 21 4 15 0;
#X connect 22 0 23 0;
#X connect 23 0 5 0;
#X restore 73 39 pd cutting;
#N canvas 0 22 450 300 chorus 0;
#X obj 119 130 e_chorus;
#X obj 119 98 catch~ CHORUS;
#X obj 119 151 throw~ LEFT;
#X obj 172 181 throw~ RIGHT;
#X obj 136 237 throw~ REVERB;
#X connect 0 0 2 0;
#X connect 0 0 4 0;
#X connect 0 1 3 0;
#X connect 0 1 4 0;
#X connect 1 0 0 0;
#X restore 74 157 pd chorus;
#X obj 238 73 PPC B;
#X obj 238 93 PPC C;
#X obj 238 113 PPC D;
#X obj 238 133 PPC E;
#X obj 238 153 PPC F;
#X obj 238 173 PPC G;
#X obj 309 48 declare -path .;
#X obj 309 75 declare -path rj;
#X obj 309 102 declare -path utils;
#X obj 309 128 declare -path sounds;
#X obj 309 158 declare -path abs;
#X obj 309 188 declare -path pd;
