#N canvas 590 294 398 219 10;
#X obj 56 26 r \$1;
#X obj 56 47 sel 0 1;
#X msg 86 140 1;
#X msg 56 140 0;
#X obj 86 67 t b b;
#X msg 65 94 stop;
#X obj 133 165 outlet;
#X text 190 20 Arg 1: Receive name;
#X text 190 40 Arg 2: Delay time (ms);
#X text 194 166 Outlet for fades (optional);
#X obj 56 165 outlet;
#X obj 56 115 del \$2;
#X connect 0 0 1 0;
#X connect 0 0 6 0;
#X connect 1 0 11 0;
#X connect 1 1 4 0;
#X connect 2 0 10 0;
#X connect 3 0 10 0;
#X connect 4 0 2 0;
#X connect 4 1 5 0;
#X connect 5 0 11 0;
#X connect 11 0 3 0;
